G04 #@! TF.GenerationSoftware,KiCad,Pcbnew,7.0.8*
G04 #@! TF.CreationDate,2023-11-17T17:21:29+01:00*
G04 #@! TF.ProjectId,universal12Vsupply,756e6976-6572-4736-916c-313256737570,rev?*
G04 #@! TF.SameCoordinates,Original*
G04 #@! TF.FileFunction,Legend,Bot*
G04 #@! TF.FilePolarity,Positive*
%FSLAX46Y46*%
G04 Gerber Fmt 4.6, Leading zero omitted, Abs format (unit mm)*
G04 Created by KiCad (PCBNEW 7.0.8) date 2023-11-17 17:21:29*
%MOMM*%
%LPD*%
G01*
G04 APERTURE LIST*
%ADD10C,0.300000*%
%ADD11R,2.500000X2.500000*%
%ADD12C,0.800000*%
%ADD13C,6.400000*%
%ADD14R,3.000000X3.000000*%
%ADD15C,3.000000*%
G04 APERTURE END LIST*
D10*
X115989638Y-24173558D02*
X117608685Y-24173558D01*
X117608685Y-24173558D02*
X117799161Y-24268796D01*
X117799161Y-24268796D02*
X117894400Y-24364034D01*
X117894400Y-24364034D02*
X117989638Y-24554510D01*
X117989638Y-24554510D02*
X117989638Y-24935463D01*
X117989638Y-24935463D02*
X117894400Y-25125939D01*
X117894400Y-25125939D02*
X117799161Y-25221177D01*
X117799161Y-25221177D02*
X117608685Y-25316415D01*
X117608685Y-25316415D02*
X115989638Y-25316415D01*
X116656304Y-26268796D02*
X117989638Y-26268796D01*
X116846780Y-26268796D02*
X116751542Y-26364034D01*
X116751542Y-26364034D02*
X116656304Y-26554510D01*
X116656304Y-26554510D02*
X116656304Y-26840225D01*
X116656304Y-26840225D02*
X116751542Y-27030701D01*
X116751542Y-27030701D02*
X116942019Y-27125939D01*
X116942019Y-27125939D02*
X117989638Y-27125939D01*
X117989638Y-28078320D02*
X116656304Y-28078320D01*
X115989638Y-28078320D02*
X116084876Y-27983082D01*
X116084876Y-27983082D02*
X116180114Y-28078320D01*
X116180114Y-28078320D02*
X116084876Y-28173558D01*
X116084876Y-28173558D02*
X115989638Y-28078320D01*
X115989638Y-28078320D02*
X116180114Y-28078320D01*
X116656304Y-28840225D02*
X117989638Y-29316415D01*
X117989638Y-29316415D02*
X116656304Y-29792606D01*
X117894400Y-31316416D02*
X117989638Y-31125940D01*
X117989638Y-31125940D02*
X117989638Y-30744987D01*
X117989638Y-30744987D02*
X117894400Y-30554511D01*
X117894400Y-30554511D02*
X117703923Y-30459273D01*
X117703923Y-30459273D02*
X116942019Y-30459273D01*
X116942019Y-30459273D02*
X116751542Y-30554511D01*
X116751542Y-30554511D02*
X116656304Y-30744987D01*
X116656304Y-30744987D02*
X116656304Y-31125940D01*
X116656304Y-31125940D02*
X116751542Y-31316416D01*
X116751542Y-31316416D02*
X116942019Y-31411654D01*
X116942019Y-31411654D02*
X117132495Y-31411654D01*
X117132495Y-31411654D02*
X117322971Y-30459273D01*
X117989638Y-32268797D02*
X116656304Y-32268797D01*
X117037257Y-32268797D02*
X116846780Y-32364035D01*
X116846780Y-32364035D02*
X116751542Y-32459273D01*
X116751542Y-32459273D02*
X116656304Y-32649749D01*
X116656304Y-32649749D02*
X116656304Y-32840226D01*
X117894400Y-33411654D02*
X117989638Y-33602130D01*
X117989638Y-33602130D02*
X117989638Y-33983082D01*
X117989638Y-33983082D02*
X117894400Y-34173559D01*
X117894400Y-34173559D02*
X117703923Y-34268797D01*
X117703923Y-34268797D02*
X117608685Y-34268797D01*
X117608685Y-34268797D02*
X117418209Y-34173559D01*
X117418209Y-34173559D02*
X117322971Y-33983082D01*
X117322971Y-33983082D02*
X117322971Y-33697368D01*
X117322971Y-33697368D02*
X117227733Y-33506892D01*
X117227733Y-33506892D02*
X117037257Y-33411654D01*
X117037257Y-33411654D02*
X116942019Y-33411654D01*
X116942019Y-33411654D02*
X116751542Y-33506892D01*
X116751542Y-33506892D02*
X116656304Y-33697368D01*
X116656304Y-33697368D02*
X116656304Y-33983082D01*
X116656304Y-33983082D02*
X116751542Y-34173559D01*
X117989638Y-35983083D02*
X116942019Y-35983083D01*
X116942019Y-35983083D02*
X116751542Y-35887845D01*
X116751542Y-35887845D02*
X116656304Y-35697369D01*
X116656304Y-35697369D02*
X116656304Y-35316416D01*
X116656304Y-35316416D02*
X116751542Y-35125940D01*
X117894400Y-35983083D02*
X117989638Y-35792607D01*
X117989638Y-35792607D02*
X117989638Y-35316416D01*
X117989638Y-35316416D02*
X117894400Y-35125940D01*
X117894400Y-35125940D02*
X117703923Y-35030702D01*
X117703923Y-35030702D02*
X117513447Y-35030702D01*
X117513447Y-35030702D02*
X117322971Y-35125940D01*
X117322971Y-35125940D02*
X117227733Y-35316416D01*
X117227733Y-35316416D02*
X117227733Y-35792607D01*
X117227733Y-35792607D02*
X117132495Y-35983083D01*
X117989638Y-37221178D02*
X117894400Y-37030702D01*
X117894400Y-37030702D02*
X117703923Y-36935464D01*
X117703923Y-36935464D02*
X115989638Y-36935464D01*
X117989638Y-40554512D02*
X117989638Y-39411655D01*
X117989638Y-39983083D02*
X115989638Y-39983083D01*
X115989638Y-39983083D02*
X116275352Y-39792607D01*
X116275352Y-39792607D02*
X116465828Y-39602131D01*
X116465828Y-39602131D02*
X116561066Y-39411655D01*
X116180114Y-41316417D02*
X116084876Y-41411655D01*
X116084876Y-41411655D02*
X115989638Y-41602131D01*
X115989638Y-41602131D02*
X115989638Y-42078322D01*
X115989638Y-42078322D02*
X116084876Y-42268798D01*
X116084876Y-42268798D02*
X116180114Y-42364036D01*
X116180114Y-42364036D02*
X116370590Y-42459274D01*
X116370590Y-42459274D02*
X116561066Y-42459274D01*
X116561066Y-42459274D02*
X116846780Y-42364036D01*
X116846780Y-42364036D02*
X117989638Y-41221179D01*
X117989638Y-41221179D02*
X117989638Y-42459274D01*
X115989638Y-43030703D02*
X117989638Y-43697369D01*
X117989638Y-43697369D02*
X115989638Y-44364036D01*
X117894400Y-46459275D02*
X117989638Y-46744989D01*
X117989638Y-46744989D02*
X117989638Y-47221180D01*
X117989638Y-47221180D02*
X117894400Y-47411656D01*
X117894400Y-47411656D02*
X117799161Y-47506894D01*
X117799161Y-47506894D02*
X117608685Y-47602132D01*
X117608685Y-47602132D02*
X117418209Y-47602132D01*
X117418209Y-47602132D02*
X117227733Y-47506894D01*
X117227733Y-47506894D02*
X117132495Y-47411656D01*
X117132495Y-47411656D02*
X117037257Y-47221180D01*
X117037257Y-47221180D02*
X116942019Y-46840227D01*
X116942019Y-46840227D02*
X116846780Y-46649751D01*
X116846780Y-46649751D02*
X116751542Y-46554513D01*
X116751542Y-46554513D02*
X116561066Y-46459275D01*
X116561066Y-46459275D02*
X116370590Y-46459275D01*
X116370590Y-46459275D02*
X116180114Y-46554513D01*
X116180114Y-46554513D02*
X116084876Y-46649751D01*
X116084876Y-46649751D02*
X115989638Y-46840227D01*
X115989638Y-46840227D02*
X115989638Y-47316418D01*
X115989638Y-47316418D02*
X116084876Y-47602132D01*
X116656304Y-49316418D02*
X117989638Y-49316418D01*
X116656304Y-48459275D02*
X117703923Y-48459275D01*
X117703923Y-48459275D02*
X117894400Y-48554513D01*
X117894400Y-48554513D02*
X117989638Y-48744989D01*
X117989638Y-48744989D02*
X117989638Y-49030704D01*
X117989638Y-49030704D02*
X117894400Y-49221180D01*
X117894400Y-49221180D02*
X117799161Y-49316418D01*
X116656304Y-50268799D02*
X118656304Y-50268799D01*
X116751542Y-50268799D02*
X116656304Y-50459275D01*
X116656304Y-50459275D02*
X116656304Y-50840228D01*
X116656304Y-50840228D02*
X116751542Y-51030704D01*
X116751542Y-51030704D02*
X116846780Y-51125942D01*
X116846780Y-51125942D02*
X117037257Y-51221180D01*
X117037257Y-51221180D02*
X117608685Y-51221180D01*
X117608685Y-51221180D02*
X117799161Y-51125942D01*
X117799161Y-51125942D02*
X117894400Y-51030704D01*
X117894400Y-51030704D02*
X117989638Y-50840228D01*
X117989638Y-50840228D02*
X117989638Y-50459275D01*
X117989638Y-50459275D02*
X117894400Y-50268799D01*
X116656304Y-52078323D02*
X118656304Y-52078323D01*
X116751542Y-52078323D02*
X116656304Y-52268799D01*
X116656304Y-52268799D02*
X116656304Y-52649752D01*
X116656304Y-52649752D02*
X116751542Y-52840228D01*
X116751542Y-52840228D02*
X116846780Y-52935466D01*
X116846780Y-52935466D02*
X117037257Y-53030704D01*
X117037257Y-53030704D02*
X117608685Y-53030704D01*
X117608685Y-53030704D02*
X117799161Y-52935466D01*
X117799161Y-52935466D02*
X117894400Y-52840228D01*
X117894400Y-52840228D02*
X117989638Y-52649752D01*
X117989638Y-52649752D02*
X117989638Y-52268799D01*
X117989638Y-52268799D02*
X117894400Y-52078323D01*
X117989638Y-54173561D02*
X117894400Y-53983085D01*
X117894400Y-53983085D02*
X117703923Y-53887847D01*
X117703923Y-53887847D02*
X115989638Y-53887847D01*
X116656304Y-54744990D02*
X117989638Y-55221180D01*
X116656304Y-55697371D02*
X117989638Y-55221180D01*
X117989638Y-55221180D02*
X118465828Y-55030704D01*
X118465828Y-55030704D02*
X118561066Y-54935466D01*
X118561066Y-54935466D02*
X118656304Y-54744990D01*
X121162971Y-24911653D02*
X121234400Y-24840225D01*
X121234400Y-24840225D02*
X121305828Y-24625939D01*
X121305828Y-24625939D02*
X121305828Y-24483082D01*
X121305828Y-24483082D02*
X121234400Y-24268796D01*
X121234400Y-24268796D02*
X121091542Y-24125939D01*
X121091542Y-24125939D02*
X120948685Y-24054510D01*
X120948685Y-24054510D02*
X120662971Y-23983082D01*
X120662971Y-23983082D02*
X120448685Y-23983082D01*
X120448685Y-23983082D02*
X120162971Y-24054510D01*
X120162971Y-24054510D02*
X120020114Y-24125939D01*
X120020114Y-24125939D02*
X119877257Y-24268796D01*
X119877257Y-24268796D02*
X119805828Y-24483082D01*
X119805828Y-24483082D02*
X119805828Y-24625939D01*
X119805828Y-24625939D02*
X119877257Y-24840225D01*
X119877257Y-24840225D02*
X119948685Y-24911653D01*
X121305828Y-25554510D02*
X120305828Y-25554510D01*
X119805828Y-25554510D02*
X119877257Y-25483082D01*
X119877257Y-25483082D02*
X119948685Y-25554510D01*
X119948685Y-25554510D02*
X119877257Y-25625939D01*
X119877257Y-25625939D02*
X119805828Y-25554510D01*
X119805828Y-25554510D02*
X119948685Y-25554510D01*
X121305828Y-26268796D02*
X120305828Y-26268796D01*
X120591542Y-26268796D02*
X120448685Y-26340225D01*
X120448685Y-26340225D02*
X120377257Y-26411654D01*
X120377257Y-26411654D02*
X120305828Y-26554511D01*
X120305828Y-26554511D02*
X120305828Y-26697368D01*
X121234400Y-27840225D02*
X121305828Y-27697367D01*
X121305828Y-27697367D02*
X121305828Y-27411653D01*
X121305828Y-27411653D02*
X121234400Y-27268796D01*
X121234400Y-27268796D02*
X121162971Y-27197367D01*
X121162971Y-27197367D02*
X121020114Y-27125939D01*
X121020114Y-27125939D02*
X120591542Y-27125939D01*
X120591542Y-27125939D02*
X120448685Y-27197367D01*
X120448685Y-27197367D02*
X120377257Y-27268796D01*
X120377257Y-27268796D02*
X120305828Y-27411653D01*
X120305828Y-27411653D02*
X120305828Y-27697367D01*
X120305828Y-27697367D02*
X120377257Y-27840225D01*
X120305828Y-29125939D02*
X121305828Y-29125939D01*
X120305828Y-28483081D02*
X121091542Y-28483081D01*
X121091542Y-28483081D02*
X121234400Y-28554510D01*
X121234400Y-28554510D02*
X121305828Y-28697367D01*
X121305828Y-28697367D02*
X121305828Y-28911653D01*
X121305828Y-28911653D02*
X121234400Y-29054510D01*
X121234400Y-29054510D02*
X121162971Y-29125939D01*
X121305828Y-29840224D02*
X120305828Y-29840224D01*
X119805828Y-29840224D02*
X119877257Y-29768796D01*
X119877257Y-29768796D02*
X119948685Y-29840224D01*
X119948685Y-29840224D02*
X119877257Y-29911653D01*
X119877257Y-29911653D02*
X119805828Y-29840224D01*
X119805828Y-29840224D02*
X119948685Y-29840224D01*
X120305828Y-30340225D02*
X120305828Y-30911653D01*
X119805828Y-30554510D02*
X121091542Y-30554510D01*
X121091542Y-30554510D02*
X121234400Y-30625939D01*
X121234400Y-30625939D02*
X121305828Y-30768796D01*
X121305828Y-30768796D02*
X121305828Y-30911653D01*
X121305828Y-33197368D02*
X120520114Y-33197368D01*
X120520114Y-33197368D02*
X120377257Y-33125939D01*
X120377257Y-33125939D02*
X120305828Y-32983082D01*
X120305828Y-32983082D02*
X120305828Y-32697368D01*
X120305828Y-32697368D02*
X120377257Y-32554510D01*
X121234400Y-33197368D02*
X121305828Y-33054510D01*
X121305828Y-33054510D02*
X121305828Y-32697368D01*
X121305828Y-32697368D02*
X121234400Y-32554510D01*
X121234400Y-32554510D02*
X121091542Y-32483082D01*
X121091542Y-32483082D02*
X120948685Y-32483082D01*
X120948685Y-32483082D02*
X120805828Y-32554510D01*
X120805828Y-32554510D02*
X120734400Y-32697368D01*
X120734400Y-32697368D02*
X120734400Y-33054510D01*
X120734400Y-33054510D02*
X120662971Y-33197368D01*
X120305828Y-33911653D02*
X121305828Y-33911653D01*
X120448685Y-33911653D02*
X120377257Y-33983082D01*
X120377257Y-33983082D02*
X120305828Y-34125939D01*
X120305828Y-34125939D02*
X120305828Y-34340225D01*
X120305828Y-34340225D02*
X120377257Y-34483082D01*
X120377257Y-34483082D02*
X120520114Y-34554511D01*
X120520114Y-34554511D02*
X121305828Y-34554511D01*
X121305828Y-35911654D02*
X119805828Y-35911654D01*
X121234400Y-35911654D02*
X121305828Y-35768796D01*
X121305828Y-35768796D02*
X121305828Y-35483082D01*
X121305828Y-35483082D02*
X121234400Y-35340225D01*
X121234400Y-35340225D02*
X121162971Y-35268796D01*
X121162971Y-35268796D02*
X121020114Y-35197368D01*
X121020114Y-35197368D02*
X120591542Y-35197368D01*
X120591542Y-35197368D02*
X120448685Y-35268796D01*
X120448685Y-35268796D02*
X120377257Y-35340225D01*
X120377257Y-35340225D02*
X120305828Y-35483082D01*
X120305828Y-35483082D02*
X120305828Y-35768796D01*
X120305828Y-35768796D02*
X120377257Y-35911654D01*
X121305828Y-37768796D02*
X119805828Y-37768796D01*
X119805828Y-37768796D02*
X119805828Y-38340225D01*
X119805828Y-38340225D02*
X119877257Y-38483082D01*
X119877257Y-38483082D02*
X119948685Y-38554511D01*
X119948685Y-38554511D02*
X120091542Y-38625939D01*
X120091542Y-38625939D02*
X120305828Y-38625939D01*
X120305828Y-38625939D02*
X120448685Y-38554511D01*
X120448685Y-38554511D02*
X120520114Y-38483082D01*
X120520114Y-38483082D02*
X120591542Y-38340225D01*
X120591542Y-38340225D02*
X120591542Y-37768796D01*
X121162971Y-40125939D02*
X121234400Y-40054511D01*
X121234400Y-40054511D02*
X121305828Y-39840225D01*
X121305828Y-39840225D02*
X121305828Y-39697368D01*
X121305828Y-39697368D02*
X121234400Y-39483082D01*
X121234400Y-39483082D02*
X121091542Y-39340225D01*
X121091542Y-39340225D02*
X120948685Y-39268796D01*
X120948685Y-39268796D02*
X120662971Y-39197368D01*
X120662971Y-39197368D02*
X120448685Y-39197368D01*
X120448685Y-39197368D02*
X120162971Y-39268796D01*
X120162971Y-39268796D02*
X120020114Y-39340225D01*
X120020114Y-39340225D02*
X119877257Y-39483082D01*
X119877257Y-39483082D02*
X119805828Y-39697368D01*
X119805828Y-39697368D02*
X119805828Y-39840225D01*
X119805828Y-39840225D02*
X119877257Y-40054511D01*
X119877257Y-40054511D02*
X119948685Y-40125939D01*
X120520114Y-41268796D02*
X120591542Y-41483082D01*
X120591542Y-41483082D02*
X120662971Y-41554511D01*
X120662971Y-41554511D02*
X120805828Y-41625939D01*
X120805828Y-41625939D02*
X121020114Y-41625939D01*
X121020114Y-41625939D02*
X121162971Y-41554511D01*
X121162971Y-41554511D02*
X121234400Y-41483082D01*
X121234400Y-41483082D02*
X121305828Y-41340225D01*
X121305828Y-41340225D02*
X121305828Y-40768796D01*
X121305828Y-40768796D02*
X119805828Y-40768796D01*
X119805828Y-40768796D02*
X119805828Y-41268796D01*
X119805828Y-41268796D02*
X119877257Y-41411654D01*
X119877257Y-41411654D02*
X119948685Y-41483082D01*
X119948685Y-41483082D02*
X120091542Y-41554511D01*
X120091542Y-41554511D02*
X120234400Y-41554511D01*
X120234400Y-41554511D02*
X120377257Y-41483082D01*
X120377257Y-41483082D02*
X120448685Y-41411654D01*
X120448685Y-41411654D02*
X120520114Y-41268796D01*
X120520114Y-41268796D02*
X120520114Y-40768796D01*
X121305828Y-44054511D02*
X119805828Y-44054511D01*
X121234400Y-44054511D02*
X121305828Y-43911653D01*
X121305828Y-43911653D02*
X121305828Y-43625939D01*
X121305828Y-43625939D02*
X121234400Y-43483082D01*
X121234400Y-43483082D02*
X121162971Y-43411653D01*
X121162971Y-43411653D02*
X121020114Y-43340225D01*
X121020114Y-43340225D02*
X120591542Y-43340225D01*
X120591542Y-43340225D02*
X120448685Y-43411653D01*
X120448685Y-43411653D02*
X120377257Y-43483082D01*
X120377257Y-43483082D02*
X120305828Y-43625939D01*
X120305828Y-43625939D02*
X120305828Y-43911653D01*
X120305828Y-43911653D02*
X120377257Y-44054511D01*
X121234400Y-45340225D02*
X121305828Y-45197368D01*
X121305828Y-45197368D02*
X121305828Y-44911654D01*
X121305828Y-44911654D02*
X121234400Y-44768796D01*
X121234400Y-44768796D02*
X121091542Y-44697368D01*
X121091542Y-44697368D02*
X120520114Y-44697368D01*
X120520114Y-44697368D02*
X120377257Y-44768796D01*
X120377257Y-44768796D02*
X120305828Y-44911654D01*
X120305828Y-44911654D02*
X120305828Y-45197368D01*
X120305828Y-45197368D02*
X120377257Y-45340225D01*
X120377257Y-45340225D02*
X120520114Y-45411654D01*
X120520114Y-45411654D02*
X120662971Y-45411654D01*
X120662971Y-45411654D02*
X120805828Y-44697368D01*
X121234400Y-45983082D02*
X121305828Y-46125939D01*
X121305828Y-46125939D02*
X121305828Y-46411653D01*
X121305828Y-46411653D02*
X121234400Y-46554510D01*
X121234400Y-46554510D02*
X121091542Y-46625939D01*
X121091542Y-46625939D02*
X121020114Y-46625939D01*
X121020114Y-46625939D02*
X120877257Y-46554510D01*
X120877257Y-46554510D02*
X120805828Y-46411653D01*
X120805828Y-46411653D02*
X120805828Y-46197368D01*
X120805828Y-46197368D02*
X120734400Y-46054510D01*
X120734400Y-46054510D02*
X120591542Y-45983082D01*
X120591542Y-45983082D02*
X120520114Y-45983082D01*
X120520114Y-45983082D02*
X120377257Y-46054510D01*
X120377257Y-46054510D02*
X120305828Y-46197368D01*
X120305828Y-46197368D02*
X120305828Y-46411653D01*
X120305828Y-46411653D02*
X120377257Y-46554510D01*
X121305828Y-47268796D02*
X120305828Y-47268796D01*
X119805828Y-47268796D02*
X119877257Y-47197368D01*
X119877257Y-47197368D02*
X119948685Y-47268796D01*
X119948685Y-47268796D02*
X119877257Y-47340225D01*
X119877257Y-47340225D02*
X119805828Y-47268796D01*
X119805828Y-47268796D02*
X119948685Y-47268796D01*
X120305828Y-48625940D02*
X121520114Y-48625940D01*
X121520114Y-48625940D02*
X121662971Y-48554511D01*
X121662971Y-48554511D02*
X121734400Y-48483082D01*
X121734400Y-48483082D02*
X121805828Y-48340225D01*
X121805828Y-48340225D02*
X121805828Y-48125940D01*
X121805828Y-48125940D02*
X121734400Y-47983082D01*
X121234400Y-48625940D02*
X121305828Y-48483082D01*
X121305828Y-48483082D02*
X121305828Y-48197368D01*
X121305828Y-48197368D02*
X121234400Y-48054511D01*
X121234400Y-48054511D02*
X121162971Y-47983082D01*
X121162971Y-47983082D02*
X121020114Y-47911654D01*
X121020114Y-47911654D02*
X120591542Y-47911654D01*
X120591542Y-47911654D02*
X120448685Y-47983082D01*
X120448685Y-47983082D02*
X120377257Y-48054511D01*
X120377257Y-48054511D02*
X120305828Y-48197368D01*
X120305828Y-48197368D02*
X120305828Y-48483082D01*
X120305828Y-48483082D02*
X120377257Y-48625940D01*
X120305828Y-49340225D02*
X121305828Y-49340225D01*
X120448685Y-49340225D02*
X120377257Y-49411654D01*
X120377257Y-49411654D02*
X120305828Y-49554511D01*
X120305828Y-49554511D02*
X120305828Y-49768797D01*
X120305828Y-49768797D02*
X120377257Y-49911654D01*
X120377257Y-49911654D02*
X120520114Y-49983083D01*
X120520114Y-49983083D02*
X121305828Y-49983083D01*
X121305828Y-51840225D02*
X119805828Y-51840225D01*
X120377257Y-51840225D02*
X120305828Y-51983083D01*
X120305828Y-51983083D02*
X120305828Y-52268797D01*
X120305828Y-52268797D02*
X120377257Y-52411654D01*
X120377257Y-52411654D02*
X120448685Y-52483083D01*
X120448685Y-52483083D02*
X120591542Y-52554511D01*
X120591542Y-52554511D02*
X121020114Y-52554511D01*
X121020114Y-52554511D02*
X121162971Y-52483083D01*
X121162971Y-52483083D02*
X121234400Y-52411654D01*
X121234400Y-52411654D02*
X121305828Y-52268797D01*
X121305828Y-52268797D02*
X121305828Y-51983083D01*
X121305828Y-51983083D02*
X121234400Y-51840225D01*
X120305828Y-53054511D02*
X121305828Y-53411654D01*
X120305828Y-53768797D02*
X121305828Y-53411654D01*
X121305828Y-53411654D02*
X121662971Y-53268797D01*
X121662971Y-53268797D02*
X121734400Y-53197368D01*
X121734400Y-53197368D02*
X121805828Y-53054511D01*
X121162971Y-54340225D02*
X121234400Y-54411654D01*
X121234400Y-54411654D02*
X121305828Y-54340225D01*
X121305828Y-54340225D02*
X121234400Y-54268797D01*
X121234400Y-54268797D02*
X121162971Y-54340225D01*
X121162971Y-54340225D02*
X121305828Y-54340225D01*
X120377257Y-54340225D02*
X120448685Y-54411654D01*
X120448685Y-54411654D02*
X120520114Y-54340225D01*
X120520114Y-54340225D02*
X120448685Y-54268797D01*
X120448685Y-54268797D02*
X120377257Y-54340225D01*
X120377257Y-54340225D02*
X120520114Y-54340225D01*
X122220828Y-24483082D02*
X123292257Y-24483082D01*
X123292257Y-24483082D02*
X123506542Y-24411653D01*
X123506542Y-24411653D02*
X123649400Y-24268796D01*
X123649400Y-24268796D02*
X123720828Y-24054510D01*
X123720828Y-24054510D02*
X123720828Y-23911653D01*
X123720828Y-25411653D02*
X123649400Y-25268796D01*
X123649400Y-25268796D02*
X123577971Y-25197367D01*
X123577971Y-25197367D02*
X123435114Y-25125939D01*
X123435114Y-25125939D02*
X123006542Y-25125939D01*
X123006542Y-25125939D02*
X122863685Y-25197367D01*
X122863685Y-25197367D02*
X122792257Y-25268796D01*
X122792257Y-25268796D02*
X122720828Y-25411653D01*
X122720828Y-25411653D02*
X122720828Y-25625939D01*
X122720828Y-25625939D02*
X122792257Y-25768796D01*
X122792257Y-25768796D02*
X122863685Y-25840225D01*
X122863685Y-25840225D02*
X123006542Y-25911653D01*
X123006542Y-25911653D02*
X123435114Y-25911653D01*
X123435114Y-25911653D02*
X123577971Y-25840225D01*
X123577971Y-25840225D02*
X123649400Y-25768796D01*
X123649400Y-25768796D02*
X123720828Y-25625939D01*
X123720828Y-25625939D02*
X123720828Y-25411653D01*
X123720828Y-26554510D02*
X122720828Y-26554510D01*
X123006542Y-26554510D02*
X122863685Y-26625939D01*
X122863685Y-26625939D02*
X122792257Y-26697368D01*
X122792257Y-26697368D02*
X122720828Y-26840225D01*
X122720828Y-26840225D02*
X122720828Y-26983082D01*
X122720828Y-28125939D02*
X123935114Y-28125939D01*
X123935114Y-28125939D02*
X124077971Y-28054510D01*
X124077971Y-28054510D02*
X124149400Y-27983081D01*
X124149400Y-27983081D02*
X124220828Y-27840224D01*
X124220828Y-27840224D02*
X124220828Y-27625939D01*
X124220828Y-27625939D02*
X124149400Y-27483081D01*
X123649400Y-28125939D02*
X123720828Y-27983081D01*
X123720828Y-27983081D02*
X123720828Y-27697367D01*
X123720828Y-27697367D02*
X123649400Y-27554510D01*
X123649400Y-27554510D02*
X123577971Y-27483081D01*
X123577971Y-27483081D02*
X123435114Y-27411653D01*
X123435114Y-27411653D02*
X123006542Y-27411653D01*
X123006542Y-27411653D02*
X122863685Y-27483081D01*
X122863685Y-27483081D02*
X122792257Y-27554510D01*
X122792257Y-27554510D02*
X122720828Y-27697367D01*
X122720828Y-27697367D02*
X122720828Y-27983081D01*
X122720828Y-27983081D02*
X122792257Y-28125939D01*
X123649400Y-29411653D02*
X123720828Y-29268796D01*
X123720828Y-29268796D02*
X123720828Y-28983082D01*
X123720828Y-28983082D02*
X123649400Y-28840224D01*
X123649400Y-28840224D02*
X123506542Y-28768796D01*
X123506542Y-28768796D02*
X122935114Y-28768796D01*
X122935114Y-28768796D02*
X122792257Y-28840224D01*
X122792257Y-28840224D02*
X122720828Y-28983082D01*
X122720828Y-28983082D02*
X122720828Y-29268796D01*
X122720828Y-29268796D02*
X122792257Y-29411653D01*
X122792257Y-29411653D02*
X122935114Y-29483082D01*
X122935114Y-29483082D02*
X123077971Y-29483082D01*
X123077971Y-29483082D02*
X123220828Y-28768796D01*
X123720828Y-31268795D02*
X122220828Y-31268795D01*
X122220828Y-31268795D02*
X122220828Y-31840224D01*
X122220828Y-31840224D02*
X122292257Y-31983081D01*
X122292257Y-31983081D02*
X122363685Y-32054510D01*
X122363685Y-32054510D02*
X122506542Y-32125938D01*
X122506542Y-32125938D02*
X122720828Y-32125938D01*
X122720828Y-32125938D02*
X122863685Y-32054510D01*
X122863685Y-32054510D02*
X122935114Y-31983081D01*
X122935114Y-31983081D02*
X123006542Y-31840224D01*
X123006542Y-31840224D02*
X123006542Y-31268795D01*
X123720828Y-33411653D02*
X122935114Y-33411653D01*
X122935114Y-33411653D02*
X122792257Y-33340224D01*
X122792257Y-33340224D02*
X122720828Y-33197367D01*
X122720828Y-33197367D02*
X122720828Y-32911653D01*
X122720828Y-32911653D02*
X122792257Y-32768795D01*
X123649400Y-33411653D02*
X123720828Y-33268795D01*
X123720828Y-33268795D02*
X123720828Y-32911653D01*
X123720828Y-32911653D02*
X123649400Y-32768795D01*
X123649400Y-32768795D02*
X123506542Y-32697367D01*
X123506542Y-32697367D02*
X123363685Y-32697367D01*
X123363685Y-32697367D02*
X123220828Y-32768795D01*
X123220828Y-32768795D02*
X123149400Y-32911653D01*
X123149400Y-32911653D02*
X123149400Y-33268795D01*
X123149400Y-33268795D02*
X123077971Y-33411653D01*
X123720828Y-34125938D02*
X122720828Y-34125938D01*
X122220828Y-34125938D02*
X122292257Y-34054510D01*
X122292257Y-34054510D02*
X122363685Y-34125938D01*
X122363685Y-34125938D02*
X122292257Y-34197367D01*
X122292257Y-34197367D02*
X122220828Y-34125938D01*
X122220828Y-34125938D02*
X122363685Y-34125938D01*
X123649400Y-34768796D02*
X123720828Y-34911653D01*
X123720828Y-34911653D02*
X123720828Y-35197367D01*
X123720828Y-35197367D02*
X123649400Y-35340224D01*
X123649400Y-35340224D02*
X123506542Y-35411653D01*
X123506542Y-35411653D02*
X123435114Y-35411653D01*
X123435114Y-35411653D02*
X123292257Y-35340224D01*
X123292257Y-35340224D02*
X123220828Y-35197367D01*
X123220828Y-35197367D02*
X123220828Y-34983082D01*
X123220828Y-34983082D02*
X123149400Y-34840224D01*
X123149400Y-34840224D02*
X123006542Y-34768796D01*
X123006542Y-34768796D02*
X122935114Y-34768796D01*
X122935114Y-34768796D02*
X122792257Y-34840224D01*
X122792257Y-34840224D02*
X122720828Y-34983082D01*
X122720828Y-34983082D02*
X122720828Y-35197367D01*
X122720828Y-35197367D02*
X122792257Y-35340224D01*
X126135828Y-24911653D02*
X125421542Y-24411653D01*
X126135828Y-24054510D02*
X124635828Y-24054510D01*
X124635828Y-24054510D02*
X124635828Y-24625939D01*
X124635828Y-24625939D02*
X124707257Y-24768796D01*
X124707257Y-24768796D02*
X124778685Y-24840225D01*
X124778685Y-24840225D02*
X124921542Y-24911653D01*
X124921542Y-24911653D02*
X125135828Y-24911653D01*
X125135828Y-24911653D02*
X125278685Y-24840225D01*
X125278685Y-24840225D02*
X125350114Y-24768796D01*
X125350114Y-24768796D02*
X125421542Y-24625939D01*
X125421542Y-24625939D02*
X125421542Y-24054510D01*
X126135828Y-26197368D02*
X125350114Y-26197368D01*
X125350114Y-26197368D02*
X125207257Y-26125939D01*
X125207257Y-26125939D02*
X125135828Y-25983082D01*
X125135828Y-25983082D02*
X125135828Y-25697368D01*
X125135828Y-25697368D02*
X125207257Y-25554510D01*
X126064400Y-26197368D02*
X126135828Y-26054510D01*
X126135828Y-26054510D02*
X126135828Y-25697368D01*
X126135828Y-25697368D02*
X126064400Y-25554510D01*
X126064400Y-25554510D02*
X125921542Y-25483082D01*
X125921542Y-25483082D02*
X125778685Y-25483082D01*
X125778685Y-25483082D02*
X125635828Y-25554510D01*
X125635828Y-25554510D02*
X125564400Y-25697368D01*
X125564400Y-25697368D02*
X125564400Y-26054510D01*
X125564400Y-26054510D02*
X125492971Y-26197368D01*
X125135828Y-26911653D02*
X126135828Y-26911653D01*
X125278685Y-26911653D02*
X125207257Y-26983082D01*
X125207257Y-26983082D02*
X125135828Y-27125939D01*
X125135828Y-27125939D02*
X125135828Y-27340225D01*
X125135828Y-27340225D02*
X125207257Y-27483082D01*
X125207257Y-27483082D02*
X125350114Y-27554511D01*
X125350114Y-27554511D02*
X126135828Y-27554511D01*
X126135828Y-28483082D02*
X126064400Y-28340225D01*
X126064400Y-28340225D02*
X125921542Y-28268796D01*
X125921542Y-28268796D02*
X124635828Y-28268796D01*
X126135828Y-29054510D02*
X125135828Y-29054510D01*
X124635828Y-29054510D02*
X124707257Y-28983082D01*
X124707257Y-28983082D02*
X124778685Y-29054510D01*
X124778685Y-29054510D02*
X124707257Y-29125939D01*
X124707257Y-29125939D02*
X124635828Y-29054510D01*
X124635828Y-29054510D02*
X124778685Y-29054510D01*
X125135828Y-29768796D02*
X126135828Y-29768796D01*
X125278685Y-29768796D02*
X125207257Y-29840225D01*
X125207257Y-29840225D02*
X125135828Y-29983082D01*
X125135828Y-29983082D02*
X125135828Y-30197368D01*
X125135828Y-30197368D02*
X125207257Y-30340225D01*
X125207257Y-30340225D02*
X125350114Y-30411654D01*
X125350114Y-30411654D02*
X126135828Y-30411654D01*
X126135828Y-32268796D02*
X124635828Y-32268796D01*
X125350114Y-32268796D02*
X125350114Y-33125939D01*
X126135828Y-33125939D02*
X124635828Y-33125939D01*
X125135828Y-34483083D02*
X126135828Y-34483083D01*
X125135828Y-33840225D02*
X125921542Y-33840225D01*
X125921542Y-33840225D02*
X126064400Y-33911654D01*
X126064400Y-33911654D02*
X126135828Y-34054511D01*
X126135828Y-34054511D02*
X126135828Y-34268797D01*
X126135828Y-34268797D02*
X126064400Y-34411654D01*
X126064400Y-34411654D02*
X125992971Y-34483083D01*
X126135828Y-35840226D02*
X125350114Y-35840226D01*
X125350114Y-35840226D02*
X125207257Y-35768797D01*
X125207257Y-35768797D02*
X125135828Y-35625940D01*
X125135828Y-35625940D02*
X125135828Y-35340226D01*
X125135828Y-35340226D02*
X125207257Y-35197368D01*
X126064400Y-35840226D02*
X126135828Y-35697368D01*
X126135828Y-35697368D02*
X126135828Y-35340226D01*
X126135828Y-35340226D02*
X126064400Y-35197368D01*
X126064400Y-35197368D02*
X125921542Y-35125940D01*
X125921542Y-35125940D02*
X125778685Y-35125940D01*
X125778685Y-35125940D02*
X125635828Y-35197368D01*
X125635828Y-35197368D02*
X125564400Y-35340226D01*
X125564400Y-35340226D02*
X125564400Y-35697368D01*
X125564400Y-35697368D02*
X125492971Y-35840226D01*
X125135828Y-36554511D02*
X126135828Y-36554511D01*
X125278685Y-36554511D02*
X125207257Y-36625940D01*
X125207257Y-36625940D02*
X125135828Y-36768797D01*
X125135828Y-36768797D02*
X125135828Y-36983083D01*
X125135828Y-36983083D02*
X125207257Y-37125940D01*
X125207257Y-37125940D02*
X125350114Y-37197369D01*
X125350114Y-37197369D02*
X126135828Y-37197369D01*
X125135828Y-38554512D02*
X126350114Y-38554512D01*
X126350114Y-38554512D02*
X126492971Y-38483083D01*
X126492971Y-38483083D02*
X126564400Y-38411654D01*
X126564400Y-38411654D02*
X126635828Y-38268797D01*
X126635828Y-38268797D02*
X126635828Y-38054512D01*
X126635828Y-38054512D02*
X126564400Y-37911654D01*
X126064400Y-38554512D02*
X126135828Y-38411654D01*
X126135828Y-38411654D02*
X126135828Y-38125940D01*
X126135828Y-38125940D02*
X126064400Y-37983083D01*
X126064400Y-37983083D02*
X125992971Y-37911654D01*
X125992971Y-37911654D02*
X125850114Y-37840226D01*
X125850114Y-37840226D02*
X125421542Y-37840226D01*
X125421542Y-37840226D02*
X125278685Y-37911654D01*
X125278685Y-37911654D02*
X125207257Y-37983083D01*
X125207257Y-37983083D02*
X125135828Y-38125940D01*
X125135828Y-38125940D02*
X125135828Y-38411654D01*
X125135828Y-38411654D02*
X125207257Y-38554512D01*
X128479400Y-23983082D02*
X128550828Y-24197368D01*
X128550828Y-24197368D02*
X128550828Y-24554510D01*
X128550828Y-24554510D02*
X128479400Y-24697368D01*
X128479400Y-24697368D02*
X128407971Y-24768796D01*
X128407971Y-24768796D02*
X128265114Y-24840225D01*
X128265114Y-24840225D02*
X128122257Y-24840225D01*
X128122257Y-24840225D02*
X127979400Y-24768796D01*
X127979400Y-24768796D02*
X127907971Y-24697368D01*
X127907971Y-24697368D02*
X127836542Y-24554510D01*
X127836542Y-24554510D02*
X127765114Y-24268796D01*
X127765114Y-24268796D02*
X127693685Y-24125939D01*
X127693685Y-24125939D02*
X127622257Y-24054510D01*
X127622257Y-24054510D02*
X127479400Y-23983082D01*
X127479400Y-23983082D02*
X127336542Y-23983082D01*
X127336542Y-23983082D02*
X127193685Y-24054510D01*
X127193685Y-24054510D02*
X127122257Y-24125939D01*
X127122257Y-24125939D02*
X127050828Y-24268796D01*
X127050828Y-24268796D02*
X127050828Y-24625939D01*
X127050828Y-24625939D02*
X127122257Y-24840225D01*
X128550828Y-26125939D02*
X127765114Y-26125939D01*
X127765114Y-26125939D02*
X127622257Y-26054510D01*
X127622257Y-26054510D02*
X127550828Y-25911653D01*
X127550828Y-25911653D02*
X127550828Y-25625939D01*
X127550828Y-25625939D02*
X127622257Y-25483081D01*
X128479400Y-26125939D02*
X128550828Y-25983081D01*
X128550828Y-25983081D02*
X128550828Y-25625939D01*
X128550828Y-25625939D02*
X128479400Y-25483081D01*
X128479400Y-25483081D02*
X128336542Y-25411653D01*
X128336542Y-25411653D02*
X128193685Y-25411653D01*
X128193685Y-25411653D02*
X128050828Y-25483081D01*
X128050828Y-25483081D02*
X127979400Y-25625939D01*
X127979400Y-25625939D02*
X127979400Y-25983081D01*
X127979400Y-25983081D02*
X127907971Y-26125939D01*
X128550828Y-26840224D02*
X127550828Y-26840224D01*
X127693685Y-26840224D02*
X127622257Y-26911653D01*
X127622257Y-26911653D02*
X127550828Y-27054510D01*
X127550828Y-27054510D02*
X127550828Y-27268796D01*
X127550828Y-27268796D02*
X127622257Y-27411653D01*
X127622257Y-27411653D02*
X127765114Y-27483082D01*
X127765114Y-27483082D02*
X128550828Y-27483082D01*
X127765114Y-27483082D02*
X127622257Y-27554510D01*
X127622257Y-27554510D02*
X127550828Y-27697367D01*
X127550828Y-27697367D02*
X127550828Y-27911653D01*
X127550828Y-27911653D02*
X127622257Y-28054510D01*
X127622257Y-28054510D02*
X127765114Y-28125939D01*
X127765114Y-28125939D02*
X128550828Y-28125939D01*
X128550828Y-28840224D02*
X127550828Y-28840224D01*
X127836542Y-28840224D02*
X127693685Y-28911653D01*
X127693685Y-28911653D02*
X127622257Y-28983082D01*
X127622257Y-28983082D02*
X127550828Y-29125939D01*
X127550828Y-29125939D02*
X127550828Y-29268796D01*
X128550828Y-29768795D02*
X127550828Y-29768795D01*
X127050828Y-29768795D02*
X127122257Y-29697367D01*
X127122257Y-29697367D02*
X127193685Y-29768795D01*
X127193685Y-29768795D02*
X127122257Y-29840224D01*
X127122257Y-29840224D02*
X127050828Y-29768795D01*
X127050828Y-29768795D02*
X127193685Y-29768795D01*
X128550828Y-31125939D02*
X127050828Y-31125939D01*
X128479400Y-31125939D02*
X128550828Y-30983081D01*
X128550828Y-30983081D02*
X128550828Y-30697367D01*
X128550828Y-30697367D02*
X128479400Y-30554510D01*
X128479400Y-30554510D02*
X128407971Y-30483081D01*
X128407971Y-30483081D02*
X128265114Y-30411653D01*
X128265114Y-30411653D02*
X127836542Y-30411653D01*
X127836542Y-30411653D02*
X127693685Y-30483081D01*
X127693685Y-30483081D02*
X127622257Y-30554510D01*
X127622257Y-30554510D02*
X127550828Y-30697367D01*
X127550828Y-30697367D02*
X127550828Y-30983081D01*
X127550828Y-30983081D02*
X127622257Y-31125939D01*
X128550828Y-32483082D02*
X127050828Y-32483082D01*
X128479400Y-32483082D02*
X128550828Y-32340224D01*
X128550828Y-32340224D02*
X128550828Y-32054510D01*
X128550828Y-32054510D02*
X128479400Y-31911653D01*
X128479400Y-31911653D02*
X128407971Y-31840224D01*
X128407971Y-31840224D02*
X128265114Y-31768796D01*
X128265114Y-31768796D02*
X127836542Y-31768796D01*
X127836542Y-31768796D02*
X127693685Y-31840224D01*
X127693685Y-31840224D02*
X127622257Y-31911653D01*
X127622257Y-31911653D02*
X127550828Y-32054510D01*
X127550828Y-32054510D02*
X127550828Y-32340224D01*
X127550828Y-32340224D02*
X127622257Y-32483082D01*
X128550828Y-33197367D02*
X127050828Y-33197367D01*
X128550828Y-33840225D02*
X127765114Y-33840225D01*
X127765114Y-33840225D02*
X127622257Y-33768796D01*
X127622257Y-33768796D02*
X127550828Y-33625939D01*
X127550828Y-33625939D02*
X127550828Y-33411653D01*
X127550828Y-33411653D02*
X127622257Y-33268796D01*
X127622257Y-33268796D02*
X127693685Y-33197367D01*
X128550828Y-35197368D02*
X127765114Y-35197368D01*
X127765114Y-35197368D02*
X127622257Y-35125939D01*
X127622257Y-35125939D02*
X127550828Y-34983082D01*
X127550828Y-34983082D02*
X127550828Y-34697368D01*
X127550828Y-34697368D02*
X127622257Y-34554510D01*
X128479400Y-35197368D02*
X128550828Y-35054510D01*
X128550828Y-35054510D02*
X128550828Y-34697368D01*
X128550828Y-34697368D02*
X128479400Y-34554510D01*
X128479400Y-34554510D02*
X128336542Y-34483082D01*
X128336542Y-34483082D02*
X128193685Y-34483082D01*
X128193685Y-34483082D02*
X128050828Y-34554510D01*
X128050828Y-34554510D02*
X127979400Y-34697368D01*
X127979400Y-34697368D02*
X127979400Y-35054510D01*
X127979400Y-35054510D02*
X127907971Y-35197368D01*
X128550828Y-37911653D02*
X127836542Y-37411653D01*
X128550828Y-37054510D02*
X127050828Y-37054510D01*
X127050828Y-37054510D02*
X127050828Y-37625939D01*
X127050828Y-37625939D02*
X127122257Y-37768796D01*
X127122257Y-37768796D02*
X127193685Y-37840225D01*
X127193685Y-37840225D02*
X127336542Y-37911653D01*
X127336542Y-37911653D02*
X127550828Y-37911653D01*
X127550828Y-37911653D02*
X127693685Y-37840225D01*
X127693685Y-37840225D02*
X127765114Y-37768796D01*
X127765114Y-37768796D02*
X127836542Y-37625939D01*
X127836542Y-37625939D02*
X127836542Y-37054510D01*
X128550828Y-39197368D02*
X127765114Y-39197368D01*
X127765114Y-39197368D02*
X127622257Y-39125939D01*
X127622257Y-39125939D02*
X127550828Y-38983082D01*
X127550828Y-38983082D02*
X127550828Y-38697368D01*
X127550828Y-38697368D02*
X127622257Y-38554510D01*
X128479400Y-39197368D02*
X128550828Y-39054510D01*
X128550828Y-39054510D02*
X128550828Y-38697368D01*
X128550828Y-38697368D02*
X128479400Y-38554510D01*
X128479400Y-38554510D02*
X128336542Y-38483082D01*
X128336542Y-38483082D02*
X128193685Y-38483082D01*
X128193685Y-38483082D02*
X128050828Y-38554510D01*
X128050828Y-38554510D02*
X127979400Y-38697368D01*
X127979400Y-38697368D02*
X127979400Y-39054510D01*
X127979400Y-39054510D02*
X127907971Y-39197368D01*
X127550828Y-39768796D02*
X128550828Y-40125939D01*
X127550828Y-40483082D02*
X128550828Y-40125939D01*
X128550828Y-40125939D02*
X128907971Y-39983082D01*
X128907971Y-39983082D02*
X128979400Y-39911653D01*
X128979400Y-39911653D02*
X129050828Y-39768796D01*
G36*
X61109477Y-59278758D02*
G01*
X61109477Y-59735294D01*
X61835784Y-59735294D01*
X62562091Y-59735294D01*
X62562091Y-59901307D01*
X62562091Y-60067320D01*
X61690523Y-60067320D01*
X60818954Y-60067320D01*
X60818954Y-59444771D01*
X60818954Y-58822222D01*
X60964216Y-58822222D01*
X61109477Y-58822222D01*
X61109477Y-59278758D01*
G37*
G36*
X62562091Y-61789706D02*
G01*
X62562091Y-62516013D01*
X62416830Y-62516013D01*
X62271569Y-62516013D01*
X62271569Y-62246242D01*
X62271569Y-61976471D01*
X61545261Y-61976471D01*
X60818954Y-61976471D01*
X60818954Y-61810458D01*
X60818954Y-61644445D01*
X61545261Y-61644445D01*
X62271569Y-61644445D01*
X62271569Y-61353922D01*
X62271569Y-61063399D01*
X62416830Y-61063399D01*
X62562091Y-61063399D01*
X62562091Y-61789706D01*
G37*
G36*
X62562091Y-50707224D02*
G01*
X62562091Y-50851376D01*
X61952133Y-50862861D01*
X61342175Y-50874347D01*
X61951608Y-51247876D01*
X62561040Y-51621405D01*
X62561566Y-51797794D01*
X62562091Y-51974183D01*
X61690523Y-51974183D01*
X60818954Y-51974183D01*
X60818954Y-51830031D01*
X60818954Y-51685879D01*
X61428913Y-51674394D01*
X62038871Y-51662909D01*
X61429438Y-51289379D01*
X60820005Y-50915850D01*
X60819480Y-50739461D01*
X60818954Y-50563072D01*
X61690523Y-50563072D01*
X62562091Y-50563072D01*
X62562091Y-50707224D01*
G37*
G36*
X61109477Y-57763889D02*
G01*
X61109477Y-58241177D01*
X61337745Y-58241177D01*
X61566013Y-58241177D01*
X61566013Y-57805392D01*
X61566013Y-57369608D01*
X61690523Y-57369608D01*
X61815033Y-57369608D01*
X61815033Y-57805392D01*
X61815033Y-58241177D01*
X62043301Y-58241177D01*
X62271569Y-58241177D01*
X62271569Y-57763889D01*
X62271569Y-57286602D01*
X62416830Y-57286602D01*
X62562091Y-57286602D01*
X62562091Y-57929902D01*
X62562091Y-58573203D01*
X61690523Y-58573203D01*
X60818954Y-58573203D01*
X60818954Y-57929902D01*
X60818954Y-57286602D01*
X60964216Y-57286602D01*
X61109477Y-57286602D01*
X61109477Y-57763889D01*
G37*
G36*
X61109477Y-52783497D02*
G01*
X61109477Y-53260785D01*
X61337745Y-53260785D01*
X61566013Y-53260785D01*
X61566013Y-52825000D01*
X61566013Y-52389216D01*
X61690523Y-52389216D01*
X61815033Y-52389216D01*
X61815033Y-52825000D01*
X61815033Y-53260785D01*
X62043301Y-53260785D01*
X62271569Y-53260785D01*
X62271569Y-52783497D01*
X62271569Y-52306209D01*
X62416830Y-52306209D01*
X62562091Y-52306209D01*
X62562091Y-52949510D01*
X62562091Y-53592811D01*
X61690523Y-53592811D01*
X60818954Y-53592811D01*
X60818954Y-52949510D01*
X60818954Y-52306209D01*
X60964216Y-52306209D01*
X61109477Y-52306209D01*
X61109477Y-52783497D01*
G37*
G36*
X62515396Y-53802805D02*
G01*
X62549962Y-53848306D01*
X62562091Y-53964991D01*
X62562091Y-54129656D01*
X61949918Y-54323785D01*
X61832576Y-54361353D01*
X61632251Y-54427264D01*
X61467624Y-54483728D01*
X61353224Y-54525701D01*
X61303579Y-54548140D01*
X61302782Y-54548884D01*
X61314543Y-54578399D01*
X61386585Y-54607091D01*
X61394100Y-54608992D01*
X61486939Y-54635169D01*
X61637074Y-54679887D01*
X61825428Y-54737395D01*
X62032925Y-54801943D01*
X62562091Y-54968068D01*
X62562091Y-55148785D01*
X62562091Y-55329501D01*
X61688423Y-55037926D01*
X60814755Y-54746352D01*
X60827231Y-54556896D01*
X60839706Y-54367440D01*
X61649020Y-54086075D01*
X61711019Y-54064567D01*
X61952251Y-53981785D01*
X62165320Y-53910063D01*
X62337692Y-53853527D01*
X62456833Y-53816303D01*
X62510212Y-53802519D01*
X62515396Y-53802805D01*
G37*
G36*
X62562091Y-44229274D02*
G01*
X62562091Y-44452992D01*
X61922476Y-44674985D01*
X61771078Y-44728470D01*
X61579307Y-44799327D01*
X61428384Y-44858888D01*
X61330922Y-44902111D01*
X61299535Y-44923956D01*
X61333559Y-44947077D01*
X61416526Y-44976113D01*
X61424208Y-44978170D01*
X61511032Y-45005742D01*
X61654574Y-45054873D01*
X61836747Y-45119276D01*
X62039467Y-45192665D01*
X62562091Y-45384039D01*
X62562091Y-45607869D01*
X62562091Y-45831700D01*
X61690523Y-45831700D01*
X60818954Y-45831700D01*
X60818954Y-45686438D01*
X60818954Y-45541177D01*
X61451879Y-45538589D01*
X62084804Y-45536001D01*
X61451879Y-45300741D01*
X60818954Y-45065481D01*
X60818954Y-44918628D01*
X60818954Y-44771774D01*
X61451879Y-44536514D01*
X62084804Y-44301254D01*
X61451879Y-44298666D01*
X60818954Y-44296079D01*
X60818954Y-44150817D01*
X60818954Y-44005556D01*
X61690523Y-44005556D01*
X62562091Y-44005556D01*
X62562091Y-44229274D01*
G37*
G36*
X62099408Y-63430082D02*
G01*
X62223968Y-63443042D01*
X62314877Y-63479501D01*
X62405799Y-63550087D01*
X62541340Y-63671088D01*
X62554931Y-64234891D01*
X62568523Y-64798693D01*
X62313072Y-64798693D01*
X61693739Y-64798693D01*
X60818954Y-64798693D01*
X60818954Y-64632680D01*
X60818954Y-64466667D01*
X61146974Y-64466667D01*
X61474994Y-64466667D01*
X61732026Y-64466667D01*
X62022549Y-64466667D01*
X62313072Y-64466667D01*
X62312460Y-64228023D01*
X62308250Y-64129107D01*
X62288999Y-63985238D01*
X62259542Y-63885621D01*
X62217393Y-63828541D01*
X62109266Y-63769540D01*
X61982115Y-63763835D01*
X61863416Y-63810180D01*
X61780645Y-63907331D01*
X61763778Y-63958474D01*
X61740968Y-64090328D01*
X61732026Y-64240352D01*
X61732026Y-64466667D01*
X61474994Y-64466667D01*
X61489376Y-64068931D01*
X61491178Y-64019830D01*
X61499324Y-63850787D01*
X61512321Y-63739668D01*
X61536058Y-63666102D01*
X61576421Y-63609717D01*
X61639299Y-63550140D01*
X61682868Y-63513056D01*
X61769576Y-63459318D01*
X61871584Y-63434871D01*
X62022549Y-63429085D01*
X62099408Y-63430082D01*
G37*
G36*
X62099408Y-42263416D02*
G01*
X62223968Y-42276375D01*
X62314877Y-42312834D01*
X62405799Y-42383420D01*
X62541340Y-42504421D01*
X62554931Y-43068224D01*
X62568523Y-43632026D01*
X62313072Y-43632026D01*
X61693739Y-43632026D01*
X60818954Y-43632026D01*
X60818954Y-43466013D01*
X60818954Y-43300000D01*
X61146974Y-43300000D01*
X61474994Y-43300000D01*
X61732026Y-43300000D01*
X62022549Y-43300000D01*
X62313072Y-43300000D01*
X62312460Y-43061356D01*
X62308250Y-42962440D01*
X62288999Y-42818571D01*
X62259542Y-42718954D01*
X62217393Y-42661875D01*
X62109266Y-42602874D01*
X61982115Y-42597169D01*
X61863416Y-42643514D01*
X61780645Y-42740664D01*
X61763778Y-42791807D01*
X61740968Y-42923661D01*
X61732026Y-43073685D01*
X61732026Y-43300000D01*
X61474994Y-43300000D01*
X61489376Y-42902264D01*
X61491178Y-42853164D01*
X61499324Y-42684120D01*
X61512321Y-42573002D01*
X61536058Y-42499436D01*
X61576421Y-42443050D01*
X61639299Y-42383473D01*
X61682868Y-42346390D01*
X61769576Y-42292651D01*
X61871584Y-42268205D01*
X62022549Y-42262419D01*
X62099408Y-42263416D01*
G37*
G36*
X62562091Y-65330940D02*
G01*
X62562091Y-65496799D01*
X61922055Y-65510900D01*
X61801139Y-65513660D01*
X61589485Y-65519885D01*
X61439911Y-65528140D01*
X61338046Y-65540635D01*
X61269519Y-65559575D01*
X61219959Y-65587166D01*
X61174996Y-65625617D01*
X61099316Y-65732734D01*
X61062381Y-65891401D01*
X61085802Y-66053933D01*
X61169846Y-66190939D01*
X61197297Y-66217389D01*
X61239381Y-66248471D01*
X61293745Y-66269577D01*
X61374534Y-66282635D01*
X61495894Y-66289574D01*
X61671969Y-66292323D01*
X61916904Y-66292811D01*
X62562091Y-66292811D01*
X62562091Y-66458824D01*
X62562091Y-66624837D01*
X61893936Y-66624837D01*
X61656948Y-66623152D01*
X61411345Y-66614121D01*
X61227112Y-66594252D01*
X61092075Y-66560178D01*
X60994060Y-66508532D01*
X60920891Y-66435949D01*
X60860396Y-66339061D01*
X60837364Y-66288147D01*
X60790513Y-66098826D01*
X60777645Y-65882115D01*
X60798989Y-65672284D01*
X60854776Y-65503601D01*
X60903930Y-65420818D01*
X60975628Y-65336312D01*
X61067487Y-65274750D01*
X61192064Y-65232186D01*
X61361914Y-65204675D01*
X61589595Y-65188271D01*
X61887663Y-65179027D01*
X62562091Y-65165081D01*
X62562091Y-65330940D01*
G37*
G36*
X62562091Y-55702182D02*
G01*
X62562091Y-55868041D01*
X61922055Y-55882141D01*
X61801139Y-55884902D01*
X61589485Y-55891126D01*
X61439911Y-55899382D01*
X61338046Y-55911877D01*
X61269519Y-55930816D01*
X61219959Y-55958408D01*
X61174996Y-55996859D01*
X61099316Y-56103976D01*
X61062381Y-56262642D01*
X61085802Y-56425175D01*
X61169846Y-56562181D01*
X61197297Y-56588631D01*
X61239381Y-56619713D01*
X61293745Y-56640819D01*
X61374534Y-56653877D01*
X61495894Y-56660816D01*
X61671969Y-56663565D01*
X61916904Y-56664053D01*
X62562091Y-56664053D01*
X62562091Y-56830066D01*
X62562091Y-56996079D01*
X61893936Y-56996079D01*
X61656948Y-56994393D01*
X61411345Y-56985363D01*
X61227112Y-56965494D01*
X61092075Y-56931420D01*
X60994060Y-56879774D01*
X60920891Y-56807190D01*
X60860396Y-56710303D01*
X60837364Y-56659388D01*
X60790513Y-56470068D01*
X60777645Y-56253357D01*
X60798989Y-56043526D01*
X60854776Y-55874843D01*
X60903930Y-55792060D01*
X60975628Y-55707554D01*
X61067487Y-55645992D01*
X61192064Y-55603428D01*
X61361914Y-55575917D01*
X61589595Y-55559513D01*
X61887663Y-55550269D01*
X62562091Y-55536323D01*
X62562091Y-55702182D01*
G37*
G36*
X62562091Y-40636495D02*
G01*
X62562091Y-40802354D01*
X61922055Y-40816455D01*
X61801139Y-40819216D01*
X61589485Y-40825440D01*
X61439911Y-40833696D01*
X61338046Y-40846190D01*
X61269519Y-40865130D01*
X61219959Y-40892722D01*
X61174996Y-40931173D01*
X61099316Y-41038290D01*
X61062381Y-41196956D01*
X61085802Y-41359489D01*
X61169846Y-41496495D01*
X61197297Y-41522944D01*
X61239381Y-41554027D01*
X61293745Y-41575133D01*
X61374534Y-41588191D01*
X61495894Y-41595130D01*
X61671969Y-41597879D01*
X61916904Y-41598366D01*
X62562091Y-41598366D01*
X62562091Y-41764379D01*
X62562091Y-41930392D01*
X61893936Y-41930392D01*
X61656948Y-41928707D01*
X61411345Y-41919677D01*
X61227112Y-41899808D01*
X61092075Y-41865733D01*
X60994060Y-41814088D01*
X60920891Y-41741504D01*
X60860396Y-41644617D01*
X60837364Y-41593702D01*
X60790513Y-41404382D01*
X60777645Y-41187671D01*
X60798989Y-40977840D01*
X60854776Y-40809157D01*
X60903930Y-40726374D01*
X60975628Y-40641867D01*
X61067487Y-40580305D01*
X61192064Y-40537742D01*
X61361914Y-40510231D01*
X61589595Y-40493826D01*
X61887663Y-40484583D01*
X62562091Y-40470636D01*
X62562091Y-40636495D01*
G37*
G36*
X61958515Y-67024537D02*
G01*
X62181149Y-67103855D01*
X62369455Y-67232387D01*
X62507174Y-67410134D01*
X62579790Y-67600052D01*
X62603595Y-67828432D01*
X62582101Y-68046785D01*
X62507174Y-68246729D01*
X62481644Y-68290687D01*
X62331219Y-68457444D01*
X62133839Y-68574987D01*
X61905759Y-68643315D01*
X61690523Y-68660278D01*
X61663238Y-68662428D01*
X61422531Y-68632326D01*
X61199897Y-68553009D01*
X61011591Y-68424476D01*
X60873871Y-68246729D01*
X60833280Y-68156489D01*
X60778311Y-67906851D01*
X60785214Y-67775220D01*
X61043800Y-67775220D01*
X61057197Y-67945431D01*
X61136309Y-68096252D01*
X61273396Y-68217092D01*
X61460714Y-68297361D01*
X61690523Y-68326471D01*
X61742881Y-68325342D01*
X61980976Y-68283336D01*
X62162603Y-68180885D01*
X62287299Y-68018227D01*
X62329002Y-67922559D01*
X62343125Y-67822468D01*
X62317385Y-67701952D01*
X62282035Y-67612725D01*
X62166643Y-67469970D01*
X61990397Y-67379097D01*
X61749533Y-67337694D01*
X61670542Y-67335210D01*
X61439225Y-67361693D01*
X61253742Y-67437109D01*
X61127724Y-67556658D01*
X61103860Y-67596207D01*
X61043800Y-67775220D01*
X60785214Y-67775220D01*
X60791841Y-67648861D01*
X60873871Y-67410134D01*
X60899402Y-67366177D01*
X61049826Y-67199419D01*
X61247207Y-67081876D01*
X61475287Y-67013548D01*
X61717808Y-66994435D01*
X61958515Y-67024537D01*
G37*
G36*
X60856295Y-46083035D02*
G01*
X60930503Y-46107889D01*
X61065842Y-46156543D01*
X61250625Y-46224705D01*
X61473164Y-46308078D01*
X61721772Y-46402369D01*
X62564992Y-46724020D01*
X62553166Y-46910029D01*
X62541340Y-47096039D01*
X61752778Y-47397847D01*
X61706305Y-47415626D01*
X61552693Y-47474229D01*
X61465903Y-47507340D01*
X61250969Y-47588929D01*
X61074507Y-47655485D01*
X60949523Y-47702099D01*
X60889022Y-47723863D01*
X60878464Y-47727038D01*
X60837713Y-47725826D01*
X60822926Y-47679036D01*
X60826767Y-47568339D01*
X60838053Y-47465195D01*
X60866716Y-47402371D01*
X60933087Y-47358417D01*
X61057598Y-47310511D01*
X61275490Y-47232413D01*
X61275490Y-46910785D01*
X61275490Y-46675366D01*
X61524510Y-46675366D01*
X61524510Y-46896833D01*
X61526820Y-46984407D01*
X61537054Y-47080821D01*
X61552693Y-47118301D01*
X61566722Y-47116742D01*
X61645824Y-47096857D01*
X61763405Y-47060485D01*
X61895889Y-47015768D01*
X62019704Y-46970852D01*
X62111276Y-46933878D01*
X62147030Y-46912991D01*
X62144328Y-46909043D01*
X62090308Y-46880264D01*
X61981187Y-46835528D01*
X61835755Y-46782699D01*
X61524510Y-46675366D01*
X61275490Y-46675366D01*
X61275490Y-46589156D01*
X61057598Y-46511058D01*
X60935968Y-46464379D01*
X60868034Y-46420551D01*
X60838509Y-46358884D01*
X60826944Y-46256840D01*
X60824714Y-46210057D01*
X60829404Y-46117507D01*
X60846367Y-46080719D01*
X60856295Y-46083035D01*
G37*
G36*
X61483007Y-48067446D02*
G01*
X61478273Y-48166479D01*
X61454982Y-48224309D01*
X61403184Y-48238889D01*
X61309168Y-48267077D01*
X61196817Y-48348278D01*
X61100637Y-48458194D01*
X61046938Y-48572210D01*
X61040962Y-48658546D01*
X61083033Y-48819065D01*
X61179816Y-48967994D01*
X61316993Y-49078494D01*
X61377925Y-49105324D01*
X61565731Y-49144484D01*
X61776795Y-49144632D01*
X61978086Y-49107526D01*
X62136570Y-49034920D01*
X62221825Y-48955665D01*
X62304725Y-48808483D01*
X62333817Y-48645794D01*
X62309906Y-48487926D01*
X62233793Y-48355206D01*
X62106281Y-48267962D01*
X62032311Y-48232309D01*
X61990509Y-48172693D01*
X61981046Y-48063777D01*
X61986608Y-47966127D01*
X62014267Y-47917763D01*
X62078666Y-47906863D01*
X62155506Y-47920164D01*
X62294244Y-47990079D01*
X62426851Y-48102658D01*
X62526747Y-48238242D01*
X62532362Y-48249314D01*
X62580831Y-48407703D01*
X62602586Y-48605445D01*
X62596002Y-48806011D01*
X62559451Y-48972870D01*
X62539554Y-49019974D01*
X62406759Y-49210898D01*
X62214311Y-49356579D01*
X61974487Y-49449733D01*
X61699566Y-49483076D01*
X61415687Y-49452081D01*
X61168818Y-49358921D01*
X60971819Y-49208740D01*
X60834067Y-49006700D01*
X60798189Y-48879946D01*
X60784072Y-48699638D01*
X60795161Y-48507606D01*
X60829481Y-48334671D01*
X60885055Y-48211653D01*
X60939802Y-48144385D01*
X61120377Y-47994554D01*
X61328343Y-47921101D01*
X61483007Y-47896002D01*
X61483007Y-48067446D01*
G37*
G36*
X60891585Y-68886999D02*
G01*
X60950095Y-68903088D01*
X61072713Y-68925437D01*
X61221379Y-68945242D01*
X61302452Y-68956563D01*
X61461618Y-68996258D01*
X61561759Y-69048928D01*
X61568658Y-69055152D01*
X61627002Y-69098246D01*
X61677641Y-69092825D01*
X61756353Y-69036629D01*
X61764952Y-69030047D01*
X61895054Y-68967989D01*
X62072378Y-68949020D01*
X62196281Y-68953959D01*
X62331105Y-68981866D01*
X62429012Y-69043152D01*
X62495532Y-69147640D01*
X62536197Y-69305150D01*
X62556540Y-69525506D01*
X62562091Y-69818527D01*
X62562091Y-70360131D01*
X62313072Y-70360131D01*
X61690523Y-70360131D01*
X60818954Y-70360131D01*
X60818954Y-70194118D01*
X60818954Y-70028105D01*
X61171732Y-70028105D01*
X61524510Y-70028105D01*
X61773529Y-70028105D01*
X62043301Y-70028105D01*
X62313072Y-70028105D01*
X62312460Y-69768709D01*
X62312448Y-69764674D01*
X62299058Y-69551124D01*
X62257472Y-69407205D01*
X62182661Y-69322978D01*
X62069599Y-69288503D01*
X61971429Y-69291973D01*
X61852654Y-69346814D01*
X61825471Y-69376397D01*
X61793614Y-69445006D01*
X61777800Y-69553489D01*
X61773529Y-69723263D01*
X61773529Y-70028105D01*
X61524510Y-70028105D01*
X61524510Y-69806030D01*
X61513103Y-69595824D01*
X61472614Y-69439030D01*
X61397467Y-69338475D01*
X61282126Y-69282196D01*
X61280427Y-69281726D01*
X61128001Y-69252176D01*
X60974591Y-69239774D01*
X60818954Y-69239543D01*
X60818954Y-69048338D01*
X60819122Y-69014561D01*
X60825596Y-68916201D01*
X60847167Y-68879418D01*
X60891585Y-68886999D01*
G37*
G36*
X61732026Y-71107190D02*
G01*
X61732026Y-71480719D01*
X61607516Y-71480719D01*
X61536586Y-71476921D01*
X61499247Y-71451800D01*
X61485173Y-71384796D01*
X61483007Y-71255348D01*
X61483007Y-71029978D01*
X61354474Y-71066840D01*
X61212423Y-71123988D01*
X61123055Y-71212228D01*
X61062810Y-71357079D01*
X61040367Y-71451386D01*
X61045329Y-71552518D01*
X61093746Y-71672650D01*
X61117543Y-71716697D01*
X61253311Y-71870781D01*
X61441908Y-71962294D01*
X61685449Y-71992379D01*
X61817620Y-71984430D01*
X62034831Y-71927056D01*
X62196790Y-71818911D01*
X62296721Y-71665484D01*
X62327843Y-71472263D01*
X62307829Y-71349666D01*
X62220986Y-71200455D01*
X62074428Y-71103454D01*
X62026560Y-71077440D01*
X61990355Y-71014874D01*
X61981046Y-70897904D01*
X61981204Y-70864504D01*
X61988309Y-70775620D01*
X62015196Y-70745808D01*
X62074428Y-70755969D01*
X62155321Y-70785075D01*
X62347754Y-70894483D01*
X62494217Y-71035886D01*
X62541422Y-71122154D01*
X62588813Y-71302028D01*
X62602414Y-71509669D01*
X62581180Y-71715246D01*
X62524069Y-71888929D01*
X62491434Y-71945959D01*
X62337719Y-72117628D01*
X62137984Y-72239160D01*
X61908085Y-72310389D01*
X61663877Y-72331151D01*
X61421215Y-72301282D01*
X61195954Y-72220615D01*
X61003949Y-72088986D01*
X60861055Y-71906230D01*
X60812369Y-71780321D01*
X60782654Y-71589915D01*
X60788254Y-71392493D01*
X60827834Y-71216021D01*
X60900062Y-71088459D01*
X60999437Y-70982680D01*
X60909195Y-70982680D01*
X60878936Y-70980683D01*
X60831155Y-70948280D01*
X60818954Y-70858170D01*
X60818954Y-70733660D01*
X61275490Y-70733660D01*
X61732026Y-70733660D01*
X61732026Y-71107190D01*
G37*
G36*
X61462227Y-38746372D02*
G01*
X61586643Y-38794653D01*
X61683656Y-38891175D01*
X61764340Y-39047457D01*
X61839771Y-39275021D01*
X61863050Y-39352855D01*
X61940590Y-39560489D01*
X62019798Y-39689777D01*
X62103469Y-39744288D01*
X62194403Y-39727593D01*
X62289798Y-39637645D01*
X62334460Y-39508726D01*
X62326106Y-39367807D01*
X62266356Y-39239815D01*
X62156831Y-39149673D01*
X62077810Y-39104395D01*
X62033933Y-39038754D01*
X62023447Y-38926351D01*
X62022549Y-38765283D01*
X62172958Y-38789691D01*
X62181858Y-38791206D01*
X62363279Y-38861379D01*
X62495420Y-38996568D01*
X62576197Y-39193584D01*
X62603530Y-39449239D01*
X62576950Y-39669353D01*
X62496792Y-39860519D01*
X62371792Y-39999611D01*
X62210770Y-40077005D01*
X62022549Y-40083077D01*
X61929699Y-40057037D01*
X61786725Y-39957279D01*
X61674895Y-39786481D01*
X61590930Y-39540523D01*
X61590590Y-39539159D01*
X61526677Y-39318993D01*
X61461436Y-39172854D01*
X61389539Y-39091902D01*
X61305661Y-39067302D01*
X61223441Y-39076339D01*
X61133826Y-39131111D01*
X61068856Y-39251111D01*
X61044955Y-39391025D01*
X61067585Y-39542428D01*
X61128437Y-39678248D01*
X61217367Y-39776131D01*
X61324228Y-39813726D01*
X61362947Y-39821631D01*
X61392285Y-39869820D01*
X61400000Y-39979739D01*
X61399883Y-40006370D01*
X61391762Y-40099534D01*
X61359170Y-40138042D01*
X61285866Y-40145478D01*
X61266788Y-40144778D01*
X61112250Y-40098543D01*
X60965745Y-39993107D01*
X60853954Y-39846917D01*
X60828400Y-39786000D01*
X60791548Y-39613218D01*
X60779762Y-39410629D01*
X60793865Y-39212113D01*
X60834677Y-39051551D01*
X60838709Y-39042093D01*
X60951706Y-38871614D01*
X61112479Y-38768966D01*
X61320276Y-38734641D01*
X61462227Y-38746372D01*
G37*
G36*
X75262091Y-59652288D02*
G01*
X75262091Y-73389869D01*
X71319281Y-73389869D01*
X70343954Y-73389869D01*
X65425817Y-73389869D01*
X65425817Y-67568186D01*
X68411488Y-67568186D01*
X68423146Y-68099633D01*
X68434804Y-68631080D01*
X68932843Y-68937597D01*
X68990019Y-68972773D01*
X69170044Y-69083361D01*
X69323762Y-69177541D01*
X69436389Y-69246266D01*
X69493137Y-69280487D01*
X69523070Y-69311723D01*
X69506279Y-69360409D01*
X69433493Y-69444215D01*
X69394726Y-69483877D01*
X69342955Y-69526496D01*
X69282447Y-69552431D01*
X69194633Y-69565825D01*
X69060948Y-69570824D01*
X68862823Y-69571569D01*
X68414052Y-69571569D01*
X68414052Y-70007353D01*
X68414052Y-70443137D01*
X69866667Y-70443137D01*
X71319281Y-70443137D01*
X71319281Y-70008631D01*
X71319281Y-69574124D01*
X70819963Y-69562470D01*
X70320646Y-69550817D01*
X70819963Y-69164250D01*
X71319281Y-68777683D01*
X71319281Y-68258502D01*
X71319281Y-67739320D01*
X70756720Y-68245504D01*
X70194159Y-68751688D01*
X69418239Y-68235083D01*
X69320646Y-68170119D01*
X69094463Y-68019659D01*
X68890211Y-67883926D01*
X68719676Y-67770743D01*
X68594645Y-67687937D01*
X68526904Y-67643331D01*
X68411488Y-67568186D01*
X65425817Y-67568186D01*
X65425817Y-66127240D01*
X68351289Y-66127240D01*
X68353991Y-66395421D01*
X68384646Y-66625620D01*
X68395486Y-66670590D01*
X68500050Y-66951907D01*
X68655964Y-67169638D01*
X68867443Y-67328293D01*
X69138703Y-67432381D01*
X69212246Y-67448667D01*
X69342256Y-67467443D01*
X69509997Y-67481008D01*
X69726776Y-67489960D01*
X70003899Y-67494893D01*
X70352674Y-67496405D01*
X71319281Y-67496405D01*
X71319281Y-67060621D01*
X71319281Y-66624837D01*
X70363373Y-66624837D01*
X70193355Y-66624612D01*
X69879281Y-66621876D01*
X69634275Y-66614462D01*
X69448800Y-66600420D01*
X69313318Y-66577800D01*
X69218291Y-66544651D01*
X69154183Y-66499024D01*
X69111454Y-66438967D01*
X69080568Y-66362531D01*
X69077475Y-66352856D01*
X69055656Y-66164440D01*
X69104282Y-65993428D01*
X69217803Y-65860138D01*
X69253264Y-65836152D01*
X69300383Y-65814272D01*
X69364572Y-65797708D01*
X69456820Y-65785466D01*
X69588117Y-65776550D01*
X69769450Y-65769967D01*
X70011809Y-65764721D01*
X70326183Y-65759818D01*
X71319281Y-65745616D01*
X71319281Y-65334409D01*
X71319281Y-64923203D01*
X70289232Y-64923203D01*
X70016225Y-64923862D01*
X69694607Y-64927963D01*
X69437940Y-64937494D01*
X69235675Y-64954363D01*
X69077262Y-64980473D01*
X68952150Y-65017730D01*
X68849790Y-65068040D01*
X68759631Y-65133308D01*
X68671124Y-65215439D01*
X68622715Y-65268505D01*
X68511912Y-65424220D01*
X68436612Y-65578368D01*
X68422497Y-65623137D01*
X68374729Y-65857628D01*
X68351289Y-66127240D01*
X65425817Y-66127240D01*
X65425817Y-61519935D01*
X68414052Y-61519935D01*
X68414052Y-62557517D01*
X68414052Y-63595098D01*
X69866667Y-63595098D01*
X71319281Y-63595098D01*
X71319281Y-63180066D01*
X71319281Y-62765033D01*
X70240196Y-62765033D01*
X69161111Y-62765033D01*
X69161111Y-62142484D01*
X69161111Y-61519935D01*
X68787582Y-61519935D01*
X68414052Y-61519935D01*
X65425817Y-61519935D01*
X65425817Y-59652288D01*
X65425817Y-58863726D01*
X68414052Y-58863726D01*
X68414052Y-60046569D01*
X68414052Y-61229412D01*
X69866667Y-61229412D01*
X71319281Y-61229412D01*
X71319281Y-60067320D01*
X71319281Y-58905229D01*
X70966503Y-58905229D01*
X70613725Y-58905229D01*
X70613725Y-59631536D01*
X70613725Y-60357843D01*
X70406209Y-60357843D01*
X70198693Y-60357843D01*
X70198693Y-59693791D01*
X70198693Y-59029739D01*
X69866667Y-59029739D01*
X69534641Y-59029739D01*
X69534641Y-59693791D01*
X69534641Y-60357843D01*
X69347876Y-60357843D01*
X69161111Y-60357843D01*
X69161111Y-59610785D01*
X69161111Y-58863726D01*
X68787582Y-58863726D01*
X68414052Y-58863726D01*
X65425817Y-58863726D01*
X65425817Y-57536643D01*
X68349297Y-57536643D01*
X68371711Y-57729591D01*
X68392361Y-57813642D01*
X68510958Y-58097492D01*
X68692224Y-58329262D01*
X68932843Y-58504373D01*
X68953154Y-58515089D01*
X69007638Y-58539839D01*
X69069922Y-58559079D01*
X69150750Y-58573675D01*
X69260866Y-58584495D01*
X69411012Y-58592405D01*
X69611932Y-58598271D01*
X69874370Y-58602961D01*
X70209069Y-58607342D01*
X71319281Y-58620730D01*
X71319281Y-58181934D01*
X71319281Y-57743137D01*
X70346656Y-57743137D01*
X70204575Y-57742722D01*
X69926917Y-57739408D01*
X69681495Y-57733185D01*
X69481002Y-57724536D01*
X69338128Y-57713946D01*
X69265564Y-57701898D01*
X69179008Y-57645962D01*
X69095234Y-57521239D01*
X69057645Y-57362717D01*
X69075640Y-57195456D01*
X69095211Y-57136028D01*
X69129144Y-57066228D01*
X69178638Y-57012704D01*
X69253329Y-56973310D01*
X69362848Y-56945895D01*
X69516831Y-56928313D01*
X69724911Y-56918413D01*
X69996720Y-56914049D01*
X70341893Y-56913072D01*
X71319281Y-56913072D01*
X71319281Y-56474233D01*
X71319281Y-56035393D01*
X71295228Y-56035700D01*
X70229820Y-56049299D01*
X70077506Y-56051348D01*
X69770075Y-56056570D01*
X69530436Y-56062899D01*
X69347880Y-56071087D01*
X69211701Y-56081885D01*
X69111190Y-56096046D01*
X69035641Y-56114322D01*
X68974346Y-56137464D01*
X68812598Y-56229356D01*
X68606631Y-56421517D01*
X68458860Y-56665570D01*
X68407371Y-56834664D01*
X68369663Y-57058218D01*
X68349459Y-57302531D01*
X68349297Y-57536643D01*
X65425817Y-57536643D01*
X65425817Y-54570868D01*
X68414052Y-54570868D01*
X68416337Y-54772716D01*
X68425128Y-54934621D01*
X68441363Y-55029585D01*
X68465931Y-55066094D01*
X68470724Y-55067701D01*
X68542942Y-55089736D01*
X68679389Y-55129932D01*
X68868989Y-55185119D01*
X69100668Y-55252130D01*
X69363349Y-55327796D01*
X69645959Y-55408948D01*
X69937421Y-55492419D01*
X70226662Y-55575040D01*
X70502604Y-55653643D01*
X70754175Y-55725059D01*
X70970297Y-55786120D01*
X71139897Y-55833658D01*
X71251899Y-55864504D01*
X71295228Y-55875490D01*
X71302768Y-55856014D01*
X71310081Y-55769587D01*
X71312819Y-55629890D01*
X71310357Y-55454344D01*
X71298529Y-55033198D01*
X71111765Y-54980228D01*
X71055853Y-54964755D01*
X70911504Y-54925913D01*
X70716558Y-54874237D01*
X70489418Y-54814596D01*
X70248486Y-54751858D01*
X70072806Y-54704873D01*
X69878116Y-54648835D01*
X69727069Y-54600666D01*
X69631985Y-54564349D01*
X69605185Y-54543867D01*
X69652389Y-54524433D01*
X69767442Y-54488646D01*
X69936829Y-54440518D01*
X70147263Y-54383819D01*
X70385458Y-54322325D01*
X70613678Y-54264487D01*
X70836100Y-54207882D01*
X71022061Y-54160308D01*
X71156886Y-54125519D01*
X71225899Y-54107272D01*
X71241765Y-54102512D01*
X71278189Y-54083120D01*
X71300958Y-54043645D01*
X71313267Y-53968358D01*
X71318310Y-53841529D01*
X71319281Y-53647428D01*
X71319277Y-53631903D01*
X71317894Y-53443268D01*
X71312356Y-53322972D01*
X71300247Y-53257290D01*
X71279150Y-53232495D01*
X71246650Y-53234861D01*
X71179615Y-53254665D01*
X71030777Y-53299146D01*
X70826841Y-53360402D01*
X70581717Y-53434227D01*
X70309315Y-53516418D01*
X70023542Y-53602772D01*
X69738310Y-53689085D01*
X69467527Y-53771152D01*
X69225102Y-53844771D01*
X69024944Y-53905736D01*
X68880964Y-53949845D01*
X68414052Y-54093706D01*
X68414052Y-54570868D01*
X65425817Y-54570868D01*
X65425817Y-50687582D01*
X68414052Y-50687582D01*
X68414052Y-51870425D01*
X68414052Y-53053268D01*
X69866667Y-53053268D01*
X71319281Y-53053268D01*
X71319281Y-51891177D01*
X71319281Y-50729085D01*
X70966503Y-50729085D01*
X70613725Y-50729085D01*
X70613725Y-51476144D01*
X70613725Y-52223203D01*
X70406209Y-52223203D01*
X70198693Y-52223203D01*
X70198693Y-51559151D01*
X70198693Y-50895098D01*
X69866667Y-50895098D01*
X69534641Y-50895098D01*
X69534641Y-51559151D01*
X69534641Y-52223203D01*
X69347876Y-52223203D01*
X69161111Y-52223203D01*
X69161111Y-51455392D01*
X69161111Y-50687582D01*
X68787582Y-50687582D01*
X68414052Y-50687582D01*
X65425817Y-50687582D01*
X65425817Y-47906863D01*
X68411148Y-47906863D01*
X68422976Y-48332271D01*
X68434804Y-48757680D01*
X69176658Y-49159207D01*
X69222653Y-49184141D01*
X69446502Y-49306638D01*
X69644247Y-49416686D01*
X69804117Y-49507609D01*
X69914340Y-49572729D01*
X69963145Y-49605368D01*
X69964055Y-49606351D01*
X69949886Y-49622841D01*
X69872395Y-49635160D01*
X69726675Y-49643599D01*
X69507817Y-49648448D01*
X69210915Y-49650000D01*
X68414052Y-49650000D01*
X68414052Y-50044281D01*
X68414052Y-50438562D01*
X69866667Y-50438562D01*
X71319281Y-50438562D01*
X71319281Y-50005873D01*
X71319281Y-49573183D01*
X70549146Y-49165431D01*
X69779011Y-48757680D01*
X70549146Y-48746388D01*
X71319281Y-48735097D01*
X71319281Y-48320980D01*
X71319281Y-47906863D01*
X69865215Y-47906863D01*
X68411148Y-47906863D01*
X65425817Y-47906863D01*
X65425817Y-45914706D01*
X70343954Y-45914706D01*
X75262091Y-45914706D01*
X75262091Y-59652288D01*
G37*
G36*
X99566551Y-79138261D02*
G01*
X99566551Y-79800870D01*
X99478203Y-79800870D01*
X99389855Y-79800870D01*
X99389855Y-79138261D01*
X99389855Y-78475652D01*
X99478203Y-78475652D01*
X99566551Y-78475652D01*
X99566551Y-79138261D01*
G37*
G36*
X94516000Y-79138261D02*
G01*
X94516000Y-79800870D01*
X94427652Y-79800870D01*
X94339304Y-79800870D01*
X94339304Y-79138261D01*
X94339304Y-78475652D01*
X94427652Y-78475652D01*
X94516000Y-78475652D01*
X94516000Y-79138261D01*
G37*
G36*
X77685739Y-76841217D02*
G01*
X77685739Y-77503826D01*
X77553218Y-77503826D01*
X77420696Y-77503826D01*
X77420696Y-76841217D01*
X77420696Y-76178609D01*
X77553218Y-76178609D01*
X77685739Y-76178609D01*
X77685739Y-76841217D01*
G37*
G36*
X97696522Y-76841217D02*
G01*
X97696522Y-77503826D01*
X97291594Y-77503826D01*
X96886667Y-77503826D01*
X96886667Y-77393391D01*
X96886667Y-77282957D01*
X97159073Y-77282957D01*
X97431478Y-77282957D01*
X97431478Y-76730783D01*
X97431478Y-76178609D01*
X97564000Y-76178609D01*
X97696522Y-76178609D01*
X97696522Y-76841217D01*
G37*
G36*
X81322725Y-78549275D02*
G01*
X81322725Y-78622899D01*
X81109218Y-78622899D01*
X80895710Y-78622899D01*
X80895710Y-79211884D01*
X80895710Y-79800870D01*
X80807362Y-79800870D01*
X80719015Y-79800870D01*
X80719015Y-79211884D01*
X80719015Y-78622899D01*
X80498145Y-78622899D01*
X80277276Y-78622899D01*
X80277276Y-78549275D01*
X80277276Y-78475652D01*
X80800000Y-78475652D01*
X81322725Y-78475652D01*
X81322725Y-78549275D01*
G37*
G36*
X110418609Y-77356580D02*
G01*
X110418609Y-78534551D01*
X110271362Y-78534551D01*
X110124116Y-78534551D01*
X110124116Y-78011826D01*
X110124116Y-77489102D01*
X109697102Y-77489102D01*
X109270087Y-77489102D01*
X109270087Y-77356580D01*
X109270087Y-77224058D01*
X109697102Y-77224058D01*
X110124116Y-77224058D01*
X110124116Y-76833855D01*
X110124116Y-76443652D01*
X109608754Y-76443652D01*
X109093391Y-76443652D01*
X109093391Y-76311131D01*
X109093391Y-76178609D01*
X109756000Y-76178609D01*
X110418609Y-76178609D01*
X110418609Y-77356580D01*
G37*
G36*
X102511478Y-76841217D02*
G01*
X102511478Y-77503826D01*
X102378957Y-77503826D01*
X102246435Y-77503826D01*
X102246435Y-77231420D01*
X102246435Y-76959015D01*
X102018203Y-76959015D01*
X101789971Y-76959015D01*
X101789971Y-76848580D01*
X101789971Y-76738145D01*
X102018203Y-76738145D01*
X102246435Y-76738145D01*
X102246435Y-76576174D01*
X102246435Y-76414203D01*
X101966667Y-76414203D01*
X101686899Y-76414203D01*
X101686899Y-76296406D01*
X101686899Y-76178609D01*
X102099189Y-76178609D01*
X102511478Y-76178609D01*
X102511478Y-76841217D01*
G37*
G36*
X108872522Y-77356580D02*
G01*
X108872522Y-78534551D01*
X108195189Y-78534551D01*
X107517855Y-78534551D01*
X107517855Y-78402029D01*
X107517855Y-78269507D01*
X108040580Y-78269507D01*
X108563304Y-78269507D01*
X108563304Y-77864580D01*
X108563304Y-77459652D01*
X108143652Y-77459652D01*
X107724000Y-77459652D01*
X107724000Y-77334493D01*
X107724000Y-77209333D01*
X108143652Y-77209333D01*
X108563304Y-77209333D01*
X108563304Y-76826493D01*
X108563304Y-76443652D01*
X108055304Y-76443652D01*
X107547304Y-76443652D01*
X107547304Y-76311131D01*
X107547304Y-76178609D01*
X108209913Y-76178609D01*
X108872522Y-76178609D01*
X108872522Y-77356580D01*
G37*
G36*
X97814319Y-79138261D02*
G01*
X97814319Y-79800870D01*
X97431478Y-79800870D01*
X97048638Y-79800870D01*
X97048638Y-79719884D01*
X97048638Y-79638899D01*
X97343131Y-79638899D01*
X97637623Y-79638899D01*
X97637623Y-79418029D01*
X97637623Y-79197160D01*
X97394667Y-79197160D01*
X97151710Y-79197160D01*
X97151710Y-79123536D01*
X97151710Y-79049913D01*
X97394667Y-79049913D01*
X97637623Y-79049913D01*
X97637623Y-78836406D01*
X97637623Y-78622899D01*
X97350493Y-78622899D01*
X97063362Y-78622899D01*
X97063362Y-78549275D01*
X97063362Y-78475652D01*
X97438841Y-78475652D01*
X97814319Y-78475652D01*
X97814319Y-79138261D01*
G37*
G36*
X92690145Y-76841217D02*
G01*
X92690145Y-77503826D01*
X92270493Y-77503826D01*
X91850841Y-77503826D01*
X91850841Y-77393391D01*
X91850841Y-77282957D01*
X92137971Y-77282957D01*
X92425102Y-77282957D01*
X92425102Y-77113623D01*
X92425102Y-76944290D01*
X92204232Y-76944290D01*
X91983362Y-76944290D01*
X91983362Y-76833855D01*
X91983362Y-76723420D01*
X92204232Y-76723420D01*
X92425102Y-76723420D01*
X92425102Y-76568812D01*
X92425102Y-76414203D01*
X92152696Y-76414203D01*
X91880290Y-76414203D01*
X91880290Y-76296406D01*
X91880290Y-76178609D01*
X92285218Y-76178609D01*
X92690145Y-76178609D01*
X92690145Y-76841217D01*
G37*
G36*
X89907189Y-79138261D02*
G01*
X89907189Y-79800870D01*
X89524348Y-79800870D01*
X89141507Y-79800870D01*
X89141507Y-79719884D01*
X89141507Y-79638899D01*
X89436000Y-79638899D01*
X89730493Y-79638899D01*
X89730493Y-79418029D01*
X89730493Y-79197160D01*
X89494899Y-79197160D01*
X89259304Y-79197160D01*
X89259304Y-79123536D01*
X89259304Y-79049913D01*
X89494899Y-79049913D01*
X89730493Y-79049913D01*
X89730493Y-78836406D01*
X89730493Y-78622899D01*
X89443362Y-78622899D01*
X89156232Y-78622899D01*
X89156232Y-78549275D01*
X89156232Y-78475652D01*
X89531710Y-78475652D01*
X89907189Y-78475652D01*
X89907189Y-79138261D01*
G37*
G36*
X89715768Y-76841217D02*
G01*
X89715768Y-77503826D01*
X89296116Y-77503826D01*
X88876464Y-77503826D01*
X88876464Y-77393391D01*
X88876464Y-77282957D01*
X89163594Y-77282957D01*
X89450725Y-77282957D01*
X89450725Y-77113623D01*
X89450725Y-76944290D01*
X89222493Y-76944290D01*
X88994261Y-76944290D01*
X88994261Y-76833855D01*
X88994261Y-76723420D01*
X89222493Y-76723420D01*
X89450725Y-76723420D01*
X89450725Y-76568812D01*
X89450725Y-76414203D01*
X89170957Y-76414203D01*
X88891189Y-76414203D01*
X88891189Y-76296406D01*
X88891189Y-76178609D01*
X89303478Y-76178609D01*
X89715768Y-76178609D01*
X89715768Y-76841217D01*
G37*
G36*
X88140232Y-76841217D02*
G01*
X88140232Y-77503826D01*
X87720580Y-77503826D01*
X87300928Y-77503826D01*
X87300928Y-77393391D01*
X87300928Y-77282957D01*
X87588058Y-77282957D01*
X87875189Y-77282957D01*
X87875189Y-77113623D01*
X87875189Y-76944290D01*
X87654319Y-76944290D01*
X87433449Y-76944290D01*
X87433449Y-76833855D01*
X87433449Y-76723420D01*
X87654319Y-76723420D01*
X87875189Y-76723420D01*
X87875189Y-76568812D01*
X87875189Y-76414203D01*
X87602783Y-76414203D01*
X87330377Y-76414203D01*
X87330377Y-76296406D01*
X87330377Y-76178609D01*
X87735304Y-76178609D01*
X88140232Y-76178609D01*
X88140232Y-76841217D01*
G37*
G36*
X84149855Y-76841217D02*
G01*
X84149855Y-77503826D01*
X83730203Y-77503826D01*
X83310551Y-77503826D01*
X83310551Y-77393391D01*
X83310551Y-77282957D01*
X83597681Y-77282957D01*
X83884812Y-77282957D01*
X83884812Y-77113623D01*
X83884812Y-76944290D01*
X83663942Y-76944290D01*
X83443073Y-76944290D01*
X83443073Y-76833855D01*
X83443073Y-76723420D01*
X83663942Y-76723420D01*
X83884812Y-76723420D01*
X83884812Y-76568812D01*
X83884812Y-76414203D01*
X83612406Y-76414203D01*
X83340000Y-76414203D01*
X83340000Y-76296406D01*
X83340000Y-76178609D01*
X83744928Y-76178609D01*
X84149855Y-76178609D01*
X84149855Y-76841217D01*
G37*
G36*
X80645391Y-76443652D02*
G01*
X80645391Y-76708696D01*
X80976696Y-76708696D01*
X81308000Y-76708696D01*
X81308000Y-76443652D01*
X81308000Y-76178609D01*
X81440522Y-76178609D01*
X81573044Y-76178609D01*
X81573044Y-76841217D01*
X81573044Y-77503826D01*
X81440522Y-77503826D01*
X81308000Y-77503826D01*
X81308000Y-77224058D01*
X81308000Y-76944290D01*
X80976696Y-76944290D01*
X80645391Y-76944290D01*
X80645391Y-77224058D01*
X80645391Y-77503826D01*
X80512870Y-77503826D01*
X80380348Y-77503826D01*
X80380348Y-76841217D01*
X80380348Y-76178609D01*
X80512870Y-76178609D01*
X80645391Y-76178609D01*
X80645391Y-76443652D01*
G37*
G36*
X83060232Y-76840702D02*
G01*
X83060232Y-77503826D01*
X82935073Y-77503826D01*
X82809913Y-77503826D01*
X82809913Y-77052903D01*
X82809913Y-76601981D01*
X82599303Y-76924063D01*
X82558608Y-76986230D01*
X82495232Y-77082801D01*
X82433873Y-77176030D01*
X82378049Y-77260585D01*
X82331275Y-77331135D01*
X82297069Y-77382348D01*
X82205443Y-77518551D01*
X82065939Y-77518551D01*
X81926435Y-77518551D01*
X81926435Y-76848580D01*
X81926435Y-76178609D01*
X82051594Y-76178609D01*
X82176754Y-76178609D01*
X82176754Y-76645651D01*
X82176754Y-77112693D01*
X82242834Y-77002723D01*
X82268140Y-76961421D01*
X82306766Y-76899466D01*
X82355636Y-76821751D01*
X82411893Y-76732807D01*
X82472676Y-76637167D01*
X82535128Y-76539362D01*
X82761341Y-76185971D01*
X82910787Y-76181775D01*
X83060232Y-76177579D01*
X83060232Y-76840702D01*
G37*
G36*
X100170261Y-79000316D02*
G01*
X100170261Y-79524980D01*
X100277622Y-79357389D01*
X100311431Y-79304803D01*
X100360585Y-79228680D01*
X100419231Y-79138094D01*
X100483924Y-79038362D01*
X100551217Y-78934800D01*
X100617665Y-78832725D01*
X100850349Y-78475652D01*
X100966769Y-78475652D01*
X101083189Y-78475652D01*
X101083189Y-79138261D01*
X101083189Y-79800870D01*
X100994841Y-79800870D01*
X100906493Y-79800870D01*
X100906160Y-79252377D01*
X100905828Y-78703884D01*
X100858305Y-78779768D01*
X100857046Y-78781776D01*
X100836803Y-78813659D01*
X100802901Y-78866691D01*
X100757427Y-78937619D01*
X100702469Y-79023193D01*
X100640114Y-79120161D01*
X100572450Y-79225273D01*
X100501565Y-79335278D01*
X100192348Y-79814902D01*
X100092957Y-79815248D01*
X99993565Y-79815594D01*
X99993565Y-79145623D01*
X99993565Y-78475652D01*
X100081913Y-78475652D01*
X100170261Y-78475652D01*
X100170261Y-79000316D01*
G37*
G36*
X86167131Y-76645250D02*
G01*
X86167131Y-77111891D01*
X86215724Y-77031772D01*
X86220877Y-77023354D01*
X86245880Y-76983251D01*
X86283517Y-76923507D01*
X86331346Y-76847972D01*
X86386925Y-76760497D01*
X86447814Y-76664933D01*
X86511571Y-76565131D01*
X86758826Y-76178609D01*
X86912080Y-76178609D01*
X87065333Y-76178609D01*
X87065333Y-76841217D01*
X87065333Y-77503826D01*
X86932812Y-77503826D01*
X86800290Y-77503826D01*
X86800113Y-77051044D01*
X86799935Y-76598261D01*
X86766077Y-76657160D01*
X86759026Y-76668828D01*
X86734654Y-76707233D01*
X86697368Y-76764768D01*
X86649426Y-76837986D01*
X86593089Y-76923445D01*
X86530616Y-77017699D01*
X86464265Y-77117304D01*
X86196312Y-77518551D01*
X86056562Y-77518551D01*
X85916812Y-77518551D01*
X85916812Y-76848580D01*
X85916812Y-76178609D01*
X86041971Y-76178609D01*
X86167131Y-76178609D01*
X86167131Y-76645250D01*
G37*
G36*
X99120562Y-78477013D02*
G01*
X99155681Y-78481001D01*
X99169226Y-78486696D01*
X99169202Y-78486929D01*
X99163434Y-78504356D01*
X99148214Y-78546384D01*
X99124558Y-78610311D01*
X99093480Y-78693431D01*
X99055993Y-78793043D01*
X99013112Y-78906441D01*
X98965852Y-79030922D01*
X98915226Y-79163783D01*
X98660986Y-79829826D01*
X98602087Y-79830048D01*
X98543189Y-79830271D01*
X98294314Y-79171367D01*
X98293800Y-79170007D01*
X98243750Y-79037486D01*
X98196790Y-78913118D01*
X98153964Y-78799676D01*
X98116319Y-78699928D01*
X98084899Y-78616647D01*
X98060751Y-78552603D01*
X98044919Y-78510566D01*
X98038450Y-78493307D01*
X98037671Y-78490106D01*
X98044948Y-78481085D01*
X98072277Y-78477506D01*
X98124228Y-78478582D01*
X98216995Y-78483015D01*
X98400858Y-78986744D01*
X98401508Y-78988526D01*
X98443667Y-79103148D01*
X98482917Y-79208228D01*
X98518083Y-79300739D01*
X98547987Y-79377651D01*
X98571451Y-79435937D01*
X98587300Y-79472569D01*
X98594355Y-79484519D01*
X98601556Y-79469915D01*
X98617873Y-79430831D01*
X98642081Y-79370380D01*
X98672959Y-79291672D01*
X98709287Y-79197818D01*
X98749846Y-79091926D01*
X98793414Y-78977108D01*
X98982839Y-78475652D01*
X99075912Y-78475652D01*
X99120562Y-78477013D01*
G37*
G36*
X95301439Y-77030504D02*
G01*
X95339912Y-77137219D01*
X95373154Y-77229412D01*
X95399580Y-77302689D01*
X95417606Y-77352656D01*
X95472546Y-77504886D01*
X95330212Y-77500675D01*
X95187879Y-77496464D01*
X95135767Y-77337799D01*
X95083655Y-77179135D01*
X94870320Y-77183191D01*
X94656984Y-77187246D01*
X94607845Y-77345536D01*
X94558706Y-77503826D01*
X94419556Y-77503826D01*
X94384065Y-77503602D01*
X94330751Y-77502259D01*
X94294061Y-77499974D01*
X94280406Y-77497059D01*
X94285155Y-77482590D01*
X94298979Y-77443121D01*
X94320901Y-77381396D01*
X94349943Y-77300143D01*
X94385127Y-77202093D01*
X94425476Y-77089974D01*
X94470012Y-76966517D01*
X94476100Y-76949678D01*
X94736870Y-76949678D01*
X94741225Y-76952003D01*
X94768443Y-76955608D01*
X94815088Y-76958090D01*
X94874718Y-76959015D01*
X95012566Y-76959015D01*
X94945218Y-76745686D01*
X94932030Y-76704662D01*
X94909395Y-76637862D01*
X94890170Y-76585673D01*
X94876063Y-76552617D01*
X94868783Y-76543222D01*
X94863211Y-76555886D01*
X94850308Y-76591568D01*
X94832487Y-76643726D01*
X94811795Y-76706058D01*
X94790278Y-76772258D01*
X94769980Y-76836025D01*
X94752949Y-76891052D01*
X94741231Y-76931038D01*
X94736870Y-76949678D01*
X94476100Y-76949678D01*
X94517757Y-76834450D01*
X94755109Y-76178609D01*
X94874830Y-76178840D01*
X94994551Y-76179071D01*
X95178609Y-76689748D01*
X95215134Y-76791084D01*
X95259318Y-76913661D01*
X95275668Y-76959015D01*
X95301439Y-77030504D01*
G37*
G36*
X84915536Y-79138261D02*
G01*
X84915536Y-79800870D01*
X84827189Y-79800870D01*
X84738841Y-79800870D01*
X84738841Y-79554232D01*
X84738841Y-79307594D01*
X84558464Y-79307268D01*
X84548507Y-79307239D01*
X84463825Y-79305678D01*
X84401829Y-79301340D01*
X84356439Y-79293569D01*
X84321571Y-79281708D01*
X84253281Y-79244353D01*
X84170514Y-79172699D01*
X84110142Y-79082424D01*
X84104586Y-79070947D01*
X84085947Y-79026835D01*
X84075133Y-78984983D01*
X84070135Y-78934840D01*
X84068947Y-78865855D01*
X84069753Y-78850260D01*
X84252655Y-78850260D01*
X84257030Y-78929728D01*
X84279891Y-79005448D01*
X84320768Y-79070912D01*
X84379192Y-79119613D01*
X84394487Y-79127831D01*
X84426109Y-79140489D01*
X84463670Y-79148033D01*
X84514996Y-79151703D01*
X84587913Y-79152743D01*
X84738841Y-79152986D01*
X84738841Y-78886391D01*
X84738841Y-78619797D01*
X84563221Y-78625029D01*
X84493290Y-78627632D01*
X84435894Y-78631689D01*
X84396341Y-78637885D01*
X84368448Y-78647235D01*
X84346033Y-78660757D01*
X84301247Y-78706115D01*
X84267238Y-78773553D01*
X84252655Y-78850260D01*
X84069753Y-78850260D01*
X84073369Y-78780259D01*
X84093276Y-78686825D01*
X84130266Y-78613279D01*
X84185504Y-78556526D01*
X84223001Y-78530451D01*
X84262217Y-78510157D01*
X84307037Y-78495463D01*
X84362225Y-78485518D01*
X84432542Y-78479469D01*
X84522753Y-78476464D01*
X84637620Y-78475652D01*
X84915536Y-78475652D01*
X84915536Y-78619797D01*
X84915536Y-79138261D01*
G37*
G36*
X77068876Y-76956850D02*
G01*
X77113328Y-77080445D01*
X77153643Y-77192979D01*
X77188837Y-77291683D01*
X77217925Y-77373786D01*
X77239923Y-77436517D01*
X77253845Y-77477106D01*
X77258707Y-77492783D01*
X77254579Y-77495474D01*
X77227718Y-77499766D01*
X77181376Y-77502724D01*
X77122020Y-77503826D01*
X76985316Y-77503826D01*
X76933312Y-77345536D01*
X76881308Y-77187246D01*
X76667328Y-77183184D01*
X76453347Y-77179123D01*
X76404150Y-77341474D01*
X76354952Y-77503826D01*
X76212477Y-77503826D01*
X76070003Y-77503826D01*
X76228604Y-77065768D01*
X76235372Y-77047075D01*
X76267266Y-76959015D01*
X76526550Y-76959015D01*
X76664406Y-76959015D01*
X76698742Y-76958720D01*
X76751958Y-76956876D01*
X76788612Y-76953717D01*
X76802261Y-76949678D01*
X76799039Y-76935330D01*
X76788283Y-76898173D01*
X76771936Y-76845038D01*
X76752038Y-76782228D01*
X76730632Y-76716045D01*
X76709757Y-76652790D01*
X76691456Y-76598764D01*
X76677769Y-76560271D01*
X76670738Y-76543612D01*
X76667800Y-76545576D01*
X76656664Y-76568488D01*
X76639561Y-76612565D01*
X76618200Y-76673272D01*
X76594296Y-76746076D01*
X76526550Y-76959015D01*
X76267266Y-76959015D01*
X76279424Y-76925448D01*
X76324197Y-76801890D01*
X76367542Y-76682326D01*
X76407312Y-76572680D01*
X76441358Y-76478876D01*
X76467532Y-76406841D01*
X76547858Y-76185971D01*
X76669071Y-76185971D01*
X76790285Y-76185971D01*
X77024487Y-76833855D01*
X77066288Y-76949678D01*
X77068876Y-76956850D01*
G37*
G36*
X91320754Y-79137016D02*
G01*
X91320754Y-79800870D01*
X91066754Y-79800758D01*
X90973490Y-79800061D01*
X90846635Y-79795791D01*
X90742350Y-79786700D01*
X90656514Y-79771716D01*
X90585002Y-79749767D01*
X90523692Y-79719783D01*
X90468462Y-79680692D01*
X90415189Y-79631421D01*
X90354175Y-79560368D01*
X90283293Y-79445830D01*
X90236946Y-79324525D01*
X90225961Y-79267755D01*
X90218282Y-79178169D01*
X90218162Y-79120659D01*
X90401388Y-79120659D01*
X90413206Y-79233237D01*
X90445266Y-79341656D01*
X90495659Y-79440303D01*
X90562478Y-79523563D01*
X90643812Y-79585824D01*
X90654183Y-79591673D01*
X90685402Y-79608073D01*
X90714345Y-79619429D01*
X90747354Y-79626850D01*
X90790776Y-79631446D01*
X90850954Y-79634326D01*
X90934232Y-79636598D01*
X91144058Y-79641660D01*
X91144058Y-79130801D01*
X91144058Y-78619941D01*
X90956319Y-78625101D01*
X90919104Y-78626204D01*
X90848811Y-78629317D01*
X90797553Y-78634145D01*
X90758011Y-78641937D01*
X90722865Y-78653941D01*
X90684795Y-78671405D01*
X90681785Y-78672901D01*
X90601663Y-78724705D01*
X90527633Y-78793630D01*
X90467179Y-78871553D01*
X90427784Y-78950352D01*
X90411721Y-79009536D01*
X90401388Y-79120659D01*
X90218162Y-79120659D01*
X90218082Y-79081921D01*
X90225280Y-78990746D01*
X90239792Y-78916383D01*
X90241194Y-78911667D01*
X90291750Y-78794001D01*
X90367293Y-78688945D01*
X90464957Y-78599735D01*
X90581877Y-78529611D01*
X90680232Y-78483015D01*
X91000493Y-78478089D01*
X91320754Y-78473163D01*
X91320754Y-78619941D01*
X91320754Y-79137016D01*
G37*
G36*
X78848986Y-76839776D02*
G01*
X78848986Y-77503826D01*
X78716464Y-77503826D01*
X78583942Y-77503826D01*
X78583942Y-77246145D01*
X78583942Y-76988464D01*
X78526640Y-76988464D01*
X78469338Y-76988464D01*
X78324176Y-77245778D01*
X78179015Y-77503093D01*
X78028854Y-77503459D01*
X77878694Y-77503826D01*
X78013060Y-77271913D01*
X78051515Y-77205616D01*
X78093852Y-77132803D01*
X78130317Y-77070279D01*
X78157952Y-77023114D01*
X78173800Y-76996374D01*
X78200175Y-76952747D01*
X78116315Y-76908026D01*
X78084277Y-76889344D01*
X78016578Y-76833110D01*
X77970643Y-76763261D01*
X77944491Y-76676056D01*
X77939191Y-76607322D01*
X78213695Y-76607322D01*
X78239246Y-76669996D01*
X78287946Y-76719201D01*
X78317174Y-76735982D01*
X78350541Y-76746517D01*
X78395506Y-76751570D01*
X78460960Y-76752870D01*
X78583942Y-76752870D01*
X78583942Y-76582157D01*
X78583942Y-76411443D01*
X78438206Y-76416504D01*
X78421441Y-76417146D01*
X78345004Y-76422824D01*
X78291633Y-76434085D01*
X78256009Y-76453610D01*
X78232813Y-76484082D01*
X78216727Y-76528182D01*
X78214146Y-76538827D01*
X78213695Y-76607322D01*
X77939191Y-76607322D01*
X77936140Y-76567754D01*
X77936655Y-76542149D01*
X77953203Y-76433835D01*
X77993015Y-76343508D01*
X78056033Y-76271264D01*
X78142203Y-76217197D01*
X78143430Y-76216635D01*
X78168295Y-76206530D01*
X78195761Y-76198802D01*
X78230304Y-76193033D01*
X78276397Y-76188807D01*
X78338515Y-76185707D01*
X78421132Y-76183318D01*
X78528725Y-76181223D01*
X78848986Y-76175725D01*
X78848986Y-76411443D01*
X78848986Y-76839776D01*
G37*
G36*
X101452639Y-76953776D02*
G01*
X101497142Y-77077416D01*
X101537510Y-77190071D01*
X101572753Y-77288959D01*
X101601884Y-77371299D01*
X101623915Y-77434308D01*
X101637858Y-77475205D01*
X101642725Y-77491208D01*
X101638592Y-77494283D01*
X101611724Y-77499187D01*
X101565378Y-77502567D01*
X101506020Y-77503826D01*
X101369316Y-77503826D01*
X101317312Y-77345536D01*
X101265308Y-77187246D01*
X101051524Y-77183186D01*
X100837740Y-77179125D01*
X100788810Y-77341475D01*
X100739881Y-77503826D01*
X100600721Y-77503826D01*
X100582398Y-77503820D01*
X100524305Y-77503318D01*
X100489210Y-77501069D01*
X100471930Y-77495758D01*
X100467283Y-77486072D01*
X100470087Y-77470696D01*
X100474356Y-77457376D01*
X100488022Y-77417761D01*
X100509883Y-77355685D01*
X100538886Y-77274103D01*
X100573977Y-77175967D01*
X100614102Y-77064231D01*
X100652021Y-76959015D01*
X100909624Y-76959015D01*
X101047943Y-76959015D01*
X101082692Y-76958732D01*
X101135943Y-76956994D01*
X101172610Y-76954023D01*
X101186261Y-76950228D01*
X101183004Y-76935205D01*
X101172295Y-76897565D01*
X101156066Y-76844176D01*
X101136336Y-76781310D01*
X101115121Y-76715242D01*
X101094439Y-76652245D01*
X101076308Y-76598592D01*
X101062743Y-76560557D01*
X101055764Y-76544413D01*
X101052737Y-76546438D01*
X101041325Y-76569402D01*
X101023898Y-76613503D01*
X101002206Y-76674181D01*
X100978000Y-76746877D01*
X100909624Y-76959015D01*
X100652021Y-76959015D01*
X100658208Y-76941847D01*
X100705239Y-76811768D01*
X100931865Y-76185971D01*
X101053303Y-76185971D01*
X101174741Y-76185971D01*
X101408733Y-76832280D01*
X101451357Y-76950228D01*
X101452639Y-76953776D01*
G37*
G36*
X93927015Y-79138261D02*
G01*
X93927015Y-79800870D01*
X93665652Y-79800784D01*
X93629498Y-79800703D01*
X93508541Y-79798967D01*
X93410877Y-79794518D01*
X93331678Y-79786758D01*
X93266119Y-79775088D01*
X93209372Y-79758908D01*
X93156610Y-79737620D01*
X93141516Y-79730252D01*
X93055539Y-79671627D01*
X92976249Y-79590646D01*
X92907989Y-79493328D01*
X92855101Y-79385691D01*
X92821927Y-79273754D01*
X92811040Y-79176047D01*
X92811502Y-79145623D01*
X93002838Y-79145623D01*
X93003996Y-79163821D01*
X93024542Y-79286555D01*
X93065242Y-79395751D01*
X93124036Y-79488060D01*
X93198865Y-79560134D01*
X93287668Y-79608624D01*
X93309434Y-79616236D01*
X93352539Y-79627453D01*
X93402294Y-79634391D01*
X93466283Y-79637916D01*
X93552089Y-79638899D01*
X93735594Y-79638899D01*
X93735594Y-79129158D01*
X93735594Y-78619416D01*
X93547855Y-78625918D01*
X93478461Y-78629279D01*
X93388209Y-78638860D01*
X93315936Y-78655908D01*
X93254727Y-78682976D01*
X93197663Y-78722620D01*
X93137830Y-78777395D01*
X93079857Y-78844465D01*
X93031408Y-78932120D01*
X93006433Y-79030601D01*
X93002838Y-79145623D01*
X92811502Y-79145623D01*
X92812680Y-79068003D01*
X92826158Y-78962945D01*
X92850589Y-78873217D01*
X92866479Y-78835573D01*
X92932956Y-78725739D01*
X93021392Y-78631316D01*
X93127467Y-78556320D01*
X93246860Y-78504770D01*
X93257652Y-78501522D01*
X93295066Y-78491967D01*
X93335586Y-78485037D01*
X93384480Y-78480337D01*
X93447014Y-78477470D01*
X93528456Y-78476041D01*
X93634073Y-78475652D01*
X93927015Y-78475652D01*
X93927015Y-78619416D01*
X93927015Y-79138261D01*
G37*
G36*
X91144058Y-76841217D02*
G01*
X91144058Y-77503826D01*
X90815847Y-77503826D01*
X90748120Y-77503652D01*
X90631587Y-77501987D01*
X90537529Y-77498000D01*
X90461305Y-77491006D01*
X90398277Y-77480323D01*
X90343803Y-77465266D01*
X90293244Y-77445153D01*
X90241961Y-77419300D01*
X90175835Y-77374013D01*
X90102765Y-77305161D01*
X90037741Y-77225371D01*
X89989147Y-77143780D01*
X89948940Y-77034426D01*
X89927028Y-76906479D01*
X89927849Y-76841217D01*
X90223768Y-76841217D01*
X90223944Y-76878533D01*
X90225963Y-76942169D01*
X90231176Y-76987731D01*
X90240745Y-77022993D01*
X90255832Y-77055729D01*
X90263924Y-77069994D01*
X90323504Y-77145794D01*
X90399508Y-77206649D01*
X90483245Y-77245314D01*
X90533651Y-77256183D01*
X90615807Y-77265084D01*
X90712354Y-77268232D01*
X90864290Y-77268232D01*
X90864290Y-76839196D01*
X90864290Y-76410161D01*
X90691276Y-76418184D01*
X90594668Y-76425152D01*
X90494118Y-76441196D01*
X90414401Y-76467261D01*
X90351064Y-76505483D01*
X90299654Y-76557995D01*
X90255717Y-76626931D01*
X90248196Y-76641804D01*
X90235773Y-76674711D01*
X90228332Y-76713741D01*
X90224716Y-76766655D01*
X90223768Y-76841217D01*
X89927849Y-76841217D01*
X89928650Y-76777553D01*
X89952551Y-76651931D01*
X89997475Y-76533896D01*
X90062165Y-76427734D01*
X90145367Y-76337728D01*
X90245824Y-76268162D01*
X90278290Y-76251986D01*
X90340763Y-76227291D01*
X90410765Y-76208469D01*
X90492654Y-76194880D01*
X90590791Y-76185886D01*
X90709535Y-76180846D01*
X90853247Y-76179122D01*
X91144058Y-76178609D01*
X91144058Y-76410161D01*
X91144058Y-76841217D01*
G37*
G36*
X96724696Y-76839665D02*
G01*
X96724696Y-77503826D01*
X96396485Y-77503826D01*
X96330784Y-77503662D01*
X96213778Y-77502022D01*
X96119335Y-77498068D01*
X96042826Y-77491121D01*
X95979624Y-77480501D01*
X95925098Y-77465531D01*
X95874620Y-77445531D01*
X95823560Y-77419823D01*
X95795308Y-77403186D01*
X95701992Y-77327583D01*
X95624691Y-77231569D01*
X95565444Y-77119697D01*
X95526292Y-76996520D01*
X95509275Y-76866592D01*
X95510650Y-76841217D01*
X95804406Y-76841217D01*
X95804610Y-76881354D01*
X95806694Y-76943922D01*
X95812002Y-76988803D01*
X95821719Y-77023827D01*
X95837029Y-77056824D01*
X95852526Y-77082545D01*
X95912535Y-77152396D01*
X95987652Y-77209801D01*
X96067798Y-77246477D01*
X96071000Y-77247397D01*
X96128786Y-77258372D01*
X96205890Y-77265617D01*
X96292992Y-77268232D01*
X96444928Y-77268232D01*
X96444928Y-76839196D01*
X96444928Y-76410161D01*
X96271913Y-76418046D01*
X96180506Y-76424140D01*
X96091192Y-76436523D01*
X96021170Y-76455834D01*
X95965011Y-76483659D01*
X95917286Y-76521583D01*
X95873657Y-76567827D01*
X95839369Y-76619036D01*
X95818172Y-76676649D01*
X95807404Y-76748198D01*
X95804406Y-76841217D01*
X95510650Y-76841217D01*
X95516433Y-76734464D01*
X95539925Y-76633809D01*
X95588193Y-76518046D01*
X95654713Y-76414565D01*
X95735891Y-76328766D01*
X95828132Y-76266052D01*
X95862218Y-76249329D01*
X95908439Y-76229923D01*
X95956295Y-76214972D01*
X96010422Y-76203777D01*
X96075456Y-76195641D01*
X96156031Y-76189867D01*
X96256783Y-76185755D01*
X96382348Y-76182609D01*
X96724696Y-76175503D01*
X96724696Y-76410161D01*
X96724696Y-76839665D01*
G37*
G36*
X91762493Y-70774667D02*
G01*
X91762493Y-71363652D01*
X91710957Y-71363652D01*
X91691126Y-71362958D01*
X91666141Y-71355380D01*
X91659420Y-71336341D01*
X91658605Y-71301769D01*
X91653923Y-71226990D01*
X91645937Y-71139096D01*
X91635629Y-71046590D01*
X91623980Y-70957978D01*
X91611972Y-70881763D01*
X91600585Y-70826450D01*
X91594815Y-70805042D01*
X91562325Y-70709964D01*
X91521952Y-70622472D01*
X91477411Y-70549792D01*
X91432415Y-70499154D01*
X91355747Y-70446161D01*
X91256092Y-70400355D01*
X91134902Y-70364036D01*
X90990467Y-70336796D01*
X90821075Y-70318232D01*
X90625015Y-70307937D01*
X90334203Y-70299219D01*
X90334203Y-72178740D01*
X90334203Y-74058261D01*
X90621333Y-74058261D01*
X90908464Y-74058261D01*
X90908464Y-74109797D01*
X90908464Y-74161333D01*
X90032348Y-74161333D01*
X89156232Y-74161333D01*
X89156232Y-74109797D01*
X89156232Y-74058261D01*
X89450725Y-74058261D01*
X89745218Y-74058261D01*
X89745218Y-72178761D01*
X89745218Y-70299261D01*
X89447044Y-70307895D01*
X89345965Y-70311776D01*
X89171198Y-70324338D01*
X89021723Y-70344165D01*
X88895231Y-70371968D01*
X88789417Y-70408458D01*
X88701973Y-70454344D01*
X88630592Y-70510339D01*
X88572966Y-70577153D01*
X88551485Y-70610990D01*
X88508441Y-70703289D01*
X88472194Y-70815243D01*
X88444327Y-70940364D01*
X88426420Y-71072165D01*
X88420056Y-71204158D01*
X88420026Y-71218571D01*
X88418505Y-71284334D01*
X88413119Y-71326649D01*
X88401706Y-71350590D01*
X88382108Y-71361233D01*
X88352164Y-71363652D01*
X88302203Y-71363652D01*
X88302203Y-70774667D01*
X88302203Y-70185681D01*
X90032348Y-70185681D01*
X91762493Y-70185681D01*
X91762493Y-70774667D01*
G37*
G36*
X82294551Y-79138261D02*
G01*
X82294551Y-79800870D01*
X82206203Y-79800870D01*
X82117855Y-79800870D01*
X82117855Y-79521102D01*
X82117855Y-79241333D01*
X82032276Y-79241333D01*
X81946697Y-79241333D01*
X81771320Y-79515458D01*
X81748368Y-79551168D01*
X81698238Y-79627964D01*
X81653752Y-79694512D01*
X81617419Y-79747144D01*
X81591752Y-79782191D01*
X81579262Y-79795984D01*
X81562438Y-79798362D01*
X81523118Y-79799320D01*
X81472636Y-79797946D01*
X81382692Y-79793507D01*
X81573418Y-79502271D01*
X81764144Y-79211034D01*
X81726534Y-79196734D01*
X81698467Y-79187239D01*
X81676750Y-79182435D01*
X81656359Y-79174208D01*
X81622146Y-79147349D01*
X81582425Y-79108024D01*
X81543130Y-79062665D01*
X81510193Y-79017700D01*
X81489548Y-78979561D01*
X81467243Y-78891069D01*
X81466449Y-78845568D01*
X81656072Y-78845568D01*
X81657649Y-78877915D01*
X81676825Y-78957104D01*
X81717592Y-79016498D01*
X81779769Y-79055790D01*
X81803922Y-79063623D01*
X81877402Y-79075448D01*
X81978269Y-79079362D01*
X82117855Y-79079362D01*
X82117855Y-78851131D01*
X82117855Y-78622899D01*
X81962774Y-78622899D01*
X81880585Y-78624829D01*
X81805925Y-78631878D01*
X81757607Y-78643826D01*
X81741686Y-78651576D01*
X81694003Y-78694806D01*
X81665296Y-78759806D01*
X81656072Y-78845568D01*
X81466449Y-78845568D01*
X81465546Y-78793817D01*
X81485186Y-78700233D01*
X81524684Y-78617135D01*
X81582557Y-78551340D01*
X81582873Y-78551080D01*
X81616391Y-78526333D01*
X81651956Y-78507559D01*
X81694130Y-78493968D01*
X81747475Y-78484771D01*
X81816556Y-78479179D01*
X81905934Y-78476402D01*
X82020172Y-78475652D01*
X82294551Y-78475652D01*
X82294551Y-78622899D01*
X82294551Y-79138261D01*
G37*
G36*
X101642807Y-78935797D02*
G01*
X101643286Y-79061664D01*
X101644729Y-79180613D01*
X101647045Y-79282064D01*
X101650145Y-79363030D01*
X101653938Y-79420525D01*
X101658335Y-79451562D01*
X101666250Y-79474323D01*
X101705273Y-79540264D01*
X101761605Y-79599005D01*
X101826656Y-79640887D01*
X101836584Y-79645093D01*
X101912727Y-79664038D01*
X101999675Y-79668375D01*
X102085166Y-79658352D01*
X102156939Y-79634216D01*
X102182910Y-79619773D01*
X102251322Y-79564098D01*
X102296335Y-79492683D01*
X102320572Y-79401804D01*
X102320640Y-79401328D01*
X102324245Y-79361103D01*
X102327510Y-79296434D01*
X102330300Y-79212236D01*
X102332482Y-79113425D01*
X102333923Y-79004916D01*
X102334487Y-78891623D01*
X102334783Y-78475652D01*
X102423131Y-78475652D01*
X102511478Y-78475652D01*
X102511478Y-78919866D01*
X102511054Y-79031259D01*
X102509555Y-79151888D01*
X102507091Y-79258828D01*
X102503781Y-79348141D01*
X102499744Y-79415886D01*
X102495101Y-79458126D01*
X102483809Y-79506433D01*
X102439681Y-79606264D01*
X102371719Y-79691713D01*
X102282530Y-79759933D01*
X102174723Y-79808074D01*
X102143936Y-79815885D01*
X102064673Y-79825018D01*
X101959304Y-79825865D01*
X101950724Y-79825621D01*
X101876953Y-79821969D01*
X101821986Y-79814968D01*
X101776157Y-79802847D01*
X101729799Y-79783837D01*
X101639375Y-79729443D01*
X101560630Y-79654356D01*
X101504648Y-79566592D01*
X101499125Y-79554193D01*
X101491798Y-79534502D01*
X101485938Y-79511657D01*
X101481342Y-79482372D01*
X101477809Y-79443358D01*
X101475136Y-79391330D01*
X101473121Y-79323000D01*
X101471561Y-79235082D01*
X101470255Y-79124289D01*
X101469000Y-78987333D01*
X101464609Y-78475652D01*
X101553667Y-78475652D01*
X101642725Y-78475652D01*
X101642807Y-78935797D01*
G37*
G36*
X94118435Y-76841217D02*
G01*
X94118435Y-77503826D01*
X93802580Y-77503826D01*
X93784960Y-77503802D01*
X93684712Y-77502766D01*
X93591311Y-77500375D01*
X93510409Y-77496862D01*
X93447654Y-77492463D01*
X93408696Y-77487414D01*
X93345521Y-77470767D01*
X93224156Y-77417480D01*
X93118652Y-77341220D01*
X93031675Y-77244658D01*
X92965891Y-77130469D01*
X92923964Y-77001326D01*
X92921943Y-76990633D01*
X92915689Y-76932568D01*
X92913040Y-76860759D01*
X93198779Y-76860759D01*
X93200445Y-76921671D01*
X93206788Y-76967050D01*
X93220094Y-77008035D01*
X93242650Y-77055766D01*
X93248043Y-77065943D01*
X93309181Y-77148366D01*
X93389494Y-77212458D01*
X93482665Y-77253029D01*
X93501384Y-77256852D01*
X93552082Y-77262637D01*
X93617358Y-77266636D01*
X93687739Y-77268150D01*
X93838667Y-77268232D01*
X93838667Y-76839051D01*
X93838667Y-76409870D01*
X93663735Y-76417929D01*
X93574111Y-76424441D01*
X93470220Y-76441477D01*
X93388078Y-76469579D01*
X93323771Y-76510767D01*
X93273390Y-76567062D01*
X93233022Y-76640485D01*
X93225922Y-76657309D01*
X93209928Y-76708301D01*
X93201523Y-76766242D01*
X93198823Y-76842259D01*
X93198779Y-76860759D01*
X92913040Y-76860759D01*
X92913027Y-76860393D01*
X92914495Y-76786310D01*
X92915758Y-76763779D01*
X92921497Y-76698311D01*
X92931382Y-76647155D01*
X92948336Y-76598488D01*
X92975284Y-76540489D01*
X92978009Y-76535024D01*
X93038613Y-76436232D01*
X93116688Y-76350742D01*
X93167289Y-76307604D01*
X93226267Y-76267776D01*
X93290783Y-76236668D01*
X93364794Y-76213330D01*
X93452260Y-76196815D01*
X93557141Y-76186173D01*
X93683397Y-76180458D01*
X93834986Y-76178720D01*
X94118435Y-76178609D01*
X94118435Y-76409870D01*
X94118435Y-76841217D01*
G37*
G36*
X88346377Y-79139882D02*
G01*
X88346377Y-79804111D01*
X88026116Y-79797618D01*
X88002774Y-79797126D01*
X87879891Y-79793481D01*
X87781187Y-79787736D01*
X87702154Y-79778681D01*
X87638287Y-79765107D01*
X87585080Y-79745804D01*
X87538026Y-79719561D01*
X87492619Y-79685169D01*
X87444354Y-79641418D01*
X87403129Y-79598650D01*
X87321552Y-79484927D01*
X87265244Y-79357495D01*
X87235072Y-79218685D01*
X87233033Y-79123536D01*
X87426087Y-79123536D01*
X87426445Y-79171923D01*
X87429328Y-79227576D01*
X87436921Y-79271465D01*
X87451355Y-79314225D01*
X87474759Y-79366493D01*
X87495656Y-79407809D01*
X87556580Y-79499361D01*
X87627004Y-79565722D01*
X87709488Y-79609544D01*
X87733777Y-79617884D01*
X87776012Y-79628250D01*
X87826152Y-79634687D01*
X87891363Y-79637976D01*
X87978813Y-79638899D01*
X88169681Y-79638899D01*
X88169681Y-79129420D01*
X88169681Y-78619941D01*
X87981590Y-78625101D01*
X87919790Y-78627008D01*
X87857562Y-78630275D01*
X87811543Y-78635664D01*
X87774167Y-78644593D01*
X87737868Y-78658478D01*
X87695078Y-78678734D01*
X87607358Y-78732437D01*
X87524168Y-78813277D01*
X87459288Y-78916279D01*
X87458852Y-78917166D01*
X87442334Y-78956509D01*
X87432337Y-78997960D01*
X87427407Y-79050607D01*
X87426087Y-79123536D01*
X87233033Y-79123536D01*
X87231904Y-79070830D01*
X87234051Y-79045590D01*
X87260931Y-78908184D01*
X87312380Y-78786998D01*
X87388436Y-78681962D01*
X87489138Y-78593003D01*
X87500998Y-78584622D01*
X87555944Y-78549553D01*
X87610656Y-78522696D01*
X87670069Y-78503023D01*
X87739118Y-78489509D01*
X87822738Y-78481127D01*
X87925866Y-78476850D01*
X88053435Y-78475652D01*
X88346377Y-78475652D01*
X88346377Y-78619941D01*
X88346377Y-79139882D01*
G37*
G36*
X99831230Y-76167419D02*
G01*
X99904658Y-76177113D01*
X99948138Y-76188028D01*
X100070543Y-76237694D01*
X100177750Y-76310116D01*
X100267713Y-76402348D01*
X100338384Y-76511445D01*
X100387716Y-76634458D01*
X100413663Y-76768443D01*
X100414176Y-76910453D01*
X100394950Y-77034164D01*
X100354268Y-77155218D01*
X100291280Y-77261908D01*
X100203800Y-77358895D01*
X100137283Y-77414413D01*
X100042094Y-77470998D01*
X99930976Y-77511475D01*
X99891010Y-77520499D01*
X99816546Y-77529330D01*
X99733914Y-77531666D01*
X99647814Y-77528188D01*
X99562946Y-77519576D01*
X99484010Y-77506510D01*
X99415705Y-77489670D01*
X99362731Y-77469735D01*
X99329787Y-77447386D01*
X99321575Y-77423302D01*
X99325920Y-77403527D01*
X99335123Y-77359640D01*
X99345720Y-77307637D01*
X99346361Y-77304469D01*
X99358299Y-77256231D01*
X99370215Y-77232854D01*
X99384236Y-77230052D01*
X99458804Y-77253686D01*
X99580738Y-77275877D01*
X99699073Y-77279528D01*
X99739288Y-77275819D01*
X99851823Y-77248375D01*
X99947464Y-77197111D01*
X100025395Y-77122565D01*
X100084799Y-77025275D01*
X100087612Y-77018892D01*
X100107913Y-76949873D01*
X100118446Y-76868461D01*
X100119073Y-76784649D01*
X100109653Y-76708430D01*
X100090047Y-76649797D01*
X100043892Y-76574952D01*
X99979047Y-76504639D01*
X99899925Y-76454624D01*
X99800239Y-76419921D01*
X99793106Y-76418161D01*
X99682974Y-76406711D01*
X99569992Y-76422537D01*
X99459825Y-76464891D01*
X99389910Y-76501112D01*
X99340342Y-76395078D01*
X99290773Y-76289044D01*
X99321908Y-76263444D01*
X99340868Y-76250688D01*
X99383826Y-76227902D01*
X99434029Y-76205777D01*
X99476141Y-76192734D01*
X99555022Y-76177955D01*
X99646863Y-76168422D01*
X99742115Y-76164716D01*
X99831230Y-76167419D01*
G37*
G36*
X80044576Y-77036599D02*
G01*
X80085729Y-77151071D01*
X80122085Y-77252632D01*
X80152591Y-77338327D01*
X80176194Y-77405205D01*
X80191840Y-77450312D01*
X80198474Y-77470696D01*
X80199472Y-77474735D01*
X80200972Y-77488745D01*
X80193831Y-77497333D01*
X80172848Y-77501824D01*
X80132820Y-77503547D01*
X80068544Y-77503826D01*
X79930244Y-77503826D01*
X79878240Y-77345536D01*
X79826236Y-77187246D01*
X79613698Y-77183452D01*
X79401160Y-77179658D01*
X79350763Y-77341742D01*
X79300366Y-77503826D01*
X79163024Y-77503826D01*
X79129139Y-77503445D01*
X79075964Y-77501022D01*
X79039328Y-77496858D01*
X79025681Y-77491531D01*
X79029865Y-77477668D01*
X79043173Y-77438589D01*
X79064645Y-77377187D01*
X79093293Y-77296241D01*
X79128129Y-77198531D01*
X79168166Y-77086835D01*
X79212416Y-76963933D01*
X79220633Y-76941201D01*
X79482145Y-76941201D01*
X79483499Y-76945006D01*
X79502252Y-76953022D01*
X79545105Y-76957575D01*
X79614667Y-76959015D01*
X79644250Y-76958759D01*
X79697058Y-76956811D01*
X79733561Y-76953364D01*
X79747189Y-76948917D01*
X79743156Y-76929486D01*
X79731834Y-76889381D01*
X79715207Y-76834917D01*
X79695265Y-76772167D01*
X79673997Y-76707206D01*
X79653392Y-76646106D01*
X79635441Y-76594944D01*
X79622133Y-76559792D01*
X79615457Y-76546725D01*
X79609870Y-76555838D01*
X79596814Y-76587584D01*
X79578792Y-76636254D01*
X79557873Y-76695732D01*
X79536123Y-76759904D01*
X79515608Y-76822653D01*
X79498395Y-76877862D01*
X79486552Y-76919417D01*
X79482145Y-76941201D01*
X79220633Y-76941201D01*
X79259890Y-76832604D01*
X79494099Y-76185971D01*
X79615346Y-76185971D01*
X79736593Y-76185971D01*
X79963349Y-76811768D01*
X79999681Y-76912166D01*
X80012941Y-76948917D01*
X80044576Y-77036599D01*
G37*
G36*
X98273708Y-76656108D02*
G01*
X98274213Y-76709468D01*
X98275502Y-76830643D01*
X98276912Y-76926855D01*
X98278662Y-77001352D01*
X98280969Y-77057382D01*
X98284052Y-77098195D01*
X98288129Y-77127039D01*
X98293418Y-77147162D01*
X98300137Y-77161814D01*
X98308504Y-77174242D01*
X98337515Y-77209343D01*
X98385491Y-77248553D01*
X98443300Y-77270688D01*
X98520228Y-77280406D01*
X98531678Y-77280970D01*
X98633624Y-77276510D01*
X98715165Y-77252858D01*
X98779053Y-77208788D01*
X98828037Y-77143073D01*
X98828893Y-77141483D01*
X98835730Y-77124838D01*
X98841245Y-77101494D01*
X98845625Y-77068201D01*
X98849056Y-77021710D01*
X98851725Y-76958770D01*
X98853820Y-76876130D01*
X98855528Y-76770541D01*
X98857034Y-76638754D01*
X98861662Y-76178609D01*
X98994820Y-76178609D01*
X99127977Y-76178609D01*
X99120670Y-76675565D01*
X99119305Y-76759199D01*
X99115927Y-76911674D01*
X99111818Y-77035759D01*
X99106989Y-77131191D01*
X99101453Y-77197709D01*
X99095223Y-77235048D01*
X99081543Y-77272048D01*
X99031728Y-77350610D01*
X98959227Y-77419530D01*
X98868512Y-77475048D01*
X98764058Y-77513404D01*
X98710801Y-77523058D01*
X98625710Y-77529128D01*
X98530804Y-77528511D01*
X98435797Y-77521659D01*
X98350404Y-77509025D01*
X98284339Y-77491061D01*
X98278115Y-77488616D01*
X98181985Y-77437066D01*
X98103304Y-77368157D01*
X98047527Y-77286598D01*
X98046673Y-77284863D01*
X98037714Y-77265755D01*
X98030474Y-77246537D01*
X98024738Y-77223949D01*
X98020289Y-77194731D01*
X98016912Y-77155624D01*
X98014392Y-77103368D01*
X98012512Y-77034702D01*
X98011058Y-76946367D01*
X98009812Y-76835104D01*
X98008561Y-76697652D01*
X98004020Y-76178609D01*
X98136646Y-76178609D01*
X98269272Y-76178609D01*
X98273708Y-76656108D01*
G37*
G36*
X83915203Y-79257523D02*
G01*
X83908179Y-79296250D01*
X83867276Y-79427041D01*
X83803731Y-79543733D01*
X83720229Y-79643551D01*
X83619453Y-79723723D01*
X83504086Y-79781475D01*
X83376812Y-79814033D01*
X83349410Y-79817365D01*
X83235966Y-79820625D01*
X83121528Y-79809384D01*
X83019988Y-79784780D01*
X82905565Y-79731345D01*
X82806979Y-79656481D01*
X82725802Y-79564106D01*
X82662756Y-79457853D01*
X82618565Y-79341349D01*
X82593954Y-79218227D01*
X82589867Y-79098647D01*
X82787479Y-79098647D01*
X82794835Y-79223420D01*
X82800231Y-79250913D01*
X82838653Y-79369113D01*
X82897687Y-79472077D01*
X82974734Y-79556047D01*
X83067191Y-79617260D01*
X83147829Y-79647764D01*
X83253766Y-79662775D01*
X83357505Y-79651166D01*
X83455513Y-79614379D01*
X83544253Y-79553855D01*
X83620193Y-79471037D01*
X83679797Y-79367367D01*
X83680572Y-79365608D01*
X83716476Y-79252607D01*
X83728011Y-79138365D01*
X83717078Y-79026536D01*
X83685578Y-78920774D01*
X83635414Y-78824732D01*
X83568485Y-78742065D01*
X83486693Y-78676425D01*
X83391940Y-78631466D01*
X83286127Y-78610843D01*
X83242846Y-78609712D01*
X83143302Y-78623300D01*
X83052586Y-78662067D01*
X82965003Y-78728093D01*
X82928512Y-78764626D01*
X82855677Y-78865293D01*
X82808213Y-78977952D01*
X82787479Y-79098647D01*
X82589867Y-79098647D01*
X82589644Y-79092116D01*
X82606360Y-78966646D01*
X82644826Y-78845448D01*
X82705765Y-78732152D01*
X82789900Y-78630388D01*
X82862940Y-78567831D01*
X82978309Y-78500866D01*
X83106435Y-78460433D01*
X83247246Y-78446563D01*
X83377375Y-78457004D01*
X83508620Y-78492541D01*
X83625325Y-78551067D01*
X83725614Y-78630307D01*
X83807614Y-78727983D01*
X83869447Y-78841820D01*
X83909240Y-78969539D01*
X83925117Y-79108866D01*
X83923150Y-79138365D01*
X83915203Y-79257523D01*
G37*
G36*
X96739420Y-79138261D02*
G01*
X96739420Y-79800870D01*
X96651073Y-79800870D01*
X96562725Y-79800870D01*
X96562725Y-79520367D01*
X96562725Y-79239864D01*
X96478876Y-79244280D01*
X96395028Y-79248696D01*
X96217514Y-79524731D01*
X96040000Y-79800767D01*
X95939033Y-79800818D01*
X95902618Y-79800441D01*
X95864265Y-79797632D01*
X95847138Y-79791105D01*
X95846186Y-79779711D01*
X95848361Y-79775402D01*
X95864354Y-79748926D01*
X95893314Y-79703396D01*
X95932733Y-79642688D01*
X95980105Y-79570674D01*
X96032921Y-79491228D01*
X96055686Y-79457052D01*
X96105111Y-79382065D01*
X96147171Y-79317159D01*
X96179588Y-79265915D01*
X96200081Y-79231915D01*
X96206372Y-79218739D01*
X96194990Y-79211661D01*
X96163874Y-79194442D01*
X96120873Y-79171607D01*
X96098654Y-79159124D01*
X96017475Y-79094210D01*
X95958711Y-79012675D01*
X95923802Y-78918073D01*
X95916187Y-78835609D01*
X96113623Y-78835609D01*
X96113625Y-78837525D01*
X96119091Y-78917106D01*
X96137296Y-78975346D01*
X96171536Y-79018687D01*
X96225105Y-79053571D01*
X96241362Y-79060785D01*
X96282817Y-79071692D01*
X96339790Y-79077572D01*
X96419160Y-79079340D01*
X96562725Y-79079362D01*
X96562725Y-78849580D01*
X96562725Y-78619797D01*
X96386311Y-78625029D01*
X96209897Y-78630261D01*
X96161760Y-78678399D01*
X96150008Y-78690373D01*
X96129817Y-78715084D01*
X96118921Y-78741324D01*
X96114473Y-78778399D01*
X96113623Y-78835609D01*
X95916187Y-78835609D01*
X95914188Y-78813958D01*
X95931310Y-78703884D01*
X95940129Y-78680111D01*
X95976430Y-78621671D01*
X96028055Y-78565159D01*
X96086452Y-78519126D01*
X96143073Y-78492122D01*
X96166425Y-78487974D01*
X96219272Y-78483076D01*
X96291460Y-78479210D01*
X96377198Y-78476666D01*
X96470696Y-78475734D01*
X96739420Y-78475652D01*
X96739420Y-78619797D01*
X96739420Y-79138261D01*
G37*
G36*
X87046154Y-79175601D02*
G01*
X87027279Y-79310282D01*
X86984890Y-79435506D01*
X86921188Y-79548251D01*
X86838373Y-79645497D01*
X86738646Y-79724222D01*
X86624207Y-79781404D01*
X86497256Y-79814023D01*
X86376258Y-79822747D01*
X86236992Y-79809206D01*
X86108459Y-79770531D01*
X85993166Y-79708139D01*
X85893620Y-79623448D01*
X85812329Y-79517873D01*
X85751799Y-79392830D01*
X85734828Y-79330231D01*
X85722098Y-79238635D01*
X85717882Y-79145888D01*
X85911102Y-79145888D01*
X85912668Y-79211504D01*
X85919073Y-79261108D01*
X85932792Y-79306907D01*
X85956305Y-79361109D01*
X85956851Y-79362274D01*
X86021030Y-79472717D01*
X86097997Y-79557322D01*
X86188815Y-79617260D01*
X86253215Y-79642948D01*
X86359944Y-79662024D01*
X86465458Y-79653754D01*
X86565824Y-79619160D01*
X86657108Y-79559265D01*
X86735375Y-79475094D01*
X86735989Y-79474257D01*
X86798400Y-79370725D01*
X86834257Y-79264218D01*
X86846083Y-79147267D01*
X86846045Y-79118148D01*
X86842793Y-79047175D01*
X86832709Y-78989748D01*
X86813052Y-78934107D01*
X86781081Y-78868492D01*
X86770303Y-78848860D01*
X86700502Y-78753483D01*
X86614902Y-78680738D01*
X86516364Y-78632600D01*
X86407750Y-78611040D01*
X86316538Y-78612352D01*
X86230628Y-78633296D01*
X86150774Y-78677179D01*
X86070132Y-78746751D01*
X86054394Y-78762861D01*
X85987161Y-78845187D01*
X85943015Y-78929937D01*
X85918740Y-79025040D01*
X85911115Y-79138423D01*
X85911102Y-79145888D01*
X85717882Y-79145888D01*
X85717500Y-79137495D01*
X85721023Y-79036276D01*
X85732657Y-78944444D01*
X85752390Y-78871462D01*
X85779208Y-78810958D01*
X85852981Y-78692748D01*
X85945544Y-78596159D01*
X86055035Y-78522579D01*
X86179591Y-78473399D01*
X86317348Y-78450008D01*
X86425240Y-78449387D01*
X86564129Y-78471134D01*
X86689341Y-78517643D01*
X86798955Y-78587284D01*
X86891049Y-78678431D01*
X86963704Y-78789458D01*
X87014997Y-78918735D01*
X87043007Y-79064638D01*
X87045350Y-79147267D01*
X87046154Y-79175601D01*
G37*
G36*
X105797898Y-77043681D02*
G01*
X105802435Y-77908754D01*
X105842998Y-77991351D01*
X105843005Y-77991365D01*
X105893135Y-78069881D01*
X105962560Y-78147106D01*
X106042121Y-78214167D01*
X106122657Y-78262193D01*
X106220169Y-78297668D01*
X106347466Y-78320275D01*
X106475210Y-78319166D01*
X106599210Y-78295620D01*
X106715278Y-78250913D01*
X106819225Y-78186323D01*
X106906859Y-78103128D01*
X106973992Y-78002605D01*
X106980570Y-77988635D01*
X106991255Y-77959398D01*
X107000367Y-77923339D01*
X107008027Y-77878197D01*
X107014355Y-77821707D01*
X107019471Y-77751609D01*
X107023494Y-77665638D01*
X107026545Y-77561534D01*
X107028742Y-77437032D01*
X107030207Y-77289871D01*
X107031059Y-77117789D01*
X107031417Y-76918522D01*
X107031942Y-76178609D01*
X107179189Y-76178609D01*
X107326435Y-76178609D01*
X107326179Y-77021594D01*
X107326151Y-77089855D01*
X107325938Y-77271943D01*
X107325383Y-77427968D01*
X107324304Y-77560456D01*
X107322515Y-77671935D01*
X107319832Y-77764931D01*
X107316071Y-77841971D01*
X107311047Y-77905582D01*
X107304576Y-77958291D01*
X107296473Y-78002625D01*
X107286555Y-78041111D01*
X107274635Y-78076276D01*
X107260531Y-78110646D01*
X107244057Y-78146749D01*
X107219145Y-78193156D01*
X107145557Y-78290767D01*
X107049615Y-78380253D01*
X106936078Y-78458114D01*
X106809710Y-78520849D01*
X106675269Y-78564958D01*
X106615615Y-78576771D01*
X106502468Y-78588856D01*
X106380600Y-78591822D01*
X106262019Y-78585552D01*
X106158733Y-78569932D01*
X106078111Y-78548581D01*
X105933199Y-78490576D01*
X105805232Y-78412280D01*
X105696652Y-78315671D01*
X105609904Y-78202725D01*
X105547431Y-78075420D01*
X105538862Y-78050943D01*
X105527356Y-78011789D01*
X105517603Y-77968187D01*
X105509464Y-77917635D01*
X105502800Y-77857635D01*
X105497474Y-77785685D01*
X105493348Y-77699288D01*
X105490281Y-77595942D01*
X105488137Y-77473148D01*
X105486777Y-77328407D01*
X105486063Y-77159218D01*
X105485855Y-76963082D01*
X105485855Y-76178609D01*
X105639608Y-76178609D01*
X105793360Y-76178609D01*
X105797898Y-77043681D01*
G37*
G36*
X105088290Y-77356580D02*
G01*
X105088290Y-78534551D01*
X104933681Y-78534551D01*
X104779073Y-78534551D01*
X104779073Y-78091082D01*
X104779073Y-77647613D01*
X104664957Y-77658553D01*
X104657964Y-77659210D01*
X104548110Y-77666267D01*
X104436456Y-77668044D01*
X104330732Y-77664767D01*
X104238670Y-77656664D01*
X104168000Y-77643962D01*
X104057938Y-77607492D01*
X103927410Y-77539592D01*
X103816108Y-77451044D01*
X103725753Y-77343604D01*
X103658066Y-77219033D01*
X103614770Y-77079086D01*
X103605305Y-77008788D01*
X103601722Y-76917982D01*
X103602397Y-76892754D01*
X103918047Y-76892754D01*
X103918206Y-76931903D01*
X103920436Y-76993329D01*
X103926527Y-77039367D01*
X103938046Y-77079386D01*
X103956562Y-77122753D01*
X104015369Y-77222207D01*
X104090921Y-77302775D01*
X104179167Y-77358174D01*
X104209765Y-77370845D01*
X104242064Y-77380680D01*
X104279657Y-77387314D01*
X104328581Y-77391482D01*
X104394876Y-77393918D01*
X104484580Y-77395359D01*
X104526033Y-77395715D01*
X104604101Y-77395720D01*
X104670789Y-77394865D01*
X104720077Y-77393252D01*
X104745942Y-77390981D01*
X104779073Y-77383981D01*
X104779073Y-76912485D01*
X104779073Y-76440989D01*
X104488261Y-76446224D01*
X104437113Y-76447276D01*
X104329220Y-76451004D01*
X104244701Y-76457197D01*
X104179239Y-76466932D01*
X104128517Y-76481289D01*
X104088218Y-76501349D01*
X104054025Y-76528189D01*
X104021620Y-76562889D01*
X104003729Y-76584931D01*
X103962468Y-76647980D01*
X103936165Y-76714789D01*
X103922223Y-76793624D01*
X103918047Y-76892754D01*
X103602397Y-76892754D01*
X103604350Y-76819815D01*
X103612659Y-76723419D01*
X103626117Y-76637924D01*
X103644196Y-76572462D01*
X103645879Y-76568148D01*
X103705253Y-76455285D01*
X103786144Y-76358976D01*
X103884712Y-76282935D01*
X103997121Y-76230879D01*
X104016279Y-76224876D01*
X104070184Y-76211115D01*
X104131633Y-76200215D01*
X104204273Y-76191897D01*
X104291752Y-76185884D01*
X104397714Y-76181899D01*
X104525809Y-76179664D01*
X104679681Y-76178900D01*
X105088290Y-76178609D01*
X105088290Y-76440989D01*
X105088290Y-77356580D01*
G37*
G36*
X80171719Y-79130348D02*
G01*
X80163054Y-79256802D01*
X80138606Y-79376573D01*
X80098877Y-79480266D01*
X80038543Y-79572176D01*
X79952491Y-79660036D01*
X79850496Y-79732924D01*
X79739220Y-79786131D01*
X79625329Y-79814946D01*
X79490634Y-79822752D01*
X79349946Y-79806829D01*
X79222493Y-79766072D01*
X79110126Y-79701857D01*
X79014694Y-79615557D01*
X78938045Y-79508545D01*
X78882030Y-79382194D01*
X78848496Y-79237879D01*
X78841523Y-79138261D01*
X79047768Y-79138261D01*
X79048265Y-79199787D01*
X79051035Y-79255136D01*
X79057571Y-79296887D01*
X79069352Y-79333746D01*
X79087855Y-79374418D01*
X79129355Y-79442814D01*
X79190452Y-79516732D01*
X79259250Y-79580068D01*
X79327382Y-79624099D01*
X79377425Y-79643886D01*
X79479054Y-79661879D01*
X79583579Y-79654969D01*
X79684075Y-79623999D01*
X79773620Y-79569810D01*
X79827133Y-79520620D01*
X79899446Y-79425031D01*
X79948540Y-79317773D01*
X79974080Y-79203315D01*
X79975733Y-79086125D01*
X79953164Y-78970672D01*
X79906038Y-78861422D01*
X79834021Y-78762845D01*
X79776736Y-78706616D01*
X79703723Y-78655306D01*
X79624861Y-78624895D01*
X79531972Y-78611279D01*
X79522420Y-78610681D01*
X79465209Y-78608798D01*
X79422436Y-78613198D01*
X79381050Y-78626424D01*
X79328002Y-78651020D01*
X79230203Y-78713219D01*
X79150313Y-78796261D01*
X79086426Y-78902667D01*
X79072886Y-78932622D01*
X79059740Y-78970559D01*
X79052131Y-79011637D01*
X79048619Y-79064618D01*
X79047768Y-79138261D01*
X78841523Y-79138261D01*
X78840779Y-79127637D01*
X78853653Y-78990860D01*
X78890366Y-78862828D01*
X78948913Y-78746578D01*
X79027292Y-78645149D01*
X79123498Y-78561580D01*
X79235527Y-78498908D01*
X79361377Y-78460173D01*
X79458947Y-78449306D01*
X79567010Y-78450933D01*
X79672119Y-78464384D01*
X79761913Y-78488777D01*
X79778975Y-78495570D01*
X79890990Y-78557724D01*
X79989436Y-78643561D01*
X80070785Y-78749427D01*
X80131510Y-78871667D01*
X80139680Y-78894974D01*
X80164095Y-79006607D01*
X80168994Y-79086125D01*
X80171719Y-79130348D01*
G37*
G36*
X92513771Y-79246764D02*
G01*
X92558635Y-79371421D01*
X92599265Y-79484838D01*
X92634689Y-79584275D01*
X92663934Y-79666995D01*
X92686028Y-79730256D01*
X92699997Y-79771322D01*
X92704870Y-79787452D01*
X92693351Y-79793895D01*
X92659716Y-79798938D01*
X92611708Y-79800870D01*
X92518547Y-79800870D01*
X92476925Y-79679391D01*
X92473012Y-79667993D01*
X92449198Y-79599327D01*
X92425689Y-79532528D01*
X92407058Y-79480609D01*
X92378812Y-79403304D01*
X92123847Y-79403304D01*
X91868883Y-79403304D01*
X91799036Y-79602087D01*
X91729188Y-79800870D01*
X91635406Y-79800870D01*
X91590096Y-79799679D01*
X91555043Y-79796248D01*
X91541623Y-79791362D01*
X91542063Y-79789723D01*
X91549627Y-79767382D01*
X91565670Y-79721602D01*
X91589013Y-79655664D01*
X91618480Y-79572849D01*
X91652891Y-79476436D01*
X91691069Y-79369706D01*
X91731837Y-79255939D01*
X91737079Y-79241333D01*
X91925707Y-79241333D01*
X92125443Y-79241333D01*
X92153460Y-79241297D01*
X92226286Y-79240553D01*
X92274989Y-79238504D01*
X92303633Y-79234696D01*
X92316279Y-79228678D01*
X92316992Y-79219996D01*
X92309911Y-79200631D01*
X92294568Y-79158021D01*
X92272738Y-79097112D01*
X92246136Y-79022685D01*
X92216476Y-78939523D01*
X92203421Y-78902904D01*
X92174368Y-78822099D01*
X92153000Y-78764944D01*
X92137756Y-78728439D01*
X92127073Y-78709585D01*
X92119388Y-78705385D01*
X92113140Y-78712839D01*
X92106765Y-78728948D01*
X92100934Y-78745318D01*
X92085055Y-78790099D01*
X92062803Y-78852983D01*
X92036269Y-78928060D01*
X92007544Y-79009420D01*
X91925707Y-79241333D01*
X91737079Y-79241333D01*
X91774016Y-79138415D01*
X91816429Y-79020415D01*
X91857897Y-78905219D01*
X91897242Y-78796107D01*
X91933288Y-78696359D01*
X91964855Y-78609255D01*
X91990766Y-78538077D01*
X92009844Y-78486103D01*
X92020910Y-78456615D01*
X92026267Y-78446844D01*
X92042153Y-78436994D01*
X92073096Y-78433386D01*
X92126200Y-78434528D01*
X92221229Y-78438841D01*
X92463049Y-79106437D01*
X92465646Y-79113605D01*
X92504097Y-79219996D01*
X92513771Y-79246764D01*
G37*
G36*
X85081220Y-76170747D02*
G01*
X85165542Y-76184936D01*
X85244440Y-76209536D01*
X85326015Y-76245972D01*
X85327689Y-76246812D01*
X85436978Y-76317596D01*
X85527405Y-76408155D01*
X85597817Y-76514774D01*
X85647062Y-76633739D01*
X85673986Y-76761335D01*
X85677436Y-76893847D01*
X85656260Y-77027561D01*
X85609304Y-77158762D01*
X85585216Y-77204664D01*
X85508175Y-77308388D01*
X85408944Y-77395509D01*
X85290355Y-77463829D01*
X85155240Y-77511150D01*
X85150595Y-77512294D01*
X85063769Y-77525396D01*
X84957174Y-77529435D01*
X84838396Y-77524930D01*
X84715024Y-77512400D01*
X84594643Y-77492362D01*
X84484841Y-77465336D01*
X84478303Y-77462371D01*
X84470883Y-77453173D01*
X84465643Y-77434599D01*
X84462212Y-77402634D01*
X84460221Y-77353264D01*
X84459298Y-77282476D01*
X84459073Y-77186254D01*
X84459073Y-76914841D01*
X84591594Y-76914841D01*
X84724116Y-76914841D01*
X84724116Y-77090969D01*
X84724116Y-77267097D01*
X84786696Y-77284065D01*
X84801438Y-77287730D01*
X84905138Y-77297187D01*
X85011975Y-77281907D01*
X85116137Y-77244530D01*
X85211812Y-77187695D01*
X85293188Y-77114042D01*
X85354454Y-77026210D01*
X85362269Y-77010057D01*
X85388620Y-76922251D01*
X85396697Y-76824891D01*
X85386409Y-76728789D01*
X85357665Y-76644751D01*
X85309450Y-76571178D01*
X85235479Y-76502312D01*
X85137078Y-76445141D01*
X85105342Y-76431079D01*
X85067687Y-76418440D01*
X85026885Y-76411316D01*
X84974178Y-76408336D01*
X84900812Y-76408129D01*
X84890517Y-76408230D01*
X84812534Y-76410673D01*
X84751643Y-76417085D01*
X84696801Y-76429159D01*
X84636964Y-76448590D01*
X84622951Y-76453576D01*
X84573930Y-76470334D01*
X84538887Y-76481233D01*
X84524650Y-76484113D01*
X84520322Y-76472076D01*
X84510196Y-76438712D01*
X84496853Y-76392116D01*
X84485184Y-76350501D01*
X84472755Y-76306390D01*
X84465264Y-76280063D01*
X84466408Y-76268694D01*
X84482671Y-76254215D01*
X84519231Y-76237152D01*
X84580213Y-76215177D01*
X84592800Y-76210982D01*
X84656681Y-76192286D01*
X84718806Y-76179877D01*
X84789569Y-76172091D01*
X84879361Y-76167265D01*
X84983375Y-76165539D01*
X85081220Y-76170747D01*
G37*
G36*
X95270217Y-78451256D02*
G01*
X95380480Y-78471815D01*
X95478856Y-78511031D01*
X95559524Y-78568435D01*
X95562320Y-78571114D01*
X95613099Y-78633722D01*
X95641168Y-78704725D01*
X95649797Y-78792232D01*
X95644411Y-78861365D01*
X95626240Y-78924076D01*
X95592736Y-78981951D01*
X95541354Y-79037743D01*
X95469549Y-79094208D01*
X95374775Y-79154103D01*
X95254488Y-79220183D01*
X95235700Y-79230129D01*
X95153230Y-79277952D01*
X95094902Y-79321322D01*
X95057375Y-79363840D01*
X95037309Y-79409109D01*
X95031362Y-79460730D01*
X95035166Y-79503879D01*
X95060618Y-79568201D01*
X95109152Y-79615128D01*
X95179777Y-79643867D01*
X95271506Y-79653623D01*
X95316498Y-79651708D01*
X95434434Y-79626983D01*
X95544984Y-79573759D01*
X95547758Y-79572013D01*
X95586810Y-79549818D01*
X95609581Y-79544005D01*
X95622557Y-79552822D01*
X95625119Y-79556736D01*
X95643603Y-79585428D01*
X95667354Y-79622698D01*
X95699099Y-79672759D01*
X95663405Y-79702148D01*
X95614325Y-79734854D01*
X95542772Y-79769995D01*
X95465307Y-79798755D01*
X95394223Y-79815936D01*
X95349847Y-79821215D01*
X95234007Y-79821535D01*
X95125735Y-79803068D01*
X95029808Y-79767392D01*
X94951002Y-79716087D01*
X94894097Y-79650729D01*
X94878319Y-79622809D01*
X94855067Y-79560710D01*
X94843659Y-79485111D01*
X94842488Y-79467653D01*
X94844891Y-79387840D01*
X94862976Y-79318377D01*
X94899314Y-79255738D01*
X94956473Y-79196393D01*
X95037025Y-79136815D01*
X95143540Y-79073476D01*
X95146798Y-79071677D01*
X95251745Y-79012057D01*
X95332293Y-78962358D01*
X95390975Y-78920793D01*
X95430324Y-78885572D01*
X95452869Y-78854906D01*
X95468110Y-78806631D01*
X95462229Y-78748515D01*
X95431664Y-78695513D01*
X95378989Y-78651742D01*
X95306780Y-78621318D01*
X95284891Y-78616534D01*
X95203300Y-78613819D01*
X95109323Y-78629048D01*
X95010015Y-78660684D01*
X94912430Y-78707192D01*
X94903667Y-78700152D01*
X94885918Y-78674758D01*
X94864528Y-78639165D01*
X94844389Y-78601996D01*
X94830395Y-78571872D01*
X94827439Y-78557415D01*
X94836261Y-78552150D01*
X94865352Y-78536692D01*
X94906694Y-78515604D01*
X94926270Y-78506236D01*
X95037294Y-78467996D01*
X95153882Y-78449826D01*
X95270217Y-78451256D01*
G37*
G36*
X103071015Y-70303478D02*
G01*
X102791247Y-70303478D01*
X102511478Y-70303478D01*
X102511478Y-72180870D01*
X102511478Y-74058261D01*
X102791247Y-74058261D01*
X103071015Y-74058261D01*
X103071015Y-74109797D01*
X103071015Y-74161333D01*
X102209623Y-74161333D01*
X101348232Y-74161333D01*
X101348232Y-74109797D01*
X101348232Y-74058261D01*
X101635362Y-74058261D01*
X101922493Y-74058261D01*
X101922493Y-73189507D01*
X101922441Y-73044097D01*
X101922275Y-72895531D01*
X101922005Y-72758454D01*
X101921641Y-72635431D01*
X101921196Y-72529030D01*
X101920680Y-72441814D01*
X101920103Y-72376351D01*
X101919477Y-72335206D01*
X101918812Y-72320944D01*
X101904757Y-72324872D01*
X101870062Y-72335396D01*
X101822486Y-72350176D01*
X101775428Y-72363071D01*
X101656926Y-72384404D01*
X101521104Y-72396877D01*
X101375334Y-72400432D01*
X101226987Y-72395011D01*
X101083433Y-72380557D01*
X100952044Y-72357011D01*
X100905129Y-72345735D01*
X100712703Y-72286987D01*
X100539859Y-72213125D01*
X100388234Y-72125216D01*
X100259468Y-72024326D01*
X100155201Y-71911521D01*
X100077072Y-71787867D01*
X100070644Y-71774914D01*
X100030725Y-71685413D01*
X100002784Y-71600605D01*
X99985063Y-71512059D01*
X99975803Y-71411344D01*
X99974397Y-71344651D01*
X100590929Y-71344651D01*
X100601081Y-71515399D01*
X100629875Y-71673177D01*
X100676576Y-71814161D01*
X100740445Y-71934529D01*
X100808169Y-72016862D01*
X100902427Y-72098555D01*
X101013489Y-72170479D01*
X101134876Y-72228469D01*
X101260108Y-72268364D01*
X101288767Y-72274069D01*
X101366478Y-72283466D01*
X101455955Y-72288391D01*
X101547005Y-72288693D01*
X101629435Y-72284219D01*
X101693051Y-72274817D01*
X101724564Y-72265777D01*
X101780172Y-72246053D01*
X101836616Y-72222749D01*
X101922493Y-72184210D01*
X101922493Y-71242356D01*
X101922493Y-70300503D01*
X101616957Y-70307208D01*
X101573828Y-70308225D01*
X101459457Y-70312075D01*
X101367110Y-70317812D01*
X101291199Y-70326426D01*
X101226131Y-70338909D01*
X101166317Y-70356251D01*
X101106167Y-70379444D01*
X101040089Y-70409479D01*
X100958672Y-70456877D01*
X100859174Y-70539253D01*
X100773313Y-70638545D01*
X100708026Y-70747684D01*
X100696414Y-70772878D01*
X100658736Y-70867048D01*
X100631243Y-70962177D01*
X100611589Y-71067705D01*
X100597431Y-71193073D01*
X100590929Y-71344651D01*
X99974397Y-71344651D01*
X99973245Y-71290029D01*
X99979034Y-71142547D01*
X100000252Y-70992726D01*
X100038334Y-70860189D01*
X100094628Y-70740418D01*
X100170481Y-70628898D01*
X100232496Y-70560592D01*
X100346363Y-70468175D01*
X100484709Y-70387107D01*
X100645562Y-70318326D01*
X100826952Y-70262769D01*
X101026909Y-70221374D01*
X101033423Y-70220333D01*
X101069915Y-70215264D01*
X101111711Y-70210860D01*
X101161225Y-70207052D01*
X101220873Y-70203768D01*
X101293069Y-70200941D01*
X101380227Y-70198499D01*
X101484761Y-70196374D01*
X101609087Y-70194495D01*
X101755619Y-70192792D01*
X101926770Y-70191196D01*
X102124957Y-70189637D01*
X103071015Y-70182676D01*
X103071015Y-70243077D01*
X103071015Y-70300503D01*
X103071015Y-70303478D01*
G37*
G36*
X99469469Y-72358625D02*
G01*
X99438368Y-72613447D01*
X99382276Y-72858401D01*
X99374584Y-72883769D01*
X99337596Y-72986799D01*
X99289427Y-73101110D01*
X99234706Y-73216773D01*
X99178058Y-73323857D01*
X99124111Y-73412434D01*
X99003088Y-73576440D01*
X98849870Y-73746496D01*
X98684297Y-73894293D01*
X98508420Y-74018410D01*
X98324290Y-74117421D01*
X98133959Y-74189905D01*
X97939478Y-74234438D01*
X97867986Y-74242146D01*
X97755407Y-74246040D01*
X97631643Y-74243196D01*
X97506529Y-74234146D01*
X97389901Y-74219419D01*
X97291594Y-74199544D01*
X97266000Y-74192555D01*
X97132623Y-74146680D01*
X96994701Y-74085582D01*
X96863560Y-74014705D01*
X96750523Y-73939490D01*
X96668293Y-73873908D01*
X96495173Y-73709220D01*
X96341552Y-73524062D01*
X96208767Y-73320628D01*
X96098151Y-73101113D01*
X96011041Y-72867708D01*
X95948772Y-72622609D01*
X95937307Y-72547644D01*
X95927439Y-72436270D01*
X95921913Y-72309368D01*
X95920661Y-72174378D01*
X95922337Y-72097478D01*
X96571216Y-72097478D01*
X96573037Y-72326274D01*
X96584505Y-72552054D01*
X96605677Y-72770391D01*
X96636609Y-72976856D01*
X96677360Y-73167020D01*
X96727987Y-73336456D01*
X96736066Y-73358983D01*
X96816938Y-73549809D01*
X96910776Y-73714228D01*
X97017628Y-73852294D01*
X97137542Y-73964061D01*
X97270568Y-74049585D01*
X97416754Y-74108919D01*
X97470886Y-74120910D01*
X97549908Y-74131249D01*
X97639728Y-74138066D01*
X97730619Y-74140863D01*
X97812852Y-74139145D01*
X97876702Y-74132413D01*
X97962544Y-74113583D01*
X98102850Y-74065216D01*
X98225623Y-73996383D01*
X98335502Y-73904219D01*
X98437122Y-73785855D01*
X98492715Y-73706544D01*
X98576447Y-73562542D01*
X98646728Y-73405559D01*
X98704013Y-73233505D01*
X98748760Y-73044291D01*
X98781425Y-72835827D01*
X98802466Y-72606025D01*
X98812339Y-72352795D01*
X98811502Y-72074048D01*
X98805999Y-71900694D01*
X98791516Y-71673616D01*
X98768642Y-71469678D01*
X98736668Y-71285682D01*
X98694887Y-71118433D01*
X98642589Y-70964736D01*
X98579066Y-70821394D01*
X98503611Y-70685212D01*
X98501511Y-70681786D01*
X98398854Y-70538019D01*
X98283924Y-70420969D01*
X98156329Y-70330410D01*
X98015675Y-70266112D01*
X97861568Y-70227846D01*
X97693615Y-70215386D01*
X97635456Y-70216906D01*
X97470279Y-70238314D01*
X97318989Y-70285187D01*
X97181258Y-70357769D01*
X97056759Y-70456305D01*
X96945161Y-70581038D01*
X96846138Y-70732214D01*
X96759359Y-70910075D01*
X96704804Y-71063259D01*
X96659252Y-71240707D01*
X96623059Y-71437282D01*
X96596284Y-71648554D01*
X96578984Y-71870096D01*
X96571216Y-72097478D01*
X95922337Y-72097478D01*
X95923617Y-72038739D01*
X95930714Y-71909889D01*
X95941883Y-71795270D01*
X95957060Y-71702319D01*
X95972005Y-71636753D01*
X96040659Y-71402485D01*
X96129961Y-71186963D01*
X96241740Y-70986787D01*
X96377825Y-70798556D01*
X96540048Y-70618871D01*
X96571996Y-70587327D01*
X96733206Y-70444606D01*
X96895484Y-70329490D01*
X97061919Y-70240535D01*
X97235603Y-70176300D01*
X97419626Y-70135341D01*
X97617079Y-70116216D01*
X97716126Y-70114134D01*
X97905621Y-70124282D01*
X98081580Y-70154913D01*
X98250288Y-70207334D01*
X98418029Y-70282854D01*
X98588946Y-70385617D01*
X98758298Y-70518152D01*
X98914945Y-70672752D01*
X99056556Y-70846224D01*
X99180805Y-71035376D01*
X99285363Y-71237015D01*
X99367901Y-71447949D01*
X99426092Y-71664987D01*
X99455806Y-71843630D01*
X99475356Y-72099998D01*
X99469602Y-72352795D01*
X99469469Y-72358625D01*
G37*
G36*
X87900218Y-72247131D02*
G01*
X87896367Y-72367299D01*
X87891074Y-72468285D01*
X87883966Y-72551060D01*
X87874547Y-72621332D01*
X87862324Y-72684813D01*
X87860569Y-72692647D01*
X87793876Y-72931034D01*
X87704776Y-73151669D01*
X87591664Y-73357488D01*
X87452934Y-73551424D01*
X87286981Y-73736411D01*
X87196314Y-73823788D01*
X87047058Y-73948729D01*
X86897050Y-74049076D01*
X86741650Y-74127389D01*
X86576215Y-74186231D01*
X86396105Y-74228165D01*
X86333541Y-74237729D01*
X86166613Y-74248877D01*
X85991579Y-74242633D01*
X85819075Y-74219680D01*
X85659738Y-74180705D01*
X85588629Y-74156748D01*
X85422526Y-74085564D01*
X85266977Y-73995027D01*
X85116866Y-73881905D01*
X84967073Y-73742962D01*
X84928800Y-73703383D01*
X84769256Y-73514698D01*
X84635963Y-73313868D01*
X84528505Y-73099958D01*
X84446466Y-72872032D01*
X84389430Y-72629154D01*
X84356981Y-72370389D01*
X84349233Y-72195289D01*
X84349940Y-72177575D01*
X85004114Y-72177575D01*
X85007672Y-72382020D01*
X85019839Y-72575901D01*
X85033772Y-72712659D01*
X85067824Y-72949235D01*
X85112762Y-73161331D01*
X85169272Y-73351088D01*
X85238042Y-73520644D01*
X85319756Y-73672140D01*
X85415103Y-73807715D01*
X85426555Y-73821858D01*
X85532958Y-73933813D01*
X85648052Y-74019598D01*
X85776212Y-74081940D01*
X85921813Y-74123567D01*
X86080299Y-74144659D01*
X86245639Y-74140904D01*
X86402846Y-74110439D01*
X86549730Y-74054120D01*
X86684100Y-73972803D01*
X86803767Y-73867345D01*
X86906540Y-73738601D01*
X86909726Y-73733818D01*
X86981650Y-73617075D01*
X87042427Y-73498546D01*
X87093513Y-73373637D01*
X87136367Y-73237754D01*
X87172444Y-73086303D01*
X87203202Y-72914689D01*
X87230097Y-72718319D01*
X87233524Y-72685488D01*
X87239713Y-72596020D01*
X87244253Y-72486182D01*
X87247147Y-72362148D01*
X87248393Y-72230091D01*
X87247994Y-72096183D01*
X87245950Y-71966598D01*
X87242262Y-71847508D01*
X87236930Y-71745087D01*
X87229956Y-71665507D01*
X87219471Y-71584802D01*
X87200851Y-71464371D01*
X87179156Y-71343737D01*
X87155833Y-71230282D01*
X87132330Y-71131387D01*
X87110095Y-71054435D01*
X87065563Y-70937048D01*
X87002856Y-70804488D01*
X86930726Y-70678307D01*
X86852750Y-70564169D01*
X86772505Y-70467742D01*
X86693567Y-70394690D01*
X86575191Y-70319478D01*
X86436362Y-70261949D01*
X86287827Y-70226789D01*
X86134360Y-70214029D01*
X85980736Y-70223699D01*
X85831729Y-70255828D01*
X85692114Y-70310448D01*
X85566665Y-70387587D01*
X85543861Y-70405593D01*
X85441252Y-70505436D01*
X85345547Y-70629105D01*
X85259495Y-70772154D01*
X85185843Y-70930138D01*
X85127337Y-71098609D01*
X85100468Y-71202887D01*
X85067405Y-71371868D01*
X85040810Y-71559713D01*
X85021111Y-71760536D01*
X85008736Y-71968452D01*
X85004114Y-72177575D01*
X84349940Y-72177575D01*
X84359701Y-71933013D01*
X84397286Y-71681510D01*
X84461817Y-71441260D01*
X84553123Y-71212744D01*
X84671033Y-70996444D01*
X84815376Y-70792840D01*
X84985980Y-70602413D01*
X85116291Y-70483224D01*
X85294591Y-70352707D01*
X85483059Y-70249774D01*
X85681881Y-70174327D01*
X85891243Y-70126268D01*
X85977878Y-70116988D01*
X86089143Y-70113314D01*
X86209271Y-70115839D01*
X86328767Y-70124117D01*
X86438136Y-70137702D01*
X86527884Y-70156150D01*
X86639338Y-70190160D01*
X86812642Y-70261433D01*
X86975182Y-70353574D01*
X87131626Y-70469384D01*
X87286637Y-70611665D01*
X87347508Y-70675066D01*
X87504844Y-70865471D01*
X87635819Y-71068259D01*
X87741058Y-71284649D01*
X87821186Y-71515861D01*
X87876828Y-71763112D01*
X87881588Y-71791587D01*
X87891265Y-71856368D01*
X87897875Y-71916531D01*
X87901746Y-71978882D01*
X87903208Y-72050228D01*
X87902589Y-72137375D01*
X87900586Y-72230091D01*
X87900218Y-72247131D01*
G37*
G36*
X95532000Y-70303478D02*
G01*
X95252232Y-70303478D01*
X94972464Y-70303478D01*
X94972464Y-72180870D01*
X94972464Y-74058261D01*
X95252232Y-74058261D01*
X95532000Y-74058261D01*
X95532000Y-74109797D01*
X95532000Y-74161333D01*
X94670609Y-74161333D01*
X93809218Y-74161333D01*
X93809218Y-74109797D01*
X93809218Y-74058261D01*
X94096348Y-74058261D01*
X94383478Y-74058261D01*
X94383478Y-73115884D01*
X94383478Y-72173507D01*
X94181015Y-72173619D01*
X94173416Y-72173629D01*
X93998056Y-72177742D01*
X93848623Y-72189948D01*
X93722564Y-72211215D01*
X93617322Y-72242512D01*
X93530345Y-72284807D01*
X93459077Y-72339069D01*
X93400964Y-72406265D01*
X93353451Y-72487366D01*
X93342472Y-72510562D01*
X93318543Y-72568019D01*
X93298584Y-72629106D01*
X93281433Y-72698977D01*
X93265933Y-72782783D01*
X93250924Y-72885677D01*
X93235248Y-73012812D01*
X93215353Y-73173789D01*
X93187449Y-73366981D01*
X93157964Y-73533769D01*
X93126445Y-73675897D01*
X93092441Y-73795109D01*
X93055500Y-73893149D01*
X93015170Y-73971760D01*
X92970999Y-74032687D01*
X92901627Y-74091350D01*
X92805709Y-74138979D01*
X92685637Y-74173972D01*
X92542899Y-74195761D01*
X92500715Y-74199006D01*
X92377151Y-74200743D01*
X92247538Y-74193072D01*
X92123457Y-74176929D01*
X92016493Y-74153249D01*
X91978075Y-74140457D01*
X91947439Y-74121700D01*
X91941721Y-74098553D01*
X91958325Y-74067168D01*
X91970870Y-74053201D01*
X91986871Y-74048329D01*
X92014511Y-74052498D01*
X92062024Y-74065581D01*
X92063619Y-74066043D01*
X92168163Y-74087402D01*
X92256063Y-74085709D01*
X92329398Y-74060623D01*
X92390249Y-74011805D01*
X92407848Y-73991505D01*
X92425128Y-73967819D01*
X92440108Y-73940707D01*
X92453393Y-73907297D01*
X92465591Y-73864715D01*
X92477309Y-73810090D01*
X92489153Y-73740549D01*
X92501729Y-73653218D01*
X92515645Y-73545227D01*
X92531508Y-73413701D01*
X92549923Y-73255768D01*
X92564675Y-73133908D01*
X92583188Y-73000082D01*
X92602053Y-72888075D01*
X92622208Y-72793609D01*
X92644591Y-72712408D01*
X92670140Y-72640195D01*
X92699794Y-72572695D01*
X92742352Y-72495359D01*
X92813632Y-72403899D01*
X92902881Y-72328545D01*
X93015594Y-72263926D01*
X93041741Y-72252009D01*
X93114022Y-72223638D01*
X93197362Y-72195529D01*
X93284100Y-72169864D01*
X93366575Y-72148825D01*
X93437124Y-72134594D01*
X93488088Y-72129352D01*
X93519474Y-72127447D01*
X93534316Y-72120696D01*
X93524106Y-72110660D01*
X93490905Y-72099021D01*
X93436774Y-72087461D01*
X93327315Y-72063807D01*
X93201211Y-72026867D01*
X93073240Y-71980737D01*
X92949607Y-71928077D01*
X92836518Y-71871544D01*
X92740180Y-71813800D01*
X92666796Y-71757502D01*
X92639154Y-71731180D01*
X92575293Y-71657515D01*
X92525009Y-71574830D01*
X92481659Y-71472910D01*
X92474903Y-71452114D01*
X92458198Y-71370183D01*
X92448702Y-71270294D01*
X92446403Y-71160499D01*
X92447056Y-71145585D01*
X93069031Y-71145585D01*
X93069085Y-71265182D01*
X93076955Y-71377218D01*
X93092781Y-71471316D01*
X93135892Y-71604348D01*
X93200856Y-71725627D01*
X93286714Y-71827616D01*
X93394553Y-71911346D01*
X93525459Y-71977844D01*
X93680519Y-72028140D01*
X93698067Y-72032428D01*
X93752770Y-72043458D01*
X93813803Y-72051835D01*
X93886944Y-72058096D01*
X93977972Y-72062776D01*
X94092667Y-72066414D01*
X94383478Y-72073873D01*
X94383478Y-71187277D01*
X94383478Y-70300681D01*
X94048493Y-70307175D01*
X93950348Y-70309420D01*
X93841680Y-70313426D01*
X93753619Y-70319361D01*
X93681119Y-70328063D01*
X93619129Y-70340371D01*
X93562602Y-70357124D01*
X93506489Y-70379160D01*
X93445743Y-70407319D01*
X93386945Y-70441363D01*
X93294477Y-70520382D01*
X93214604Y-70622957D01*
X93149288Y-70746355D01*
X93100495Y-70887841D01*
X93091829Y-70925213D01*
X93076658Y-71028802D01*
X93069031Y-71145585D01*
X92447056Y-71145585D01*
X92451291Y-71048852D01*
X92463352Y-70943407D01*
X92482575Y-70852218D01*
X92490538Y-70825184D01*
X92542545Y-70694068D01*
X92612662Y-70581444D01*
X92702828Y-70485553D01*
X92814982Y-70404639D01*
X92951063Y-70336943D01*
X93113010Y-70280707D01*
X93140394Y-70272789D01*
X93192555Y-70258250D01*
X93242046Y-70245669D01*
X93291339Y-70234889D01*
X93342903Y-70225750D01*
X93399210Y-70218092D01*
X93462730Y-70211758D01*
X93535934Y-70206586D01*
X93621293Y-70202419D01*
X93721276Y-70199097D01*
X93838355Y-70196460D01*
X93975001Y-70194350D01*
X94133684Y-70192607D01*
X94316875Y-70191072D01*
X94527044Y-70189587D01*
X95532000Y-70182807D01*
X95532000Y-70243143D01*
X95532000Y-70300681D01*
X95532000Y-70303478D01*
G37*
G36*
X110418609Y-72180870D02*
G01*
X110418609Y-75177333D01*
X107009855Y-75177333D01*
X103601102Y-75177333D01*
X103601102Y-73845830D01*
X104577277Y-73845830D01*
X104600691Y-73942443D01*
X104650301Y-74031602D01*
X104722974Y-74106470D01*
X104815884Y-74163287D01*
X104838469Y-74172360D01*
X104927406Y-74189854D01*
X105022563Y-74184789D01*
X105115487Y-74158307D01*
X105197728Y-74111556D01*
X105262522Y-74049777D01*
X105315620Y-73966424D01*
X105344865Y-73875256D01*
X105350620Y-73780838D01*
X105333250Y-73687738D01*
X105293117Y-73600523D01*
X105230586Y-73523759D01*
X105146019Y-73462013D01*
X105121264Y-73448875D01*
X105074332Y-73429426D01*
X105026314Y-73420245D01*
X104963131Y-73417938D01*
X104931660Y-73418350D01*
X104877108Y-73423358D01*
X104831328Y-73436781D01*
X104780242Y-73462013D01*
X104743795Y-73484588D01*
X104665648Y-73555279D01*
X104610463Y-73641666D01*
X104580314Y-73739824D01*
X104577277Y-73845830D01*
X103601102Y-73845830D01*
X103601102Y-72180870D01*
X103601102Y-70288754D01*
X105574203Y-70288754D01*
X105681518Y-70288754D01*
X105706173Y-70289195D01*
X105801115Y-70302097D01*
X105875802Y-70334333D01*
X105932509Y-70387884D01*
X105973511Y-70464729D01*
X106001086Y-70566850D01*
X106002058Y-70573740D01*
X106004807Y-70613553D01*
X106007294Y-70681059D01*
X106009502Y-70774943D01*
X106011417Y-70893886D01*
X106013021Y-71036575D01*
X106014301Y-71201691D01*
X106015239Y-71387919D01*
X106015820Y-71593942D01*
X106016029Y-71818445D01*
X106016030Y-71831727D01*
X106016145Y-72053656D01*
X106016457Y-72248261D01*
X106017000Y-72417555D01*
X106017807Y-72563552D01*
X106018911Y-72688263D01*
X106020346Y-72793701D01*
X106022145Y-72881879D01*
X106024341Y-72954810D01*
X106026967Y-73014506D01*
X106030057Y-73062980D01*
X106033643Y-73102245D01*
X106037759Y-73134313D01*
X106065714Y-73277375D01*
X106124169Y-73462479D01*
X106204686Y-73628169D01*
X106306976Y-73774164D01*
X106313531Y-73780838D01*
X106430752Y-73900187D01*
X106575726Y-74005958D01*
X106741609Y-74091196D01*
X106928114Y-74155624D01*
X107134953Y-74198962D01*
X107178405Y-74204535D01*
X107281253Y-74212762D01*
X107398457Y-74217172D01*
X107521302Y-74217786D01*
X107641076Y-74214629D01*
X107749062Y-74207723D01*
X107836547Y-74197093D01*
X107898664Y-74185503D01*
X108097961Y-74131555D01*
X108282131Y-74055155D01*
X108448706Y-73957465D01*
X108595218Y-73839650D01*
X108625973Y-73809884D01*
X108744555Y-73674184D01*
X108839949Y-73525610D01*
X108914273Y-73360397D01*
X108969647Y-73174783D01*
X108970589Y-73170732D01*
X108974918Y-73149748D01*
X108978747Y-73125696D01*
X108982117Y-73096694D01*
X108985066Y-73060857D01*
X108987635Y-73016300D01*
X108989863Y-72961138D01*
X108991790Y-72893488D01*
X108993455Y-72811465D01*
X108994897Y-72713183D01*
X108996157Y-72596760D01*
X108997274Y-72460309D01*
X108998287Y-72301948D01*
X108999236Y-72119791D01*
X109000160Y-71911953D01*
X109001100Y-71676551D01*
X109006436Y-70288754D01*
X109219247Y-70288754D01*
X109432058Y-70288754D01*
X109432058Y-70244580D01*
X109432058Y-70200406D01*
X108555942Y-70200406D01*
X107679826Y-70200406D01*
X107679826Y-70244580D01*
X107679826Y-70288754D01*
X107908672Y-70288754D01*
X108137518Y-70288754D01*
X108132456Y-71720725D01*
X108132009Y-71845888D01*
X108131179Y-72069166D01*
X108130367Y-72265851D01*
X108129530Y-72437833D01*
X108128626Y-72587000D01*
X108127611Y-72715242D01*
X108126442Y-72824449D01*
X108125077Y-72916510D01*
X108123472Y-72993314D01*
X108121584Y-73056750D01*
X108119371Y-73108708D01*
X108116789Y-73151077D01*
X108113795Y-73185747D01*
X108110346Y-73214606D01*
X108106400Y-73239545D01*
X108101913Y-73262452D01*
X108096843Y-73285217D01*
X108081181Y-73348071D01*
X108036238Y-73491289D01*
X107982912Y-73618988D01*
X107923917Y-73724277D01*
X107875476Y-73788818D01*
X107775840Y-73884189D01*
X107657822Y-73957304D01*
X107522334Y-74007863D01*
X107370286Y-74035566D01*
X107202591Y-74040114D01*
X107020158Y-74021208D01*
X106971706Y-74012537D01*
X106839760Y-73978098D01*
X106723178Y-73928582D01*
X106612747Y-73860353D01*
X106592303Y-73845402D01*
X106483313Y-73749650D01*
X106393675Y-73638711D01*
X106317984Y-73506087D01*
X106307742Y-73485013D01*
X106289264Y-73446803D01*
X106273027Y-73411514D01*
X106258887Y-73377122D01*
X106246698Y-73341604D01*
X106236316Y-73302938D01*
X106227597Y-73259100D01*
X106220395Y-73208067D01*
X106214566Y-73147815D01*
X106209965Y-73076323D01*
X106206448Y-72991566D01*
X106203869Y-72891522D01*
X106202084Y-72774167D01*
X106200948Y-72637479D01*
X106200316Y-72479434D01*
X106200044Y-72298009D01*
X106199987Y-72091182D01*
X106200000Y-71856928D01*
X106200003Y-71691327D01*
X106200059Y-71481514D01*
X106200261Y-71297886D01*
X106200700Y-71138531D01*
X106201469Y-71001539D01*
X106202659Y-70884999D01*
X106204362Y-70787001D01*
X106206672Y-70705634D01*
X106209679Y-70638987D01*
X106213477Y-70585149D01*
X106218156Y-70542210D01*
X106223809Y-70508259D01*
X106230529Y-70481385D01*
X106238407Y-70459677D01*
X106247535Y-70441226D01*
X106258006Y-70424120D01*
X106269911Y-70406448D01*
X106271388Y-70404284D01*
X106307203Y-70357918D01*
X106344156Y-70326512D01*
X106389297Y-70306966D01*
X106449675Y-70296180D01*
X106532341Y-70291055D01*
X106678551Y-70285994D01*
X106678551Y-70243200D01*
X106678551Y-70200406D01*
X106126377Y-70200406D01*
X105574203Y-70200406D01*
X105574203Y-70244580D01*
X105574203Y-70288754D01*
X103601102Y-70288754D01*
X103601102Y-69184406D01*
X107009855Y-69184406D01*
X110418609Y-69184406D01*
X110418609Y-70200406D01*
X110418609Y-72180870D01*
G37*
%LPC*%
D11*
X133400000Y-26600000D03*
D12*
X140402944Y-26500000D03*
X141105888Y-24802944D03*
X141105888Y-28197056D03*
X142802944Y-24100000D03*
D13*
X142802944Y-26500000D03*
D12*
X142802944Y-28900000D03*
X144500000Y-24802944D03*
X144500000Y-28197056D03*
X145202944Y-26500000D03*
D11*
X90500000Y-25250000D03*
X112750000Y-34750000D03*
X84000000Y-43750000D03*
X73400000Y-78400000D03*
X83750000Y-61000000D03*
X83750000Y-66250000D03*
X72600000Y-32400000D03*
X90500000Y-29500000D03*
D12*
X61100000Y-26500000D03*
X61802944Y-24802944D03*
X61802944Y-28197056D03*
X63500000Y-24100000D03*
D13*
X63500000Y-26500000D03*
D12*
X63500000Y-28900000D03*
X65197056Y-24802944D03*
X65197056Y-28197056D03*
X65900000Y-26500000D03*
D11*
X112750000Y-30000000D03*
X123250000Y-68000000D03*
X131750000Y-36500000D03*
X133200000Y-78400000D03*
D14*
X67200000Y-42640000D03*
D15*
X67200000Y-37560000D03*
D11*
X112750000Y-25250000D03*
D12*
X61100000Y-78500000D03*
X61802944Y-76802944D03*
X61802944Y-80197056D03*
X63500000Y-76100000D03*
D13*
X63500000Y-78500000D03*
D12*
X63500000Y-80900000D03*
X65197056Y-76802944D03*
X65197056Y-80197056D03*
X65900000Y-78500000D03*
D14*
X138800000Y-34140000D03*
D15*
X138800000Y-39220000D03*
X138800000Y-44300000D03*
X138800000Y-49380000D03*
D12*
X140402944Y-78500000D03*
X141105888Y-76802944D03*
X141105888Y-80197056D03*
X142802944Y-76100000D03*
D13*
X142802944Y-78500000D03*
D12*
X142802944Y-80900000D03*
X144500000Y-76802944D03*
X144500000Y-80197056D03*
X145202944Y-78500000D03*
D11*
X72600000Y-26600000D03*
%LPD*%
M02*
