G04 #@! TF.GenerationSoftware,KiCad,Pcbnew,7.0.8*
G04 #@! TF.CreationDate,2023-11-17T17:21:29+01:00*
G04 #@! TF.ProjectId,universal12Vsupply,756e6976-6572-4736-916c-313256737570,rev?*
G04 #@! TF.SameCoordinates,Original*
G04 #@! TF.FileFunction,Soldermask,Bot*
G04 #@! TF.FilePolarity,Negative*
%FSLAX46Y46*%
G04 Gerber Fmt 4.6, Leading zero omitted, Abs format (unit mm)*
G04 Created by KiCad (PCBNEW 7.0.8) date 2023-11-17 17:21:29*
%MOMM*%
%LPD*%
G01*
G04 APERTURE LIST*
%ADD10R,2.500000X2.500000*%
%ADD11C,0.800000*%
%ADD12C,6.400000*%
%ADD13R,3.000000X3.000000*%
%ADD14C,3.000000*%
G04 APERTURE END LIST*
D10*
X133400000Y-26600000D03*
D11*
X140402944Y-26500000D03*
X141105888Y-24802944D03*
X141105888Y-28197056D03*
X142802944Y-24100000D03*
D12*
X142802944Y-26500000D03*
D11*
X142802944Y-28900000D03*
X144500000Y-24802944D03*
X144500000Y-28197056D03*
X145202944Y-26500000D03*
D10*
X90500000Y-25250000D03*
X112750000Y-34750000D03*
X84000000Y-43750000D03*
X73400000Y-78400000D03*
X83750000Y-61000000D03*
X83750000Y-66250000D03*
X72600000Y-32400000D03*
X90500000Y-29500000D03*
D11*
X61100000Y-26500000D03*
X61802944Y-24802944D03*
X61802944Y-28197056D03*
X63500000Y-24100000D03*
D12*
X63500000Y-26500000D03*
D11*
X63500000Y-28900000D03*
X65197056Y-24802944D03*
X65197056Y-28197056D03*
X65900000Y-26500000D03*
D10*
X112750000Y-30000000D03*
X123250000Y-68000000D03*
X131750000Y-36500000D03*
X133200000Y-78400000D03*
D13*
X67200000Y-42640000D03*
D14*
X67200000Y-37560000D03*
D10*
X112750000Y-25250000D03*
D11*
X61100000Y-78500000D03*
X61802944Y-76802944D03*
X61802944Y-80197056D03*
X63500000Y-76100000D03*
D12*
X63500000Y-78500000D03*
D11*
X63500000Y-80900000D03*
X65197056Y-76802944D03*
X65197056Y-80197056D03*
X65900000Y-78500000D03*
D13*
X138800000Y-34140000D03*
D14*
X138800000Y-39220000D03*
X138800000Y-44300000D03*
X138800000Y-49380000D03*
D11*
X140402944Y-78500000D03*
X141105888Y-76802944D03*
X141105888Y-80197056D03*
X142802944Y-76100000D03*
D12*
X142802944Y-78500000D03*
D11*
X142802944Y-80900000D03*
X144500000Y-76802944D03*
X144500000Y-80197056D03*
X145202944Y-78500000D03*
D10*
X72600000Y-26600000D03*
M02*
