G04 #@! TF.GenerationSoftware,KiCad,Pcbnew,7.0.8*
G04 #@! TF.CreationDate,2023-11-17T17:21:29+01:00*
G04 #@! TF.ProjectId,universal12Vsupply,756e6976-6572-4736-916c-313256737570,rev?*
G04 #@! TF.SameCoordinates,Original*
G04 #@! TF.FileFunction,Copper,L1,Top*
G04 #@! TF.FilePolarity,Positive*
%FSLAX46Y46*%
G04 Gerber Fmt 4.6, Leading zero omitted, Abs format (unit mm)*
G04 Created by KiCad (PCBNEW 7.0.8) date 2023-11-17 17:21:29*
%MOMM*%
%LPD*%
G01*
G04 APERTURE LIST*
G04 Aperture macros list*
%AMRoundRect*
0 Rectangle with rounded corners*
0 $1 Rounding radius*
0 $2 $3 $4 $5 $6 $7 $8 $9 X,Y pos of 4 corners*
0 Add a 4 corners polygon primitive as box body*
4,1,4,$2,$3,$4,$5,$6,$7,$8,$9,$2,$3,0*
0 Add four circle primitives for the rounded corners*
1,1,$1+$1,$2,$3*
1,1,$1+$1,$4,$5*
1,1,$1+$1,$6,$7*
1,1,$1+$1,$8,$9*
0 Add four rect primitives between the rounded corners*
20,1,$1+$1,$2,$3,$4,$5,0*
20,1,$1+$1,$4,$5,$6,$7,0*
20,1,$1+$1,$6,$7,$8,$9,0*
20,1,$1+$1,$8,$9,$2,$3,0*%
G04 Aperture macros list end*
G04 #@! TA.AperFunction,ComponentPad*
%ADD10R,2.500000X2.500000*%
G04 #@! TD*
G04 #@! TA.AperFunction,SMDPad,CuDef*
%ADD11RoundRect,0.250000X0.475000X-0.337500X0.475000X0.337500X-0.475000X0.337500X-0.475000X-0.337500X0*%
G04 #@! TD*
G04 #@! TA.AperFunction,SMDPad,CuDef*
%ADD12RoundRect,0.237500X-0.300000X-0.237500X0.300000X-0.237500X0.300000X0.237500X-0.300000X0.237500X0*%
G04 #@! TD*
G04 #@! TA.AperFunction,ComponentPad*
%ADD13C,0.800000*%
G04 #@! TD*
G04 #@! TA.AperFunction,ComponentPad*
%ADD14C,6.400000*%
G04 #@! TD*
G04 #@! TA.AperFunction,SMDPad,CuDef*
%ADD15RoundRect,0.250000X0.900000X-1.500000X0.900000X1.500000X-0.900000X1.500000X-0.900000X-1.500000X0*%
G04 #@! TD*
G04 #@! TA.AperFunction,SMDPad,CuDef*
%ADD16RoundRect,0.237500X-0.237500X0.250000X-0.237500X-0.250000X0.237500X-0.250000X0.237500X0.250000X0*%
G04 #@! TD*
G04 #@! TA.AperFunction,SMDPad,CuDef*
%ADD17R,0.400000X1.100000*%
G04 #@! TD*
G04 #@! TA.AperFunction,ComponentPad*
%ADD18C,0.600000*%
G04 #@! TD*
G04 #@! TA.AperFunction,SMDPad,CuDef*
%ADD19R,9.500000X3.400000*%
G04 #@! TD*
G04 #@! TA.AperFunction,SMDPad,CuDef*
%ADD20RoundRect,0.250000X-1.500000X-0.900000X1.500000X-0.900000X1.500000X0.900000X-1.500000X0.900000X0*%
G04 #@! TD*
G04 #@! TA.AperFunction,SMDPad,CuDef*
%ADD21RoundRect,0.250000X-0.650000X0.412500X-0.650000X-0.412500X0.650000X-0.412500X0.650000X0.412500X0*%
G04 #@! TD*
G04 #@! TA.AperFunction,SMDPad,CuDef*
%ADD22RoundRect,0.237500X0.237500X-0.250000X0.237500X0.250000X-0.237500X0.250000X-0.237500X-0.250000X0*%
G04 #@! TD*
G04 #@! TA.AperFunction,SMDPad,CuDef*
%ADD23RoundRect,0.237500X-0.250000X-0.237500X0.250000X-0.237500X0.250000X0.237500X-0.250000X0.237500X0*%
G04 #@! TD*
G04 #@! TA.AperFunction,SMDPad,CuDef*
%ADD24RoundRect,0.237500X0.250000X0.237500X-0.250000X0.237500X-0.250000X-0.237500X0.250000X-0.237500X0*%
G04 #@! TD*
G04 #@! TA.AperFunction,SMDPad,CuDef*
%ADD25RoundRect,0.250000X-1.000000X1.950000X-1.000000X-1.950000X1.000000X-1.950000X1.000000X1.950000X0*%
G04 #@! TD*
G04 #@! TA.AperFunction,SMDPad,CuDef*
%ADD26RoundRect,0.249999X-0.450001X-1.425001X0.450001X-1.425001X0.450001X1.425001X-0.450001X1.425001X0*%
G04 #@! TD*
G04 #@! TA.AperFunction,SMDPad,CuDef*
%ADD27RoundRect,0.237500X-0.237500X0.300000X-0.237500X-0.300000X0.237500X-0.300000X0.237500X0.300000X0*%
G04 #@! TD*
G04 #@! TA.AperFunction,SMDPad,CuDef*
%ADD28R,0.500000X0.850000*%
G04 #@! TD*
G04 #@! TA.AperFunction,SMDPad,CuDef*
%ADD29R,4.410000X4.550000*%
G04 #@! TD*
G04 #@! TA.AperFunction,SMDPad,CuDef*
%ADD30RoundRect,0.250000X1.500000X0.900000X-1.500000X0.900000X-1.500000X-0.900000X1.500000X-0.900000X0*%
G04 #@! TD*
G04 #@! TA.AperFunction,SMDPad,CuDef*
%ADD31R,4.977000X9.000000*%
G04 #@! TD*
G04 #@! TA.AperFunction,SMDPad,CuDef*
%ADD32RoundRect,0.250000X-0.337500X-0.475000X0.337500X-0.475000X0.337500X0.475000X-0.337500X0.475000X0*%
G04 #@! TD*
G04 #@! TA.AperFunction,SMDPad,CuDef*
%ADD33RoundRect,0.250000X-0.700000X1.950000X-0.700000X-1.950000X0.700000X-1.950000X0.700000X1.950000X0*%
G04 #@! TD*
G04 #@! TA.AperFunction,ComponentPad*
%ADD34R,3.000000X3.000000*%
G04 #@! TD*
G04 #@! TA.AperFunction,ComponentPad*
%ADD35C,3.000000*%
G04 #@! TD*
G04 #@! TA.AperFunction,SMDPad,CuDef*
%ADD36RoundRect,0.250000X-0.475000X0.337500X-0.475000X-0.337500X0.475000X-0.337500X0.475000X0.337500X0*%
G04 #@! TD*
G04 #@! TA.AperFunction,SMDPad,CuDef*
%ADD37RoundRect,0.250000X-0.550000X1.250000X-0.550000X-1.250000X0.550000X-1.250000X0.550000X1.250000X0*%
G04 #@! TD*
G04 #@! TA.AperFunction,ViaPad*
%ADD38C,0.800000*%
G04 #@! TD*
G04 #@! TA.AperFunction,ViaPad*
%ADD39C,0.700000*%
G04 #@! TD*
G04 #@! TA.AperFunction,Conductor*
%ADD40C,0.400000*%
G04 #@! TD*
G04 #@! TA.AperFunction,Conductor*
%ADD41C,1.000000*%
G04 #@! TD*
G04 #@! TA.AperFunction,Conductor*
%ADD42C,0.500000*%
G04 #@! TD*
G04 #@! TA.AperFunction,Conductor*
%ADD43C,0.250000*%
G04 #@! TD*
G04 #@! TA.AperFunction,Conductor*
%ADD44C,1.500000*%
G04 #@! TD*
G04 #@! TA.AperFunction,Conductor*
%ADD45C,2.000000*%
G04 #@! TD*
G04 #@! TA.AperFunction,Conductor*
%ADD46C,0.750000*%
G04 #@! TD*
G04 APERTURE END LIST*
D10*
X133400000Y-26600000D03*
D11*
X93000000Y-67192700D03*
X93000000Y-65117700D03*
D12*
X112337500Y-74600000D03*
X114062500Y-74600000D03*
D13*
X140402944Y-26500000D03*
X141105888Y-24802944D03*
X141105888Y-28197056D03*
X142802944Y-24100000D03*
D14*
X142802944Y-26500000D03*
D13*
X142802944Y-28900000D03*
X144500000Y-24802944D03*
X144500000Y-28197056D03*
X145202944Y-26500000D03*
D10*
X90500000Y-25250000D03*
D15*
X88292600Y-66137400D03*
X88292600Y-60737400D03*
D16*
X86000000Y-69837500D03*
X86000000Y-71662500D03*
D17*
X97745000Y-69000000D03*
X98395000Y-69000000D03*
X99045000Y-69000000D03*
X99695000Y-69000000D03*
X100345000Y-69000000D03*
X100995000Y-69000000D03*
X101645000Y-69000000D03*
X102295000Y-69000000D03*
X102945000Y-69000000D03*
X103595000Y-69000000D03*
X104245000Y-69000000D03*
X104895000Y-69000000D03*
X105545000Y-69000000D03*
X106195000Y-69000000D03*
X106195000Y-63300000D03*
X105545000Y-63300000D03*
X104895000Y-63300000D03*
X104245000Y-63300000D03*
X103595000Y-63300000D03*
X102945000Y-63300000D03*
X102295000Y-63300000D03*
X101645000Y-63300000D03*
X100995000Y-63300000D03*
X100345000Y-63300000D03*
X99695000Y-63300000D03*
X99045000Y-63300000D03*
X98395000Y-63300000D03*
X97745000Y-63300000D03*
D18*
X97520000Y-67450000D03*
X99300000Y-67450000D03*
X101080000Y-67450000D03*
X102860000Y-67450000D03*
X104640000Y-67450000D03*
X106420000Y-67450000D03*
X97520000Y-66150000D03*
X99300000Y-66150000D03*
X101080000Y-66150000D03*
D19*
X101970000Y-66150000D03*
D18*
X102860000Y-66150000D03*
X104640000Y-66150000D03*
X106420000Y-66150000D03*
X97520000Y-64850000D03*
X99300000Y-64850000D03*
X101080000Y-64850000D03*
X102860000Y-64850000D03*
X104640000Y-64850000D03*
X106420000Y-64850000D03*
D20*
X113500000Y-68400000D03*
X118900000Y-68400000D03*
D21*
X119748600Y-50749700D03*
X119748600Y-53874700D03*
D22*
X88114800Y-73011300D03*
X88114800Y-71186300D03*
D21*
X91200000Y-52037500D03*
X91200000Y-55162500D03*
D10*
X112750000Y-34750000D03*
X84000000Y-43750000D03*
D22*
X108875000Y-60162500D03*
X108875000Y-58337500D03*
D21*
X85600000Y-52000000D03*
X85600000Y-55125000D03*
D10*
X73400000Y-78400000D03*
D23*
X115837500Y-74600000D03*
X117662500Y-74600000D03*
D21*
X116994600Y-50749700D03*
X116994600Y-53874700D03*
D24*
X95070600Y-73318000D03*
X93245600Y-73318000D03*
D25*
X68506000Y-50576000D03*
X68506000Y-58976000D03*
D10*
X83750000Y-61000000D03*
X83750000Y-66250000D03*
D16*
X99850000Y-71462500D03*
X99850000Y-73287500D03*
D10*
X72600000Y-32400000D03*
D16*
X108561800Y-72557900D03*
X108561800Y-74382900D03*
D20*
X85364000Y-34456000D03*
X90764000Y-34456000D03*
D10*
X90500000Y-29500000D03*
D13*
X61100000Y-26500000D03*
X61802944Y-24802944D03*
X61802944Y-28197056D03*
X63500000Y-24100000D03*
D14*
X63500000Y-26500000D03*
D13*
X63500000Y-28900000D03*
X65197056Y-24802944D03*
X65197056Y-28197056D03*
X65900000Y-26500000D03*
D23*
X93247500Y-71590800D03*
X95072500Y-71590800D03*
D26*
X97900000Y-50000000D03*
X104000000Y-50000000D03*
D21*
X114200600Y-50749700D03*
X114200600Y-53874700D03*
X88400000Y-52000000D03*
X88400000Y-55125000D03*
D22*
X106700000Y-60162500D03*
X106700000Y-58337500D03*
D27*
X110924000Y-58383900D03*
X110924000Y-60108900D03*
D28*
X115155000Y-40800000D03*
X113885000Y-40800000D03*
X112615000Y-40800000D03*
X111345000Y-40800000D03*
D29*
X113250000Y-44750000D03*
D30*
X82153400Y-71159000D03*
X76753400Y-71159000D03*
D16*
X106860000Y-72557900D03*
X106860000Y-74382900D03*
D28*
X103445000Y-44950000D03*
X104715000Y-44950000D03*
X105985000Y-44950000D03*
X107255000Y-44950000D03*
D29*
X105350000Y-41000000D03*
D10*
X112750000Y-30000000D03*
X123250000Y-68000000D03*
D22*
X98125000Y-73287500D03*
X98125000Y-71462500D03*
D31*
X97126500Y-30500000D03*
X106373500Y-30500000D03*
D28*
X96095000Y-44950000D03*
X97365000Y-44950000D03*
X98635000Y-44950000D03*
X99905000Y-44950000D03*
D29*
X98000000Y-41000000D03*
D32*
X114483900Y-64555000D03*
X116558900Y-64555000D03*
D10*
X131750000Y-36500000D03*
D33*
X127500000Y-49800000D03*
X127500000Y-58500000D03*
D10*
X133200000Y-78400000D03*
D27*
X101650000Y-71525000D03*
X101650000Y-73250000D03*
D34*
X67200000Y-42640000D03*
D35*
X67200000Y-37560000D03*
D36*
X89994400Y-71112100D03*
X89994400Y-73187100D03*
D11*
X109800000Y-69037500D03*
X109800000Y-66962500D03*
D12*
X114175000Y-76725000D03*
X115900000Y-76725000D03*
D10*
X112750000Y-25250000D03*
D37*
X79174000Y-51052000D03*
X79174000Y-55452000D03*
D23*
X108637500Y-63225000D03*
X110462500Y-63225000D03*
D15*
X119750000Y-44700000D03*
X119750000Y-39300000D03*
D12*
X101337500Y-58600000D03*
X103062500Y-58600000D03*
D13*
X61100000Y-78500000D03*
X61802944Y-76802944D03*
X61802944Y-80197056D03*
X63500000Y-76100000D03*
D14*
X63500000Y-78500000D03*
D13*
X63500000Y-80900000D03*
X65197056Y-76802944D03*
X65197056Y-80197056D03*
X65900000Y-78500000D03*
D34*
X138800000Y-34140000D03*
D35*
X138800000Y-39220000D03*
X138800000Y-44300000D03*
X138800000Y-49380000D03*
D28*
X92055000Y-40800000D03*
X90785000Y-40800000D03*
X89515000Y-40800000D03*
X88245000Y-40800000D03*
D29*
X90150000Y-44750000D03*
D13*
X140402944Y-78500000D03*
X141105888Y-76802944D03*
X141105888Y-80197056D03*
X142802944Y-76100000D03*
D14*
X142802944Y-78500000D03*
D13*
X142802944Y-80900000D03*
X144500000Y-76802944D03*
X144500000Y-80197056D03*
X145202944Y-78500000D03*
D27*
X103375000Y-71525000D03*
X103375000Y-73250000D03*
D10*
X72600000Y-26600000D03*
D38*
X96166600Y-69939800D03*
X92610600Y-70117600D03*
D39*
X120000000Y-81500000D03*
X120000000Y-57500000D03*
X66000000Y-63500000D03*
X138000000Y-57500000D03*
D38*
X118975800Y-74588000D03*
D39*
X60000000Y-75500000D03*
X132000000Y-57500000D03*
X84000000Y-75500000D03*
X138000000Y-63500000D03*
X66000000Y-57500000D03*
X144000000Y-69500000D03*
X132000000Y-69500000D03*
D38*
X93000000Y-55200000D03*
X119748600Y-55624700D03*
D39*
X72000000Y-75500000D03*
X102000000Y-81500000D03*
X96000000Y-75500000D03*
D38*
X110450000Y-64675000D03*
X106860000Y-75832600D03*
D39*
X66000000Y-69500000D03*
X105000000Y-75500000D03*
X72000000Y-81500000D03*
X78000000Y-57500000D03*
X120000000Y-75500000D03*
X78000000Y-81500000D03*
X90000000Y-81500000D03*
X108000000Y-81500000D03*
D38*
X91721600Y-73191000D03*
D39*
X126000000Y-81500000D03*
X126000000Y-63500000D03*
X60000000Y-69500000D03*
X105590000Y-49950000D03*
X84000000Y-81500000D03*
X126000000Y-75500000D03*
X60000000Y-63500000D03*
X78000000Y-63500000D03*
X78000000Y-75500000D03*
X120000000Y-63500000D03*
X138000000Y-69500000D03*
X84000000Y-63500000D03*
X96000000Y-81500000D03*
X132000000Y-63500000D03*
X84000000Y-57500000D03*
X138000000Y-81500000D03*
D38*
X68506000Y-62226000D03*
D39*
X114000000Y-81500000D03*
X72000000Y-63500000D03*
X138000000Y-75500000D03*
X144000000Y-57500000D03*
X132000000Y-75500000D03*
D38*
X96598400Y-71463800D03*
D39*
X132000000Y-81500000D03*
X126000000Y-69500000D03*
X144000000Y-63500000D03*
D38*
X127500000Y-61500000D03*
D39*
X72000000Y-69500000D03*
X60000000Y-57500000D03*
X100750000Y-46500000D03*
X100750000Y-55000000D03*
X90000000Y-75500000D03*
X102600000Y-55400000D03*
D38*
X111305000Y-72175000D03*
X111813000Y-54623600D03*
X112727400Y-61278400D03*
X96369800Y-62167400D03*
D39*
X102200000Y-57400000D03*
X106418800Y-57281200D03*
D38*
X95074400Y-65596400D03*
X98681200Y-59932200D03*
X90775000Y-38600000D03*
X96125000Y-54950000D03*
D39*
X103600000Y-60600000D03*
D38*
X111508200Y-65240800D03*
X98909800Y-70397000D03*
X96522200Y-73318000D03*
X103112232Y-70131568D03*
X111127200Y-73419600D03*
X107749000Y-55309400D03*
X106072600Y-48019600D03*
X99250000Y-55810661D03*
D39*
X104000000Y-57049500D03*
X102400000Y-60600000D03*
D38*
X98147800Y-74740400D03*
D39*
X99900000Y-70200000D03*
D40*
X105545000Y-63300000D02*
X105545000Y-62634314D01*
X108875000Y-60162500D02*
X109145400Y-60162500D01*
X109145400Y-60162500D02*
X110924000Y-58383900D01*
X107129314Y-61050000D02*
X107987500Y-61050000D01*
X105545000Y-62634314D02*
X107129314Y-61050000D01*
X107987500Y-61050000D02*
X108875000Y-60162500D01*
X108637500Y-63225000D02*
X108637500Y-62395400D01*
X108562500Y-63300000D02*
X108637500Y-63225000D01*
X108637500Y-62395400D02*
X110924000Y-60108900D01*
X106195000Y-63300000D02*
X108562500Y-63300000D01*
X86000000Y-69837500D02*
X86000000Y-68500000D01*
X98110686Y-69950000D02*
X96176800Y-69950000D01*
X92610600Y-70117600D02*
X90988900Y-70117600D01*
X98395000Y-69000000D02*
X98395000Y-69665686D01*
X86000000Y-68500000D02*
X83750000Y-66250000D01*
X96176800Y-69950000D02*
X96166600Y-69939800D01*
X90988900Y-70117600D02*
X90708800Y-69837500D01*
X90708800Y-69837500D02*
X86000000Y-69837500D01*
X98395000Y-69665686D02*
X98110686Y-69950000D01*
D41*
X91200000Y-55162500D02*
X92962500Y-55162500D01*
D40*
X103062500Y-58600000D02*
X103062500Y-58827500D01*
D42*
X119748600Y-53874700D02*
X119748600Y-55624700D01*
D43*
X106195000Y-69000000D02*
X105545000Y-69000000D01*
D41*
X68506000Y-58976000D02*
X68506000Y-62226000D01*
D43*
X103595000Y-68185000D02*
X102860000Y-67450000D01*
D41*
X92962500Y-55162500D02*
X93000000Y-55200000D01*
D42*
X91717700Y-73187100D02*
X91721600Y-73191000D01*
D40*
X104000000Y-50000000D02*
X105540000Y-50000000D01*
D43*
X103595000Y-69000000D02*
X103595000Y-68185000D01*
D40*
X117662500Y-74600000D02*
X118963800Y-74600000D01*
X106860000Y-74382900D02*
X106860000Y-75832600D01*
X103062500Y-58827500D02*
X101645000Y-60245000D01*
X99850000Y-73187500D02*
X98125000Y-71462500D01*
X101645000Y-60245000D02*
X101645000Y-63300000D01*
D42*
X127500000Y-58500000D02*
X127500000Y-61500000D01*
D43*
X100345000Y-69000000D02*
X100345000Y-68185000D01*
D40*
X101612500Y-73287500D02*
X101650000Y-73250000D01*
X96599700Y-71462500D02*
X96598400Y-71463800D01*
X110462500Y-63225000D02*
X110462500Y-64662500D01*
X105540000Y-50000000D02*
X105590000Y-49950000D01*
X110462500Y-64662500D02*
X110450000Y-64675000D01*
X99850000Y-73287500D02*
X99850000Y-73187500D01*
D43*
X106195000Y-69000000D02*
X106195000Y-67675000D01*
D44*
X114200600Y-53874700D02*
X119748600Y-53874700D01*
D40*
X96471400Y-71590800D02*
X96598400Y-71463800D01*
X118963800Y-74600000D02*
X118975800Y-74588000D01*
X115900000Y-76362500D02*
X117662500Y-74600000D01*
D43*
X106195000Y-67675000D02*
X106420000Y-67450000D01*
X101645000Y-63300000D02*
X101645000Y-64285000D01*
X100345000Y-68185000D02*
X101080000Y-67450000D01*
D41*
X85637500Y-55162500D02*
X85600000Y-55125000D01*
D43*
X101645000Y-64285000D02*
X101080000Y-64850000D01*
D40*
X115900000Y-76725000D02*
X115900000Y-76362500D01*
X107264500Y-71260600D02*
X109487600Y-69037500D01*
X100345000Y-57655000D02*
X101800000Y-56200000D01*
X104895000Y-69665686D02*
X104895000Y-69000000D01*
X106489914Y-71260600D02*
X104895000Y-69665686D01*
X111813000Y-53137300D02*
X114200600Y-50749700D01*
X101800000Y-56200000D02*
X102600000Y-55400000D01*
X110922100Y-72557900D02*
X111305000Y-72175000D01*
D44*
X114200600Y-50749700D02*
X119748600Y-50749700D01*
D40*
X107264500Y-71260600D02*
X106489914Y-71260600D01*
X100345000Y-63300000D02*
X100345000Y-57655000D01*
X111813000Y-54623600D02*
X111813000Y-53137300D01*
X109487600Y-69037500D02*
X109800000Y-69037500D01*
X108561800Y-72557900D02*
X107264500Y-71260600D01*
X108561800Y-72557900D02*
X110922100Y-72557900D01*
X93855200Y-61020500D02*
X95248300Y-61020500D01*
X115471400Y-63810760D02*
X112939040Y-61278400D01*
X115471400Y-65671400D02*
X116200000Y-66400000D01*
X95248300Y-61020500D02*
X96369800Y-62142000D01*
X96369800Y-62142000D02*
X96369800Y-62167400D01*
X106700000Y-57562400D02*
X106418800Y-57281200D01*
X106700000Y-58337500D02*
X106700000Y-57562400D01*
X112939040Y-61278400D02*
X112727400Y-61278400D01*
X101337500Y-58262500D02*
X102200000Y-57400000D01*
X101337500Y-58600000D02*
X101337500Y-58262500D01*
X122850000Y-68400000D02*
X123250000Y-68000000D01*
X116900000Y-66400000D02*
X118900000Y-68400000D01*
X88292600Y-60737400D02*
X93572100Y-60737400D01*
X88499500Y-60944300D02*
X88292600Y-60737400D01*
X101337500Y-59400000D02*
X101337500Y-58600000D01*
X93572100Y-60737400D02*
X93855200Y-61020500D01*
X100995000Y-59742500D02*
X100995000Y-63300000D01*
X116200000Y-66400000D02*
X116900000Y-66400000D01*
X100995000Y-59742500D02*
X101337500Y-59400000D01*
X115471400Y-63810760D02*
X115471400Y-65671400D01*
X118900000Y-68400000D02*
X122850000Y-68400000D01*
X95099800Y-66155200D02*
X94062300Y-67192700D01*
X99045000Y-60296000D02*
X98681200Y-59932200D01*
X95074400Y-66129800D02*
X95099800Y-66155200D01*
D41*
X89347900Y-67192700D02*
X92890000Y-67192700D01*
D40*
X99045000Y-63300000D02*
X99045000Y-60296000D01*
D41*
X88292600Y-66137400D02*
X89347900Y-67192700D01*
D40*
X95074400Y-65596400D02*
X95074400Y-66129800D01*
X94062300Y-67192700D02*
X93000000Y-67192700D01*
X97745000Y-62145600D02*
X97745000Y-63300000D01*
X96125000Y-54950000D02*
X96125000Y-60525600D01*
X97745000Y-63300000D02*
X94450000Y-63300000D01*
X93000000Y-64750000D02*
X93000000Y-65117700D01*
D43*
X90785000Y-38610000D02*
X90775000Y-38600000D01*
D40*
X96125000Y-60525600D02*
X97745000Y-62145600D01*
X94450000Y-63300000D02*
X93000000Y-64750000D01*
D43*
X102945000Y-61255000D02*
X103600000Y-60600000D01*
X102945000Y-63300000D02*
X102945000Y-61255000D01*
D40*
X113798100Y-65240800D02*
X114483900Y-64555000D01*
D43*
X113500000Y-65538900D02*
X114483900Y-64555000D01*
D40*
X111399000Y-65350000D02*
X111508200Y-65240800D01*
X111508200Y-65240800D02*
X113798100Y-65240800D01*
D43*
X113500000Y-68400000D02*
X113500000Y-65538900D01*
D40*
X104245000Y-63300000D02*
X104245000Y-61755000D01*
X110879314Y-42075000D02*
X109725000Y-43229314D01*
X109725000Y-55558200D02*
X110695400Y-56528600D01*
X112615000Y-40800000D02*
X111340000Y-42075000D01*
X105600000Y-55400000D02*
X105700000Y-55300000D01*
X116558900Y-61299900D02*
X116558900Y-64555000D01*
X109725000Y-51275000D02*
X109725000Y-55558200D01*
X111340000Y-42075000D02*
X110879314Y-42075000D01*
X104245000Y-61755000D02*
X105600000Y-60400000D01*
X109725000Y-43229314D02*
X109725000Y-51275000D01*
X109725000Y-51275000D02*
X105700000Y-55300000D01*
X111787600Y-56528600D02*
X116558900Y-61299900D01*
X110695400Y-56528600D02*
X111787600Y-56528600D01*
X105600000Y-60400000D02*
X105600000Y-55400000D01*
D41*
X85600000Y-52000000D02*
X91162500Y-52000000D01*
D45*
X76753400Y-71159000D02*
X74475000Y-68880600D01*
D40*
X95070600Y-73318000D02*
X94195600Y-74193000D01*
D45*
X74475000Y-68880600D02*
X74475000Y-56545000D01*
D40*
X94195600Y-74193000D02*
X79787400Y-74193000D01*
D45*
X74475000Y-56545000D02*
X68506000Y-50576000D01*
D40*
X79787400Y-74193000D02*
X76753400Y-71159000D01*
X99045000Y-70261800D02*
X98909800Y-70397000D01*
X96522200Y-73318000D02*
X95070600Y-73318000D01*
X99045000Y-69000000D02*
X99045000Y-70261800D01*
D41*
X91162500Y-52000000D02*
X91200000Y-52037500D01*
D42*
X111157100Y-73419600D02*
X112337500Y-74600000D01*
X102945000Y-69000000D02*
X102945000Y-69964336D01*
X102945000Y-69964336D02*
X103112232Y-70131568D01*
D40*
X114175000Y-76437500D02*
X112337500Y-74600000D01*
X114175000Y-76725000D02*
X114175000Y-76437500D01*
D42*
X111127200Y-73419600D02*
X111157100Y-73419600D01*
D40*
X114062500Y-74600000D02*
X115837500Y-74600000D01*
X101645000Y-71520000D02*
X101650000Y-71525000D01*
X101645000Y-69000000D02*
X101645000Y-71520000D01*
X102295000Y-70445000D02*
X103375000Y-71525000D01*
X102295000Y-69000000D02*
X102295000Y-70445000D01*
D42*
X102570000Y-44075000D02*
X103445000Y-44950000D01*
D40*
X106072600Y-45037600D02*
X105985000Y-44950000D01*
D42*
X96095000Y-44950000D02*
X94200000Y-44950000D01*
D40*
X108875000Y-56435400D02*
X107749000Y-55309400D01*
X108875000Y-58337500D02*
X108875000Y-56435400D01*
D42*
X99085000Y-44075000D02*
X102570000Y-44075000D01*
D46*
X97900000Y-45485000D02*
X97365000Y-44950000D01*
X103445000Y-44950000D02*
X105985000Y-44950000D01*
D40*
X106072600Y-48019600D02*
X106072600Y-45037600D01*
D46*
X97900000Y-50000000D02*
X97900000Y-45485000D01*
D42*
X98635000Y-44525000D02*
X99085000Y-44075000D01*
X96095000Y-44950000D02*
X98635000Y-44950000D01*
X90764000Y-29764000D02*
X90500000Y-29500000D01*
X98635000Y-44950000D02*
X98635000Y-44525000D01*
X94200000Y-44950000D02*
X94000000Y-44750000D01*
X94000000Y-37692000D02*
X90764000Y-34456000D01*
X94000000Y-44750000D02*
X94000000Y-37692000D01*
X90764000Y-34456000D02*
X90764000Y-29764000D01*
X88114800Y-73011300D02*
X84005700Y-73011300D01*
X84005700Y-73011300D02*
X82153400Y-71159000D01*
D40*
X92520686Y-42075000D02*
X93350000Y-42904314D01*
X97106400Y-54606400D02*
X95250000Y-52750000D01*
X98395000Y-61119200D02*
X97106400Y-59830600D01*
X86200000Y-40800000D02*
X84000000Y-43000000D01*
X88245000Y-40800000D02*
X89520000Y-42075000D01*
X97106400Y-59830600D02*
X97106400Y-54606400D01*
X98395000Y-63300000D02*
X98395000Y-61119200D01*
X84000000Y-43000000D02*
X84000000Y-43750000D01*
X88245000Y-40800000D02*
X86200000Y-40800000D01*
X95250000Y-47000000D02*
X95250000Y-52750000D01*
X89520000Y-42075000D02*
X92520686Y-42075000D01*
X93350000Y-42904314D02*
X93350000Y-45100000D01*
X93350000Y-45100000D02*
X95250000Y-47000000D01*
D43*
X112800000Y-34700000D02*
X112800000Y-36100000D01*
D40*
X105012500Y-55012500D02*
X108600000Y-51425000D01*
X108600000Y-44100000D02*
X109125000Y-43575000D01*
X111095000Y-40800000D02*
X111345000Y-40800000D01*
X109125000Y-43575000D02*
X109125000Y-42770000D01*
D43*
X112800000Y-36100000D02*
X111345000Y-37555000D01*
X103595000Y-63300000D02*
X103595000Y-61605000D01*
D40*
X109125000Y-42770000D02*
X111095000Y-40800000D01*
X108600000Y-51425000D02*
X108600000Y-44100000D01*
D43*
X103595000Y-61605000D02*
X105000000Y-60200000D01*
X111345000Y-37555000D02*
X111345000Y-40800000D01*
X105000000Y-60200000D02*
X105000000Y-55025000D01*
D40*
X99695000Y-63300000D02*
X99695000Y-56250000D01*
X99689339Y-56250000D02*
X99250000Y-55810661D01*
X99250000Y-55810661D02*
X99250000Y-45605000D01*
X99250000Y-45605000D02*
X99905000Y-44950000D01*
X99695000Y-56250000D02*
X99689339Y-56250000D01*
D43*
X109600000Y-37300000D02*
X109600000Y-33300000D01*
D40*
X104000000Y-54625000D02*
X104000000Y-57000000D01*
D43*
X109600000Y-33300000D02*
X112800000Y-30100000D01*
D40*
X107255000Y-51370000D02*
X107255000Y-44950000D01*
D43*
X102295000Y-60705000D02*
X102400000Y-60600000D01*
X107255000Y-44950000D02*
X107255000Y-44245000D01*
X108400000Y-43100000D02*
X108400000Y-38500000D01*
D40*
X107255000Y-51370000D02*
X104000000Y-54625000D01*
D43*
X107255000Y-44245000D02*
X108400000Y-43100000D01*
X102295000Y-63300000D02*
X102295000Y-60705000D01*
X108400000Y-38500000D02*
X109600000Y-37300000D01*
D40*
X93245600Y-73318000D02*
X93245600Y-71592700D01*
X95838300Y-69000000D02*
X93247500Y-71590800D01*
X97745000Y-69000000D02*
X95838300Y-69000000D01*
X93245600Y-71592700D02*
X93247500Y-71590800D01*
X106860000Y-72681100D02*
X108561800Y-74382900D01*
X106860000Y-72557900D02*
X106860000Y-72681100D01*
X104245000Y-69000000D02*
X104245000Y-69942900D01*
X104245000Y-69942900D02*
X106860000Y-72557900D01*
X99695000Y-69995000D02*
X99900000Y-70200000D01*
X98125000Y-74717600D02*
X98147800Y-74740400D01*
X98125000Y-73287500D02*
X98125000Y-74717600D01*
X99695000Y-69000000D02*
X99695000Y-69793594D01*
X99695000Y-69793594D02*
X99695000Y-69995000D01*
X104895000Y-63300000D02*
X104895000Y-61967500D01*
X104895000Y-61967500D02*
X106700000Y-60162500D01*
X100995000Y-70317500D02*
X99850000Y-71462500D01*
X100995000Y-69000000D02*
X100995000Y-70317500D01*
X89920200Y-71186300D02*
X89994400Y-71112100D01*
X88114800Y-71186300D02*
X86476200Y-71186300D01*
X88114800Y-71186300D02*
X89920200Y-71186300D01*
X86476200Y-71186300D02*
X86000000Y-71662500D01*
G04 #@! TA.AperFunction,Conductor*
G36*
X143012814Y-22190986D02*
G01*
X143213508Y-22200267D01*
X143218711Y-22200728D01*
X143419448Y-22227156D01*
X143614077Y-22254306D01*
X143618901Y-22255176D01*
X143817700Y-22299249D01*
X144008144Y-22344042D01*
X144012545Y-22345252D01*
X144207257Y-22406645D01*
X144392527Y-22468741D01*
X144396530Y-22470239D01*
X144585467Y-22548499D01*
X144764168Y-22627405D01*
X144767731Y-22629116D01*
X144949326Y-22723649D01*
X145120070Y-22818753D01*
X145123162Y-22820596D01*
X145220624Y-22882687D01*
X145296049Y-22930738D01*
X145457296Y-23041195D01*
X145460002Y-23043157D01*
X145622792Y-23168072D01*
X145712520Y-23242580D01*
X145773259Y-23293017D01*
X145775489Y-23294963D01*
X145926933Y-23433736D01*
X146066263Y-23573066D01*
X146205031Y-23724504D01*
X146206987Y-23726746D01*
X146239829Y-23766296D01*
X146331927Y-23877207D01*
X146456841Y-24039996D01*
X146458803Y-24042702D01*
X146569261Y-24203950D01*
X146679391Y-24376819D01*
X146681258Y-24379949D01*
X146776343Y-24550659D01*
X146870873Y-24732250D01*
X146872596Y-24735835D01*
X146951507Y-24914549D01*
X147029753Y-25103453D01*
X147031259Y-25107477D01*
X147093355Y-25292743D01*
X147154740Y-25487432D01*
X147155963Y-25491882D01*
X147200757Y-25682332D01*
X147244819Y-25881080D01*
X147245694Y-25885935D01*
X147272842Y-26080542D01*
X147299267Y-26281260D01*
X147299731Y-26286491D01*
X147309026Y-26487503D01*
X147317519Y-26681981D01*
X147317519Y-52870500D01*
X147297834Y-52937539D01*
X147245030Y-52983294D01*
X147193519Y-52994500D01*
X121043631Y-52994500D01*
X120976592Y-52974815D01*
X120955950Y-52958182D01*
X120919779Y-52922011D01*
X120867256Y-52869488D01*
X120717934Y-52777386D01*
X120551397Y-52722201D01*
X120551395Y-52722200D01*
X120448616Y-52711700D01*
X120448609Y-52711700D01*
X120231175Y-52711700D01*
X120187605Y-52703793D01*
X120151234Y-52690142D01*
X120082623Y-52664392D01*
X119861150Y-52624200D01*
X119861147Y-52624200D01*
X114144445Y-52624200D01*
X114105999Y-52627660D01*
X113976413Y-52639322D01*
X113976407Y-52639323D01*
X113759434Y-52699205D01*
X113759427Y-52699208D01*
X113758973Y-52699427D01*
X113758645Y-52699501D01*
X113754219Y-52701163D01*
X113753993Y-52700563D01*
X113705186Y-52711700D01*
X113500599Y-52711700D01*
X113500580Y-52711701D01*
X113397803Y-52722200D01*
X113397800Y-52722201D01*
X113231268Y-52777385D01*
X113231263Y-52777387D01*
X113081945Y-52869487D01*
X112993250Y-52958182D01*
X112931926Y-52991666D01*
X112905569Y-52994500D01*
X112637500Y-52994500D01*
X112637491Y-52994500D01*
X112637490Y-52994501D01*
X112530049Y-53006052D01*
X112530037Y-53006054D01*
X112478527Y-53017260D01*
X112376002Y-53051383D01*
X112375996Y-53051386D01*
X112254962Y-53129171D01*
X112254951Y-53129179D01*
X112202159Y-53174923D01*
X112107933Y-53283664D01*
X112107930Y-53283668D01*
X112048164Y-53414534D01*
X112028478Y-53481575D01*
X112028476Y-53481580D01*
X112019415Y-53544607D01*
X112008002Y-53623990D01*
X112008000Y-53624001D01*
X112008000Y-54018431D01*
X112008827Y-54038862D01*
X112011272Y-54069024D01*
X112016218Y-54109596D01*
X112059364Y-54246854D01*
X112067950Y-54264747D01*
X112068023Y-54265200D01*
X112087141Y-54304780D01*
X112087989Y-54309897D01*
X112096419Y-54324498D01*
X112098624Y-54328678D01*
X112101504Y-54334681D01*
X112107072Y-54342949D01*
X112169319Y-54450764D01*
X112179863Y-54474446D01*
X112189157Y-54503050D01*
X112191152Y-54572891D01*
X112155072Y-54632724D01*
X112092371Y-54663552D01*
X112071390Y-54665368D01*
X111554712Y-54666053D01*
X111487647Y-54646457D01*
X111441822Y-54593714D01*
X111431787Y-54524569D01*
X111436614Y-54503745D01*
X111446135Y-54474442D01*
X111456669Y-54450779D01*
X111503300Y-54370012D01*
X111506211Y-54365446D01*
X111518067Y-54348544D01*
X111577838Y-54217667D01*
X111597523Y-54150628D01*
X111597524Y-54150624D01*
X111618000Y-54008208D01*
X111618000Y-53624000D01*
X111606447Y-53516544D01*
X111595241Y-53465033D01*
X111582935Y-53428060D01*
X111561116Y-53362502D01*
X111561113Y-53362496D01*
X111483328Y-53241462D01*
X111483325Y-53241457D01*
X111466286Y-53221793D01*
X111437576Y-53188659D01*
X111437572Y-53188656D01*
X111437570Y-53188653D01*
X111328836Y-53094433D01*
X111328833Y-53094431D01*
X111328831Y-53094430D01*
X111197965Y-53034664D01*
X111197960Y-53034662D01*
X111197959Y-53034662D01*
X111170803Y-53026688D01*
X111130925Y-53014978D01*
X111130919Y-53014976D01*
X111045466Y-53002690D01*
X110988500Y-52994500D01*
X110549500Y-52994500D01*
X110482461Y-52974815D01*
X110436706Y-52922011D01*
X110425500Y-52870500D01*
X110425500Y-51349927D01*
X110427531Y-51327575D01*
X110429358Y-51317606D01*
X110425613Y-51255696D01*
X110425500Y-51251951D01*
X110425500Y-49380001D01*
X136794390Y-49380001D01*
X136814804Y-49665433D01*
X136875628Y-49945037D01*
X136975635Y-50213166D01*
X137112770Y-50464309D01*
X137112775Y-50464317D01*
X137284254Y-50693387D01*
X137284270Y-50693405D01*
X137486594Y-50895729D01*
X137486612Y-50895745D01*
X137715682Y-51067224D01*
X137715690Y-51067229D01*
X137966833Y-51204364D01*
X137966832Y-51204364D01*
X137966836Y-51204365D01*
X137966839Y-51204367D01*
X138234954Y-51304369D01*
X138234960Y-51304370D01*
X138234962Y-51304371D01*
X138514566Y-51365195D01*
X138514568Y-51365195D01*
X138514572Y-51365196D01*
X138768220Y-51383337D01*
X138799999Y-51385610D01*
X138800000Y-51385610D01*
X138800001Y-51385610D01*
X138828595Y-51383564D01*
X139085428Y-51365196D01*
X139258370Y-51327575D01*
X139365037Y-51304371D01*
X139365037Y-51304370D01*
X139365046Y-51304369D01*
X139633161Y-51204367D01*
X139884315Y-51067226D01*
X140113395Y-50895739D01*
X140315739Y-50693395D01*
X140487226Y-50464315D01*
X140624367Y-50213161D01*
X140724369Y-49945046D01*
X140785196Y-49665428D01*
X140805610Y-49380000D01*
X140785196Y-49094572D01*
X140724369Y-48814954D01*
X140624367Y-48546839D01*
X140487226Y-48295685D01*
X140487224Y-48295682D01*
X140315745Y-48066612D01*
X140315729Y-48066594D01*
X140113405Y-47864270D01*
X140113387Y-47864254D01*
X139884317Y-47692775D01*
X139884309Y-47692770D01*
X139633166Y-47555635D01*
X139633167Y-47555635D01*
X139525915Y-47515632D01*
X139365046Y-47455631D01*
X139365043Y-47455630D01*
X139365037Y-47455628D01*
X139085433Y-47394804D01*
X138800001Y-47374390D01*
X138799999Y-47374390D01*
X138514566Y-47394804D01*
X138234962Y-47455628D01*
X137966833Y-47555635D01*
X137715690Y-47692770D01*
X137715682Y-47692775D01*
X137486612Y-47864254D01*
X137486594Y-47864270D01*
X137284270Y-48066594D01*
X137284254Y-48066612D01*
X137112775Y-48295682D01*
X137112770Y-48295690D01*
X136975635Y-48546833D01*
X136875628Y-48814962D01*
X136814804Y-49094566D01*
X136794390Y-49379998D01*
X136794390Y-49380001D01*
X110425500Y-49380001D01*
X110425500Y-44300001D01*
X136794891Y-44300001D01*
X136815300Y-44585362D01*
X136876109Y-44864895D01*
X136976091Y-45132958D01*
X137113191Y-45384038D01*
X137113196Y-45384046D01*
X137219882Y-45526561D01*
X137219883Y-45526562D01*
X138115195Y-44631250D01*
X138137340Y-44682587D01*
X138243433Y-44825094D01*
X138379530Y-44939294D01*
X138469216Y-44984335D01*
X137573436Y-45880115D01*
X137715960Y-45986807D01*
X137715961Y-45986808D01*
X137967042Y-46123908D01*
X137967041Y-46123908D01*
X138235104Y-46223890D01*
X138514637Y-46284699D01*
X138799999Y-46305109D01*
X138800001Y-46305109D01*
X139085362Y-46284699D01*
X139364895Y-46223890D01*
X139632958Y-46123908D01*
X139884047Y-45986803D01*
X140026561Y-45880116D01*
X140026562Y-45880115D01*
X139133748Y-44987300D01*
X139143409Y-44983784D01*
X139291844Y-44886157D01*
X139413764Y-44756930D01*
X139485768Y-44632215D01*
X140380115Y-45526562D01*
X140380116Y-45526561D01*
X140486803Y-45384047D01*
X140623908Y-45132958D01*
X140723890Y-44864895D01*
X140784699Y-44585362D01*
X140805109Y-44300001D01*
X140805109Y-44299998D01*
X140784699Y-44014637D01*
X140723890Y-43735104D01*
X140623908Y-43467041D01*
X140486808Y-43215961D01*
X140486807Y-43215960D01*
X140380115Y-43073436D01*
X139484803Y-43968747D01*
X139462660Y-43917413D01*
X139356567Y-43774906D01*
X139220470Y-43660706D01*
X139130782Y-43615663D01*
X140026562Y-42719883D01*
X140026561Y-42719882D01*
X139884046Y-42613196D01*
X139884038Y-42613191D01*
X139632957Y-42476091D01*
X139632958Y-42476091D01*
X139364895Y-42376109D01*
X139085362Y-42315300D01*
X138800001Y-42294891D01*
X138799999Y-42294891D01*
X138514637Y-42315300D01*
X138235104Y-42376109D01*
X137967041Y-42476091D01*
X137715961Y-42613191D01*
X137715953Y-42613196D01*
X137573437Y-42719882D01*
X137573436Y-42719883D01*
X138466252Y-43612699D01*
X138456591Y-43616216D01*
X138308156Y-43713843D01*
X138186236Y-43843070D01*
X138114231Y-43967784D01*
X137219883Y-43073436D01*
X137219882Y-43073437D01*
X137113196Y-43215953D01*
X137113191Y-43215961D01*
X136976091Y-43467041D01*
X136876109Y-43735104D01*
X136815300Y-44014637D01*
X136794891Y-44299998D01*
X136794891Y-44300001D01*
X110425500Y-44300001D01*
X110425500Y-43570832D01*
X110445185Y-43503793D01*
X110461819Y-43483151D01*
X111133151Y-42811819D01*
X111194474Y-42778334D01*
X111220832Y-42775500D01*
X111316952Y-42775500D01*
X111320697Y-42775613D01*
X111328042Y-42776057D01*
X111382606Y-42779358D01*
X111420314Y-42772447D01*
X111443621Y-42768177D01*
X111447325Y-42767613D01*
X111465170Y-42765446D01*
X111508872Y-42760140D01*
X111518335Y-42756550D01*
X111539961Y-42750522D01*
X111540893Y-42750351D01*
X111549932Y-42748695D01*
X111606512Y-42723229D01*
X111609942Y-42721809D01*
X111667930Y-42699818D01*
X111676266Y-42694062D01*
X111695821Y-42683034D01*
X111705057Y-42678878D01*
X111753896Y-42640613D01*
X111756876Y-42638421D01*
X111807929Y-42603183D01*
X111849065Y-42556748D01*
X111851599Y-42554056D01*
X112643838Y-41761818D01*
X112705161Y-41728333D01*
X112731519Y-41725499D01*
X112912871Y-41725499D01*
X112912872Y-41725499D01*
X112972483Y-41719091D01*
X112972485Y-41719090D01*
X112980198Y-41718261D01*
X112980265Y-41718885D01*
X112994513Y-41717197D01*
X113497214Y-41715446D01*
X113526158Y-41718769D01*
X113527509Y-41719088D01*
X113527517Y-41719091D01*
X113587127Y-41725500D01*
X114182872Y-41725499D01*
X114242483Y-41719091D01*
X114250028Y-41717308D01*
X114250288Y-41718408D01*
X114281516Y-41712714D01*
X114753210Y-41711070D01*
X114789890Y-41717623D01*
X114789965Y-41717307D01*
X114795694Y-41718660D01*
X114796978Y-41718890D01*
X114797517Y-41719091D01*
X114857127Y-41725500D01*
X115452872Y-41725499D01*
X115512483Y-41719091D01*
X115520593Y-41716066D01*
X115563490Y-41708248D01*
X124590600Y-41676800D01*
X124590600Y-39220001D01*
X136794390Y-39220001D01*
X136814804Y-39505433D01*
X136875628Y-39785037D01*
X136875630Y-39785043D01*
X136875631Y-39785046D01*
X136962315Y-40017454D01*
X136975635Y-40053166D01*
X137112770Y-40304309D01*
X137112775Y-40304317D01*
X137284254Y-40533387D01*
X137284270Y-40533405D01*
X137486594Y-40735729D01*
X137486612Y-40735745D01*
X137715682Y-40907224D01*
X137715690Y-40907229D01*
X137966833Y-41044364D01*
X137966832Y-41044364D01*
X137966836Y-41044365D01*
X137966839Y-41044367D01*
X138234954Y-41144369D01*
X138234960Y-41144370D01*
X138234962Y-41144371D01*
X138514566Y-41205195D01*
X138514568Y-41205195D01*
X138514572Y-41205196D01*
X138768220Y-41223337D01*
X138799999Y-41225610D01*
X138800000Y-41225610D01*
X138800001Y-41225610D01*
X138828595Y-41223564D01*
X139085428Y-41205196D01*
X139365046Y-41144369D01*
X139633161Y-41044367D01*
X139884315Y-40907226D01*
X140113395Y-40735739D01*
X140315739Y-40533395D01*
X140487226Y-40304315D01*
X140624367Y-40053161D01*
X140724369Y-39785046D01*
X140785196Y-39505428D01*
X140805610Y-39220000D01*
X140785196Y-38934572D01*
X140724369Y-38654954D01*
X140624367Y-38386839D01*
X140549646Y-38249999D01*
X140487229Y-38135690D01*
X140487224Y-38135682D01*
X140315745Y-37906612D01*
X140315729Y-37906594D01*
X140113405Y-37704270D01*
X140113387Y-37704254D01*
X139884317Y-37532775D01*
X139884309Y-37532770D01*
X139633166Y-37395635D01*
X139633167Y-37395635D01*
X139438178Y-37322908D01*
X139365046Y-37295631D01*
X139365043Y-37295630D01*
X139365037Y-37295628D01*
X139085433Y-37234804D01*
X138800001Y-37214390D01*
X138799999Y-37214390D01*
X138514566Y-37234804D01*
X138234962Y-37295628D01*
X137966833Y-37395635D01*
X137715690Y-37532770D01*
X137715682Y-37532775D01*
X137486612Y-37704254D01*
X137486594Y-37704270D01*
X137284270Y-37906594D01*
X137284254Y-37906612D01*
X137112775Y-38135682D01*
X137112770Y-38135690D01*
X136975635Y-38386833D01*
X136875628Y-38654962D01*
X136814804Y-38934566D01*
X136794390Y-39219998D01*
X136794390Y-39220001D01*
X124590600Y-39220001D01*
X124590600Y-37797844D01*
X130000000Y-37797844D01*
X130006401Y-37857372D01*
X130006403Y-37857379D01*
X130056645Y-37992086D01*
X130056649Y-37992093D01*
X130142809Y-38107187D01*
X130142812Y-38107190D01*
X130257906Y-38193350D01*
X130257913Y-38193354D01*
X130392620Y-38243596D01*
X130392627Y-38243598D01*
X130452155Y-38249999D01*
X130452172Y-38250000D01*
X131500000Y-38250000D01*
X131500000Y-37045881D01*
X131593369Y-37084556D01*
X131710677Y-37100000D01*
X131789323Y-37100000D01*
X131906631Y-37084556D01*
X132000000Y-37045881D01*
X132000000Y-38250000D01*
X133047828Y-38250000D01*
X133047844Y-38249999D01*
X133107372Y-38243598D01*
X133107379Y-38243596D01*
X133242086Y-38193354D01*
X133242093Y-38193350D01*
X133357187Y-38107190D01*
X133357190Y-38107187D01*
X133443350Y-37992093D01*
X133443354Y-37992086D01*
X133493596Y-37857379D01*
X133493598Y-37857372D01*
X133499999Y-37797844D01*
X133500000Y-37797827D01*
X133500000Y-36750000D01*
X132295882Y-36750000D01*
X132334556Y-36656631D01*
X132355177Y-36500000D01*
X132334556Y-36343369D01*
X132295882Y-36250000D01*
X133500000Y-36250000D01*
X133500000Y-35687844D01*
X136800000Y-35687844D01*
X136806401Y-35747372D01*
X136806403Y-35747379D01*
X136856645Y-35882086D01*
X136856649Y-35882093D01*
X136942809Y-35997187D01*
X136942812Y-35997190D01*
X137057906Y-36083350D01*
X137057913Y-36083354D01*
X137192620Y-36133596D01*
X137192627Y-36133598D01*
X137252155Y-36139999D01*
X137252172Y-36140000D01*
X138550000Y-36140000D01*
X138550000Y-34861802D01*
X138711169Y-34900000D01*
X138844267Y-34900000D01*
X138976461Y-34884549D01*
X139050000Y-34857782D01*
X139050000Y-36140000D01*
X140347828Y-36140000D01*
X140347844Y-36139999D01*
X140407372Y-36133598D01*
X140407379Y-36133596D01*
X140542086Y-36083354D01*
X140542093Y-36083350D01*
X140657187Y-35997190D01*
X140657190Y-35997187D01*
X140743350Y-35882093D01*
X140743354Y-35882086D01*
X140793596Y-35747379D01*
X140793598Y-35747372D01*
X140799999Y-35687844D01*
X140800000Y-35687827D01*
X140800000Y-34390000D01*
X139518483Y-34390000D01*
X139553549Y-34272871D01*
X139563879Y-34095509D01*
X139533029Y-33920546D01*
X139519853Y-33890000D01*
X140800000Y-33890000D01*
X140800000Y-32592172D01*
X140799999Y-32592155D01*
X140793598Y-32532627D01*
X140793596Y-32532620D01*
X140743354Y-32397913D01*
X140743350Y-32397906D01*
X140657190Y-32282812D01*
X140657187Y-32282809D01*
X140542093Y-32196649D01*
X140542086Y-32196645D01*
X140407379Y-32146403D01*
X140407372Y-32146401D01*
X140347844Y-32140000D01*
X139050000Y-32140000D01*
X139050000Y-33418197D01*
X138888831Y-33380000D01*
X138755733Y-33380000D01*
X138623539Y-33395451D01*
X138550000Y-33422217D01*
X138550000Y-32140000D01*
X137252155Y-32140000D01*
X137192627Y-32146401D01*
X137192620Y-32146403D01*
X137057913Y-32196645D01*
X137057906Y-32196649D01*
X136942812Y-32282809D01*
X136942809Y-32282812D01*
X136856649Y-32397906D01*
X136856645Y-32397913D01*
X136806403Y-32532620D01*
X136806401Y-32532627D01*
X136800000Y-32592155D01*
X136800000Y-33890000D01*
X138081517Y-33890000D01*
X138046451Y-34007129D01*
X138036121Y-34184491D01*
X138066971Y-34359454D01*
X138080147Y-34390000D01*
X136800000Y-34390000D01*
X136800000Y-35687844D01*
X133500000Y-35687844D01*
X133500000Y-35202172D01*
X133499999Y-35202155D01*
X133493598Y-35142627D01*
X133493596Y-35142620D01*
X133443354Y-35007913D01*
X133443350Y-35007906D01*
X133357190Y-34892812D01*
X133357187Y-34892809D01*
X133242093Y-34806649D01*
X133242086Y-34806645D01*
X133107379Y-34756403D01*
X133107372Y-34756401D01*
X133047844Y-34750000D01*
X132000000Y-34750000D01*
X132000000Y-35954118D01*
X131906631Y-35915444D01*
X131789323Y-35900000D01*
X131710677Y-35900000D01*
X131593369Y-35915444D01*
X131500000Y-35954118D01*
X131500000Y-34750000D01*
X130452155Y-34750000D01*
X130392627Y-34756401D01*
X130392620Y-34756403D01*
X130257913Y-34806645D01*
X130257906Y-34806649D01*
X130142812Y-34892809D01*
X130142809Y-34892812D01*
X130056649Y-35007906D01*
X130056645Y-35007913D01*
X130006403Y-35142620D01*
X130006401Y-35142627D01*
X130000000Y-35202155D01*
X130000000Y-36250000D01*
X131204118Y-36250000D01*
X131165444Y-36343369D01*
X131144823Y-36500000D01*
X131165444Y-36656631D01*
X131204118Y-36750000D01*
X130000000Y-36750000D01*
X130000000Y-37797844D01*
X124590600Y-37797844D01*
X124590600Y-27897870D01*
X131649500Y-27897870D01*
X131649501Y-27897876D01*
X131655908Y-27957483D01*
X131706202Y-28092328D01*
X131706206Y-28092335D01*
X131792452Y-28207544D01*
X131792455Y-28207547D01*
X131907664Y-28293793D01*
X131907671Y-28293797D01*
X132042517Y-28344091D01*
X132042516Y-28344091D01*
X132049444Y-28344835D01*
X132102127Y-28350500D01*
X134697872Y-28350499D01*
X134757483Y-28344091D01*
X134892331Y-28293796D01*
X135007546Y-28207546D01*
X135093796Y-28092331D01*
X135144091Y-27957483D01*
X135150500Y-27897873D01*
X135150499Y-26500000D01*
X139097366Y-26500000D01*
X139117666Y-26887339D01*
X139178341Y-27270427D01*
X139178341Y-27270429D01*
X139278732Y-27645094D01*
X139417731Y-28007197D01*
X139593821Y-28352793D01*
X139805066Y-28678082D01*
X139824538Y-28702128D01*
X140049163Y-28979516D01*
X140323428Y-29253781D01*
X140323432Y-29253784D01*
X140624861Y-29497877D01*
X140950150Y-29709122D01*
X140950155Y-29709125D01*
X141295750Y-29885214D01*
X141657857Y-30024214D01*
X142032511Y-30124602D01*
X142415606Y-30185278D01*
X142781520Y-30204455D01*
X142802943Y-30205578D01*
X142802944Y-30205578D01*
X142802945Y-30205578D01*
X142823245Y-30204514D01*
X143190282Y-30185278D01*
X143573377Y-30124602D01*
X143948031Y-30024214D01*
X144310138Y-29885214D01*
X144655733Y-29709125D01*
X144981028Y-29497876D01*
X145282460Y-29253781D01*
X145556725Y-28979516D01*
X145800820Y-28678084D01*
X146012069Y-28352789D01*
X146188158Y-28007194D01*
X146327158Y-27645087D01*
X146427546Y-27270433D01*
X146488222Y-26887338D01*
X146508522Y-26500000D01*
X146488222Y-26112662D01*
X146427546Y-25729567D01*
X146327158Y-25354913D01*
X146188158Y-24992806D01*
X146012069Y-24647211D01*
X145982647Y-24601905D01*
X145800821Y-24321917D01*
X145574717Y-24042702D01*
X145556725Y-24020484D01*
X145282460Y-23746219D01*
X145068634Y-23573066D01*
X144981026Y-23502122D01*
X144655737Y-23290877D01*
X144310141Y-23114787D01*
X143948038Y-22975788D01*
X143948031Y-22975786D01*
X143573377Y-22875398D01*
X143573373Y-22875397D01*
X143573372Y-22875397D01*
X143190283Y-22814722D01*
X142802945Y-22794422D01*
X142802943Y-22794422D01*
X142415604Y-22814722D01*
X142032516Y-22875397D01*
X142032514Y-22875397D01*
X141657849Y-22975788D01*
X141295746Y-23114787D01*
X140950150Y-23290877D01*
X140624861Y-23502122D01*
X140323432Y-23746215D01*
X140323424Y-23746222D01*
X140049166Y-24020480D01*
X140049159Y-24020488D01*
X139805066Y-24321917D01*
X139593821Y-24647206D01*
X139417731Y-24992802D01*
X139278732Y-25354905D01*
X139178341Y-25729570D01*
X139178341Y-25729572D01*
X139117666Y-26112660D01*
X139097366Y-26499999D01*
X139097366Y-26500000D01*
X135150499Y-26500000D01*
X135150499Y-25302128D01*
X135144091Y-25242517D01*
X135106997Y-25143064D01*
X135093797Y-25107671D01*
X135093793Y-25107664D01*
X135007547Y-24992455D01*
X135007544Y-24992452D01*
X134892335Y-24906206D01*
X134892328Y-24906202D01*
X134757482Y-24855908D01*
X134757483Y-24855908D01*
X134697883Y-24849501D01*
X134697881Y-24849500D01*
X134697873Y-24849500D01*
X134697864Y-24849500D01*
X132102129Y-24849500D01*
X132102123Y-24849501D01*
X132042516Y-24855908D01*
X131907671Y-24906202D01*
X131907664Y-24906206D01*
X131792455Y-24992452D01*
X131792452Y-24992455D01*
X131706206Y-25107664D01*
X131706202Y-25107671D01*
X131655908Y-25242517D01*
X131650509Y-25292743D01*
X131649501Y-25302123D01*
X131649500Y-25302135D01*
X131649500Y-27897870D01*
X124590600Y-27897870D01*
X124590600Y-22306481D01*
X124610285Y-22239442D01*
X124663089Y-22193687D01*
X124714600Y-22182481D01*
X142817519Y-22182481D01*
X142818019Y-22182481D01*
X143012814Y-22190986D01*
G37*
G04 #@! TD.AperFunction*
G04 #@! TA.AperFunction,Conductor*
G36*
X101193039Y-22202166D02*
G01*
X101238794Y-22254970D01*
X101250000Y-22306481D01*
X101250000Y-43200500D01*
X101230315Y-43267539D01*
X101177511Y-43313294D01*
X101126000Y-43324500D01*
X99148705Y-43324500D01*
X99130735Y-43323191D01*
X99106972Y-43319710D01*
X99061890Y-43323655D01*
X99054933Y-43324264D01*
X99049532Y-43324500D01*
X99041287Y-43324500D01*
X99015222Y-43327546D01*
X99008705Y-43328308D01*
X99003403Y-43328771D01*
X98932201Y-43335001D01*
X98925134Y-43336461D01*
X98925122Y-43336404D01*
X98917753Y-43338038D01*
X98917767Y-43338095D01*
X98910739Y-43339760D01*
X98855536Y-43359852D01*
X98838563Y-43366030D01*
X98765666Y-43390186D01*
X98765664Y-43390186D01*
X98765661Y-43390188D01*
X98759122Y-43393237D01*
X98759097Y-43393185D01*
X98752308Y-43396471D01*
X98752334Y-43396522D01*
X98745884Y-43399761D01*
X98681716Y-43441964D01*
X98616347Y-43482285D01*
X98610677Y-43486769D01*
X98610641Y-43486723D01*
X98604798Y-43491484D01*
X98604835Y-43491528D01*
X98599310Y-43496164D01*
X98546614Y-43552017D01*
X98384950Y-43713681D01*
X98323627Y-43747166D01*
X98297269Y-43750000D01*
X94874500Y-43750000D01*
X94807461Y-43730315D01*
X94761706Y-43677511D01*
X94750500Y-43626000D01*
X94750500Y-37755705D01*
X94751809Y-37737735D01*
X94755289Y-37713974D01*
X94750736Y-37661939D01*
X94750500Y-37656532D01*
X94750500Y-37648296D01*
X94750500Y-37648291D01*
X94746691Y-37615705D01*
X94739998Y-37539203D01*
X94739995Y-37539194D01*
X94738538Y-37532135D01*
X94738598Y-37532122D01*
X94736966Y-37524764D01*
X94736908Y-37524778D01*
X94735241Y-37517747D01*
X94735241Y-37517745D01*
X94708969Y-37445563D01*
X94684814Y-37372666D01*
X94681762Y-37366121D01*
X94681815Y-37366095D01*
X94678531Y-37359311D01*
X94678479Y-37359338D01*
X94675236Y-37352882D01*
X94671167Y-37346696D01*
X94633034Y-37288716D01*
X94592712Y-37223344D01*
X94592710Y-37223342D01*
X94588234Y-37217681D01*
X94588280Y-37217643D01*
X94583519Y-37211799D01*
X94583474Y-37211838D01*
X94578834Y-37206308D01*
X94522982Y-37153613D01*
X93026762Y-35657394D01*
X92993277Y-35596071D01*
X92996737Y-35530709D01*
X93003999Y-35508797D01*
X93014500Y-35406009D01*
X93014499Y-33505992D01*
X93003999Y-33403203D01*
X92948814Y-33236666D01*
X92856712Y-33087344D01*
X92732656Y-32963288D01*
X92583334Y-32871186D01*
X92416797Y-32816001D01*
X92416795Y-32816000D01*
X92314016Y-32805500D01*
X92314009Y-32805500D01*
X91638500Y-32805500D01*
X91571461Y-32785815D01*
X91525706Y-32733011D01*
X91514500Y-32681500D01*
X91514500Y-31374499D01*
X91534185Y-31307460D01*
X91586989Y-31261705D01*
X91638500Y-31250499D01*
X91797871Y-31250499D01*
X91797872Y-31250499D01*
X91857483Y-31244091D01*
X91992331Y-31193796D01*
X92107546Y-31107546D01*
X92193796Y-30992331D01*
X92244091Y-30857483D01*
X92250500Y-30797873D01*
X92250499Y-28202128D01*
X92244091Y-28142517D01*
X92193796Y-28007669D01*
X92193795Y-28007668D01*
X92193793Y-28007664D01*
X92107547Y-27892455D01*
X92107544Y-27892452D01*
X91992335Y-27806206D01*
X91992328Y-27806202D01*
X91857482Y-27755908D01*
X91857483Y-27755908D01*
X91797883Y-27749501D01*
X91797881Y-27749500D01*
X91797873Y-27749500D01*
X91797864Y-27749500D01*
X89202129Y-27749500D01*
X89202123Y-27749501D01*
X89142516Y-27755908D01*
X89007671Y-27806202D01*
X89007664Y-27806206D01*
X88892455Y-27892452D01*
X88892452Y-27892455D01*
X88806206Y-28007664D01*
X88806202Y-28007671D01*
X88755908Y-28142517D01*
X88749501Y-28202116D01*
X88749501Y-28202123D01*
X88749500Y-28202135D01*
X88749500Y-30797870D01*
X88749501Y-30797876D01*
X88755908Y-30857483D01*
X88806202Y-30992328D01*
X88806206Y-30992335D01*
X88892452Y-31107544D01*
X88892455Y-31107547D01*
X89007664Y-31193793D01*
X89007671Y-31193797D01*
X89142517Y-31244091D01*
X89142516Y-31244091D01*
X89149444Y-31244835D01*
X89202127Y-31250500D01*
X89889500Y-31250499D01*
X89956539Y-31270183D01*
X90002294Y-31322987D01*
X90013500Y-31374499D01*
X90013500Y-32681500D01*
X89993815Y-32748539D01*
X89941011Y-32794294D01*
X89889500Y-32805500D01*
X89213998Y-32805500D01*
X89213980Y-32805501D01*
X89111203Y-32816000D01*
X89111200Y-32816001D01*
X88944668Y-32871185D01*
X88944663Y-32871187D01*
X88795342Y-32963289D01*
X88671289Y-33087342D01*
X88579187Y-33236663D01*
X88579186Y-33236666D01*
X88524001Y-33403203D01*
X88524001Y-33403204D01*
X88524000Y-33403204D01*
X88513500Y-33505983D01*
X88513500Y-35406001D01*
X88513501Y-35406018D01*
X88524000Y-35508796D01*
X88524001Y-35508799D01*
X88555320Y-35603311D01*
X88579186Y-35675334D01*
X88671288Y-35824656D01*
X88795344Y-35948712D01*
X88944666Y-36040814D01*
X89111203Y-36095999D01*
X89213991Y-36106500D01*
X91301769Y-36106499D01*
X91368808Y-36126184D01*
X91389450Y-36142818D01*
X93213181Y-37966549D01*
X93246666Y-38027872D01*
X93249500Y-38054230D01*
X93249500Y-41326000D01*
X93229815Y-41393039D01*
X93177011Y-41438794D01*
X93125500Y-41450000D01*
X92870861Y-41450000D01*
X92826890Y-41441942D01*
X92790637Y-41428193D01*
X92787176Y-41426759D01*
X92730616Y-41401304D01*
X92720632Y-41399474D01*
X92699029Y-41393451D01*
X92689560Y-41389860D01*
X92689556Y-41389859D01*
X92627999Y-41382384D01*
X92624298Y-41381821D01*
X92563294Y-41370642D01*
X92563289Y-41370642D01*
X92501383Y-41374387D01*
X92497638Y-41374500D01*
X89861519Y-41374500D01*
X89794480Y-41354815D01*
X89773838Y-41338181D01*
X89031818Y-40596161D01*
X88998333Y-40534838D01*
X88995499Y-40508480D01*
X88995499Y-40327129D01*
X88995498Y-40327123D01*
X88994836Y-40320966D01*
X88989091Y-40267517D01*
X88962462Y-40196122D01*
X88938797Y-40132671D01*
X88938793Y-40132664D01*
X88852547Y-40017455D01*
X88852544Y-40017452D01*
X88737335Y-39931206D01*
X88737328Y-39931202D01*
X88602486Y-39880910D01*
X88602485Y-39880909D01*
X88602483Y-39880909D01*
X88542873Y-39874500D01*
X88542863Y-39874500D01*
X87947129Y-39874500D01*
X87947123Y-39874501D01*
X87887516Y-39880908D01*
X87752671Y-39931202D01*
X87752664Y-39931206D01*
X87637457Y-40017451D01*
X87637449Y-40017458D01*
X87613232Y-40049810D01*
X87557299Y-40091682D01*
X87513965Y-40099500D01*
X86223048Y-40099500D01*
X86219303Y-40099387D01*
X86157396Y-40095642D01*
X86157389Y-40095642D01*
X86096386Y-40106821D01*
X86092685Y-40107384D01*
X86031128Y-40114859D01*
X86031121Y-40114861D01*
X86021647Y-40118454D01*
X86000049Y-40124475D01*
X85990069Y-40126304D01*
X85933519Y-40151755D01*
X85930060Y-40153188D01*
X85872071Y-40175181D01*
X85872066Y-40175184D01*
X85863722Y-40180943D01*
X85844187Y-40191961D01*
X85834947Y-40196120D01*
X85834945Y-40196121D01*
X85786136Y-40234359D01*
X85783122Y-40236576D01*
X85732070Y-40271817D01*
X85732068Y-40271818D01*
X85690942Y-40318240D01*
X85688375Y-40320966D01*
X84595661Y-41413681D01*
X84534338Y-41447166D01*
X84507980Y-41450000D01*
X82629500Y-41450000D01*
X82562461Y-41430315D01*
X82516706Y-41377511D01*
X82505500Y-41326000D01*
X82505500Y-26547844D01*
X88750000Y-26547844D01*
X88756401Y-26607372D01*
X88756403Y-26607379D01*
X88806645Y-26742086D01*
X88806649Y-26742093D01*
X88892809Y-26857187D01*
X88892812Y-26857190D01*
X89007906Y-26943350D01*
X89007913Y-26943354D01*
X89142620Y-26993596D01*
X89142627Y-26993598D01*
X89202155Y-26999999D01*
X89202172Y-27000000D01*
X90250000Y-27000000D01*
X90250000Y-25795881D01*
X90343369Y-25834556D01*
X90460677Y-25850000D01*
X90539323Y-25850000D01*
X90656631Y-25834556D01*
X90750000Y-25795881D01*
X90750000Y-27000000D01*
X91797828Y-27000000D01*
X91797844Y-26999999D01*
X91857372Y-26993598D01*
X91857379Y-26993596D01*
X91992086Y-26943354D01*
X91992093Y-26943350D01*
X92107187Y-26857190D01*
X92107190Y-26857187D01*
X92193350Y-26742093D01*
X92193354Y-26742086D01*
X92243596Y-26607379D01*
X92243598Y-26607372D01*
X92249999Y-26547844D01*
X92250000Y-26547827D01*
X92250000Y-25500000D01*
X91045882Y-25500000D01*
X91084556Y-25406631D01*
X91105177Y-25250000D01*
X91084556Y-25093369D01*
X91045882Y-25000000D01*
X92250000Y-25000000D01*
X92250000Y-23952172D01*
X92249999Y-23952155D01*
X92243598Y-23892627D01*
X92243596Y-23892620D01*
X92193354Y-23757913D01*
X92193350Y-23757906D01*
X92107190Y-23642812D01*
X92107187Y-23642809D01*
X91992093Y-23556649D01*
X91992086Y-23556645D01*
X91857379Y-23506403D01*
X91857372Y-23506401D01*
X91797844Y-23500000D01*
X90750000Y-23500000D01*
X90750000Y-24704118D01*
X90656631Y-24665444D01*
X90539323Y-24650000D01*
X90460677Y-24650000D01*
X90343369Y-24665444D01*
X90250000Y-24704118D01*
X90250000Y-23500000D01*
X89202155Y-23500000D01*
X89142627Y-23506401D01*
X89142620Y-23506403D01*
X89007913Y-23556645D01*
X89007906Y-23556649D01*
X88892812Y-23642809D01*
X88892809Y-23642812D01*
X88806649Y-23757906D01*
X88806645Y-23757913D01*
X88756403Y-23892620D01*
X88756401Y-23892627D01*
X88750000Y-23952155D01*
X88750000Y-25000000D01*
X89954118Y-25000000D01*
X89915444Y-25093369D01*
X89894823Y-25250000D01*
X89915444Y-25406631D01*
X89954118Y-25500000D01*
X88750000Y-25500000D01*
X88750000Y-26547844D01*
X82505500Y-26547844D01*
X82505500Y-22306481D01*
X82525185Y-22239442D01*
X82577989Y-22193687D01*
X82629500Y-22182481D01*
X101126000Y-22182481D01*
X101193039Y-22202166D01*
G37*
G04 #@! TD.AperFunction*
G04 #@! TA.AperFunction,Conductor*
G36*
X81943039Y-22202166D02*
G01*
X81988794Y-22254970D01*
X82000000Y-22306481D01*
X82000000Y-42100000D01*
X82186433Y-42100048D01*
X82253465Y-42119748D01*
X82299206Y-42172564D01*
X82309132Y-42241725D01*
X82302581Y-42267379D01*
X82255909Y-42392514D01*
X82255908Y-42392516D01*
X82252895Y-42420546D01*
X82249501Y-42452123D01*
X82249500Y-42452135D01*
X82249500Y-45047870D01*
X82249501Y-45047876D01*
X82255908Y-45107483D01*
X82306202Y-45242328D01*
X82306206Y-45242335D01*
X82392452Y-45357544D01*
X82392455Y-45357547D01*
X82507664Y-45443793D01*
X82507671Y-45443797D01*
X82642517Y-45494091D01*
X82642516Y-45494091D01*
X82649444Y-45494835D01*
X82702127Y-45500500D01*
X85297872Y-45500499D01*
X85357483Y-45494091D01*
X85492331Y-45443796D01*
X85607546Y-45357546D01*
X85693796Y-45242331D01*
X85744091Y-45107483D01*
X85750500Y-45047873D01*
X85750499Y-42452128D01*
X85744091Y-42392517D01*
X85743152Y-42390000D01*
X85732291Y-42360880D01*
X85727306Y-42291188D01*
X85760788Y-42229867D01*
X85853325Y-42137331D01*
X85914641Y-42103850D01*
X85941023Y-42101016D01*
X88504694Y-42101678D01*
X88571724Y-42121379D01*
X88592339Y-42137996D01*
X89008399Y-42554056D01*
X89010935Y-42556750D01*
X89052071Y-42603183D01*
X89083431Y-42624829D01*
X89103110Y-42638413D01*
X89106127Y-42640633D01*
X89154938Y-42678874D01*
X89154943Y-42678877D01*
X89164174Y-42683031D01*
X89183727Y-42694059D01*
X89192070Y-42699818D01*
X89250057Y-42721809D01*
X89253512Y-42723239D01*
X89283093Y-42736553D01*
X89310063Y-42748692D01*
X89310064Y-42748692D01*
X89310068Y-42748694D01*
X89320030Y-42750519D01*
X89341651Y-42756546D01*
X89351125Y-42760139D01*
X89351128Y-42760140D01*
X89367871Y-42762173D01*
X89412689Y-42767615D01*
X89416386Y-42768177D01*
X89477394Y-42779357D01*
X89477395Y-42779356D01*
X89477396Y-42779357D01*
X89539293Y-42775613D01*
X89543037Y-42775500D01*
X92179167Y-42775500D01*
X92246206Y-42795185D01*
X92266848Y-42811819D01*
X92613181Y-43158152D01*
X92646666Y-43219475D01*
X92649500Y-43245833D01*
X92649500Y-45076951D01*
X92649387Y-45080696D01*
X92645642Y-45142603D01*
X92645642Y-45142605D01*
X92656821Y-45203612D01*
X92657384Y-45207313D01*
X92664859Y-45268870D01*
X92664860Y-45268874D01*
X92668451Y-45278343D01*
X92674474Y-45299946D01*
X92676304Y-45309930D01*
X92701759Y-45366490D01*
X92703189Y-45369941D01*
X92725182Y-45427930D01*
X92725183Y-45427931D01*
X92730936Y-45436266D01*
X92741961Y-45455813D01*
X92746120Y-45465055D01*
X92746124Y-45465060D01*
X92784371Y-45513878D01*
X92786591Y-45516896D01*
X92821812Y-45567924D01*
X92821816Y-45567928D01*
X92821817Y-45567929D01*
X92868250Y-45609064D01*
X92870941Y-45611598D01*
X93258842Y-45999499D01*
X93590281Y-46330938D01*
X93623766Y-46392261D01*
X93626600Y-46418619D01*
X93626600Y-46616310D01*
X93606915Y-46683349D01*
X93596316Y-46697510D01*
X93594433Y-46699682D01*
X93534663Y-46830556D01*
X93514978Y-46897594D01*
X93514976Y-46897599D01*
X93494500Y-47040020D01*
X93494500Y-52870500D01*
X93474815Y-52937539D01*
X93422011Y-52983294D01*
X93370500Y-52994500D01*
X73842364Y-52994500D01*
X73824498Y-52995138D01*
X73822041Y-52995269D01*
X73806487Y-52996103D01*
X73806471Y-52996105D01*
X73665895Y-53026686D01*
X73665890Y-53026687D01*
X73665889Y-53026688D01*
X73650063Y-53032590D01*
X73600423Y-53051105D01*
X73518209Y-53095997D01*
X73458707Y-53111164D01*
X69655041Y-53108819D01*
X69603431Y-53094896D01*
X69602487Y-53096964D01*
X69596947Y-53094434D01*
X69596946Y-53094433D01*
X69502691Y-53051387D01*
X69466072Y-53034663D01*
X69399035Y-53014978D01*
X69399029Y-53014976D01*
X69313576Y-53002690D01*
X69256610Y-52994500D01*
X59124500Y-52994500D01*
X59057461Y-52974815D01*
X59011706Y-52922011D01*
X59000500Y-52870500D01*
X59000500Y-44187844D01*
X65200000Y-44187844D01*
X65206401Y-44247372D01*
X65206403Y-44247379D01*
X65256645Y-44382086D01*
X65256649Y-44382093D01*
X65342809Y-44497187D01*
X65342812Y-44497190D01*
X65457906Y-44583350D01*
X65457913Y-44583354D01*
X65592620Y-44633596D01*
X65592627Y-44633598D01*
X65652155Y-44639999D01*
X65652172Y-44640000D01*
X66950000Y-44640000D01*
X66950000Y-43361802D01*
X67111169Y-43400000D01*
X67244267Y-43400000D01*
X67376461Y-43384549D01*
X67450000Y-43357782D01*
X67450000Y-44640000D01*
X68747828Y-44640000D01*
X68747844Y-44639999D01*
X68807372Y-44633598D01*
X68807379Y-44633596D01*
X68942086Y-44583354D01*
X68942093Y-44583350D01*
X69057187Y-44497190D01*
X69057190Y-44497187D01*
X69143350Y-44382093D01*
X69143354Y-44382086D01*
X69193596Y-44247379D01*
X69193598Y-44247372D01*
X69199999Y-44187844D01*
X69200000Y-44187827D01*
X69200000Y-42890000D01*
X67918483Y-42890000D01*
X67953549Y-42772871D01*
X67963879Y-42595509D01*
X67933029Y-42420546D01*
X67919853Y-42390000D01*
X69200000Y-42390000D01*
X69200000Y-41092172D01*
X69199999Y-41092155D01*
X69193598Y-41032627D01*
X69193596Y-41032620D01*
X69143354Y-40897913D01*
X69143350Y-40897906D01*
X69057190Y-40782812D01*
X69057187Y-40782809D01*
X68942093Y-40696649D01*
X68942086Y-40696645D01*
X68807379Y-40646403D01*
X68807372Y-40646401D01*
X68747844Y-40640000D01*
X67450000Y-40640000D01*
X67450000Y-41918197D01*
X67288831Y-41880000D01*
X67155733Y-41880000D01*
X67023539Y-41895451D01*
X66950000Y-41922217D01*
X66950000Y-40640000D01*
X65652155Y-40640000D01*
X65592627Y-40646401D01*
X65592620Y-40646403D01*
X65457913Y-40696645D01*
X65457906Y-40696649D01*
X65342812Y-40782809D01*
X65342809Y-40782812D01*
X65256649Y-40897906D01*
X65256645Y-40897913D01*
X65206403Y-41032620D01*
X65206401Y-41032627D01*
X65200000Y-41092155D01*
X65200000Y-42390000D01*
X66481517Y-42390000D01*
X66446451Y-42507129D01*
X66436121Y-42684491D01*
X66466971Y-42859454D01*
X66480147Y-42890000D01*
X65200000Y-42890000D01*
X65200000Y-44187844D01*
X59000500Y-44187844D01*
X59000500Y-37560001D01*
X65194390Y-37560001D01*
X65214804Y-37845433D01*
X65275628Y-38125037D01*
X65375635Y-38393166D01*
X65512770Y-38644309D01*
X65512775Y-38644317D01*
X65684254Y-38873387D01*
X65684270Y-38873405D01*
X65886594Y-39075729D01*
X65886612Y-39075745D01*
X66115682Y-39247224D01*
X66115690Y-39247229D01*
X66366833Y-39384364D01*
X66366832Y-39384364D01*
X66366836Y-39384365D01*
X66366839Y-39384367D01*
X66634954Y-39484369D01*
X66634960Y-39484370D01*
X66634962Y-39484371D01*
X66914566Y-39545195D01*
X66914568Y-39545195D01*
X66914572Y-39545196D01*
X67168220Y-39563337D01*
X67199999Y-39565610D01*
X67200000Y-39565610D01*
X67200001Y-39565610D01*
X67228595Y-39563564D01*
X67485428Y-39545196D01*
X67765046Y-39484369D01*
X68033161Y-39384367D01*
X68284315Y-39247226D01*
X68513395Y-39075739D01*
X68715739Y-38873395D01*
X68887226Y-38644315D01*
X69024367Y-38393161D01*
X69124369Y-38125046D01*
X69185196Y-37845428D01*
X69205610Y-37560000D01*
X69185196Y-37274572D01*
X69172352Y-37215530D01*
X69124371Y-36994962D01*
X69124370Y-36994960D01*
X69124369Y-36994954D01*
X69024367Y-36726839D01*
X68887226Y-36475685D01*
X68887224Y-36475682D01*
X68715745Y-36246612D01*
X68715729Y-36246594D01*
X68513405Y-36044270D01*
X68513387Y-36044254D01*
X68284317Y-35872775D01*
X68284309Y-35872770D01*
X68033166Y-35735635D01*
X68033167Y-35735635D01*
X67925915Y-35695632D01*
X67765046Y-35635631D01*
X67765043Y-35635630D01*
X67765037Y-35635628D01*
X67485433Y-35574804D01*
X67200001Y-35554390D01*
X67199999Y-35554390D01*
X66914566Y-35574804D01*
X66634962Y-35635628D01*
X66366833Y-35735635D01*
X66115690Y-35872770D01*
X66115682Y-35872775D01*
X65886612Y-36044254D01*
X65886594Y-36044270D01*
X65684270Y-36246594D01*
X65684254Y-36246612D01*
X65512775Y-36475682D01*
X65512770Y-36475690D01*
X65375635Y-36726833D01*
X65275628Y-36994962D01*
X65214804Y-37274566D01*
X65194390Y-37559998D01*
X65194390Y-37560001D01*
X59000500Y-37560001D01*
X59000500Y-33697844D01*
X70850000Y-33697844D01*
X70856401Y-33757372D01*
X70856403Y-33757379D01*
X70906645Y-33892086D01*
X70906649Y-33892093D01*
X70992809Y-34007187D01*
X70992812Y-34007190D01*
X71107906Y-34093350D01*
X71107913Y-34093354D01*
X71242620Y-34143596D01*
X71242627Y-34143598D01*
X71302155Y-34149999D01*
X71302172Y-34150000D01*
X72350000Y-34150000D01*
X72350000Y-32945881D01*
X72443369Y-32984556D01*
X72560677Y-33000000D01*
X72639323Y-33000000D01*
X72756631Y-32984556D01*
X72850000Y-32945881D01*
X72850000Y-34150000D01*
X73897828Y-34150000D01*
X73897844Y-34149999D01*
X73957372Y-34143598D01*
X73957379Y-34143596D01*
X74092086Y-34093354D01*
X74092093Y-34093350D01*
X74207187Y-34007190D01*
X74207190Y-34007187D01*
X74293350Y-33892093D01*
X74293354Y-33892086D01*
X74343596Y-33757379D01*
X74343598Y-33757372D01*
X74349999Y-33697844D01*
X74350000Y-33697827D01*
X74350000Y-32650000D01*
X73145882Y-32650000D01*
X73184556Y-32556631D01*
X73205177Y-32400000D01*
X73184556Y-32243369D01*
X73145882Y-32150000D01*
X74350000Y-32150000D01*
X74350000Y-31102172D01*
X74349999Y-31102155D01*
X74343598Y-31042627D01*
X74343596Y-31042620D01*
X74293354Y-30907913D01*
X74293350Y-30907906D01*
X74207190Y-30792812D01*
X74207187Y-30792809D01*
X74092093Y-30706649D01*
X74092086Y-30706645D01*
X73957379Y-30656403D01*
X73957372Y-30656401D01*
X73897844Y-30650000D01*
X72850000Y-30650000D01*
X72850000Y-31854118D01*
X72756631Y-31815444D01*
X72639323Y-31800000D01*
X72560677Y-31800000D01*
X72443369Y-31815444D01*
X72350000Y-31854118D01*
X72350000Y-30650000D01*
X71302155Y-30650000D01*
X71242627Y-30656401D01*
X71242620Y-30656403D01*
X71107913Y-30706645D01*
X71107906Y-30706649D01*
X70992812Y-30792809D01*
X70992809Y-30792812D01*
X70906649Y-30907906D01*
X70906645Y-30907913D01*
X70856403Y-31042620D01*
X70856401Y-31042627D01*
X70850000Y-31102155D01*
X70850000Y-32150000D01*
X72054118Y-32150000D01*
X72015444Y-32243369D01*
X71994823Y-32400000D01*
X72015444Y-32556631D01*
X72054118Y-32650000D01*
X70850000Y-32650000D01*
X70850000Y-33697844D01*
X59000500Y-33697844D01*
X59000500Y-26681981D01*
X59000504Y-26681882D01*
X59008446Y-26500000D01*
X59794422Y-26500000D01*
X59814722Y-26887339D01*
X59875397Y-27270427D01*
X59875397Y-27270429D01*
X59975788Y-27645094D01*
X60114787Y-28007197D01*
X60290877Y-28352793D01*
X60502122Y-28678082D01*
X60502124Y-28678084D01*
X60746219Y-28979516D01*
X61020484Y-29253781D01*
X61020488Y-29253784D01*
X61321917Y-29497877D01*
X61647206Y-29709122D01*
X61647211Y-29709125D01*
X61992806Y-29885214D01*
X62354913Y-30024214D01*
X62729567Y-30124602D01*
X63112662Y-30185278D01*
X63478576Y-30204455D01*
X63499999Y-30205578D01*
X63500000Y-30205578D01*
X63500001Y-30205578D01*
X63520301Y-30204514D01*
X63887338Y-30185278D01*
X64270433Y-30124602D01*
X64645087Y-30024214D01*
X65007194Y-29885214D01*
X65352789Y-29709125D01*
X65678084Y-29497876D01*
X65979516Y-29253781D01*
X66253781Y-28979516D01*
X66497876Y-28678084D01*
X66709125Y-28352789D01*
X66885214Y-28007194D01*
X66927180Y-27897870D01*
X70849500Y-27897870D01*
X70849501Y-27897876D01*
X70855908Y-27957483D01*
X70906202Y-28092328D01*
X70906206Y-28092335D01*
X70992452Y-28207544D01*
X70992455Y-28207547D01*
X71107664Y-28293793D01*
X71107671Y-28293797D01*
X71242517Y-28344091D01*
X71242516Y-28344091D01*
X71249444Y-28344835D01*
X71302127Y-28350500D01*
X73897872Y-28350499D01*
X73957483Y-28344091D01*
X74092331Y-28293796D01*
X74207546Y-28207546D01*
X74293796Y-28092331D01*
X74344091Y-27957483D01*
X74350500Y-27897873D01*
X74350499Y-25302128D01*
X74344091Y-25242517D01*
X74293796Y-25107669D01*
X74293795Y-25107668D01*
X74293793Y-25107664D01*
X74207547Y-24992455D01*
X74207544Y-24992452D01*
X74092335Y-24906206D01*
X74092328Y-24906202D01*
X73957482Y-24855908D01*
X73957483Y-24855908D01*
X73897883Y-24849501D01*
X73897881Y-24849500D01*
X73897873Y-24849500D01*
X73897864Y-24849500D01*
X71302129Y-24849500D01*
X71302123Y-24849501D01*
X71242516Y-24855908D01*
X71107671Y-24906202D01*
X71107664Y-24906206D01*
X70992455Y-24992452D01*
X70992452Y-24992455D01*
X70906206Y-25107664D01*
X70906202Y-25107671D01*
X70855908Y-25242517D01*
X70850613Y-25291772D01*
X70849501Y-25302123D01*
X70849500Y-25302135D01*
X70849500Y-27897870D01*
X66927180Y-27897870D01*
X67024214Y-27645087D01*
X67124602Y-27270433D01*
X67185278Y-26887338D01*
X67205578Y-26500000D01*
X67185278Y-26112662D01*
X67124602Y-25729567D01*
X67024214Y-25354913D01*
X66885214Y-24992806D01*
X66709125Y-24647211D01*
X66497876Y-24321916D01*
X66253781Y-24020484D01*
X65979516Y-23746219D01*
X65846620Y-23638602D01*
X65678082Y-23502122D01*
X65352793Y-23290877D01*
X65007197Y-23114787D01*
X64645094Y-22975788D01*
X64645087Y-22975786D01*
X64270433Y-22875398D01*
X64270429Y-22875397D01*
X64270428Y-22875397D01*
X63887339Y-22814722D01*
X63500001Y-22794422D01*
X63499999Y-22794422D01*
X63112660Y-22814722D01*
X62729572Y-22875397D01*
X62729570Y-22875397D01*
X62354905Y-22975788D01*
X61992802Y-23114787D01*
X61647206Y-23290877D01*
X61321917Y-23502122D01*
X61020488Y-23746215D01*
X61020480Y-23746222D01*
X60746222Y-24020480D01*
X60746215Y-24020488D01*
X60502122Y-24321917D01*
X60290877Y-24647206D01*
X60114787Y-24992802D01*
X59975788Y-25354905D01*
X59875397Y-25729570D01*
X59875397Y-25729572D01*
X59814722Y-26112660D01*
X59794422Y-26499999D01*
X59794422Y-26500000D01*
X59008446Y-26500000D01*
X59009160Y-26483654D01*
X59018258Y-26286690D01*
X59018720Y-26281499D01*
X59045508Y-26078020D01*
X59072277Y-25886127D01*
X59073140Y-25881347D01*
X59117585Y-25680872D01*
X59161987Y-25492093D01*
X59163196Y-25487692D01*
X59224998Y-25291684D01*
X59286659Y-25107716D01*
X59288143Y-25103750D01*
X59366840Y-24913761D01*
X59370178Y-24906202D01*
X59445306Y-24736054D01*
X59446961Y-24732609D01*
X59542010Y-24550022D01*
X59636602Y-24380198D01*
X59638424Y-24377144D01*
X59749078Y-24203452D01*
X59859024Y-24042952D01*
X59860926Y-24040330D01*
X59986401Y-23876809D01*
X60110810Y-23726989D01*
X60112677Y-23724850D01*
X60252052Y-23572749D01*
X60390742Y-23434058D01*
X60542813Y-23294712D01*
X60545049Y-23292760D01*
X60694816Y-23168395D01*
X60858326Y-23042930D01*
X60860994Y-23040996D01*
X61021454Y-22931077D01*
X61195187Y-22820397D01*
X61198206Y-22818597D01*
X61368021Y-22724010D01*
X61550583Y-22628975D01*
X61554100Y-22627285D01*
X61731765Y-22548838D01*
X61921758Y-22470140D01*
X61925726Y-22468656D01*
X62109689Y-22406996D01*
X62305735Y-22345183D01*
X62310109Y-22343982D01*
X62498889Y-22299581D01*
X62699350Y-22255140D01*
X62704178Y-22254270D01*
X62896090Y-22227499D01*
X63099528Y-22200716D01*
X63104735Y-22200255D01*
X63107931Y-22200107D01*
X63298067Y-22191316D01*
X63432204Y-22185460D01*
X63500444Y-22182481D01*
X81876000Y-22182481D01*
X81943039Y-22202166D01*
G37*
G04 #@! TD.AperFunction*
G04 #@! TA.AperFunction,Conductor*
G36*
X65356420Y-80002867D02*
G01*
X65294601Y-79961561D01*
X65221680Y-79947056D01*
X65172432Y-79947056D01*
X65099511Y-79961561D01*
X65016816Y-80016816D01*
X64961561Y-80099511D01*
X64942158Y-80197056D01*
X64961561Y-80294601D01*
X65002867Y-80356420D01*
X64444180Y-79797733D01*
X64634870Y-79634870D01*
X64797733Y-79444180D01*
X65356420Y-80002867D01*
G37*
G04 #@! TD.AperFunction*
G04 #@! TA.AperFunction,Conductor*
G36*
X62365130Y-79634870D02*
G01*
X62555819Y-79797733D01*
X61997135Y-80356416D01*
X62038439Y-80294601D01*
X62057842Y-80197056D01*
X62038439Y-80099511D01*
X61983184Y-80016816D01*
X61900489Y-79961561D01*
X61827568Y-79947056D01*
X61778320Y-79947056D01*
X61705399Y-79961561D01*
X61643577Y-80002868D01*
X62202266Y-79444180D01*
X62365130Y-79634870D01*
G37*
G04 #@! TD.AperFunction*
G04 #@! TA.AperFunction,Conductor*
G36*
X62555819Y-77202266D02*
G01*
X62365130Y-77365130D01*
X62202266Y-77555818D01*
X61643582Y-76997134D01*
X61705399Y-77038439D01*
X61778320Y-77052944D01*
X61827568Y-77052944D01*
X61900489Y-77038439D01*
X61983184Y-76983184D01*
X62038439Y-76900489D01*
X62057842Y-76802944D01*
X62038439Y-76705399D01*
X61997133Y-76643581D01*
X62555819Y-77202266D01*
G37*
G04 #@! TD.AperFunction*
G04 #@! TA.AperFunction,Conductor*
G36*
X64961561Y-76705399D02*
G01*
X64942158Y-76802944D01*
X64961561Y-76900489D01*
X65016816Y-76983184D01*
X65099511Y-77038439D01*
X65172432Y-77052944D01*
X65221680Y-77052944D01*
X65294601Y-77038439D01*
X65356415Y-76997135D01*
X64797732Y-77555818D01*
X64634870Y-77365130D01*
X64444180Y-77202266D01*
X65002867Y-76643578D01*
X64961561Y-76705399D01*
G37*
G04 #@! TD.AperFunction*
G04 #@! TA.AperFunction,Conductor*
G36*
X144659364Y-80002867D02*
G01*
X144597545Y-79961561D01*
X144524624Y-79947056D01*
X144475376Y-79947056D01*
X144402455Y-79961561D01*
X144319760Y-80016816D01*
X144264505Y-80099511D01*
X144245102Y-80197056D01*
X144264505Y-80294601D01*
X144305811Y-80356420D01*
X143747124Y-79797733D01*
X143937814Y-79634870D01*
X144100677Y-79444180D01*
X144659364Y-80002867D01*
G37*
G04 #@! TD.AperFunction*
G04 #@! TA.AperFunction,Conductor*
G36*
X141668074Y-79634870D02*
G01*
X141858763Y-79797733D01*
X141300079Y-80356416D01*
X141341383Y-80294601D01*
X141360786Y-80197056D01*
X141341383Y-80099511D01*
X141286128Y-80016816D01*
X141203433Y-79961561D01*
X141130512Y-79947056D01*
X141081264Y-79947056D01*
X141008343Y-79961561D01*
X140946521Y-80002868D01*
X141505210Y-79444180D01*
X141668074Y-79634870D01*
G37*
G04 #@! TD.AperFunction*
G04 #@! TA.AperFunction,Conductor*
G36*
X141858763Y-77202266D02*
G01*
X141668074Y-77365130D01*
X141505210Y-77555818D01*
X140946526Y-76997134D01*
X141008343Y-77038439D01*
X141081264Y-77052944D01*
X141130512Y-77052944D01*
X141203433Y-77038439D01*
X141286128Y-76983184D01*
X141341383Y-76900489D01*
X141360786Y-76802944D01*
X141341383Y-76705399D01*
X141300077Y-76643581D01*
X141858763Y-77202266D01*
G37*
G04 #@! TD.AperFunction*
G04 #@! TA.AperFunction,Conductor*
G36*
X144264505Y-76705399D02*
G01*
X144245102Y-76802944D01*
X144264505Y-76900489D01*
X144319760Y-76983184D01*
X144402455Y-77038439D01*
X144475376Y-77052944D01*
X144524624Y-77052944D01*
X144597545Y-77038439D01*
X144659359Y-76997135D01*
X144100676Y-77555818D01*
X143937814Y-77365130D01*
X143747124Y-77202266D01*
X144305811Y-76643578D01*
X144264505Y-76705399D01*
G37*
G04 #@! TD.AperFunction*
G04 #@! TA.AperFunction,Conductor*
G36*
X69323649Y-53519685D02*
G01*
X69344291Y-53536319D01*
X72938181Y-57130209D01*
X72971666Y-57191532D01*
X72974500Y-57217890D01*
X72974500Y-68783581D01*
X72974024Y-68791256D01*
X72970643Y-68818379D01*
X72974500Y-68911635D01*
X72974500Y-68942664D01*
X72977062Y-68973590D01*
X72980918Y-69066833D01*
X72986526Y-69093583D01*
X72987635Y-69101190D01*
X72989891Y-69128418D01*
X72989891Y-69128419D01*
X72998852Y-69163804D01*
X73012801Y-69218888D01*
X73031951Y-69310214D01*
X73031952Y-69310216D01*
X73041882Y-69335667D01*
X73044227Y-69342987D01*
X73048145Y-69358459D01*
X73050937Y-69369481D01*
X73080662Y-69437248D01*
X73088420Y-69454935D01*
X73122344Y-69541875D01*
X73136332Y-69565350D01*
X73139852Y-69572188D01*
X73150825Y-69597204D01*
X73150827Y-69597207D01*
X73201860Y-69675320D01*
X73249634Y-69755494D01*
X73267296Y-69776347D01*
X73271887Y-69782504D01*
X73286836Y-69805385D01*
X73286837Y-69805386D01*
X73350033Y-69874035D01*
X73370100Y-69897729D01*
X73392049Y-69919678D01*
X73455257Y-69988339D01*
X73476822Y-70005124D01*
X73482587Y-70010215D01*
X74466581Y-70994209D01*
X74500066Y-71055532D01*
X74502900Y-71081890D01*
X74502900Y-72109001D01*
X74502901Y-72109019D01*
X74513400Y-72211796D01*
X74513401Y-72211799D01*
X74568585Y-72378331D01*
X74568587Y-72378336D01*
X74592744Y-72417500D01*
X74660688Y-72527656D01*
X74784744Y-72651712D01*
X74934066Y-72743814D01*
X75100603Y-72798999D01*
X75203391Y-72809500D01*
X77361880Y-72809499D01*
X77428919Y-72829184D01*
X77449561Y-72845818D01*
X79275799Y-74672056D01*
X79278335Y-74674750D01*
X79319471Y-74721183D01*
X79370506Y-74756410D01*
X79373522Y-74758630D01*
X79399890Y-74779287D01*
X79422343Y-74796878D01*
X79429245Y-74799984D01*
X79431582Y-74801036D01*
X79451133Y-74812063D01*
X79459470Y-74817818D01*
X79517465Y-74839812D01*
X79520874Y-74841223D01*
X79568187Y-74862517D01*
X79577464Y-74866693D01*
X79577465Y-74866693D01*
X79577469Y-74866695D01*
X79587434Y-74868521D01*
X79609056Y-74874548D01*
X79609067Y-74874552D01*
X79618528Y-74878140D01*
X79663651Y-74883618D01*
X79680074Y-74885613D01*
X79683771Y-74886175D01*
X79744794Y-74897358D01*
X79800152Y-74894009D01*
X79806703Y-74893613D01*
X79810448Y-74893500D01*
X94172552Y-74893500D01*
X94176297Y-74893613D01*
X94183642Y-74894057D01*
X94238206Y-74897358D01*
X94275914Y-74890447D01*
X94299221Y-74886177D01*
X94302925Y-74885613D01*
X94320770Y-74883446D01*
X94364472Y-74878140D01*
X94373935Y-74874550D01*
X94395561Y-74868522D01*
X94396493Y-74868351D01*
X94405532Y-74866695D01*
X94462112Y-74841229D01*
X94465542Y-74839809D01*
X94523530Y-74817818D01*
X94531866Y-74812062D01*
X94551421Y-74801034D01*
X94560657Y-74796878D01*
X94609496Y-74758613D01*
X94612476Y-74756421D01*
X94663529Y-74721183D01*
X94704665Y-74674748D01*
X94707199Y-74672056D01*
X95049438Y-74329818D01*
X95110761Y-74296333D01*
X95137119Y-74293499D01*
X95369770Y-74293499D01*
X95369776Y-74293499D01*
X95470853Y-74283174D01*
X95634616Y-74228908D01*
X95781450Y-74138340D01*
X95848727Y-74071062D01*
X95910046Y-74037580D01*
X95979738Y-74042564D01*
X96009288Y-74058426D01*
X96044116Y-74083730D01*
X96069470Y-74102151D01*
X96242392Y-74179142D01*
X96242397Y-74179144D01*
X96427554Y-74218500D01*
X96427555Y-74218500D01*
X96616844Y-74218500D01*
X96616846Y-74218500D01*
X96802003Y-74179144D01*
X96974930Y-74102151D01*
X97128071Y-73990888D01*
X97128077Y-73990881D01*
X97129610Y-73989501D01*
X97130701Y-73988977D01*
X97133329Y-73987068D01*
X97133677Y-73987548D01*
X97192598Y-73959265D01*
X97261935Y-73967884D01*
X97300272Y-73993962D01*
X97384306Y-74077996D01*
X97417791Y-74139319D01*
X97412807Y-74209011D01*
X97404013Y-74227676D01*
X97320620Y-74372118D01*
X97320618Y-74372122D01*
X97262127Y-74552140D01*
X97262126Y-74552144D01*
X97242340Y-74740400D01*
X97262126Y-74928656D01*
X97262127Y-74928659D01*
X97320618Y-75108677D01*
X97320621Y-75108684D01*
X97415267Y-75272616D01*
X97490681Y-75356371D01*
X97541929Y-75413288D01*
X97695065Y-75524548D01*
X97695070Y-75524551D01*
X97867992Y-75601542D01*
X97867997Y-75601544D01*
X98053154Y-75640900D01*
X98053155Y-75640900D01*
X98242444Y-75640900D01*
X98242446Y-75640900D01*
X98427603Y-75601544D01*
X98600530Y-75524551D01*
X98753671Y-75413288D01*
X98880333Y-75272616D01*
X98974979Y-75108684D01*
X99033474Y-74928656D01*
X99053260Y-74740400D01*
X99033474Y-74552144D01*
X98974979Y-74372116D01*
X98892298Y-74228908D01*
X98877084Y-74202556D01*
X98878665Y-74201642D01*
X98858159Y-74144184D01*
X98873978Y-74076129D01*
X98894272Y-74049417D01*
X98945340Y-73998350D01*
X99035908Y-73851516D01*
X99090174Y-73687753D01*
X99100500Y-73586677D01*
X99100499Y-72988324D01*
X99099234Y-72975945D01*
X99090174Y-72887247D01*
X99080176Y-72857076D01*
X99035908Y-72723484D01*
X98945340Y-72576650D01*
X98868690Y-72500000D01*
X101103288Y-72500000D01*
X101262247Y-72552674D01*
X101363323Y-72563000D01*
X101936676Y-72562999D01*
X101936684Y-72562998D01*
X101936687Y-72562998D01*
X101992030Y-72557344D01*
X102037753Y-72552674D01*
X102196712Y-72500000D01*
X102828288Y-72500000D01*
X102987247Y-72552674D01*
X103088323Y-72563000D01*
X103661676Y-72562999D01*
X103661684Y-72562998D01*
X103661687Y-72562998D01*
X103717030Y-72557344D01*
X103762753Y-72552674D01*
X103921712Y-72500000D01*
X105811444Y-72500000D01*
X105848181Y-72536737D01*
X105881666Y-72598060D01*
X105884500Y-72624417D01*
X105884500Y-72857068D01*
X105884501Y-72857087D01*
X105894825Y-72958152D01*
X105919072Y-73031323D01*
X105949092Y-73121916D01*
X106039660Y-73268750D01*
X106161650Y-73390740D01*
X106308484Y-73481308D01*
X106472247Y-73535574D01*
X106573323Y-73545900D01*
X106682780Y-73545899D01*
X106749819Y-73565583D01*
X106770461Y-73582218D01*
X107549981Y-74361738D01*
X107583466Y-74423061D01*
X107586300Y-74449418D01*
X107586300Y-74682068D01*
X107586301Y-74682087D01*
X107596625Y-74783152D01*
X107624309Y-74866695D01*
X107650892Y-74946916D01*
X107741460Y-75093750D01*
X107863450Y-75215740D01*
X108010284Y-75306308D01*
X108174047Y-75360574D01*
X108275123Y-75370900D01*
X108848476Y-75370899D01*
X108848484Y-75370898D01*
X108848487Y-75370898D01*
X108903830Y-75365244D01*
X108949553Y-75360574D01*
X109113316Y-75306308D01*
X109260150Y-75215740D01*
X109382140Y-75093750D01*
X109472708Y-74946916D01*
X109526974Y-74783153D01*
X109537300Y-74682077D01*
X109537299Y-74083724D01*
X109532585Y-74037580D01*
X109526974Y-73982647D01*
X109519226Y-73959265D01*
X109472708Y-73818884D01*
X109382140Y-73672050D01*
X109268171Y-73558081D01*
X109234686Y-73496758D01*
X109239670Y-73427066D01*
X109268171Y-73382719D01*
X109356171Y-73294719D01*
X109417494Y-73261234D01*
X109443852Y-73258400D01*
X110100967Y-73258400D01*
X110168006Y-73278085D01*
X110213761Y-73330889D01*
X110224287Y-73395359D01*
X110221740Y-73419600D01*
X110241526Y-73607856D01*
X110241527Y-73607859D01*
X110300018Y-73787877D01*
X110300021Y-73787884D01*
X110394667Y-73951816D01*
X110476377Y-74042564D01*
X110521329Y-74092488D01*
X110674465Y-74203748D01*
X110674470Y-74203751D01*
X110847397Y-74280744D01*
X110950502Y-74302659D01*
X111011981Y-74335849D01*
X111012400Y-74336267D01*
X111263181Y-74587048D01*
X111296666Y-74648371D01*
X111299500Y-74674728D01*
X111299500Y-74886668D01*
X111299501Y-74886687D01*
X111309825Y-74987752D01*
X111344950Y-75093750D01*
X111364092Y-75151516D01*
X111454660Y-75298350D01*
X111576650Y-75420340D01*
X111723484Y-75510908D01*
X111887247Y-75565174D01*
X111988323Y-75575500D01*
X112270980Y-75575499D01*
X112338019Y-75595183D01*
X112358661Y-75611818D01*
X113100681Y-76353838D01*
X113134166Y-76415161D01*
X113137000Y-76441519D01*
X113137000Y-77011669D01*
X113137001Y-77011687D01*
X113147325Y-77112752D01*
X113176757Y-77201570D01*
X113201592Y-77276516D01*
X113292160Y-77423350D01*
X113414150Y-77545340D01*
X113560984Y-77635908D01*
X113724747Y-77690174D01*
X113825823Y-77700500D01*
X114524176Y-77700499D01*
X114524184Y-77700498D01*
X114524187Y-77700498D01*
X114579530Y-77694844D01*
X114625253Y-77690174D01*
X114789016Y-77635908D01*
X114935850Y-77545340D01*
X115057840Y-77423350D01*
X115148408Y-77276516D01*
X115202674Y-77112753D01*
X115213000Y-77011677D01*
X115212999Y-76438324D01*
X115202674Y-76337247D01*
X115148408Y-76173484D01*
X115057840Y-76026650D01*
X114935850Y-75904660D01*
X114789016Y-75814092D01*
X114630504Y-75761566D01*
X114573059Y-75721793D01*
X114546236Y-75657277D01*
X114558551Y-75588501D01*
X114606094Y-75537302D01*
X114630500Y-75526156D01*
X114676516Y-75510908D01*
X114823350Y-75420340D01*
X114887319Y-75356371D01*
X114948642Y-75322886D01*
X115018334Y-75327870D01*
X115062681Y-75356371D01*
X115126650Y-75420340D01*
X115273484Y-75510908D01*
X115437247Y-75565174D01*
X115538323Y-75575500D01*
X116136676Y-75575499D01*
X116136684Y-75575498D01*
X116136687Y-75575498D01*
X116192030Y-75569844D01*
X116237753Y-75565174D01*
X116401516Y-75510908D01*
X116548350Y-75420340D01*
X116670340Y-75298350D01*
X116760908Y-75151516D01*
X116815174Y-74987753D01*
X116825500Y-74886677D01*
X116825499Y-74313324D01*
X116824409Y-74302657D01*
X116815174Y-74212247D01*
X116810429Y-74197929D01*
X116760908Y-74048484D01*
X116670340Y-73901650D01*
X116548350Y-73779660D01*
X116401516Y-73689092D01*
X116237753Y-73634826D01*
X116237751Y-73634825D01*
X116136678Y-73624500D01*
X115538330Y-73624500D01*
X115538312Y-73624501D01*
X115437247Y-73634825D01*
X115273484Y-73689092D01*
X115273481Y-73689093D01*
X115126648Y-73779661D01*
X115062681Y-73843629D01*
X115001358Y-73877114D01*
X114931666Y-73872130D01*
X114887319Y-73843629D01*
X114823351Y-73779661D01*
X114823350Y-73779660D01*
X114676516Y-73689092D01*
X114512753Y-73634826D01*
X114512751Y-73634825D01*
X114411678Y-73624500D01*
X113713330Y-73624500D01*
X113713312Y-73624501D01*
X113612247Y-73634825D01*
X113448484Y-73689092D01*
X113448481Y-73689093D01*
X113301648Y-73779661D01*
X113287681Y-73793629D01*
X113226358Y-73827114D01*
X113156666Y-73822130D01*
X113112319Y-73793629D01*
X113098351Y-73779661D01*
X113098350Y-73779660D01*
X112951516Y-73689092D01*
X112787753Y-73634826D01*
X112787751Y-73634825D01*
X112686684Y-73624500D01*
X112686677Y-73624500D01*
X112474729Y-73624500D01*
X112407690Y-73604815D01*
X112387048Y-73588181D01*
X112210701Y-73411834D01*
X112025579Y-73226711D01*
X111995329Y-73177348D01*
X111954381Y-73051321D01*
X111954378Y-73051315D01*
X111910862Y-72975943D01*
X111894390Y-72908045D01*
X111917242Y-72842018D01*
X111926090Y-72830984D01*
X112037533Y-72707216D01*
X112132179Y-72543284D01*
X112190674Y-72363256D01*
X112210460Y-72175000D01*
X112190674Y-71986744D01*
X112132179Y-71806716D01*
X112037533Y-71642784D01*
X111910871Y-71502112D01*
X111907426Y-71499609D01*
X111757734Y-71390851D01*
X111757729Y-71390848D01*
X111584807Y-71313857D01*
X111584802Y-71313855D01*
X111439001Y-71282865D01*
X111399646Y-71274500D01*
X111210354Y-71274500D01*
X111177897Y-71281398D01*
X111025197Y-71313855D01*
X111025192Y-71313857D01*
X110852270Y-71390848D01*
X110852265Y-71390851D01*
X110699129Y-71502111D01*
X110572465Y-71642785D01*
X110484354Y-71795400D01*
X110433787Y-71843616D01*
X110376967Y-71857400D01*
X110000000Y-71857400D01*
X110000000Y-70125499D01*
X110325002Y-70125499D01*
X110325008Y-70125499D01*
X110427797Y-70114999D01*
X110594334Y-70059814D01*
X110743656Y-69967712D01*
X110867712Y-69843656D01*
X110959814Y-69694334D01*
X111014999Y-69527797D01*
X111019721Y-69481567D01*
X111046116Y-69416877D01*
X111103296Y-69376725D01*
X111173107Y-69373861D01*
X111233384Y-69409194D01*
X111260785Y-69455165D01*
X111297297Y-69565350D01*
X111315186Y-69619334D01*
X111407288Y-69768656D01*
X111531344Y-69892712D01*
X111680666Y-69984814D01*
X111847203Y-70039999D01*
X111949991Y-70050500D01*
X115050008Y-70050499D01*
X115152797Y-70039999D01*
X115319334Y-69984814D01*
X115468656Y-69892712D01*
X115592712Y-69768656D01*
X115684814Y-69619334D01*
X115739999Y-69452797D01*
X115750500Y-69350009D01*
X115750499Y-67449992D01*
X115739999Y-67347203D01*
X115684814Y-67180666D01*
X115684810Y-67180659D01*
X115681760Y-67174118D01*
X115684607Y-67172790D01*
X115670167Y-67118521D01*
X115691558Y-67052006D01*
X115745513Y-67007615D01*
X115814903Y-66999441D01*
X115864570Y-67019641D01*
X115872070Y-67024818D01*
X115930058Y-67046809D01*
X115933496Y-67048234D01*
X115990068Y-67073695D01*
X116000042Y-67075522D01*
X116021656Y-67081548D01*
X116031127Y-67085140D01*
X116092673Y-67092613D01*
X116096370Y-67093175D01*
X116157394Y-67104358D01*
X116212377Y-67101031D01*
X116219303Y-67100613D01*
X116223048Y-67100500D01*
X116558481Y-67100500D01*
X116625520Y-67120185D01*
X116646162Y-67136819D01*
X116654836Y-67145493D01*
X116688321Y-67206816D01*
X116684861Y-67272177D01*
X116660001Y-67347199D01*
X116649500Y-67449983D01*
X116649500Y-69350001D01*
X116649501Y-69350018D01*
X116660000Y-69452796D01*
X116660001Y-69452799D01*
X116697297Y-69565350D01*
X116715186Y-69619334D01*
X116807288Y-69768656D01*
X116931344Y-69892712D01*
X117080666Y-69984814D01*
X117247203Y-70039999D01*
X117349991Y-70050500D01*
X120450008Y-70050499D01*
X120552797Y-70039999D01*
X120719334Y-69984814D01*
X120868656Y-69892712D01*
X120992712Y-69768656D01*
X121084814Y-69619334D01*
X121139999Y-69452797D01*
X121150500Y-69350009D01*
X121150500Y-69224500D01*
X121170185Y-69157461D01*
X121222989Y-69111706D01*
X121274500Y-69100500D01*
X121375501Y-69100500D01*
X121442540Y-69120185D01*
X121488295Y-69172989D01*
X121499501Y-69224500D01*
X121499501Y-69297876D01*
X121505908Y-69357483D01*
X121556202Y-69492328D01*
X121556206Y-69492335D01*
X121642452Y-69607544D01*
X121642455Y-69607547D01*
X121757664Y-69693793D01*
X121757671Y-69693797D01*
X121892517Y-69744091D01*
X121892516Y-69744091D01*
X121899444Y-69744835D01*
X121952127Y-69750500D01*
X124547872Y-69750499D01*
X124607483Y-69744091D01*
X124742331Y-69693796D01*
X124857546Y-69607546D01*
X124943796Y-69492331D01*
X124994091Y-69357483D01*
X125000500Y-69297873D01*
X125000499Y-66702128D01*
X124994091Y-66642517D01*
X124959917Y-66550893D01*
X124943797Y-66507671D01*
X124943793Y-66507664D01*
X124857547Y-66392455D01*
X124857544Y-66392452D01*
X124742335Y-66306206D01*
X124742328Y-66306202D01*
X124607482Y-66255908D01*
X124607483Y-66255908D01*
X124547883Y-66249501D01*
X124547881Y-66249500D01*
X124547873Y-66249500D01*
X124547864Y-66249500D01*
X121952129Y-66249500D01*
X121952123Y-66249501D01*
X121892516Y-66255908D01*
X121757671Y-66306202D01*
X121757664Y-66306206D01*
X121642455Y-66392452D01*
X121642452Y-66392455D01*
X121556206Y-66507664D01*
X121556202Y-66507671D01*
X121505908Y-66642517D01*
X121502200Y-66677011D01*
X121499501Y-66702123D01*
X121499500Y-66702135D01*
X121499500Y-67575500D01*
X121479815Y-67642539D01*
X121427011Y-67688294D01*
X121375500Y-67699500D01*
X121274499Y-67699500D01*
X121207460Y-67679815D01*
X121161705Y-67627011D01*
X121150499Y-67575500D01*
X121150499Y-67449998D01*
X121150498Y-67449981D01*
X121139999Y-67347203D01*
X121139998Y-67347200D01*
X121122227Y-67293571D01*
X121084814Y-67180666D01*
X120992712Y-67031344D01*
X120868656Y-66907288D01*
X120719334Y-66815186D01*
X120552797Y-66760001D01*
X120552795Y-66760000D01*
X120450016Y-66749500D01*
X120450009Y-66749500D01*
X118291519Y-66749500D01*
X118224480Y-66729815D01*
X118203838Y-66713181D01*
X117810206Y-66319549D01*
X117411598Y-65920941D01*
X117409064Y-65918250D01*
X117367929Y-65871817D01*
X117367928Y-65871816D01*
X117367927Y-65871815D01*
X117332288Y-65847215D01*
X117288298Y-65792932D01*
X117280638Y-65723483D01*
X117311742Y-65660918D01*
X117337624Y-65639631D01*
X117365056Y-65622712D01*
X117489112Y-65498656D01*
X117581214Y-65349334D01*
X117636399Y-65182797D01*
X117646900Y-65080009D01*
X117646899Y-64029992D01*
X117643886Y-64000500D01*
X117636399Y-63927203D01*
X117636398Y-63927200D01*
X117635122Y-63923350D01*
X117581214Y-63760666D01*
X117489112Y-63611344D01*
X117365056Y-63487288D01*
X117365055Y-63487287D01*
X117318302Y-63458449D01*
X117271578Y-63406500D01*
X117259400Y-63352911D01*
X117259400Y-61322935D01*
X117259513Y-61319190D01*
X117263257Y-61257294D01*
X117252077Y-61196286D01*
X117251515Y-61192589D01*
X117244040Y-61131029D01*
X117244039Y-61131025D01*
X117240446Y-61121551D01*
X117234419Y-61099929D01*
X117232594Y-61089970D01*
X117232594Y-61089968D01*
X117207141Y-61033414D01*
X117205707Y-61029952D01*
X117192815Y-60995957D01*
X117183718Y-60971970D01*
X117177958Y-60963626D01*
X117166935Y-60944080D01*
X117162778Y-60934843D01*
X117124517Y-60886007D01*
X117122317Y-60883017D01*
X117105686Y-60858921D01*
X117087085Y-60831973D01*
X117087083Y-60831971D01*
X117040650Y-60790835D01*
X117037956Y-60788299D01*
X112299198Y-56049541D01*
X112296664Y-56046850D01*
X112255529Y-56000417D01*
X112255528Y-56000416D01*
X112255524Y-56000412D01*
X112204496Y-55965191D01*
X112201487Y-55962977D01*
X112152660Y-55924724D01*
X112152655Y-55924720D01*
X112143413Y-55920561D01*
X112123866Y-55909536D01*
X112115531Y-55903783D01*
X112115532Y-55903783D01*
X112115530Y-55903782D01*
X112057541Y-55881789D01*
X112054090Y-55880359D01*
X111997530Y-55854904D01*
X111987546Y-55853074D01*
X111965943Y-55847051D01*
X111956474Y-55843460D01*
X111956470Y-55843459D01*
X111894913Y-55835984D01*
X111891212Y-55835421D01*
X111830208Y-55824242D01*
X111830203Y-55824242D01*
X111768297Y-55827987D01*
X111764552Y-55828100D01*
X111036919Y-55828100D01*
X110969880Y-55808415D01*
X110949238Y-55791781D01*
X110461819Y-55304362D01*
X110428334Y-55243039D01*
X110425500Y-55216681D01*
X110425500Y-53624000D01*
X110445185Y-53556961D01*
X110497989Y-53511206D01*
X110549500Y-53500000D01*
X110988500Y-53500000D01*
X111055539Y-53519685D01*
X111101294Y-53572489D01*
X111112500Y-53624000D01*
X111112500Y-54008208D01*
X111092815Y-54075247D01*
X111080656Y-54091174D01*
X111080468Y-54091382D01*
X111080464Y-54091387D01*
X110985821Y-54255315D01*
X110985818Y-54255322D01*
X110933031Y-54417785D01*
X110927326Y-54435344D01*
X110907540Y-54623600D01*
X110927326Y-54811856D01*
X110927327Y-54811859D01*
X110985818Y-54991877D01*
X110985821Y-54991884D01*
X111080467Y-55155816D01*
X111190399Y-55277907D01*
X111207129Y-55296488D01*
X111360265Y-55407748D01*
X111360270Y-55407751D01*
X111533192Y-55484742D01*
X111533197Y-55484744D01*
X111718354Y-55524100D01*
X111718355Y-55524100D01*
X111907644Y-55524100D01*
X111907646Y-55524100D01*
X112092803Y-55484744D01*
X112265730Y-55407751D01*
X112418871Y-55296488D01*
X112545533Y-55155816D01*
X112640179Y-54991884D01*
X112698674Y-54811856D01*
X112718460Y-54623600D01*
X112698674Y-54435344D01*
X112640179Y-54255316D01*
X112558999Y-54114708D01*
X112545535Y-54091387D01*
X112545531Y-54091382D01*
X112545344Y-54091174D01*
X112545273Y-54091027D01*
X112541714Y-54086128D01*
X112542610Y-54085476D01*
X112515119Y-54028180D01*
X112513500Y-54008208D01*
X112513500Y-53624000D01*
X112533185Y-53556961D01*
X112585989Y-53511206D01*
X112637500Y-53500000D01*
X147193519Y-53500000D01*
X147260558Y-53519685D01*
X147306313Y-53572489D01*
X147317519Y-53624000D01*
X147317519Y-78500000D01*
X147309177Y-78691047D01*
X147299706Y-78895695D01*
X147299242Y-78900924D01*
X147273169Y-79098971D01*
X147245645Y-79296283D01*
X147244770Y-79301138D01*
X147201084Y-79498192D01*
X147155889Y-79690348D01*
X147154666Y-79694798D01*
X147093674Y-79888245D01*
X147031163Y-80074750D01*
X147029657Y-80078775D01*
X146951812Y-80266711D01*
X146872469Y-80446405D01*
X146870746Y-80449991D01*
X146776643Y-80630763D01*
X146681108Y-80802280D01*
X146679233Y-80805423D01*
X146569555Y-80977587D01*
X146458594Y-81139568D01*
X146456632Y-81142272D01*
X146332234Y-81304394D01*
X146206730Y-81455531D01*
X146204743Y-81457810D01*
X146066568Y-81608601D01*
X145926614Y-81748556D01*
X145775821Y-81886733D01*
X145773543Y-81888720D01*
X145622408Y-82014223D01*
X145460276Y-82138631D01*
X145457571Y-82140593D01*
X145295592Y-82251552D01*
X145123433Y-82361228D01*
X145120290Y-82363103D01*
X144948801Y-82458622D01*
X144767989Y-82552748D01*
X144764402Y-82554471D01*
X144584728Y-82633805D01*
X144396793Y-82711650D01*
X144392769Y-82713156D01*
X144206236Y-82775677D01*
X144012824Y-82836659D01*
X144008374Y-82837882D01*
X143816213Y-82883080D01*
X143619149Y-82926767D01*
X143614294Y-82927642D01*
X143417051Y-82955158D01*
X143218960Y-82981238D01*
X143213729Y-82981702D01*
X143005147Y-82991347D01*
X142818446Y-82999500D01*
X63500000Y-82999500D01*
X63305535Y-82991009D01*
X63104511Y-82981714D01*
X63099279Y-82981250D01*
X62898495Y-82954816D01*
X62703965Y-82927680D01*
X62699109Y-82926805D01*
X62500331Y-82882737D01*
X62309896Y-82837947D01*
X62305446Y-82836724D01*
X62110779Y-82775346D01*
X61925492Y-82713244D01*
X61921468Y-82711738D01*
X61732555Y-82633489D01*
X61553855Y-82554585D01*
X61550285Y-82552870D01*
X61440647Y-82495796D01*
X61368636Y-82458309D01*
X61197986Y-82363257D01*
X61194843Y-82361382D01*
X61097392Y-82299300D01*
X61021936Y-82251229D01*
X60860721Y-82140794D01*
X60858017Y-82138833D01*
X60857754Y-82138631D01*
X60695223Y-82013917D01*
X60624771Y-81955414D01*
X60544771Y-81888982D01*
X60542507Y-81887008D01*
X60391088Y-81748258D01*
X60251741Y-81608911D01*
X60191703Y-81543391D01*
X60112985Y-81457486D01*
X60111016Y-81455227D01*
X60066830Y-81402017D01*
X59986076Y-81304768D01*
X59985789Y-81304394D01*
X59861156Y-81141969D01*
X59859203Y-81139275D01*
X59855097Y-81133281D01*
X59748768Y-80978059D01*
X59638616Y-80805155D01*
X59636741Y-80802012D01*
X59567551Y-80677793D01*
X59541693Y-80631369D01*
X59447107Y-80449671D01*
X59445426Y-80446171D01*
X59366516Y-80267458D01*
X59288256Y-80078520D01*
X59286754Y-80074506D01*
X59264126Y-80006994D01*
X59224653Y-79889220D01*
X59196027Y-79798430D01*
X59163269Y-79694535D01*
X59162057Y-79690125D01*
X59117271Y-79499710D01*
X59073188Y-79300862D01*
X59072322Y-79296057D01*
X59045192Y-79101571D01*
X59018745Y-78900690D01*
X59018284Y-78895487D01*
X59017905Y-78887287D01*
X59008996Y-78694602D01*
X59000500Y-78500000D01*
X59794922Y-78500000D01*
X59815219Y-78887287D01*
X59875886Y-79270323D01*
X59875887Y-79270330D01*
X59976262Y-79644936D01*
X60115244Y-80006994D01*
X60291310Y-80352543D01*
X60502531Y-80677793D01*
X60711095Y-80935350D01*
X60711096Y-80935350D01*
X61608756Y-80037689D01*
X61567449Y-80099511D01*
X61548046Y-80197056D01*
X61567449Y-80294601D01*
X61622704Y-80377296D01*
X61705399Y-80432551D01*
X61778320Y-80447056D01*
X61827568Y-80447056D01*
X61900489Y-80432551D01*
X61962304Y-80391247D01*
X61064648Y-81288903D01*
X61064649Y-81288904D01*
X61322206Y-81497468D01*
X61647456Y-81708689D01*
X61993005Y-81884755D01*
X62355063Y-82023737D01*
X62729669Y-82124112D01*
X62729676Y-82124113D01*
X63112712Y-82184780D01*
X63499999Y-82205078D01*
X63500001Y-82205078D01*
X63887287Y-82184780D01*
X64270323Y-82124113D01*
X64270330Y-82124112D01*
X64644936Y-82023737D01*
X65006994Y-81884755D01*
X65352543Y-81708689D01*
X65677783Y-81497476D01*
X65677785Y-81497475D01*
X65935349Y-81288902D01*
X65037691Y-80391244D01*
X65099511Y-80432551D01*
X65172432Y-80447056D01*
X65221680Y-80447056D01*
X65294601Y-80432551D01*
X65377296Y-80377296D01*
X65432551Y-80294601D01*
X65451954Y-80197056D01*
X65432551Y-80099511D01*
X65391244Y-80037691D01*
X66288902Y-80935349D01*
X66497475Y-80677785D01*
X66497476Y-80677783D01*
X66708689Y-80352543D01*
X66884755Y-80006994D01*
X67003427Y-79697844D01*
X71650000Y-79697844D01*
X71656401Y-79757372D01*
X71656403Y-79757379D01*
X71706645Y-79892086D01*
X71706649Y-79892093D01*
X71792809Y-80007187D01*
X71792812Y-80007190D01*
X71907906Y-80093350D01*
X71907913Y-80093354D01*
X72042620Y-80143596D01*
X72042627Y-80143598D01*
X72102155Y-80149999D01*
X72102172Y-80150000D01*
X73150000Y-80150000D01*
X73150000Y-78945881D01*
X73243369Y-78984556D01*
X73360677Y-79000000D01*
X73439323Y-79000000D01*
X73556631Y-78984556D01*
X73650000Y-78945881D01*
X73650000Y-80150000D01*
X74697828Y-80150000D01*
X74697844Y-80149999D01*
X74757372Y-80143598D01*
X74757379Y-80143596D01*
X74892086Y-80093354D01*
X74892093Y-80093350D01*
X75007187Y-80007190D01*
X75007190Y-80007187D01*
X75093350Y-79892093D01*
X75093354Y-79892086D01*
X75143596Y-79757379D01*
X75143598Y-79757372D01*
X75149999Y-79697844D01*
X131450000Y-79697844D01*
X131456401Y-79757372D01*
X131456403Y-79757379D01*
X131506645Y-79892086D01*
X131506649Y-79892093D01*
X131592809Y-80007187D01*
X131592812Y-80007190D01*
X131707906Y-80093350D01*
X131707913Y-80093354D01*
X131842620Y-80143596D01*
X131842627Y-80143598D01*
X131902155Y-80149999D01*
X131902172Y-80150000D01*
X132950000Y-80150000D01*
X132950000Y-78945881D01*
X133043369Y-78984556D01*
X133160677Y-79000000D01*
X133239323Y-79000000D01*
X133356631Y-78984556D01*
X133450000Y-78945881D01*
X133450000Y-80150000D01*
X134497828Y-80150000D01*
X134497844Y-80149999D01*
X134557372Y-80143598D01*
X134557379Y-80143596D01*
X134692086Y-80093354D01*
X134692093Y-80093350D01*
X134807187Y-80007190D01*
X134807190Y-80007187D01*
X134893350Y-79892093D01*
X134893354Y-79892086D01*
X134943596Y-79757379D01*
X134943598Y-79757372D01*
X134949999Y-79697844D01*
X134950000Y-79697827D01*
X134950000Y-78650000D01*
X133745882Y-78650000D01*
X133784556Y-78556631D01*
X133792012Y-78500000D01*
X139097866Y-78500000D01*
X139118163Y-78887287D01*
X139178830Y-79270323D01*
X139178831Y-79270330D01*
X139279206Y-79644936D01*
X139418188Y-80006994D01*
X139594254Y-80352543D01*
X139805475Y-80677793D01*
X140014039Y-80935350D01*
X140014040Y-80935350D01*
X140911700Y-80037689D01*
X140870393Y-80099511D01*
X140850990Y-80197056D01*
X140870393Y-80294601D01*
X140925648Y-80377296D01*
X141008343Y-80432551D01*
X141081264Y-80447056D01*
X141130512Y-80447056D01*
X141203433Y-80432551D01*
X141265248Y-80391247D01*
X140367592Y-81288903D01*
X140367593Y-81288904D01*
X140625150Y-81497468D01*
X140950400Y-81708689D01*
X141295949Y-81884755D01*
X141658007Y-82023737D01*
X142032613Y-82124112D01*
X142032620Y-82124113D01*
X142415656Y-82184780D01*
X142802943Y-82205078D01*
X142802945Y-82205078D01*
X143190231Y-82184780D01*
X143573267Y-82124113D01*
X143573274Y-82124112D01*
X143947880Y-82023737D01*
X144309938Y-81884755D01*
X144655487Y-81708689D01*
X144980727Y-81497476D01*
X144980729Y-81497475D01*
X145238293Y-81288902D01*
X144340635Y-80391244D01*
X144402455Y-80432551D01*
X144475376Y-80447056D01*
X144524624Y-80447056D01*
X144597545Y-80432551D01*
X144680240Y-80377296D01*
X144735495Y-80294601D01*
X144754898Y-80197056D01*
X144735495Y-80099511D01*
X144694188Y-80037691D01*
X145591846Y-80935349D01*
X145800419Y-80677785D01*
X145800420Y-80677783D01*
X146011633Y-80352543D01*
X146187699Y-80006994D01*
X146326681Y-79644936D01*
X146427056Y-79270330D01*
X146427057Y-79270323D01*
X146487724Y-78887287D01*
X146508022Y-78500000D01*
X146508022Y-78499999D01*
X146487724Y-78112712D01*
X146427057Y-77729676D01*
X146427056Y-77729669D01*
X146326681Y-77355063D01*
X146187699Y-76993005D01*
X146011633Y-76647456D01*
X145800412Y-76322206D01*
X145591848Y-76064649D01*
X145591847Y-76064648D01*
X144694191Y-76962303D01*
X144735495Y-76900489D01*
X144754898Y-76802944D01*
X144735495Y-76705399D01*
X144680240Y-76622704D01*
X144597545Y-76567449D01*
X144524624Y-76552944D01*
X144475376Y-76552944D01*
X144402455Y-76567449D01*
X144340634Y-76608755D01*
X145238294Y-75711096D01*
X145238294Y-75711095D01*
X144980737Y-75502531D01*
X144655487Y-75291310D01*
X144309938Y-75115244D01*
X143947880Y-74976262D01*
X143573274Y-74875887D01*
X143573267Y-74875886D01*
X143190231Y-74815219D01*
X142802945Y-74794922D01*
X142802943Y-74794922D01*
X142415656Y-74815219D01*
X142032620Y-74875886D01*
X142032613Y-74875887D01*
X141658007Y-74976262D01*
X141295949Y-75115244D01*
X140950400Y-75291310D01*
X140625150Y-75502531D01*
X140367592Y-75711095D01*
X140367592Y-75711096D01*
X141265250Y-76608754D01*
X141203433Y-76567449D01*
X141130512Y-76552944D01*
X141081264Y-76552944D01*
X141008343Y-76567449D01*
X140925648Y-76622704D01*
X140870393Y-76705399D01*
X140850990Y-76802944D01*
X140870393Y-76900489D01*
X140911697Y-76962305D01*
X140014040Y-76064648D01*
X140014039Y-76064648D01*
X139805475Y-76322206D01*
X139594254Y-76647456D01*
X139418188Y-76993005D01*
X139279206Y-77355063D01*
X139178831Y-77729669D01*
X139178830Y-77729676D01*
X139118163Y-78112712D01*
X139097866Y-78499999D01*
X139097866Y-78500000D01*
X133792012Y-78500000D01*
X133805177Y-78400000D01*
X133784556Y-78243369D01*
X133745882Y-78150000D01*
X134950000Y-78150000D01*
X134950000Y-77102172D01*
X134949999Y-77102155D01*
X134943598Y-77042627D01*
X134943596Y-77042620D01*
X134893354Y-76907913D01*
X134893350Y-76907906D01*
X134807190Y-76792812D01*
X134807187Y-76792809D01*
X134692093Y-76706649D01*
X134692086Y-76706645D01*
X134557379Y-76656403D01*
X134557372Y-76656401D01*
X134497844Y-76650000D01*
X133450000Y-76650000D01*
X133450000Y-77854118D01*
X133356631Y-77815444D01*
X133239323Y-77800000D01*
X133160677Y-77800000D01*
X133043369Y-77815444D01*
X132950000Y-77854118D01*
X132950000Y-76650000D01*
X131902155Y-76650000D01*
X131842627Y-76656401D01*
X131842620Y-76656403D01*
X131707913Y-76706645D01*
X131707906Y-76706649D01*
X131592812Y-76792809D01*
X131592809Y-76792812D01*
X131506649Y-76907906D01*
X131506645Y-76907913D01*
X131456403Y-77042620D01*
X131456401Y-77042627D01*
X131450000Y-77102155D01*
X131450000Y-78150000D01*
X132654118Y-78150000D01*
X132615444Y-78243369D01*
X132594823Y-78400000D01*
X132615444Y-78556631D01*
X132654118Y-78650000D01*
X131450000Y-78650000D01*
X131450000Y-79697844D01*
X75149999Y-79697844D01*
X75150000Y-79697827D01*
X75150000Y-78650000D01*
X73945882Y-78650000D01*
X73984556Y-78556631D01*
X74005177Y-78400000D01*
X73984556Y-78243369D01*
X73945882Y-78150000D01*
X75150000Y-78150000D01*
X75150000Y-77102172D01*
X75149999Y-77102155D01*
X75143598Y-77042627D01*
X75143596Y-77042620D01*
X75093354Y-76907913D01*
X75093350Y-76907906D01*
X75007190Y-76792812D01*
X75007187Y-76792809D01*
X74892093Y-76706649D01*
X74892086Y-76706645D01*
X74757379Y-76656403D01*
X74757372Y-76656401D01*
X74697844Y-76650000D01*
X73650000Y-76650000D01*
X73650000Y-77854118D01*
X73556631Y-77815444D01*
X73439323Y-77800000D01*
X73360677Y-77800000D01*
X73243369Y-77815444D01*
X73150000Y-77854118D01*
X73150000Y-76650000D01*
X72102155Y-76650000D01*
X72042627Y-76656401D01*
X72042620Y-76656403D01*
X71907913Y-76706645D01*
X71907906Y-76706649D01*
X71792812Y-76792809D01*
X71792809Y-76792812D01*
X71706649Y-76907906D01*
X71706645Y-76907913D01*
X71656403Y-77042620D01*
X71656401Y-77042627D01*
X71650000Y-77102155D01*
X71650000Y-78150000D01*
X72854118Y-78150000D01*
X72815444Y-78243369D01*
X72794823Y-78400000D01*
X72815444Y-78556631D01*
X72854118Y-78650000D01*
X71650000Y-78650000D01*
X71650000Y-79697844D01*
X67003427Y-79697844D01*
X67023737Y-79644936D01*
X67124112Y-79270330D01*
X67124113Y-79270323D01*
X67184780Y-78887287D01*
X67205078Y-78500000D01*
X67205078Y-78499999D01*
X67184780Y-78112712D01*
X67124113Y-77729676D01*
X67124112Y-77729669D01*
X67023737Y-77355063D01*
X66884755Y-76993005D01*
X66708689Y-76647456D01*
X66497468Y-76322206D01*
X66288904Y-76064649D01*
X66288903Y-76064648D01*
X65391247Y-76962303D01*
X65432551Y-76900489D01*
X65451954Y-76802944D01*
X65432551Y-76705399D01*
X65377296Y-76622704D01*
X65294601Y-76567449D01*
X65221680Y-76552944D01*
X65172432Y-76552944D01*
X65099511Y-76567449D01*
X65037690Y-76608755D01*
X65935350Y-75711096D01*
X65935350Y-75711095D01*
X65677793Y-75502531D01*
X65352543Y-75291310D01*
X65006994Y-75115244D01*
X64644936Y-74976262D01*
X64270330Y-74875887D01*
X64270323Y-74875886D01*
X63887287Y-74815219D01*
X63500001Y-74794922D01*
X63499999Y-74794922D01*
X63112712Y-74815219D01*
X62729676Y-74875886D01*
X62729669Y-74875887D01*
X62355063Y-74976262D01*
X61993005Y-75115244D01*
X61647456Y-75291310D01*
X61322206Y-75502531D01*
X61064648Y-75711095D01*
X61064648Y-75711096D01*
X61962306Y-76608754D01*
X61900489Y-76567449D01*
X61827568Y-76552944D01*
X61778320Y-76552944D01*
X61705399Y-76567449D01*
X61622704Y-76622704D01*
X61567449Y-76705399D01*
X61548046Y-76802944D01*
X61567449Y-76900489D01*
X61608753Y-76962305D01*
X60711096Y-76064648D01*
X60711095Y-76064648D01*
X60502531Y-76322206D01*
X60291310Y-76647456D01*
X60115244Y-76993005D01*
X59976262Y-77355063D01*
X59875887Y-77729669D01*
X59875886Y-77729676D01*
X59815219Y-78112712D01*
X59794922Y-78499999D01*
X59794922Y-78500000D01*
X59000500Y-78500000D01*
X59000500Y-78499500D01*
X59000500Y-53624000D01*
X59020185Y-53556961D01*
X59072989Y-53511206D01*
X59124500Y-53500000D01*
X69256610Y-53500000D01*
X69323649Y-53519685D01*
G37*
G04 #@! TD.AperFunction*
G04 #@! TA.AperFunction,Conductor*
G36*
X94000000Y-57000000D02*
G01*
X95424500Y-57000000D01*
X95424500Y-60192495D01*
X95404815Y-60259534D01*
X95352011Y-60305289D01*
X95298367Y-60315273D01*
X95298393Y-60315689D01*
X95295046Y-60315891D01*
X95293018Y-60316269D01*
X95290910Y-60316141D01*
X95228997Y-60319887D01*
X95225252Y-60320000D01*
X94196719Y-60320000D01*
X94129680Y-60300315D01*
X94109038Y-60283681D01*
X94083698Y-60258341D01*
X94081164Y-60255650D01*
X94040029Y-60209217D01*
X94040028Y-60209216D01*
X94040024Y-60209212D01*
X93988996Y-60173991D01*
X93985987Y-60171777D01*
X93937160Y-60133524D01*
X93937155Y-60133520D01*
X93927913Y-60129361D01*
X93908366Y-60118336D01*
X93900031Y-60112583D01*
X93900032Y-60112583D01*
X93900030Y-60112582D01*
X93842041Y-60090589D01*
X93838590Y-60089159D01*
X93782030Y-60063704D01*
X93772046Y-60061874D01*
X93750443Y-60055851D01*
X93740974Y-60052260D01*
X93740970Y-60052259D01*
X93679413Y-60044784D01*
X93675712Y-60044221D01*
X93614708Y-60033042D01*
X93614703Y-60033042D01*
X93552797Y-60036787D01*
X93549052Y-60036900D01*
X90067099Y-60036900D01*
X90000060Y-60017215D01*
X89954305Y-59964411D01*
X89943099Y-59912900D01*
X89943099Y-59187398D01*
X89943098Y-59187381D01*
X89932599Y-59084603D01*
X89932598Y-59084600D01*
X89917104Y-59037843D01*
X89877414Y-58918066D01*
X89785312Y-58768744D01*
X89661256Y-58644688D01*
X89511934Y-58552586D01*
X89345397Y-58497401D01*
X89345395Y-58497400D01*
X89242610Y-58486900D01*
X87342598Y-58486900D01*
X87342581Y-58486901D01*
X87239803Y-58497400D01*
X87239800Y-58497401D01*
X87073268Y-58552585D01*
X87073263Y-58552587D01*
X86923942Y-58644689D01*
X86799889Y-58768742D01*
X86707787Y-58918063D01*
X86707786Y-58918066D01*
X86652601Y-59084603D01*
X86652601Y-59084604D01*
X86652600Y-59084604D01*
X86642100Y-59187383D01*
X86642100Y-62287401D01*
X86642101Y-62287418D01*
X86652600Y-62390196D01*
X86652601Y-62390199D01*
X86707785Y-62556731D01*
X86707787Y-62556736D01*
X86742669Y-62613288D01*
X86799888Y-62706056D01*
X86923944Y-62830112D01*
X87073266Y-62922214D01*
X87239803Y-62977399D01*
X87342591Y-62987900D01*
X89242608Y-62987899D01*
X89345397Y-62977399D01*
X89511934Y-62922214D01*
X89661256Y-62830112D01*
X89785312Y-62706056D01*
X89877414Y-62556734D01*
X89932599Y-62390197D01*
X89943100Y-62287409D01*
X89943100Y-61561900D01*
X89962785Y-61494861D01*
X90015589Y-61449106D01*
X90067100Y-61437900D01*
X93230581Y-61437900D01*
X93297620Y-61457585D01*
X93318262Y-61474219D01*
X93343599Y-61499556D01*
X93346135Y-61502250D01*
X93387271Y-61548683D01*
X93406419Y-61561900D01*
X93438306Y-61583910D01*
X93441322Y-61586130D01*
X93446335Y-61590057D01*
X93490143Y-61624378D01*
X93497045Y-61627484D01*
X93499382Y-61628536D01*
X93518933Y-61639563D01*
X93527270Y-61645318D01*
X93585265Y-61667312D01*
X93588674Y-61668723D01*
X93635987Y-61690017D01*
X93645264Y-61694193D01*
X93645265Y-61694193D01*
X93645269Y-61694195D01*
X93655234Y-61696021D01*
X93676856Y-61702048D01*
X93679977Y-61703231D01*
X93686328Y-61705640D01*
X93731451Y-61711118D01*
X93747874Y-61713113D01*
X93751571Y-61713675D01*
X93812594Y-61724858D01*
X93867952Y-61721509D01*
X93874503Y-61721113D01*
X93878248Y-61721000D01*
X94906781Y-61721000D01*
X94973820Y-61740685D01*
X94994462Y-61757319D01*
X95440312Y-62203169D01*
X95473797Y-62264492D01*
X95475951Y-62277884D01*
X95484126Y-62355656D01*
X95484127Y-62355658D01*
X95484127Y-62355660D01*
X95510615Y-62437182D01*
X95512610Y-62507024D01*
X95476529Y-62566856D01*
X95413828Y-62597684D01*
X95392684Y-62599500D01*
X94473048Y-62599500D01*
X94469303Y-62599387D01*
X94407396Y-62595642D01*
X94407389Y-62595642D01*
X94346386Y-62606821D01*
X94342685Y-62607384D01*
X94281128Y-62614859D01*
X94281121Y-62614861D01*
X94271647Y-62618454D01*
X94250049Y-62624475D01*
X94240069Y-62626304D01*
X94183519Y-62651755D01*
X94180060Y-62653188D01*
X94122071Y-62675181D01*
X94122066Y-62675184D01*
X94113722Y-62680943D01*
X94094187Y-62691961D01*
X94084947Y-62696120D01*
X94084945Y-62696121D01*
X94036136Y-62734359D01*
X94033122Y-62736576D01*
X93982070Y-62771817D01*
X93982068Y-62771818D01*
X93940942Y-62818240D01*
X93938375Y-62820966D01*
X92765960Y-63993381D01*
X92704637Y-64026866D01*
X92678280Y-64029700D01*
X92474999Y-64029700D01*
X92474980Y-64029701D01*
X92372203Y-64040200D01*
X92372200Y-64040201D01*
X92205668Y-64095385D01*
X92205663Y-64095387D01*
X92056342Y-64187489D01*
X91932289Y-64311542D01*
X91840187Y-64460863D01*
X91840185Y-64460868D01*
X91820387Y-64520615D01*
X91785001Y-64627403D01*
X91785001Y-64627404D01*
X91785000Y-64627404D01*
X91774500Y-64730183D01*
X91774500Y-65505201D01*
X91774501Y-65505219D01*
X91785000Y-65607996D01*
X91785001Y-65607999D01*
X91840185Y-65774531D01*
X91840187Y-65774536D01*
X91853702Y-65796447D01*
X91928818Y-65918231D01*
X91932289Y-65923857D01*
X91988951Y-65980519D01*
X92022436Y-66041842D01*
X92017452Y-66111534D01*
X91975580Y-66167467D01*
X91910116Y-66191884D01*
X91901270Y-66192200D01*
X90067100Y-66192200D01*
X90000061Y-66172515D01*
X89954306Y-66119711D01*
X89943100Y-66068200D01*
X89943099Y-64587398D01*
X89943098Y-64587381D01*
X89932599Y-64484603D01*
X89932598Y-64484600D01*
X89924732Y-64460863D01*
X89877414Y-64318066D01*
X89785312Y-64168744D01*
X89661256Y-64044688D01*
X89511934Y-63952586D01*
X89345397Y-63897401D01*
X89345395Y-63897400D01*
X89242610Y-63886900D01*
X87342598Y-63886900D01*
X87342581Y-63886901D01*
X87239803Y-63897400D01*
X87239800Y-63897401D01*
X87073268Y-63952585D01*
X87073263Y-63952587D01*
X86923942Y-64044689D01*
X86799889Y-64168742D01*
X86707787Y-64318063D01*
X86707786Y-64318066D01*
X86652601Y-64484603D01*
X86652601Y-64484604D01*
X86652600Y-64484604D01*
X86642100Y-64587383D01*
X86642100Y-67687401D01*
X86642101Y-67687418D01*
X86652600Y-67790196D01*
X86652601Y-67790199D01*
X86672264Y-67849536D01*
X86674666Y-67919364D01*
X86638934Y-67979406D01*
X86576414Y-68010599D01*
X86506955Y-68003039D01*
X86466877Y-67976221D01*
X85536818Y-67046162D01*
X85503333Y-66984839D01*
X85500499Y-66958481D01*
X85500499Y-64952129D01*
X85500498Y-64952123D01*
X85500497Y-64952116D01*
X85494091Y-64892517D01*
X85486633Y-64872522D01*
X85443797Y-64757671D01*
X85443793Y-64757664D01*
X85357547Y-64642455D01*
X85357544Y-64642452D01*
X85242335Y-64556206D01*
X85242328Y-64556202D01*
X85107482Y-64505908D01*
X85107483Y-64505908D01*
X85047883Y-64499501D01*
X85047881Y-64499500D01*
X85047873Y-64499500D01*
X85047864Y-64499500D01*
X82452129Y-64499500D01*
X82452123Y-64499501D01*
X82392516Y-64505908D01*
X82257671Y-64556202D01*
X82257664Y-64556206D01*
X82142455Y-64642452D01*
X82142452Y-64642455D01*
X82056206Y-64757664D01*
X82056202Y-64757671D01*
X82005908Y-64892517D01*
X81999501Y-64952116D01*
X81999501Y-64952123D01*
X81999500Y-64952135D01*
X81999500Y-67547870D01*
X81999501Y-67547876D01*
X82005908Y-67607483D01*
X82056202Y-67742328D01*
X82056206Y-67742335D01*
X82142452Y-67857544D01*
X82142455Y-67857547D01*
X82257664Y-67943793D01*
X82257671Y-67943797D01*
X82392517Y-67994091D01*
X82392516Y-67994091D01*
X82399444Y-67994835D01*
X82452127Y-68000500D01*
X84458480Y-68000499D01*
X84525519Y-68020184D01*
X84546161Y-68036818D01*
X85263181Y-68753837D01*
X85296666Y-68815160D01*
X85299500Y-68841518D01*
X85299500Y-68955448D01*
X85279815Y-69022487D01*
X85263181Y-69043129D01*
X85179661Y-69126648D01*
X85089093Y-69273481D01*
X85089091Y-69273486D01*
X85081010Y-69297873D01*
X85034826Y-69437247D01*
X85034826Y-69437248D01*
X85034825Y-69437248D01*
X85024500Y-69538315D01*
X85024500Y-70136669D01*
X85024501Y-70136687D01*
X85034825Y-70237752D01*
X85089092Y-70401515D01*
X85089093Y-70401518D01*
X85179661Y-70548351D01*
X85293629Y-70662319D01*
X85327114Y-70723642D01*
X85322130Y-70793334D01*
X85293629Y-70837681D01*
X85179661Y-70951648D01*
X85089093Y-71098481D01*
X85089092Y-71098484D01*
X85034826Y-71262247D01*
X85034826Y-71262248D01*
X85034825Y-71262248D01*
X85024500Y-71363315D01*
X85024500Y-71961669D01*
X85024501Y-71961687D01*
X85034825Y-72062752D01*
X85034826Y-72062755D01*
X85046438Y-72097796D01*
X85048840Y-72167624D01*
X85013108Y-72227666D01*
X84950588Y-72258859D01*
X84928732Y-72260800D01*
X84525706Y-72260800D01*
X84458667Y-72241115D01*
X84412912Y-72188311D01*
X84402348Y-72124196D01*
X84403900Y-72109009D01*
X84403899Y-70208992D01*
X84393399Y-70106203D01*
X84338214Y-69939666D01*
X84246112Y-69790344D01*
X84122056Y-69666288D01*
X84026821Y-69607547D01*
X83972736Y-69574187D01*
X83972731Y-69574185D01*
X83966704Y-69572188D01*
X83806197Y-69519001D01*
X83806195Y-69519000D01*
X83703410Y-69508500D01*
X80603398Y-69508500D01*
X80603381Y-69508501D01*
X80500603Y-69519000D01*
X80500600Y-69519001D01*
X80334068Y-69574185D01*
X80334063Y-69574187D01*
X80184742Y-69666289D01*
X80060689Y-69790342D01*
X79968587Y-69939663D01*
X79968586Y-69939666D01*
X79913401Y-70106203D01*
X79913401Y-70106204D01*
X79913400Y-70106204D01*
X79902900Y-70208983D01*
X79902900Y-72109001D01*
X79902901Y-72109018D01*
X79913400Y-72211796D01*
X79913401Y-72211799D01*
X79968585Y-72378331D01*
X79968587Y-72378336D01*
X79992744Y-72417500D01*
X80060688Y-72527656D01*
X80184744Y-72651712D01*
X80334066Y-72743814D01*
X80500603Y-72798999D01*
X80603391Y-72809500D01*
X82691169Y-72809499D01*
X82758208Y-72829184D01*
X82778850Y-72845818D01*
X83213851Y-73280819D01*
X83247336Y-73342142D01*
X83242352Y-73411834D01*
X83200480Y-73467767D01*
X83135016Y-73492184D01*
X83126170Y-73492500D01*
X80128919Y-73492500D01*
X80061880Y-73472815D01*
X80041238Y-73456181D01*
X78998563Y-72413506D01*
X78965078Y-72352183D01*
X78968538Y-72286821D01*
X78993399Y-72211797D01*
X79003900Y-72109009D01*
X79003899Y-70208992D01*
X78993399Y-70106203D01*
X78938214Y-69939666D01*
X78846112Y-69790344D01*
X78722056Y-69666288D01*
X78626821Y-69607547D01*
X78572736Y-69574187D01*
X78572731Y-69574185D01*
X78566704Y-69572188D01*
X78406197Y-69519001D01*
X78406195Y-69519000D01*
X78303416Y-69508500D01*
X78303409Y-69508500D01*
X77276290Y-69508500D01*
X77209251Y-69488815D01*
X77188609Y-69472181D01*
X76011819Y-68295391D01*
X75978334Y-68234068D01*
X75975500Y-68207710D01*
X75975500Y-62297870D01*
X81999500Y-62297870D01*
X81999501Y-62297876D01*
X82005908Y-62357483D01*
X82056202Y-62492328D01*
X82056206Y-62492335D01*
X82142452Y-62607544D01*
X82142455Y-62607547D01*
X82257664Y-62693793D01*
X82257671Y-62693797D01*
X82392517Y-62744091D01*
X82392516Y-62744091D01*
X82399444Y-62744835D01*
X82452127Y-62750500D01*
X85047872Y-62750499D01*
X85107483Y-62744091D01*
X85242331Y-62693796D01*
X85357546Y-62607546D01*
X85443796Y-62492331D01*
X85494091Y-62357483D01*
X85500500Y-62297873D01*
X85500499Y-59702128D01*
X85494091Y-59642517D01*
X85483214Y-59613355D01*
X85443797Y-59507671D01*
X85443793Y-59507664D01*
X85357547Y-59392455D01*
X85357544Y-59392452D01*
X85242335Y-59306206D01*
X85242328Y-59306202D01*
X85107482Y-59255908D01*
X85107483Y-59255908D01*
X85047883Y-59249501D01*
X85047881Y-59249500D01*
X85047873Y-59249500D01*
X85047864Y-59249500D01*
X82452129Y-59249500D01*
X82452123Y-59249501D01*
X82392516Y-59255908D01*
X82257671Y-59306202D01*
X82257664Y-59306206D01*
X82142455Y-59392452D01*
X82142452Y-59392455D01*
X82056206Y-59507664D01*
X82056202Y-59507671D01*
X82005908Y-59642517D01*
X82002873Y-59670753D01*
X81999501Y-59702123D01*
X81999500Y-59702135D01*
X81999500Y-62297870D01*
X75975500Y-62297870D01*
X75975500Y-56642018D01*
X75975977Y-56634342D01*
X75979357Y-56607220D01*
X75979357Y-56607219D01*
X75975500Y-56513964D01*
X75975500Y-56482934D01*
X75972937Y-56452009D01*
X75971242Y-56411015D01*
X75969081Y-56358763D01*
X75963473Y-56332016D01*
X75962364Y-56324406D01*
X75960109Y-56297187D01*
X75960107Y-56297176D01*
X75951394Y-56262768D01*
X75937202Y-56206725D01*
X75918050Y-56115386D01*
X75908112Y-56089920D01*
X75905774Y-56082623D01*
X75899063Y-56056119D01*
X75861580Y-55970667D01*
X75827656Y-55883727D01*
X75813665Y-55860248D01*
X75810150Y-55853418D01*
X75809999Y-55853074D01*
X75799173Y-55828393D01*
X75786121Y-55808415D01*
X75748137Y-55750275D01*
X75723725Y-55709308D01*
X75700366Y-55670106D01*
X75682702Y-55649250D01*
X75678106Y-55643086D01*
X75663166Y-55620218D01*
X75663165Y-55620217D01*
X75663164Y-55620215D01*
X75599966Y-55551564D01*
X75579902Y-55527874D01*
X75569820Y-55517792D01*
X75557950Y-55505921D01*
X75494747Y-55437265D01*
X75494746Y-55437264D01*
X75494744Y-55437262D01*
X75473174Y-55420473D01*
X75467412Y-55415384D01*
X73763709Y-53711681D01*
X73730224Y-53650358D01*
X73735208Y-53580666D01*
X73777080Y-53524733D01*
X73842544Y-53500316D01*
X73851390Y-53500000D01*
X94000000Y-53500000D01*
X94000000Y-57000000D01*
G37*
G04 #@! TD.AperFunction*
G04 #@! TA.AperFunction,Conductor*
G36*
X92069483Y-70837785D02*
G01*
X92075329Y-70841782D01*
X92157865Y-70901748D01*
X92157870Y-70901751D01*
X92239840Y-70938247D01*
X92293077Y-70983497D01*
X92313398Y-71050346D01*
X92307110Y-71090529D01*
X92269826Y-71203044D01*
X92269825Y-71203048D01*
X92259500Y-71304115D01*
X92259500Y-71877469D01*
X92259501Y-71877487D01*
X92269825Y-71978552D01*
X92297726Y-72062750D01*
X92322998Y-72139016D01*
X92324092Y-72142315D01*
X92324093Y-72142318D01*
X92344252Y-72175000D01*
X92413223Y-72286821D01*
X92414661Y-72289151D01*
X92491279Y-72365769D01*
X92524764Y-72427092D01*
X92519780Y-72496784D01*
X92491279Y-72541131D01*
X92412761Y-72619648D01*
X92322193Y-72766481D01*
X92322191Y-72766486D01*
X92307938Y-72809499D01*
X92267926Y-72930247D01*
X92267926Y-72930248D01*
X92267925Y-72930248D01*
X92257600Y-73031315D01*
X92257600Y-73031323D01*
X92257600Y-73261234D01*
X92257601Y-73368500D01*
X92237917Y-73435539D01*
X92185113Y-73481294D01*
X92133601Y-73492500D01*
X89209018Y-73492500D01*
X89141979Y-73472815D01*
X89096224Y-73420011D01*
X89085660Y-73355898D01*
X89090299Y-73310486D01*
X89090300Y-73310477D01*
X89090299Y-72712124D01*
X89079974Y-72611047D01*
X89025708Y-72447284D01*
X88935140Y-72300450D01*
X88821171Y-72186481D01*
X88787686Y-72125158D01*
X88792670Y-72055466D01*
X88821171Y-72011119D01*
X88832680Y-71999610D01*
X88894003Y-71966125D01*
X88963695Y-71971109D01*
X89008042Y-71999610D01*
X89050744Y-72042312D01*
X89200066Y-72134414D01*
X89366603Y-72189599D01*
X89469391Y-72200100D01*
X90519408Y-72200099D01*
X90519416Y-72200098D01*
X90519419Y-72200098D01*
X90575702Y-72194348D01*
X90622197Y-72189599D01*
X90788734Y-72134414D01*
X90938056Y-72042312D01*
X91062112Y-71918256D01*
X91154214Y-71768934D01*
X91209399Y-71602397D01*
X91219900Y-71499609D01*
X91219899Y-70942099D01*
X91239583Y-70875061D01*
X91292387Y-70829306D01*
X91343899Y-70818100D01*
X92002444Y-70818100D01*
X92069483Y-70837785D01*
G37*
G04 #@! TD.AperFunction*
G04 #@! TA.AperFunction,Conductor*
G36*
X95436142Y-70495326D02*
G01*
X95484958Y-70528536D01*
X95560729Y-70612688D01*
X95713865Y-70723948D01*
X95713870Y-70723951D01*
X95886792Y-70800942D01*
X95886797Y-70800944D01*
X96071954Y-70840300D01*
X96071955Y-70840300D01*
X96261244Y-70840300D01*
X96261246Y-70840300D01*
X96446403Y-70800944D01*
X96619330Y-70723951D01*
X96631527Y-70715089D01*
X96687832Y-70674182D01*
X96753638Y-70650702D01*
X96760717Y-70650500D01*
X97500000Y-70650500D01*
X97500000Y-72409416D01*
X97426648Y-72454661D01*
X97304660Y-72576649D01*
X97304658Y-72576652D01*
X97291066Y-72598687D01*
X97239117Y-72645409D01*
X97170154Y-72656629D01*
X97112645Y-72633904D01*
X96974934Y-72533851D01*
X96974929Y-72533848D01*
X96802007Y-72456857D01*
X96802002Y-72456855D01*
X96656201Y-72425865D01*
X96616846Y-72417500D01*
X96427554Y-72417500D01*
X96395097Y-72424398D01*
X96242397Y-72456855D01*
X96242392Y-72456857D01*
X96069471Y-72533848D01*
X96009290Y-72577572D01*
X95943483Y-72601051D01*
X95875429Y-72585225D01*
X95848724Y-72564934D01*
X95781451Y-72497661D01*
X95781450Y-72497660D01*
X95667041Y-72427092D01*
X95634618Y-72407093D01*
X95634613Y-72407091D01*
X95570684Y-72385907D01*
X95470853Y-72352826D01*
X95470851Y-72352825D01*
X95369778Y-72342500D01*
X94771430Y-72342500D01*
X94771412Y-72342501D01*
X94670347Y-72352825D01*
X94506584Y-72407092D01*
X94506581Y-72407093D01*
X94359748Y-72497661D01*
X94245781Y-72611629D01*
X94184458Y-72645114D01*
X94114766Y-72640130D01*
X94070419Y-72611629D01*
X94001821Y-72543031D01*
X93968336Y-72481708D01*
X93973320Y-72412016D01*
X94001821Y-72367669D01*
X94038119Y-72331371D01*
X94080340Y-72289150D01*
X94170908Y-72142316D01*
X94225174Y-71978553D01*
X94235500Y-71877477D01*
X94235499Y-71644818D01*
X94255183Y-71577779D01*
X94271813Y-71557141D01*
X95305129Y-70523825D01*
X95366450Y-70490342D01*
X95436142Y-70495326D01*
G37*
G04 #@! TD.AperFunction*
G04 #@! TA.AperFunction,Conductor*
G36*
X96500000Y-68299500D02*
G01*
X95861336Y-68299500D01*
X95857592Y-68299387D01*
X95795697Y-68295643D01*
X95795690Y-68295643D01*
X95734702Y-68306819D01*
X95731001Y-68307382D01*
X95669425Y-68314860D01*
X95659942Y-68318456D01*
X95638338Y-68324478D01*
X95636835Y-68324754D01*
X95628365Y-68326306D01*
X95628363Y-68326307D01*
X95571827Y-68351752D01*
X95568369Y-68353184D01*
X95510369Y-68375182D01*
X95502024Y-68380942D01*
X95482483Y-68391964D01*
X95473241Y-68396123D01*
X95424429Y-68434364D01*
X95421414Y-68436583D01*
X95370372Y-68471816D01*
X95370365Y-68471822D01*
X95329235Y-68518248D01*
X95326668Y-68520974D01*
X93720238Y-70127404D01*
X93658915Y-70160889D01*
X93589223Y-70155905D01*
X93533290Y-70114033D01*
X93509237Y-70052688D01*
X93496274Y-69929344D01*
X93437779Y-69749316D01*
X93343133Y-69585384D01*
X93216471Y-69444712D01*
X93206198Y-69437248D01*
X93063334Y-69333451D01*
X93063329Y-69333448D01*
X92890407Y-69256457D01*
X92890402Y-69256455D01*
X92741655Y-69224839D01*
X92705246Y-69217100D01*
X92515954Y-69217100D01*
X92483497Y-69223998D01*
X92330797Y-69256455D01*
X92330792Y-69256457D01*
X92157870Y-69333448D01*
X92157865Y-69333451D01*
X92075329Y-69393418D01*
X92009523Y-69416898D01*
X92002444Y-69417100D01*
X91330419Y-69417100D01*
X91263380Y-69397415D01*
X91242738Y-69380781D01*
X91235818Y-69373861D01*
X91220398Y-69358441D01*
X91217864Y-69355750D01*
X91176729Y-69309317D01*
X91176728Y-69309316D01*
X91176724Y-69309312D01*
X91125696Y-69274091D01*
X91122687Y-69271877D01*
X91073860Y-69233624D01*
X91073855Y-69233620D01*
X91064613Y-69229461D01*
X91045066Y-69218436D01*
X91036731Y-69212683D01*
X91036732Y-69212683D01*
X91036730Y-69212682D01*
X90978741Y-69190689D01*
X90975290Y-69189259D01*
X90918730Y-69163804D01*
X90908746Y-69161974D01*
X90887143Y-69155951D01*
X90877674Y-69152360D01*
X90877670Y-69152359D01*
X90816113Y-69144884D01*
X90812412Y-69144321D01*
X90751408Y-69133142D01*
X90751403Y-69133142D01*
X90689497Y-69136887D01*
X90685752Y-69137000D01*
X86882052Y-69137000D01*
X86815013Y-69117315D01*
X86794371Y-69100681D01*
X86736819Y-69043129D01*
X86703334Y-68981806D01*
X86700500Y-68955448D01*
X86700500Y-68523047D01*
X86700613Y-68519302D01*
X86704358Y-68457394D01*
X86693175Y-68396371D01*
X86692613Y-68392674D01*
X86685140Y-68331128D01*
X86682363Y-68323808D01*
X86676995Y-68254146D01*
X86710141Y-68192639D01*
X86771278Y-68158816D01*
X86840997Y-68163416D01*
X86885986Y-68192154D01*
X86923944Y-68230112D01*
X87073266Y-68322214D01*
X87239803Y-68377399D01*
X87342591Y-68387900D01*
X89242608Y-68387899D01*
X89345397Y-68377399D01*
X89511934Y-68322214D01*
X89661256Y-68230112D01*
X89661849Y-68229519D01*
X89662355Y-68229242D01*
X89666919Y-68225634D01*
X89667535Y-68226413D01*
X89723172Y-68196034D01*
X89749530Y-68193200D01*
X92135134Y-68193200D01*
X92200231Y-68211661D01*
X92205666Y-68215014D01*
X92372203Y-68270199D01*
X92474991Y-68280700D01*
X93525008Y-68280699D01*
X93525016Y-68280698D01*
X93525019Y-68280698D01*
X93583089Y-68274766D01*
X93627797Y-68270199D01*
X93794334Y-68215014D01*
X93943656Y-68122912D01*
X94067712Y-67998856D01*
X94103827Y-67940301D01*
X94155773Y-67893578D01*
X94194420Y-67882302D01*
X94231172Y-67877840D01*
X94240635Y-67874250D01*
X94262261Y-67868222D01*
X94263193Y-67868051D01*
X94272232Y-67866395D01*
X94328812Y-67840929D01*
X94332242Y-67839509D01*
X94390230Y-67817518D01*
X94398566Y-67811762D01*
X94418121Y-67800734D01*
X94427357Y-67796578D01*
X94476196Y-67758313D01*
X94479176Y-67756121D01*
X94530229Y-67720883D01*
X94571365Y-67674448D01*
X94573899Y-67671756D01*
X95524775Y-66720879D01*
X95524780Y-66720876D01*
X95534983Y-66710672D01*
X95534985Y-66710672D01*
X95655272Y-66590385D01*
X95675423Y-66557048D01*
X95679663Y-66550907D01*
X95703678Y-66520256D01*
X95719655Y-66484753D01*
X95723135Y-66478125D01*
X95743278Y-66444806D01*
X95754863Y-66407623D01*
X95757510Y-66400644D01*
X95773495Y-66365131D01*
X95780516Y-66326816D01*
X95782300Y-66319574D01*
X95793886Y-66282396D01*
X95796235Y-66243534D01*
X95797137Y-66236108D01*
X95804158Y-66197806D01*
X95802883Y-66176735D01*
X95818483Y-66108630D01*
X95819270Y-66107247D01*
X95822333Y-66101942D01*
X95901579Y-65964684D01*
X95960074Y-65784656D01*
X95979860Y-65596400D01*
X95960074Y-65408144D01*
X95901579Y-65228116D01*
X95806933Y-65064184D01*
X95680271Y-64923512D01*
X95637610Y-64892517D01*
X95527134Y-64812251D01*
X95527129Y-64812248D01*
X95354207Y-64735257D01*
X95354202Y-64735255D01*
X95188335Y-64700000D01*
X95169046Y-64695900D01*
X94979754Y-64695900D01*
X94960465Y-64700000D01*
X94794597Y-64735255D01*
X94794592Y-64735257D01*
X94621670Y-64812248D01*
X94621665Y-64812251D01*
X94468532Y-64923509D01*
X94468529Y-64923511D01*
X94468529Y-64923512D01*
X94441647Y-64953367D01*
X94382162Y-64990014D01*
X94312305Y-64988683D01*
X94254257Y-64949796D01*
X94226447Y-64885699D01*
X94225499Y-64870393D01*
X94225499Y-64730198D01*
X94225498Y-64730181D01*
X94218071Y-64657475D01*
X94214999Y-64627403D01*
X94214998Y-64627399D01*
X94213734Y-64623583D01*
X94213648Y-64621089D01*
X94213582Y-64620780D01*
X94213637Y-64620768D01*
X94211331Y-64553755D01*
X94243756Y-64496899D01*
X94703838Y-64036819D01*
X94765161Y-64003334D01*
X94791519Y-64000500D01*
X96500000Y-64000500D01*
X96500000Y-68299500D01*
G37*
G04 #@! TD.AperFunction*
G04 #@! TA.AperFunction,Conductor*
G36*
X111762509Y-60954088D02*
G01*
X111818445Y-60995957D01*
X111842864Y-61061421D01*
X111841343Y-61083569D01*
X111842406Y-61083681D01*
X111841727Y-61090140D01*
X111841726Y-61090144D01*
X111821940Y-61278400D01*
X111841726Y-61466656D01*
X111841727Y-61466659D01*
X111900218Y-61646677D01*
X111900221Y-61646684D01*
X111994867Y-61810616D01*
X112121529Y-61951288D01*
X112274665Y-62062548D01*
X112274670Y-62062551D01*
X112447592Y-62139542D01*
X112447597Y-62139544D01*
X112632754Y-62178900D01*
X112632755Y-62178900D01*
X112797521Y-62178900D01*
X112864560Y-62198585D01*
X112885202Y-62215219D01*
X113864227Y-63194244D01*
X113897712Y-63255567D01*
X113892728Y-63325259D01*
X113850856Y-63381192D01*
X113828951Y-63394307D01*
X113827069Y-63395184D01*
X113677742Y-63487289D01*
X113553689Y-63611342D01*
X113461587Y-63760663D01*
X113461586Y-63760666D01*
X113406401Y-63927203D01*
X113406401Y-63927204D01*
X113406400Y-63927204D01*
X113395900Y-64029983D01*
X113395900Y-64416300D01*
X113376215Y-64483339D01*
X113323411Y-64529094D01*
X113271900Y-64540300D01*
X112116356Y-64540300D01*
X112049317Y-64520615D01*
X112043471Y-64516618D01*
X111960934Y-64456651D01*
X111960929Y-64456648D01*
X111788007Y-64379657D01*
X111788002Y-64379655D01*
X111620681Y-64344091D01*
X111602846Y-64340300D01*
X111413554Y-64340300D01*
X111395728Y-64344089D01*
X111228397Y-64379655D01*
X111228392Y-64379657D01*
X111055470Y-64456648D01*
X111055465Y-64456651D01*
X110902329Y-64567911D01*
X110775666Y-64708585D01*
X110681021Y-64872515D01*
X110681018Y-64872522D01*
X110622527Y-65052540D01*
X110622526Y-65052544D01*
X110602740Y-65240800D01*
X110622526Y-65429056D01*
X110622527Y-65429059D01*
X110681018Y-65609077D01*
X110681021Y-65609084D01*
X110775667Y-65773016D01*
X110902329Y-65913688D01*
X111055465Y-66024948D01*
X111055470Y-66024951D01*
X111228392Y-66101942D01*
X111228397Y-66101944D01*
X111413554Y-66141300D01*
X111413555Y-66141300D01*
X111602844Y-66141300D01*
X111602846Y-66141300D01*
X111788003Y-66101944D01*
X111960930Y-66024951D01*
X111996193Y-65999331D01*
X112043471Y-65964982D01*
X112109277Y-65941502D01*
X112116356Y-65941300D01*
X112750500Y-65941300D01*
X112817539Y-65960985D01*
X112863294Y-66013789D01*
X112874500Y-66065300D01*
X112874500Y-66625500D01*
X112854815Y-66692539D01*
X112802011Y-66738294D01*
X112750500Y-66749500D01*
X111949998Y-66749500D01*
X111949980Y-66749501D01*
X111847203Y-66760000D01*
X111847200Y-66760001D01*
X111680668Y-66815185D01*
X111680663Y-66815187D01*
X111531342Y-66907289D01*
X111407289Y-67031342D01*
X111315187Y-67180663D01*
X111315185Y-67180668D01*
X111296587Y-67236794D01*
X111260001Y-67347203D01*
X111260001Y-67347204D01*
X111260000Y-67347204D01*
X111249500Y-67449983D01*
X111249500Y-68486456D01*
X111229815Y-68553495D01*
X111177011Y-68599250D01*
X111107853Y-68609194D01*
X111044297Y-68580169D01*
X111007794Y-68525460D01*
X111006372Y-68521168D01*
X110959814Y-68380666D01*
X110867712Y-68231344D01*
X110743656Y-68107288D01*
X110594334Y-68015186D01*
X110427797Y-67960001D01*
X110427795Y-67960000D01*
X110325010Y-67949500D01*
X110000000Y-67949500D01*
X110000000Y-62023555D01*
X110840338Y-61183218D01*
X110901661Y-61149733D01*
X110928019Y-61146899D01*
X111210670Y-61146899D01*
X111210676Y-61146899D01*
X111311753Y-61136574D01*
X111475516Y-61082308D01*
X111622350Y-60991740D01*
X111631498Y-60982591D01*
X111692818Y-60949106D01*
X111762509Y-60954088D01*
G37*
G04 #@! TD.AperFunction*
G04 #@! TA.AperFunction,Conductor*
G36*
X103254594Y-57465864D02*
G01*
X103271428Y-57488577D01*
X103308137Y-57552160D01*
X103308139Y-57552163D01*
X103427764Y-57685021D01*
X103427767Y-57685023D01*
X103427770Y-57685026D01*
X103572407Y-57790112D01*
X103735733Y-57862829D01*
X103910609Y-57900000D01*
X103910610Y-57900000D01*
X104089389Y-57900000D01*
X104089391Y-57900000D01*
X104224719Y-57871235D01*
X104294386Y-57876551D01*
X104350120Y-57918688D01*
X104374225Y-57984268D01*
X104374500Y-57992525D01*
X104374500Y-59868090D01*
X104354815Y-59935129D01*
X104302011Y-59980884D01*
X104232853Y-59990828D01*
X104178987Y-59966228D01*
X104177487Y-59968294D01*
X104172231Y-59964475D01*
X104172230Y-59964474D01*
X104027593Y-59859388D01*
X103864267Y-59786671D01*
X103864265Y-59786670D01*
X103736594Y-59759533D01*
X103689391Y-59749500D01*
X103510609Y-59749500D01*
X103479954Y-59756015D01*
X103335733Y-59786670D01*
X103335728Y-59786672D01*
X103172408Y-59859388D01*
X103172403Y-59859390D01*
X103072885Y-59931695D01*
X103007079Y-59955175D01*
X102939025Y-59939349D01*
X102927114Y-59931695D01*
X102839570Y-59868090D01*
X102827593Y-59859388D01*
X102664267Y-59786671D01*
X102664265Y-59786670D01*
X102536594Y-59759533D01*
X102489391Y-59749500D01*
X102310609Y-59749500D01*
X102185824Y-59776023D01*
X102149295Y-59783788D01*
X102079628Y-59778471D01*
X102023895Y-59736333D01*
X101999790Y-59670753D01*
X102009429Y-59617233D01*
X102008964Y-59617089D01*
X102010127Y-59613355D01*
X102010444Y-59611598D01*
X102011194Y-59609932D01*
X102013020Y-59599965D01*
X102019048Y-59578340D01*
X102022640Y-59568872D01*
X102028810Y-59518050D01*
X102056430Y-59453873D01*
X102086812Y-59427456D01*
X102098350Y-59420340D01*
X102220340Y-59298350D01*
X102310908Y-59151516D01*
X102365174Y-58987753D01*
X102375500Y-58886677D01*
X102375499Y-58332261D01*
X102395183Y-58265223D01*
X102447987Y-58219468D01*
X102461189Y-58214328D01*
X102464251Y-58213332D01*
X102464267Y-58213329D01*
X102627593Y-58140612D01*
X102772230Y-58035526D01*
X102772953Y-58034724D01*
X102810948Y-57992525D01*
X102891859Y-57902665D01*
X102981250Y-57747835D01*
X103036497Y-57577803D01*
X103040721Y-57537611D01*
X103067304Y-57473001D01*
X103124601Y-57433015D01*
X103194420Y-57430355D01*
X103254594Y-57465864D01*
G37*
G04 #@! TD.AperFunction*
G04 #@! TA.AperFunction,Conductor*
G36*
X94205203Y-46946306D02*
G01*
X94211681Y-46952338D01*
X94513181Y-47253838D01*
X94546666Y-47315161D01*
X94549500Y-47341519D01*
X94549500Y-52726951D01*
X94549387Y-52730696D01*
X94545642Y-52792603D01*
X94545642Y-52792605D01*
X94556821Y-52853612D01*
X94557384Y-52857313D01*
X94564859Y-52918870D01*
X94564860Y-52918874D01*
X94568451Y-52928343D01*
X94574474Y-52949946D01*
X94576304Y-52959930D01*
X94601759Y-53016490D01*
X94603189Y-53019941D01*
X94625182Y-53077930D01*
X94625183Y-53077931D01*
X94630936Y-53086266D01*
X94641961Y-53105813D01*
X94646120Y-53115055D01*
X94646124Y-53115060D01*
X94684371Y-53163878D01*
X94686591Y-53166896D01*
X94721812Y-53217924D01*
X94721816Y-53217928D01*
X94721817Y-53217929D01*
X94768250Y-53259064D01*
X94770941Y-53261598D01*
X95571300Y-54061957D01*
X95604785Y-54123280D01*
X95599801Y-54192972D01*
X95557929Y-54248905D01*
X95556506Y-54249955D01*
X95519128Y-54277112D01*
X95392466Y-54417785D01*
X95297821Y-54581715D01*
X95297818Y-54581722D01*
X95247858Y-54735485D01*
X95239326Y-54761744D01*
X95219540Y-54950000D01*
X95239326Y-55138256D01*
X95239327Y-55138259D01*
X95297818Y-55318277D01*
X95297821Y-55318284D01*
X95392466Y-55482215D01*
X95392648Y-55482417D01*
X95392716Y-55482559D01*
X95396285Y-55487471D01*
X95395386Y-55488123D01*
X95422879Y-55545408D01*
X95424500Y-55565391D01*
X95424500Y-57000000D01*
X94000000Y-57000000D01*
X94000000Y-47040019D01*
X94019685Y-46972980D01*
X94072489Y-46927225D01*
X94141647Y-46917281D01*
X94205203Y-46946306D01*
G37*
G04 #@! TD.AperFunction*
G04 #@! TA.AperFunction,Conductor*
G36*
X102274809Y-44845185D02*
G01*
X102295451Y-44861819D01*
X102572022Y-45138390D01*
X102603821Y-45192896D01*
X102626886Y-45275967D01*
X102626887Y-45275968D01*
X102626888Y-45275973D01*
X102680707Y-45377488D01*
X102694441Y-45422316D01*
X102700908Y-45482483D01*
X102751202Y-45617328D01*
X102751206Y-45617335D01*
X102837452Y-45732544D01*
X102837455Y-45732547D01*
X102952664Y-45818793D01*
X102952671Y-45818797D01*
X102997618Y-45835561D01*
X103087517Y-45869091D01*
X103147127Y-45875500D01*
X103742872Y-45875499D01*
X103802483Y-45869091D01*
X103802488Y-45869089D01*
X103898396Y-45833318D01*
X103941729Y-45825500D01*
X104218271Y-45825500D01*
X104261604Y-45833318D01*
X104357517Y-45869091D01*
X104417127Y-45875500D01*
X105012872Y-45875499D01*
X105072483Y-45869091D01*
X105072488Y-45869089D01*
X105168396Y-45833318D01*
X105211729Y-45825500D01*
X105248100Y-45825500D01*
X105315139Y-45845185D01*
X105360894Y-45897989D01*
X105372100Y-45949500D01*
X105372100Y-47404208D01*
X105352415Y-47471247D01*
X105340256Y-47487174D01*
X105340068Y-47487382D01*
X105340064Y-47487387D01*
X105245421Y-47651315D01*
X105245418Y-47651322D01*
X105186927Y-47831340D01*
X105186926Y-47831344D01*
X105167140Y-48019600D01*
X105186926Y-48207856D01*
X105186927Y-48207859D01*
X105245418Y-48387877D01*
X105245421Y-48387884D01*
X105340067Y-48551816D01*
X105466729Y-48692488D01*
X105619865Y-48803748D01*
X105619870Y-48803751D01*
X105792792Y-48880742D01*
X105792797Y-48880744D01*
X105977954Y-48920100D01*
X105977955Y-48920100D01*
X106167244Y-48920100D01*
X106167246Y-48920100D01*
X106352403Y-48880744D01*
X106380063Y-48868428D01*
X106449311Y-48859142D01*
X106512588Y-48888769D01*
X106549803Y-48947903D01*
X106554500Y-48981707D01*
X106554500Y-51028480D01*
X106534815Y-51095519D01*
X106518181Y-51116161D01*
X103520966Y-54113375D01*
X103518240Y-54115942D01*
X103471818Y-54157068D01*
X103436586Y-54208109D01*
X103434368Y-54211124D01*
X103396124Y-54259939D01*
X103396119Y-54259948D01*
X103391960Y-54269188D01*
X103380942Y-54288723D01*
X103375187Y-54297061D01*
X103375183Y-54297067D01*
X103375182Y-54297070D01*
X103375180Y-54297074D01*
X103375179Y-54297077D01*
X103353189Y-54355055D01*
X103351757Y-54358513D01*
X103326305Y-54415068D01*
X103324477Y-54425042D01*
X103318453Y-54446653D01*
X103314860Y-54456127D01*
X103314859Y-54456128D01*
X103307384Y-54517685D01*
X103306821Y-54521386D01*
X103295642Y-54582390D01*
X103295642Y-54582395D01*
X103296974Y-54604419D01*
X103281373Y-54672525D01*
X103231428Y-54721385D01*
X103162996Y-54735485D01*
X103100315Y-54712224D01*
X103027593Y-54659388D01*
X102864267Y-54586671D01*
X102864265Y-54586670D01*
X102736594Y-54559533D01*
X102689391Y-54549500D01*
X102510609Y-54549500D01*
X102479954Y-54556015D01*
X102335733Y-54586670D01*
X102335728Y-54586672D01*
X102172408Y-54659387D01*
X102027768Y-54764475D01*
X101908140Y-54897336D01*
X101818750Y-55052164D01*
X101818747Y-55052170D01*
X101761495Y-55228377D01*
X101758752Y-55227485D01*
X101731433Y-55277907D01*
X101731148Y-55278193D01*
X101334633Y-55674710D01*
X100607181Y-56402162D01*
X100545858Y-56435647D01*
X100476166Y-56430663D01*
X100420233Y-56388791D01*
X100395816Y-56323327D01*
X100395500Y-56314481D01*
X100395500Y-56164943D01*
X100386183Y-56127147D01*
X100384832Y-56119773D01*
X100380140Y-56081130D01*
X100380140Y-56081128D01*
X100366329Y-56044712D01*
X100364110Y-56037590D01*
X100354790Y-55999775D01*
X100336687Y-55965283D01*
X100333627Y-55958484D01*
X100319818Y-55922070D01*
X100297694Y-55890018D01*
X100293823Y-55883614D01*
X100275736Y-55849151D01*
X100275732Y-55849145D01*
X100261150Y-55832685D01*
X100249916Y-55820005D01*
X100245299Y-55814111D01*
X100223185Y-55782073D01*
X100223183Y-55782071D01*
X100194037Y-55756250D01*
X100188748Y-55750961D01*
X100178563Y-55739465D01*
X100170210Y-55730035D01*
X100140490Y-55666802D01*
X100139706Y-55660770D01*
X100135674Y-55622408D01*
X100135674Y-55622406D01*
X100135672Y-55622401D01*
X100095141Y-55497659D01*
X100077181Y-55442382D01*
X100077178Y-55442376D01*
X99982535Y-55278448D01*
X99982531Y-55278443D01*
X99982344Y-55278235D01*
X99982273Y-55278088D01*
X99978714Y-55273189D01*
X99979610Y-55272537D01*
X99952119Y-55215241D01*
X99950500Y-55195269D01*
X99950500Y-45999499D01*
X99970185Y-45932460D01*
X100022989Y-45886705D01*
X100074500Y-45875499D01*
X100202871Y-45875499D01*
X100202872Y-45875499D01*
X100262483Y-45869091D01*
X100397331Y-45818796D01*
X100512546Y-45732546D01*
X100598796Y-45617331D01*
X100649091Y-45482483D01*
X100655500Y-45422873D01*
X100655499Y-44949499D01*
X100675183Y-44882461D01*
X100727987Y-44836706D01*
X100779499Y-44825500D01*
X102207770Y-44825500D01*
X102274809Y-44845185D01*
G37*
G04 #@! TD.AperFunction*
G04 #@! TA.AperFunction,Conductor*
G36*
X124028139Y-22202166D02*
G01*
X124073894Y-22254970D01*
X124085100Y-22306481D01*
X124085100Y-41049488D01*
X124065415Y-41116527D01*
X124012611Y-41162282D01*
X123961532Y-41173487D01*
X116013569Y-41201176D01*
X115561729Y-41202751D01*
X115472855Y-41210940D01*
X115472851Y-41210940D01*
X115472848Y-41210941D01*
X115434172Y-41217990D01*
X115411940Y-41219999D01*
X114887539Y-41219999D01*
X114880914Y-41219643D01*
X114877412Y-41219267D01*
X114872701Y-41218760D01*
X114868433Y-41218150D01*
X114842118Y-41213449D01*
X114751441Y-41205572D01*
X114289196Y-41207184D01*
X114279754Y-41207217D01*
X114230578Y-41211750D01*
X114190837Y-41215413D01*
X114190833Y-41215414D01*
X114182146Y-41216997D01*
X114177657Y-41217647D01*
X114159092Y-41219643D01*
X114152457Y-41219999D01*
X113617537Y-41219999D01*
X113610920Y-41219644D01*
X113604091Y-41218910D01*
X113600192Y-41218490D01*
X113598716Y-41218278D01*
X113556646Y-41213449D01*
X113540078Y-41211547D01*
X113510343Y-41209897D01*
X113510339Y-41209897D01*
X113084697Y-41211379D01*
X112978286Y-41211750D01*
X112971066Y-41212189D01*
X112949404Y-41213506D01*
X112949402Y-41213506D01*
X112935978Y-41215095D01*
X112930917Y-41215485D01*
X112926180Y-41215655D01*
X112889078Y-41219644D01*
X112882447Y-41219999D01*
X112717980Y-41219999D01*
X112690941Y-41221448D01*
X112690933Y-41221448D01*
X112690930Y-41221449D01*
X112690929Y-41221449D01*
X112651121Y-41225730D01*
X112597711Y-41234384D01*
X112597709Y-41234384D01*
X112462904Y-41284665D01*
X112401576Y-41318152D01*
X112291465Y-41400579D01*
X112226001Y-41424995D01*
X112157728Y-41410143D01*
X112108323Y-41360737D01*
X112093472Y-41292464D01*
X112093861Y-41288113D01*
X112095500Y-41272873D01*
X112095499Y-40327128D01*
X112089091Y-40267517D01*
X112038796Y-40132669D01*
X111995233Y-40074476D01*
X111970816Y-40009011D01*
X111970500Y-40000165D01*
X111970500Y-37865451D01*
X111990185Y-37798412D01*
X112006814Y-37777774D01*
X113183786Y-36600802D01*
X113196048Y-36590980D01*
X113195865Y-36590759D01*
X113201870Y-36585789D01*
X113201877Y-36585786D01*
X113245233Y-36539615D01*
X113305474Y-36504221D01*
X113335626Y-36500499D01*
X114047871Y-36500499D01*
X114047872Y-36500499D01*
X114107483Y-36494091D01*
X114242331Y-36443796D01*
X114357546Y-36357546D01*
X114443796Y-36242331D01*
X114494091Y-36107483D01*
X114500500Y-36047873D01*
X114500499Y-33452128D01*
X114494091Y-33392517D01*
X114470584Y-33329492D01*
X114443797Y-33257671D01*
X114443793Y-33257664D01*
X114357547Y-33142455D01*
X114357544Y-33142452D01*
X114242335Y-33056206D01*
X114242328Y-33056202D01*
X114107482Y-33005908D01*
X114107483Y-33005908D01*
X114047883Y-32999501D01*
X114047881Y-32999500D01*
X114047873Y-32999500D01*
X114047864Y-32999500D01*
X111452129Y-32999500D01*
X111452123Y-32999501D01*
X111392516Y-33005908D01*
X111257671Y-33056202D01*
X111257664Y-33056206D01*
X111142455Y-33142452D01*
X111142452Y-33142455D01*
X111056206Y-33257664D01*
X111056202Y-33257671D01*
X111005908Y-33392517D01*
X110999501Y-33452116D01*
X110999501Y-33452123D01*
X110999500Y-33452135D01*
X110999500Y-36047870D01*
X110999501Y-36047876D01*
X111005908Y-36107483D01*
X111056202Y-36242328D01*
X111056206Y-36242335D01*
X111142452Y-36357544D01*
X111142455Y-36357547D01*
X111257664Y-36443793D01*
X111257673Y-36443798D01*
X111305543Y-36461652D01*
X111361477Y-36503522D01*
X111385895Y-36568986D01*
X111371044Y-36637259D01*
X111349892Y-36665515D01*
X110961208Y-37054199D01*
X110948951Y-37064020D01*
X110949134Y-37064241D01*
X110943123Y-37069213D01*
X110895772Y-37119636D01*
X110874889Y-37140519D01*
X110874877Y-37140532D01*
X110870621Y-37146017D01*
X110866837Y-37150447D01*
X110834937Y-37184418D01*
X110834936Y-37184420D01*
X110825284Y-37201976D01*
X110814610Y-37218226D01*
X110802329Y-37234061D01*
X110802324Y-37234068D01*
X110783815Y-37276838D01*
X110781245Y-37282084D01*
X110758803Y-37322906D01*
X110753822Y-37342307D01*
X110747521Y-37360710D01*
X110739562Y-37379102D01*
X110739561Y-37379105D01*
X110732271Y-37425127D01*
X110731087Y-37430846D01*
X110719501Y-37475972D01*
X110719500Y-37475982D01*
X110719500Y-37496016D01*
X110717973Y-37515415D01*
X110714840Y-37535194D01*
X110714840Y-37535195D01*
X110719225Y-37581583D01*
X110719500Y-37587421D01*
X110719500Y-40000165D01*
X110699815Y-40067204D01*
X110694767Y-40074476D01*
X110651204Y-40132668D01*
X110651202Y-40132671D01*
X110600908Y-40267516D01*
X110599126Y-40275061D01*
X110596997Y-40274557D01*
X110574516Y-40328822D01*
X110565650Y-40338691D01*
X109237181Y-41667161D01*
X109175858Y-41700646D01*
X109106166Y-41695662D01*
X109050233Y-41653790D01*
X109025816Y-41588326D01*
X109025500Y-41579480D01*
X109025500Y-38810452D01*
X109045185Y-38743413D01*
X109061819Y-38722771D01*
X109516684Y-38267906D01*
X109983788Y-37800801D01*
X109996042Y-37790986D01*
X109995859Y-37790764D01*
X110001866Y-37785792D01*
X110001877Y-37785786D01*
X110040648Y-37744499D01*
X110049227Y-37735364D01*
X110059671Y-37724918D01*
X110070120Y-37714471D01*
X110074379Y-37708978D01*
X110078152Y-37704561D01*
X110110062Y-37670582D01*
X110119713Y-37653024D01*
X110130396Y-37636761D01*
X110142673Y-37620936D01*
X110161185Y-37578153D01*
X110163738Y-37572941D01*
X110186197Y-37532092D01*
X110191180Y-37512680D01*
X110197481Y-37494280D01*
X110205437Y-37475896D01*
X110212729Y-37429852D01*
X110213906Y-37424171D01*
X110225500Y-37379019D01*
X110225500Y-37358983D01*
X110227027Y-37339582D01*
X110230160Y-37319804D01*
X110225775Y-37273415D01*
X110225500Y-37267577D01*
X110225500Y-33610451D01*
X110245185Y-33543412D01*
X110261814Y-33522775D01*
X111997771Y-31786817D01*
X112059094Y-31753333D01*
X112085452Y-31750499D01*
X114047871Y-31750499D01*
X114047872Y-31750499D01*
X114107483Y-31744091D01*
X114242331Y-31693796D01*
X114357546Y-31607546D01*
X114443796Y-31492331D01*
X114494091Y-31357483D01*
X114500500Y-31297873D01*
X114500499Y-28702128D01*
X114494091Y-28642517D01*
X114443796Y-28507669D01*
X114443795Y-28507668D01*
X114443793Y-28507664D01*
X114357547Y-28392455D01*
X114357544Y-28392452D01*
X114242335Y-28306206D01*
X114242328Y-28306202D01*
X114107482Y-28255908D01*
X114107483Y-28255908D01*
X114047883Y-28249501D01*
X114047881Y-28249500D01*
X114047873Y-28249500D01*
X114047864Y-28249500D01*
X111452129Y-28249500D01*
X111452123Y-28249501D01*
X111392516Y-28255908D01*
X111257671Y-28306202D01*
X111257664Y-28306206D01*
X111142455Y-28392452D01*
X111142452Y-28392455D01*
X111056206Y-28507664D01*
X111056202Y-28507671D01*
X111005908Y-28642517D01*
X110999501Y-28702116D01*
X110999501Y-28702123D01*
X110999500Y-28702135D01*
X110999500Y-30964546D01*
X110979815Y-31031585D01*
X110963181Y-31052227D01*
X109216208Y-32799199D01*
X109203951Y-32809020D01*
X109204134Y-32809241D01*
X109198123Y-32814213D01*
X109150772Y-32864636D01*
X109129889Y-32885519D01*
X109129877Y-32885532D01*
X109125621Y-32891017D01*
X109121837Y-32895447D01*
X109089937Y-32929418D01*
X109089936Y-32929420D01*
X109080284Y-32946976D01*
X109069610Y-32963226D01*
X109057329Y-32979061D01*
X109057324Y-32979068D01*
X109038815Y-33021838D01*
X109036245Y-33027084D01*
X109013803Y-33067906D01*
X109008822Y-33087307D01*
X109002521Y-33105710D01*
X108994562Y-33124102D01*
X108994561Y-33124105D01*
X108987271Y-33170127D01*
X108986087Y-33175846D01*
X108974501Y-33220972D01*
X108974500Y-33220982D01*
X108974500Y-33241016D01*
X108972973Y-33260415D01*
X108969840Y-33280194D01*
X108969840Y-33280195D01*
X108974225Y-33326583D01*
X108974500Y-33332421D01*
X108974500Y-36989546D01*
X108954815Y-37056585D01*
X108938181Y-37077227D01*
X108016208Y-37999199D01*
X108003951Y-38009020D01*
X108004134Y-38009241D01*
X107998123Y-38014213D01*
X107950772Y-38064636D01*
X107929889Y-38085519D01*
X107929877Y-38085532D01*
X107925621Y-38091017D01*
X107921837Y-38095447D01*
X107889937Y-38129418D01*
X107889936Y-38129420D01*
X107880284Y-38146976D01*
X107869610Y-38163226D01*
X107857329Y-38179061D01*
X107857324Y-38179068D01*
X107838815Y-38221838D01*
X107836245Y-38227084D01*
X107813803Y-38267906D01*
X107808822Y-38287307D01*
X107802521Y-38305710D01*
X107794562Y-38324102D01*
X107794561Y-38324105D01*
X107787271Y-38370127D01*
X107786087Y-38375846D01*
X107774501Y-38420972D01*
X107774500Y-38420982D01*
X107774500Y-38441016D01*
X107772973Y-38460415D01*
X107769840Y-38480194D01*
X107769840Y-38480195D01*
X107774225Y-38526583D01*
X107774500Y-38532421D01*
X107774500Y-42789546D01*
X107754815Y-42856585D01*
X107738181Y-42877227D01*
X106901727Y-43713681D01*
X106840404Y-43747166D01*
X106814046Y-43750000D01*
X103357730Y-43750000D01*
X103290691Y-43730315D01*
X103270049Y-43713681D01*
X103145729Y-43589361D01*
X103133949Y-43575730D01*
X103126482Y-43565701D01*
X103119612Y-43556472D01*
X103119610Y-43556470D01*
X103079587Y-43522886D01*
X103075612Y-43519244D01*
X103072690Y-43516322D01*
X103069780Y-43513411D01*
X103044040Y-43493059D01*
X102985209Y-43443694D01*
X102979180Y-43439729D01*
X102979212Y-43439680D01*
X102972853Y-43435628D01*
X102972822Y-43435679D01*
X102966680Y-43431891D01*
X102966678Y-43431890D01*
X102966677Y-43431889D01*
X102927474Y-43413608D01*
X102897058Y-43399424D01*
X102862894Y-43382267D01*
X102828433Y-43364960D01*
X102828431Y-43364959D01*
X102828430Y-43364959D01*
X102821645Y-43362489D01*
X102821665Y-43362433D01*
X102814549Y-43359959D01*
X102814531Y-43360015D01*
X102807671Y-43357742D01*
X102779841Y-43351996D01*
X102732434Y-43342207D01*
X102683472Y-43330603D01*
X102657719Y-43324499D01*
X102650547Y-43323661D01*
X102650553Y-43323601D01*
X102643055Y-43322835D01*
X102643050Y-43322895D01*
X102635860Y-43322265D01*
X102559083Y-43324500D01*
X102174000Y-43324500D01*
X102106961Y-43304815D01*
X102061206Y-43252011D01*
X102050000Y-43200500D01*
X102050000Y-26547844D01*
X111000000Y-26547844D01*
X111006401Y-26607372D01*
X111006403Y-26607379D01*
X111056645Y-26742086D01*
X111056649Y-26742093D01*
X111142809Y-26857187D01*
X111142812Y-26857190D01*
X111257906Y-26943350D01*
X111257913Y-26943354D01*
X111392620Y-26993596D01*
X111392627Y-26993598D01*
X111452155Y-26999999D01*
X111452172Y-27000000D01*
X112500000Y-27000000D01*
X112500000Y-25795881D01*
X112593369Y-25834556D01*
X112710677Y-25850000D01*
X112789323Y-25850000D01*
X112906631Y-25834556D01*
X113000000Y-25795881D01*
X113000000Y-27000000D01*
X114047828Y-27000000D01*
X114047844Y-26999999D01*
X114107372Y-26993598D01*
X114107379Y-26993596D01*
X114242086Y-26943354D01*
X114242093Y-26943350D01*
X114357187Y-26857190D01*
X114357190Y-26857187D01*
X114443350Y-26742093D01*
X114443354Y-26742086D01*
X114493596Y-26607379D01*
X114493598Y-26607372D01*
X114499999Y-26547844D01*
X114500000Y-26547827D01*
X114500000Y-25500000D01*
X113295882Y-25500000D01*
X113334556Y-25406631D01*
X113355177Y-25250000D01*
X113334556Y-25093369D01*
X113295882Y-25000000D01*
X114500000Y-25000000D01*
X114500000Y-23952172D01*
X114499999Y-23952155D01*
X114493598Y-23892627D01*
X114493596Y-23892620D01*
X114443354Y-23757913D01*
X114443350Y-23757906D01*
X114357190Y-23642812D01*
X114357187Y-23642809D01*
X114242093Y-23556649D01*
X114242086Y-23556645D01*
X114107379Y-23506403D01*
X114107372Y-23506401D01*
X114047844Y-23500000D01*
X113000000Y-23500000D01*
X113000000Y-24704118D01*
X112906631Y-24665444D01*
X112789323Y-24650000D01*
X112710677Y-24650000D01*
X112593369Y-24665444D01*
X112500000Y-24704118D01*
X112500000Y-23500000D01*
X111452155Y-23500000D01*
X111392627Y-23506401D01*
X111392620Y-23506403D01*
X111257913Y-23556645D01*
X111257906Y-23556649D01*
X111142812Y-23642809D01*
X111142809Y-23642812D01*
X111056649Y-23757906D01*
X111056645Y-23757913D01*
X111006403Y-23892620D01*
X111006401Y-23892627D01*
X111000000Y-23952155D01*
X111000000Y-25000000D01*
X112204118Y-25000000D01*
X112165444Y-25093369D01*
X112144823Y-25250000D01*
X112165444Y-25406631D01*
X112204118Y-25500000D01*
X111000000Y-25500000D01*
X111000000Y-26547844D01*
X102050000Y-26547844D01*
X102050000Y-22306481D01*
X102069685Y-22239442D01*
X102122489Y-22193687D01*
X102174000Y-22182481D01*
X123961100Y-22182481D01*
X124028139Y-22202166D01*
G37*
G04 #@! TD.AperFunction*
G04 #@! TA.AperFunction,Conductor*
G36*
X98022273Y-70670185D02*
G01*
X98068028Y-70722989D01*
X98073165Y-70736182D01*
X98082618Y-70765278D01*
X98082621Y-70765284D01*
X98177267Y-70929216D01*
X98303929Y-71069888D01*
X98457065Y-71181148D01*
X98457070Y-71181151D01*
X98629992Y-71258142D01*
X98629993Y-71258142D01*
X98629997Y-71258144D01*
X98776280Y-71289237D01*
X98837762Y-71322429D01*
X98871539Y-71383592D01*
X98874500Y-71410527D01*
X98874500Y-71761669D01*
X98874501Y-71761687D01*
X98884825Y-71862752D01*
X98908131Y-71933082D01*
X98939092Y-72026516D01*
X99029660Y-72173350D01*
X99151650Y-72295340D01*
X99298484Y-72385908D01*
X99462247Y-72440174D01*
X99563323Y-72450500D01*
X100136676Y-72450499D01*
X100136684Y-72450498D01*
X100136687Y-72450498D01*
X100192030Y-72444844D01*
X100237753Y-72440174D01*
X100401516Y-72385908D01*
X100548350Y-72295340D01*
X100615073Y-72228616D01*
X100676392Y-72195134D01*
X100746084Y-72200118D01*
X100802018Y-72241989D01*
X100808285Y-72251195D01*
X100829660Y-72285850D01*
X100951650Y-72407840D01*
X101098484Y-72498408D01*
X101103288Y-72500000D01*
X98868690Y-72500000D01*
X98823350Y-72454660D01*
X98676516Y-72364092D01*
X98512753Y-72309826D01*
X98512751Y-72309825D01*
X98411678Y-72299500D01*
X97838330Y-72299500D01*
X97838312Y-72299501D01*
X97737247Y-72309825D01*
X97573484Y-72364092D01*
X97573481Y-72364093D01*
X97500000Y-72409417D01*
X97500000Y-70650500D01*
X97955234Y-70650500D01*
X98022273Y-70670185D01*
G37*
G04 #@! TD.AperFunction*
G04 #@! TA.AperFunction,Conductor*
G36*
X102555834Y-72302870D02*
G01*
X102600181Y-72331371D01*
X102676650Y-72407840D01*
X102823484Y-72498408D01*
X102828288Y-72500000D01*
X102196712Y-72500000D01*
X102201516Y-72498408D01*
X102348350Y-72407840D01*
X102424819Y-72331371D01*
X102486142Y-72297886D01*
X102555834Y-72302870D01*
G37*
G04 #@! TD.AperFunction*
G04 #@! TA.AperFunction,Conductor*
G36*
X104555702Y-71244705D02*
G01*
X104562180Y-71250737D01*
X105811444Y-72500000D01*
X103921712Y-72500000D01*
X103926516Y-72498408D01*
X104073350Y-72407840D01*
X104195340Y-72285850D01*
X104285908Y-72139016D01*
X104340174Y-71975253D01*
X104350500Y-71874177D01*
X104350499Y-71338417D01*
X104370183Y-71271379D01*
X104422987Y-71225624D01*
X104492146Y-71215680D01*
X104555702Y-71244705D01*
G37*
G04 #@! TD.AperFunction*
G04 #@! TA.AperFunction,Conductor*
G36*
X110000000Y-71857400D02*
G01*
X109443852Y-71857400D01*
X109376813Y-71837715D01*
X109356171Y-71821081D01*
X109260151Y-71725061D01*
X109260150Y-71725060D01*
X109113316Y-71634492D01*
X108949553Y-71580226D01*
X108949551Y-71580225D01*
X108848484Y-71569900D01*
X108848477Y-71569900D01*
X108615819Y-71569900D01*
X108548780Y-71550215D01*
X108528138Y-71533581D01*
X108342837Y-71348280D01*
X108309352Y-71286957D01*
X108314336Y-71217265D01*
X108342833Y-71172923D01*
X109353938Y-70161817D01*
X109415261Y-70128333D01*
X109441619Y-70125499D01*
X110000000Y-70125499D01*
X110000000Y-71857400D01*
G37*
G04 #@! TD.AperFunction*
G04 #@! TA.AperFunction,Conductor*
G36*
X110000000Y-67949500D02*
G01*
X109274998Y-67949500D01*
X109274980Y-67949501D01*
X109172203Y-67960000D01*
X109172200Y-67960001D01*
X109005668Y-68015185D01*
X109005663Y-68015187D01*
X108856342Y-68107289D01*
X108732289Y-68231342D01*
X108640187Y-68380663D01*
X108640186Y-68380666D01*
X108585001Y-68547203D01*
X108585001Y-68547204D01*
X108585000Y-68547204D01*
X108574500Y-68649983D01*
X108574500Y-68908580D01*
X108554815Y-68975619D01*
X108538181Y-68996261D01*
X107010662Y-70523781D01*
X106949339Y-70557266D01*
X106922981Y-70560100D01*
X106831433Y-70560100D01*
X106764394Y-70540415D01*
X106743752Y-70523781D01*
X105631819Y-69411848D01*
X105598334Y-69350525D01*
X105595500Y-69324167D01*
X105595500Y-68954326D01*
X105595499Y-68954304D01*
X105595499Y-68402129D01*
X105595498Y-68402123D01*
X105593191Y-68380663D01*
X105589091Y-68342517D01*
X105547625Y-68231342D01*
X105538797Y-68207671D01*
X105538793Y-68207664D01*
X105452547Y-68092455D01*
X105452544Y-68092452D01*
X105337335Y-68006206D01*
X105337328Y-68006202D01*
X105202486Y-67955910D01*
X105202485Y-67955909D01*
X105202483Y-67955909D01*
X105142873Y-67949500D01*
X105142863Y-67949500D01*
X104647129Y-67949500D01*
X104647120Y-67949501D01*
X104583248Y-67956367D01*
X104556742Y-67956367D01*
X104552483Y-67955909D01*
X104492873Y-67949500D01*
X104492864Y-67949500D01*
X103997129Y-67949500D01*
X103997123Y-67949501D01*
X103937516Y-67955908D01*
X103802671Y-68006202D01*
X103802664Y-68006206D01*
X103687455Y-68092452D01*
X103682681Y-68097227D01*
X103621358Y-68130712D01*
X103551666Y-68125728D01*
X103507319Y-68097227D01*
X103502544Y-68092452D01*
X103387335Y-68006206D01*
X103387328Y-68006202D01*
X103252486Y-67955910D01*
X103252485Y-67955909D01*
X103252483Y-67955909D01*
X103192873Y-67949500D01*
X103192863Y-67949500D01*
X102697129Y-67949500D01*
X102697120Y-67949501D01*
X102633248Y-67956367D01*
X102606742Y-67956367D01*
X102602483Y-67955909D01*
X102542873Y-67949500D01*
X102542864Y-67949500D01*
X102047129Y-67949500D01*
X102047120Y-67949501D01*
X101983248Y-67956367D01*
X101956742Y-67956367D01*
X101952483Y-67955909D01*
X101892873Y-67949500D01*
X101892864Y-67949500D01*
X101397129Y-67949500D01*
X101397120Y-67949501D01*
X101333248Y-67956367D01*
X101306742Y-67956367D01*
X101302483Y-67955909D01*
X101242873Y-67949500D01*
X101242864Y-67949500D01*
X100747129Y-67949500D01*
X100747123Y-67949501D01*
X100687516Y-67955908D01*
X100552671Y-68006202D01*
X100552664Y-68006206D01*
X100437455Y-68092452D01*
X100432681Y-68097227D01*
X100371358Y-68130712D01*
X100301666Y-68125728D01*
X100257319Y-68097227D01*
X100252544Y-68092452D01*
X100137335Y-68006206D01*
X100137328Y-68006202D01*
X100002486Y-67955910D01*
X100002485Y-67955909D01*
X100002483Y-67955909D01*
X99942873Y-67949500D01*
X99942863Y-67949500D01*
X99447129Y-67949500D01*
X99447120Y-67949501D01*
X99383248Y-67956367D01*
X99356742Y-67956367D01*
X99352483Y-67955909D01*
X99292873Y-67949500D01*
X99292864Y-67949500D01*
X98797129Y-67949500D01*
X98797120Y-67949501D01*
X98733248Y-67956367D01*
X98706742Y-67956367D01*
X98702483Y-67955909D01*
X98642873Y-67949500D01*
X98642864Y-67949500D01*
X98147129Y-67949500D01*
X98147120Y-67949501D01*
X98083248Y-67956367D01*
X98056742Y-67956367D01*
X98052483Y-67955909D01*
X97992873Y-67949500D01*
X97992864Y-67949500D01*
X97500000Y-67949500D01*
X97500000Y-64350499D01*
X97992872Y-64350499D01*
X98052483Y-64344091D01*
X98052486Y-64344089D01*
X98056744Y-64343632D01*
X98083254Y-64343632D01*
X98087514Y-64344089D01*
X98087517Y-64344091D01*
X98147127Y-64350500D01*
X98642872Y-64350499D01*
X98702483Y-64344091D01*
X98702486Y-64344089D01*
X98706744Y-64343632D01*
X98733254Y-64343632D01*
X98737514Y-64344089D01*
X98737517Y-64344091D01*
X98797127Y-64350500D01*
X99292872Y-64350499D01*
X99352483Y-64344091D01*
X99352486Y-64344089D01*
X99356744Y-64343632D01*
X99383254Y-64343632D01*
X99387514Y-64344089D01*
X99387517Y-64344091D01*
X99447127Y-64350500D01*
X99942872Y-64350499D01*
X100002483Y-64344091D01*
X100002486Y-64344089D01*
X100006744Y-64343632D01*
X100033254Y-64343632D01*
X100037514Y-64344089D01*
X100037517Y-64344091D01*
X100097127Y-64350500D01*
X100592872Y-64350499D01*
X100652483Y-64344091D01*
X100652486Y-64344089D01*
X100656744Y-64343632D01*
X100683254Y-64343632D01*
X100687514Y-64344089D01*
X100687517Y-64344091D01*
X100747127Y-64350500D01*
X101242872Y-64350499D01*
X101302483Y-64344091D01*
X101437331Y-64293796D01*
X101552546Y-64207546D01*
X101552548Y-64207542D01*
X101557319Y-64202773D01*
X101618642Y-64169288D01*
X101688334Y-64174272D01*
X101732681Y-64202773D01*
X101737455Y-64207547D01*
X101852664Y-64293793D01*
X101852671Y-64293797D01*
X101897618Y-64310561D01*
X101987517Y-64344091D01*
X102047127Y-64350500D01*
X102542872Y-64350499D01*
X102602483Y-64344091D01*
X102602486Y-64344089D01*
X102606744Y-64343632D01*
X102633254Y-64343632D01*
X102637514Y-64344089D01*
X102637517Y-64344091D01*
X102697127Y-64350500D01*
X103192872Y-64350499D01*
X103252483Y-64344091D01*
X103252486Y-64344089D01*
X103256744Y-64343632D01*
X103283254Y-64343632D01*
X103287514Y-64344089D01*
X103287517Y-64344091D01*
X103347127Y-64350500D01*
X103842872Y-64350499D01*
X103902483Y-64344091D01*
X103902486Y-64344089D01*
X103906744Y-64343632D01*
X103933254Y-64343632D01*
X103937514Y-64344089D01*
X103937517Y-64344091D01*
X103997127Y-64350500D01*
X104492872Y-64350499D01*
X104552483Y-64344091D01*
X104552486Y-64344089D01*
X104556744Y-64343632D01*
X104583254Y-64343632D01*
X104587514Y-64344089D01*
X104587517Y-64344091D01*
X104647127Y-64350500D01*
X105142872Y-64350499D01*
X105202483Y-64344091D01*
X105202486Y-64344089D01*
X105206744Y-64343632D01*
X105233254Y-64343632D01*
X105237514Y-64344089D01*
X105237517Y-64344091D01*
X105297127Y-64350500D01*
X105792872Y-64350499D01*
X105852483Y-64344091D01*
X105852486Y-64344089D01*
X105856744Y-64343632D01*
X105883254Y-64343632D01*
X105887514Y-64344089D01*
X105887517Y-64344091D01*
X105947127Y-64350500D01*
X106442872Y-64350499D01*
X106502483Y-64344091D01*
X106637331Y-64293796D01*
X106752546Y-64207546D01*
X106838796Y-64092331D01*
X106842960Y-64081165D01*
X106884829Y-64025234D01*
X106950293Y-64000816D01*
X106959141Y-64000500D01*
X107830448Y-64000500D01*
X107897487Y-64020185D01*
X107918129Y-64036819D01*
X107926650Y-64045340D01*
X108073484Y-64135908D01*
X108237247Y-64190174D01*
X108338323Y-64200500D01*
X108936676Y-64200499D01*
X108936684Y-64200498D01*
X108936687Y-64200498D01*
X108992030Y-64194844D01*
X109037753Y-64190174D01*
X109201516Y-64135908D01*
X109348350Y-64045340D01*
X109470340Y-63923350D01*
X109560908Y-63776516D01*
X109615174Y-63612753D01*
X109625500Y-63511677D01*
X109625499Y-62938324D01*
X109615174Y-62837247D01*
X109560908Y-62673484D01*
X109560904Y-62673477D01*
X109531946Y-62626528D01*
X109513506Y-62559135D01*
X109534429Y-62492472D01*
X109549799Y-62473756D01*
X110000000Y-62023556D01*
X110000000Y-67949500D01*
G37*
G04 #@! TD.AperFunction*
G04 #@! TA.AperFunction,Conductor*
G36*
X97047898Y-64020185D02*
G01*
X97093653Y-64072989D01*
X97097030Y-64081140D01*
X97101204Y-64092331D01*
X97101205Y-64092332D01*
X97101206Y-64092335D01*
X97187452Y-64207544D01*
X97187455Y-64207547D01*
X97302664Y-64293793D01*
X97302671Y-64293797D01*
X97347618Y-64310561D01*
X97437517Y-64344091D01*
X97497127Y-64350500D01*
X97992872Y-64350499D01*
X98052483Y-64344091D01*
X98052486Y-64344089D01*
X98056744Y-64343632D01*
X98083254Y-64343632D01*
X98087514Y-64344089D01*
X98087517Y-64344091D01*
X98147127Y-64350500D01*
X98642872Y-64350499D01*
X98702483Y-64344091D01*
X98702486Y-64344089D01*
X98706744Y-64343632D01*
X98733254Y-64343632D01*
X98737514Y-64344089D01*
X98737517Y-64344091D01*
X98797127Y-64350500D01*
X99292872Y-64350499D01*
X99352483Y-64344091D01*
X99352486Y-64344089D01*
X99356744Y-64343632D01*
X99383254Y-64343632D01*
X99387514Y-64344089D01*
X99387517Y-64344091D01*
X99447127Y-64350500D01*
X99942872Y-64350499D01*
X100002483Y-64344091D01*
X100002486Y-64344089D01*
X100006744Y-64343632D01*
X100033254Y-64343632D01*
X100037514Y-64344089D01*
X100037517Y-64344091D01*
X100097127Y-64350500D01*
X100592872Y-64350499D01*
X100652483Y-64344091D01*
X100652486Y-64344089D01*
X100656744Y-64343632D01*
X100683254Y-64343632D01*
X100687514Y-64344089D01*
X100687517Y-64344091D01*
X100747127Y-64350500D01*
X101242872Y-64350499D01*
X101302483Y-64344091D01*
X101437331Y-64293796D01*
X101552546Y-64207546D01*
X101552548Y-64207542D01*
X101557319Y-64202773D01*
X101618642Y-64169288D01*
X101688334Y-64174272D01*
X101732681Y-64202773D01*
X101737455Y-64207547D01*
X101852664Y-64293793D01*
X101852671Y-64293797D01*
X101897618Y-64310561D01*
X101987517Y-64344091D01*
X102047127Y-64350500D01*
X102542872Y-64350499D01*
X102602483Y-64344091D01*
X102602486Y-64344089D01*
X102606744Y-64343632D01*
X102633254Y-64343632D01*
X102637514Y-64344089D01*
X102637517Y-64344091D01*
X102697127Y-64350500D01*
X103192872Y-64350499D01*
X103252483Y-64344091D01*
X103252486Y-64344089D01*
X103256744Y-64343632D01*
X103283254Y-64343632D01*
X103287514Y-64344089D01*
X103287517Y-64344091D01*
X103347127Y-64350500D01*
X103842872Y-64350499D01*
X103902483Y-64344091D01*
X103902486Y-64344089D01*
X103906744Y-64343632D01*
X103933254Y-64343632D01*
X103937514Y-64344089D01*
X103937517Y-64344091D01*
X103997127Y-64350500D01*
X104492872Y-64350499D01*
X104552483Y-64344091D01*
X104552486Y-64344089D01*
X104556744Y-64343632D01*
X104583254Y-64343632D01*
X104587514Y-64344089D01*
X104587517Y-64344091D01*
X104647127Y-64350500D01*
X105142872Y-64350499D01*
X105202483Y-64344091D01*
X105202486Y-64344089D01*
X105206744Y-64343632D01*
X105233254Y-64343632D01*
X105237514Y-64344089D01*
X105237517Y-64344091D01*
X105297127Y-64350500D01*
X105792872Y-64350499D01*
X105852483Y-64344091D01*
X105852486Y-64344089D01*
X105856744Y-64343632D01*
X105883254Y-64343632D01*
X105887514Y-64344089D01*
X105887517Y-64344091D01*
X105947127Y-64350500D01*
X106442872Y-64350499D01*
X106502483Y-64344091D01*
X106637331Y-64293796D01*
X106752546Y-64207546D01*
X106838796Y-64092331D01*
X106842960Y-64081165D01*
X106884829Y-64025234D01*
X106950293Y-64000816D01*
X106959141Y-64000500D01*
X107500000Y-64000500D01*
X107500000Y-69000000D01*
X105595500Y-69000000D01*
X105595500Y-68954326D01*
X105595499Y-68954304D01*
X105595499Y-68402129D01*
X105595498Y-68402123D01*
X105594627Y-68394022D01*
X105590167Y-68352524D01*
X105589091Y-68342516D01*
X105538797Y-68207671D01*
X105538793Y-68207664D01*
X105452547Y-68092455D01*
X105452544Y-68092452D01*
X105337335Y-68006206D01*
X105337328Y-68006202D01*
X105202486Y-67955910D01*
X105202485Y-67955909D01*
X105202483Y-67955909D01*
X105142873Y-67949500D01*
X105142863Y-67949500D01*
X104647129Y-67949500D01*
X104647120Y-67949501D01*
X104583248Y-67956367D01*
X104556742Y-67956367D01*
X104552483Y-67955909D01*
X104492873Y-67949500D01*
X104492864Y-67949500D01*
X103997129Y-67949500D01*
X103997123Y-67949501D01*
X103937516Y-67955908D01*
X103802671Y-68006202D01*
X103802664Y-68006206D01*
X103687455Y-68092452D01*
X103682681Y-68097227D01*
X103621358Y-68130712D01*
X103551666Y-68125728D01*
X103507319Y-68097227D01*
X103502544Y-68092452D01*
X103387335Y-68006206D01*
X103387328Y-68006202D01*
X103252486Y-67955910D01*
X103252485Y-67955909D01*
X103252483Y-67955909D01*
X103192873Y-67949500D01*
X103192863Y-67949500D01*
X102697129Y-67949500D01*
X102697120Y-67949501D01*
X102633248Y-67956367D01*
X102606742Y-67956367D01*
X102602483Y-67955909D01*
X102542873Y-67949500D01*
X102542864Y-67949500D01*
X102047129Y-67949500D01*
X102047120Y-67949501D01*
X101983248Y-67956367D01*
X101956742Y-67956367D01*
X101952483Y-67955909D01*
X101892873Y-67949500D01*
X101892864Y-67949500D01*
X101397129Y-67949500D01*
X101397120Y-67949501D01*
X101333248Y-67956367D01*
X101306742Y-67956367D01*
X101302483Y-67955909D01*
X101242873Y-67949500D01*
X101242864Y-67949500D01*
X100747129Y-67949500D01*
X100747123Y-67949501D01*
X100687516Y-67955908D01*
X100552671Y-68006202D01*
X100552664Y-68006206D01*
X100437455Y-68092452D01*
X100432681Y-68097227D01*
X100371358Y-68130712D01*
X100301666Y-68125728D01*
X100257319Y-68097227D01*
X100252544Y-68092452D01*
X100137335Y-68006206D01*
X100137328Y-68006202D01*
X100002486Y-67955910D01*
X100002485Y-67955909D01*
X100002483Y-67955909D01*
X99942873Y-67949500D01*
X99942863Y-67949500D01*
X99447129Y-67949500D01*
X99447120Y-67949501D01*
X99383248Y-67956367D01*
X99356742Y-67956367D01*
X99352483Y-67955909D01*
X99292873Y-67949500D01*
X99292864Y-67949500D01*
X98797129Y-67949500D01*
X98797120Y-67949501D01*
X98733248Y-67956367D01*
X98706742Y-67956367D01*
X98702483Y-67955909D01*
X98642873Y-67949500D01*
X98642864Y-67949500D01*
X98147129Y-67949500D01*
X98147120Y-67949501D01*
X98083248Y-67956367D01*
X98056742Y-67956367D01*
X98052483Y-67955909D01*
X97992873Y-67949500D01*
X97992864Y-67949500D01*
X97497129Y-67949500D01*
X97497123Y-67949501D01*
X97437516Y-67955908D01*
X97302671Y-68006202D01*
X97302664Y-68006206D01*
X97187455Y-68092452D01*
X97187452Y-68092455D01*
X97101206Y-68207664D01*
X97101204Y-68207668D01*
X97101204Y-68207669D01*
X97097039Y-68218834D01*
X97055171Y-68274766D01*
X96989707Y-68299184D01*
X96980859Y-68299500D01*
X96500000Y-68299500D01*
X96500000Y-64000500D01*
X96980859Y-64000500D01*
X97047898Y-64020185D01*
G37*
G04 #@! TD.AperFunction*
M02*
