G04 #@! TF.GenerationSoftware,KiCad,Pcbnew,7.0.8*
G04 #@! TF.CreationDate,2023-11-17T17:21:29+01:00*
G04 #@! TF.ProjectId,universal12Vsupply,756e6976-6572-4736-916c-313256737570,rev?*
G04 #@! TF.SameCoordinates,Original*
G04 #@! TF.FileFunction,Legend,Top*
G04 #@! TF.FilePolarity,Positive*
%FSLAX46Y46*%
G04 Gerber Fmt 4.6, Leading zero omitted, Abs format (unit mm)*
G04 Created by KiCad (PCBNEW 7.0.8) date 2023-11-17 17:21:29*
%MOMM*%
%LPD*%
G01*
G04 APERTURE LIST*
G04 Aperture macros list*
%AMRoundRect*
0 Rectangle with rounded corners*
0 $1 Rounding radius*
0 $2 $3 $4 $5 $6 $7 $8 $9 X,Y pos of 4 corners*
0 Add a 4 corners polygon primitive as box body*
4,1,4,$2,$3,$4,$5,$6,$7,$8,$9,$2,$3,0*
0 Add four circle primitives for the rounded corners*
1,1,$1+$1,$2,$3*
1,1,$1+$1,$4,$5*
1,1,$1+$1,$6,$7*
1,1,$1+$1,$8,$9*
0 Add four rect primitives between the rounded corners*
20,1,$1+$1,$2,$3,$4,$5,0*
20,1,$1+$1,$4,$5,$6,$7,0*
20,1,$1+$1,$6,$7,$8,$9,0*
20,1,$1+$1,$8,$9,$2,$3,0*%
%AMFreePoly0*
4,1,17,2.675000,1.605000,1.875000,1.605000,1.875000,0.935000,2.675000,0.935000,2.675000,0.335000,1.875000,0.335000,1.875000,-0.335000,2.675000,-0.335000,2.675000,-0.935000,1.875000,-0.935000,1.875000,-1.605000,2.675000,-1.605000,2.675000,-2.205000,-1.875000,-2.205000,-1.875000,2.205000,2.675000,2.205000,2.675000,1.605000,2.675000,1.605000,$1*%
G04 Aperture macros list end*
%ADD10C,0.300000*%
%ADD11C,0.150000*%
%ADD12C,0.120000*%
%ADD13R,2.500000X2.500000*%
%ADD14RoundRect,0.250000X0.475000X-0.337500X0.475000X0.337500X-0.475000X0.337500X-0.475000X-0.337500X0*%
%ADD15RoundRect,0.237500X-0.300000X-0.237500X0.300000X-0.237500X0.300000X0.237500X-0.300000X0.237500X0*%
%ADD16C,0.800000*%
%ADD17C,6.400000*%
%ADD18RoundRect,0.250000X0.900000X-1.500000X0.900000X1.500000X-0.900000X1.500000X-0.900000X-1.500000X0*%
%ADD19RoundRect,0.237500X-0.237500X0.250000X-0.237500X-0.250000X0.237500X-0.250000X0.237500X0.250000X0*%
%ADD20R,0.400000X1.100000*%
%ADD21R,9.500000X3.400000*%
%ADD22RoundRect,0.250000X-1.500000X-0.900000X1.500000X-0.900000X1.500000X0.900000X-1.500000X0.900000X0*%
%ADD23RoundRect,0.250000X-0.650000X0.412500X-0.650000X-0.412500X0.650000X-0.412500X0.650000X0.412500X0*%
%ADD24RoundRect,0.237500X0.237500X-0.250000X0.237500X0.250000X-0.237500X0.250000X-0.237500X-0.250000X0*%
%ADD25RoundRect,0.237500X-0.250000X-0.237500X0.250000X-0.237500X0.250000X0.237500X-0.250000X0.237500X0*%
%ADD26RoundRect,0.237500X0.250000X0.237500X-0.250000X0.237500X-0.250000X-0.237500X0.250000X-0.237500X0*%
%ADD27RoundRect,0.250000X-1.000000X1.950000X-1.000000X-1.950000X1.000000X-1.950000X1.000000X1.950000X0*%
%ADD28RoundRect,0.249999X-0.450001X-1.425001X0.450001X-1.425001X0.450001X1.425001X-0.450001X1.425001X0*%
%ADD29RoundRect,0.237500X-0.237500X0.300000X-0.237500X-0.300000X0.237500X-0.300000X0.237500X0.300000X0*%
%ADD30FreePoly0,270.000000*%
%ADD31R,0.500000X0.850000*%
%ADD32RoundRect,0.250000X1.500000X0.900000X-1.500000X0.900000X-1.500000X-0.900000X1.500000X-0.900000X0*%
%ADD33FreePoly0,90.000000*%
%ADD34R,4.977000X9.000000*%
%ADD35RoundRect,0.250000X-0.337500X-0.475000X0.337500X-0.475000X0.337500X0.475000X-0.337500X0.475000X0*%
%ADD36RoundRect,0.250000X-0.700000X1.950000X-0.700000X-1.950000X0.700000X-1.950000X0.700000X1.950000X0*%
%ADD37R,3.000000X3.000000*%
%ADD38C,3.000000*%
%ADD39RoundRect,0.250000X-0.475000X0.337500X-0.475000X-0.337500X0.475000X-0.337500X0.475000X0.337500X0*%
%ADD40RoundRect,0.250000X-0.550000X1.250000X-0.550000X-1.250000X0.550000X-1.250000X0.550000X1.250000X0*%
G04 APERTURE END LIST*
D10*
X145000828Y-34859774D02*
X145000828Y-35716917D01*
X145000828Y-35288346D02*
X143500828Y-35288346D01*
X143500828Y-35288346D02*
X143715114Y-35431203D01*
X143715114Y-35431203D02*
X143857971Y-35574060D01*
X143857971Y-35574060D02*
X143929400Y-35716917D01*
X143643685Y-34288346D02*
X143572257Y-34216918D01*
X143572257Y-34216918D02*
X143500828Y-34074061D01*
X143500828Y-34074061D02*
X143500828Y-33716918D01*
X143500828Y-33716918D02*
X143572257Y-33574061D01*
X143572257Y-33574061D02*
X143643685Y-33502632D01*
X143643685Y-33502632D02*
X143786542Y-33431203D01*
X143786542Y-33431203D02*
X143929400Y-33431203D01*
X143929400Y-33431203D02*
X144143685Y-33502632D01*
X144143685Y-33502632D02*
X145000828Y-34359775D01*
X145000828Y-34359775D02*
X145000828Y-33431203D01*
X143500828Y-33002632D02*
X145000828Y-32502632D01*
X145000828Y-32502632D02*
X143500828Y-32002632D01*
X60700828Y-44259774D02*
X62200828Y-43759774D01*
X62200828Y-43759774D02*
X60700828Y-43259774D01*
X62200828Y-42759775D02*
X61200828Y-42759775D01*
X60700828Y-42759775D02*
X60772257Y-42831203D01*
X60772257Y-42831203D02*
X60843685Y-42759775D01*
X60843685Y-42759775D02*
X60772257Y-42688346D01*
X60772257Y-42688346D02*
X60700828Y-42759775D01*
X60700828Y-42759775D02*
X60843685Y-42759775D01*
X61200828Y-42045489D02*
X62200828Y-42045489D01*
X61343685Y-42045489D02*
X61272257Y-41974060D01*
X61272257Y-41974060D02*
X61200828Y-41831203D01*
X61200828Y-41831203D02*
X61200828Y-41616917D01*
X61200828Y-41616917D02*
X61272257Y-41474060D01*
X61272257Y-41474060D02*
X61415114Y-41402632D01*
X61415114Y-41402632D02*
X62200828Y-41402632D01*
X143800828Y-50802632D02*
X145015114Y-50802632D01*
X145015114Y-50802632D02*
X145157971Y-50874060D01*
X145157971Y-50874060D02*
X145229400Y-50945489D01*
X145229400Y-50945489D02*
X145300828Y-51088346D01*
X145300828Y-51088346D02*
X145300828Y-51302632D01*
X145300828Y-51302632D02*
X145229400Y-51445489D01*
X144729400Y-50802632D02*
X144800828Y-50945489D01*
X144800828Y-50945489D02*
X144800828Y-51231203D01*
X144800828Y-51231203D02*
X144729400Y-51374060D01*
X144729400Y-51374060D02*
X144657971Y-51445489D01*
X144657971Y-51445489D02*
X144515114Y-51516917D01*
X144515114Y-51516917D02*
X144086542Y-51516917D01*
X144086542Y-51516917D02*
X143943685Y-51445489D01*
X143943685Y-51445489D02*
X143872257Y-51374060D01*
X143872257Y-51374060D02*
X143800828Y-51231203D01*
X143800828Y-51231203D02*
X143800828Y-50945489D01*
X143800828Y-50945489D02*
X143872257Y-50802632D01*
X143800828Y-50088346D02*
X144800828Y-50088346D01*
X143943685Y-50088346D02*
X143872257Y-50016917D01*
X143872257Y-50016917D02*
X143800828Y-49874060D01*
X143800828Y-49874060D02*
X143800828Y-49659774D01*
X143800828Y-49659774D02*
X143872257Y-49516917D01*
X143872257Y-49516917D02*
X144015114Y-49445489D01*
X144015114Y-49445489D02*
X144800828Y-49445489D01*
X144800828Y-48088346D02*
X143300828Y-48088346D01*
X144729400Y-48088346D02*
X144800828Y-48231203D01*
X144800828Y-48231203D02*
X144800828Y-48516917D01*
X144800828Y-48516917D02*
X144729400Y-48659774D01*
X144729400Y-48659774D02*
X144657971Y-48731203D01*
X144657971Y-48731203D02*
X144515114Y-48802631D01*
X144515114Y-48802631D02*
X144086542Y-48802631D01*
X144086542Y-48802631D02*
X143943685Y-48731203D01*
X143943685Y-48731203D02*
X143872257Y-48659774D01*
X143872257Y-48659774D02*
X143800828Y-48516917D01*
X143800828Y-48516917D02*
X143800828Y-48231203D01*
X143800828Y-48231203D02*
X143872257Y-48088346D01*
X143800828Y-40002632D02*
X145015114Y-40002632D01*
X145015114Y-40002632D02*
X145157971Y-40074060D01*
X145157971Y-40074060D02*
X145229400Y-40145489D01*
X145229400Y-40145489D02*
X145300828Y-40288346D01*
X145300828Y-40288346D02*
X145300828Y-40502632D01*
X145300828Y-40502632D02*
X145229400Y-40645489D01*
X144729400Y-40002632D02*
X144800828Y-40145489D01*
X144800828Y-40145489D02*
X144800828Y-40431203D01*
X144800828Y-40431203D02*
X144729400Y-40574060D01*
X144729400Y-40574060D02*
X144657971Y-40645489D01*
X144657971Y-40645489D02*
X144515114Y-40716917D01*
X144515114Y-40716917D02*
X144086542Y-40716917D01*
X144086542Y-40716917D02*
X143943685Y-40645489D01*
X143943685Y-40645489D02*
X143872257Y-40574060D01*
X143872257Y-40574060D02*
X143800828Y-40431203D01*
X143800828Y-40431203D02*
X143800828Y-40145489D01*
X143800828Y-40145489D02*
X143872257Y-40002632D01*
X143800828Y-39288346D02*
X144800828Y-39288346D01*
X143943685Y-39288346D02*
X143872257Y-39216917D01*
X143872257Y-39216917D02*
X143800828Y-39074060D01*
X143800828Y-39074060D02*
X143800828Y-38859774D01*
X143800828Y-38859774D02*
X143872257Y-38716917D01*
X143872257Y-38716917D02*
X144015114Y-38645489D01*
X144015114Y-38645489D02*
X144800828Y-38645489D01*
X144800828Y-37288346D02*
X143300828Y-37288346D01*
X144729400Y-37288346D02*
X144800828Y-37431203D01*
X144800828Y-37431203D02*
X144800828Y-37716917D01*
X144800828Y-37716917D02*
X144729400Y-37859774D01*
X144729400Y-37859774D02*
X144657971Y-37931203D01*
X144657971Y-37931203D02*
X144515114Y-38002631D01*
X144515114Y-38002631D02*
X144086542Y-38002631D01*
X144086542Y-38002631D02*
X143943685Y-37931203D01*
X143943685Y-37931203D02*
X143872257Y-37859774D01*
X143872257Y-37859774D02*
X143800828Y-37716917D01*
X143800828Y-37716917D02*
X143800828Y-37431203D01*
X143800828Y-37431203D02*
X143872257Y-37288346D01*
X145000828Y-45059774D02*
X145000828Y-45916917D01*
X145000828Y-45488346D02*
X143500828Y-45488346D01*
X143500828Y-45488346D02*
X143715114Y-45631203D01*
X143715114Y-45631203D02*
X143857971Y-45774060D01*
X143857971Y-45774060D02*
X143929400Y-45916917D01*
X143643685Y-44488346D02*
X143572257Y-44416918D01*
X143572257Y-44416918D02*
X143500828Y-44274061D01*
X143500828Y-44274061D02*
X143500828Y-43916918D01*
X143500828Y-43916918D02*
X143572257Y-43774061D01*
X143572257Y-43774061D02*
X143643685Y-43702632D01*
X143643685Y-43702632D02*
X143786542Y-43631203D01*
X143786542Y-43631203D02*
X143929400Y-43631203D01*
X143929400Y-43631203D02*
X144143685Y-43702632D01*
X144143685Y-43702632D02*
X145000828Y-44559775D01*
X145000828Y-44559775D02*
X145000828Y-43631203D01*
X143500828Y-43202632D02*
X145000828Y-42702632D01*
X145000828Y-42702632D02*
X143500828Y-42202632D01*
X61200828Y-38802632D02*
X62415114Y-38802632D01*
X62415114Y-38802632D02*
X62557971Y-38874060D01*
X62557971Y-38874060D02*
X62629400Y-38945489D01*
X62629400Y-38945489D02*
X62700828Y-39088346D01*
X62700828Y-39088346D02*
X62700828Y-39302632D01*
X62700828Y-39302632D02*
X62629400Y-39445489D01*
X62129400Y-38802632D02*
X62200828Y-38945489D01*
X62200828Y-38945489D02*
X62200828Y-39231203D01*
X62200828Y-39231203D02*
X62129400Y-39374060D01*
X62129400Y-39374060D02*
X62057971Y-39445489D01*
X62057971Y-39445489D02*
X61915114Y-39516917D01*
X61915114Y-39516917D02*
X61486542Y-39516917D01*
X61486542Y-39516917D02*
X61343685Y-39445489D01*
X61343685Y-39445489D02*
X61272257Y-39374060D01*
X61272257Y-39374060D02*
X61200828Y-39231203D01*
X61200828Y-39231203D02*
X61200828Y-38945489D01*
X61200828Y-38945489D02*
X61272257Y-38802632D01*
X61200828Y-38088346D02*
X62200828Y-38088346D01*
X61343685Y-38088346D02*
X61272257Y-38016917D01*
X61272257Y-38016917D02*
X61200828Y-37874060D01*
X61200828Y-37874060D02*
X61200828Y-37659774D01*
X61200828Y-37659774D02*
X61272257Y-37516917D01*
X61272257Y-37516917D02*
X61415114Y-37445489D01*
X61415114Y-37445489D02*
X62200828Y-37445489D01*
X62200828Y-36088346D02*
X60700828Y-36088346D01*
X62129400Y-36088346D02*
X62200828Y-36231203D01*
X62200828Y-36231203D02*
X62200828Y-36516917D01*
X62200828Y-36516917D02*
X62129400Y-36659774D01*
X62129400Y-36659774D02*
X62057971Y-36731203D01*
X62057971Y-36731203D02*
X61915114Y-36802631D01*
X61915114Y-36802631D02*
X61486542Y-36802631D01*
X61486542Y-36802631D02*
X61343685Y-36731203D01*
X61343685Y-36731203D02*
X61272257Y-36659774D01*
X61272257Y-36659774D02*
X61200828Y-36516917D01*
X61200828Y-36516917D02*
X61200828Y-36231203D01*
X61200828Y-36231203D02*
X61272257Y-36088346D01*
D11*
X91609580Y-68809524D02*
X91657200Y-68857143D01*
X91657200Y-68857143D02*
X91704819Y-69000000D01*
X91704819Y-69000000D02*
X91704819Y-69095238D01*
X91704819Y-69095238D02*
X91657200Y-69238095D01*
X91657200Y-69238095D02*
X91561961Y-69333333D01*
X91561961Y-69333333D02*
X91466723Y-69380952D01*
X91466723Y-69380952D02*
X91276247Y-69428571D01*
X91276247Y-69428571D02*
X91133390Y-69428571D01*
X91133390Y-69428571D02*
X90942914Y-69380952D01*
X90942914Y-69380952D02*
X90847676Y-69333333D01*
X90847676Y-69333333D02*
X90752438Y-69238095D01*
X90752438Y-69238095D02*
X90704819Y-69095238D01*
X90704819Y-69095238D02*
X90704819Y-69000000D01*
X90704819Y-69000000D02*
X90752438Y-68857143D01*
X90752438Y-68857143D02*
X90800057Y-68809524D01*
X91704819Y-68380952D02*
X90704819Y-68380952D01*
X91085771Y-68380952D02*
X91038152Y-68285714D01*
X91038152Y-68285714D02*
X91038152Y-68095238D01*
X91038152Y-68095238D02*
X91085771Y-68000000D01*
X91085771Y-68000000D02*
X91133390Y-67952381D01*
X91133390Y-67952381D02*
X91228628Y-67904762D01*
X91228628Y-67904762D02*
X91514342Y-67904762D01*
X91514342Y-67904762D02*
X91609580Y-67952381D01*
X91609580Y-67952381D02*
X91657200Y-68000000D01*
X91657200Y-68000000D02*
X91704819Y-68095238D01*
X91704819Y-68095238D02*
X91704819Y-68285714D01*
X91704819Y-68285714D02*
X91657200Y-68380952D01*
X91704819Y-67333333D02*
X91657200Y-67428571D01*
X91657200Y-67428571D02*
X91609580Y-67476190D01*
X91609580Y-67476190D02*
X91514342Y-67523809D01*
X91514342Y-67523809D02*
X91228628Y-67523809D01*
X91228628Y-67523809D02*
X91133390Y-67476190D01*
X91133390Y-67476190D02*
X91085771Y-67428571D01*
X91085771Y-67428571D02*
X91038152Y-67333333D01*
X91038152Y-67333333D02*
X91038152Y-67190476D01*
X91038152Y-67190476D02*
X91085771Y-67095238D01*
X91085771Y-67095238D02*
X91133390Y-67047619D01*
X91133390Y-67047619D02*
X91228628Y-67000000D01*
X91228628Y-67000000D02*
X91514342Y-67000000D01*
X91514342Y-67000000D02*
X91609580Y-67047619D01*
X91609580Y-67047619D02*
X91657200Y-67095238D01*
X91657200Y-67095238D02*
X91704819Y-67190476D01*
X91704819Y-67190476D02*
X91704819Y-67333333D01*
X91704819Y-66428571D02*
X91657200Y-66523809D01*
X91657200Y-66523809D02*
X91609580Y-66571428D01*
X91609580Y-66571428D02*
X91514342Y-66619047D01*
X91514342Y-66619047D02*
X91228628Y-66619047D01*
X91228628Y-66619047D02*
X91133390Y-66571428D01*
X91133390Y-66571428D02*
X91085771Y-66523809D01*
X91085771Y-66523809D02*
X91038152Y-66428571D01*
X91038152Y-66428571D02*
X91038152Y-66285714D01*
X91038152Y-66285714D02*
X91085771Y-66190476D01*
X91085771Y-66190476D02*
X91133390Y-66142857D01*
X91133390Y-66142857D02*
X91228628Y-66095238D01*
X91228628Y-66095238D02*
X91514342Y-66095238D01*
X91514342Y-66095238D02*
X91609580Y-66142857D01*
X91609580Y-66142857D02*
X91657200Y-66190476D01*
X91657200Y-66190476D02*
X91704819Y-66285714D01*
X91704819Y-66285714D02*
X91704819Y-66428571D01*
X91038152Y-65809523D02*
X91038152Y-65428571D01*
X90704819Y-65666666D02*
X91561961Y-65666666D01*
X91561961Y-65666666D02*
X91657200Y-65619047D01*
X91657200Y-65619047D02*
X91704819Y-65523809D01*
X91704819Y-65523809D02*
X91704819Y-65428571D01*
X91704819Y-64571428D02*
X91704819Y-65142856D01*
X91704819Y-64857142D02*
X90704819Y-64857142D01*
X90704819Y-64857142D02*
X90847676Y-64952380D01*
X90847676Y-64952380D02*
X90942914Y-65047618D01*
X90942914Y-65047618D02*
X90990533Y-65142856D01*
X112604761Y-73529580D02*
X112557142Y-73577200D01*
X112557142Y-73577200D02*
X112414285Y-73624819D01*
X112414285Y-73624819D02*
X112319047Y-73624819D01*
X112319047Y-73624819D02*
X112176190Y-73577200D01*
X112176190Y-73577200D02*
X112080952Y-73481961D01*
X112080952Y-73481961D02*
X112033333Y-73386723D01*
X112033333Y-73386723D02*
X111985714Y-73196247D01*
X111985714Y-73196247D02*
X111985714Y-73053390D01*
X111985714Y-73053390D02*
X112033333Y-72862914D01*
X112033333Y-72862914D02*
X112080952Y-72767676D01*
X112080952Y-72767676D02*
X112176190Y-72672438D01*
X112176190Y-72672438D02*
X112319047Y-72624819D01*
X112319047Y-72624819D02*
X112414285Y-72624819D01*
X112414285Y-72624819D02*
X112557142Y-72672438D01*
X112557142Y-72672438D02*
X112604761Y-72720057D01*
X113461904Y-73577200D02*
X113366666Y-73624819D01*
X113366666Y-73624819D02*
X113176190Y-73624819D01*
X113176190Y-73624819D02*
X113080952Y-73577200D01*
X113080952Y-73577200D02*
X113033333Y-73529580D01*
X113033333Y-73529580D02*
X112985714Y-73434342D01*
X112985714Y-73434342D02*
X112985714Y-73148628D01*
X112985714Y-73148628D02*
X113033333Y-73053390D01*
X113033333Y-73053390D02*
X113080952Y-73005771D01*
X113080952Y-73005771D02*
X113176190Y-72958152D01*
X113176190Y-72958152D02*
X113366666Y-72958152D01*
X113366666Y-72958152D02*
X113461904Y-73005771D01*
X114414285Y-73624819D02*
X113842857Y-73624819D01*
X114128571Y-73624819D02*
X114128571Y-72624819D01*
X114128571Y-72624819D02*
X114033333Y-72767676D01*
X114033333Y-72767676D02*
X113938095Y-72862914D01*
X113938095Y-72862914D02*
X113842857Y-72910533D01*
X91704819Y-63130952D02*
X90704819Y-63130952D01*
X90704819Y-63130952D02*
X90704819Y-62892857D01*
X90704819Y-62892857D02*
X90752438Y-62750000D01*
X90752438Y-62750000D02*
X90847676Y-62654762D01*
X90847676Y-62654762D02*
X90942914Y-62607143D01*
X90942914Y-62607143D02*
X91133390Y-62559524D01*
X91133390Y-62559524D02*
X91276247Y-62559524D01*
X91276247Y-62559524D02*
X91466723Y-62607143D01*
X91466723Y-62607143D02*
X91561961Y-62654762D01*
X91561961Y-62654762D02*
X91657200Y-62750000D01*
X91657200Y-62750000D02*
X91704819Y-62892857D01*
X91704819Y-62892857D02*
X91704819Y-63130952D01*
X91704819Y-62130952D02*
X90704819Y-62130952D01*
X91085771Y-62130952D02*
X91038152Y-62035714D01*
X91038152Y-62035714D02*
X91038152Y-61845238D01*
X91038152Y-61845238D02*
X91085771Y-61750000D01*
X91085771Y-61750000D02*
X91133390Y-61702381D01*
X91133390Y-61702381D02*
X91228628Y-61654762D01*
X91228628Y-61654762D02*
X91514342Y-61654762D01*
X91514342Y-61654762D02*
X91609580Y-61702381D01*
X91609580Y-61702381D02*
X91657200Y-61750000D01*
X91657200Y-61750000D02*
X91704819Y-61845238D01*
X91704819Y-61845238D02*
X91704819Y-62035714D01*
X91704819Y-62035714D02*
X91657200Y-62130952D01*
X91704819Y-61083333D02*
X91657200Y-61178571D01*
X91657200Y-61178571D02*
X91609580Y-61226190D01*
X91609580Y-61226190D02*
X91514342Y-61273809D01*
X91514342Y-61273809D02*
X91228628Y-61273809D01*
X91228628Y-61273809D02*
X91133390Y-61226190D01*
X91133390Y-61226190D02*
X91085771Y-61178571D01*
X91085771Y-61178571D02*
X91038152Y-61083333D01*
X91038152Y-61083333D02*
X91038152Y-60940476D01*
X91038152Y-60940476D02*
X91085771Y-60845238D01*
X91085771Y-60845238D02*
X91133390Y-60797619D01*
X91133390Y-60797619D02*
X91228628Y-60750000D01*
X91228628Y-60750000D02*
X91514342Y-60750000D01*
X91514342Y-60750000D02*
X91609580Y-60797619D01*
X91609580Y-60797619D02*
X91657200Y-60845238D01*
X91657200Y-60845238D02*
X91704819Y-60940476D01*
X91704819Y-60940476D02*
X91704819Y-61083333D01*
X91704819Y-60178571D02*
X91657200Y-60273809D01*
X91657200Y-60273809D02*
X91609580Y-60321428D01*
X91609580Y-60321428D02*
X91514342Y-60369047D01*
X91514342Y-60369047D02*
X91228628Y-60369047D01*
X91228628Y-60369047D02*
X91133390Y-60321428D01*
X91133390Y-60321428D02*
X91085771Y-60273809D01*
X91085771Y-60273809D02*
X91038152Y-60178571D01*
X91038152Y-60178571D02*
X91038152Y-60035714D01*
X91038152Y-60035714D02*
X91085771Y-59940476D01*
X91085771Y-59940476D02*
X91133390Y-59892857D01*
X91133390Y-59892857D02*
X91228628Y-59845238D01*
X91228628Y-59845238D02*
X91514342Y-59845238D01*
X91514342Y-59845238D02*
X91609580Y-59892857D01*
X91609580Y-59892857D02*
X91657200Y-59940476D01*
X91657200Y-59940476D02*
X91704819Y-60035714D01*
X91704819Y-60035714D02*
X91704819Y-60178571D01*
X91038152Y-59559523D02*
X91038152Y-59178571D01*
X90704819Y-59416666D02*
X91561961Y-59416666D01*
X91561961Y-59416666D02*
X91657200Y-59369047D01*
X91657200Y-59369047D02*
X91704819Y-59273809D01*
X91704819Y-59273809D02*
X91704819Y-59178571D01*
X91704819Y-58321428D02*
X91704819Y-58892856D01*
X91704819Y-58607142D02*
X90704819Y-58607142D01*
X90704819Y-58607142D02*
X90847676Y-58702380D01*
X90847676Y-58702380D02*
X90942914Y-58797618D01*
X90942914Y-58797618D02*
X90990533Y-58892856D01*
X85833333Y-73704819D02*
X85500000Y-73228628D01*
X85261905Y-73704819D02*
X85261905Y-72704819D01*
X85261905Y-72704819D02*
X85642857Y-72704819D01*
X85642857Y-72704819D02*
X85738095Y-72752438D01*
X85738095Y-72752438D02*
X85785714Y-72800057D01*
X85785714Y-72800057D02*
X85833333Y-72895295D01*
X85833333Y-72895295D02*
X85833333Y-73038152D01*
X85833333Y-73038152D02*
X85785714Y-73133390D01*
X85785714Y-73133390D02*
X85738095Y-73181009D01*
X85738095Y-73181009D02*
X85642857Y-73228628D01*
X85642857Y-73228628D02*
X85261905Y-73228628D01*
X86690476Y-72704819D02*
X86500000Y-72704819D01*
X86500000Y-72704819D02*
X86404762Y-72752438D01*
X86404762Y-72752438D02*
X86357143Y-72800057D01*
X86357143Y-72800057D02*
X86261905Y-72942914D01*
X86261905Y-72942914D02*
X86214286Y-73133390D01*
X86214286Y-73133390D02*
X86214286Y-73514342D01*
X86214286Y-73514342D02*
X86261905Y-73609580D01*
X86261905Y-73609580D02*
X86309524Y-73657200D01*
X86309524Y-73657200D02*
X86404762Y-73704819D01*
X86404762Y-73704819D02*
X86595238Y-73704819D01*
X86595238Y-73704819D02*
X86690476Y-73657200D01*
X86690476Y-73657200D02*
X86738095Y-73609580D01*
X86738095Y-73609580D02*
X86785714Y-73514342D01*
X86785714Y-73514342D02*
X86785714Y-73276247D01*
X86785714Y-73276247D02*
X86738095Y-73181009D01*
X86738095Y-73181009D02*
X86690476Y-73133390D01*
X86690476Y-73133390D02*
X86595238Y-73085771D01*
X86595238Y-73085771D02*
X86404762Y-73085771D01*
X86404762Y-73085771D02*
X86309524Y-73133390D01*
X86309524Y-73133390D02*
X86261905Y-73181009D01*
X86261905Y-73181009D02*
X86214286Y-73276247D01*
X95524819Y-66911904D02*
X96334342Y-66911904D01*
X96334342Y-66911904D02*
X96429580Y-66864285D01*
X96429580Y-66864285D02*
X96477200Y-66816666D01*
X96477200Y-66816666D02*
X96524819Y-66721428D01*
X96524819Y-66721428D02*
X96524819Y-66530952D01*
X96524819Y-66530952D02*
X96477200Y-66435714D01*
X96477200Y-66435714D02*
X96429580Y-66388095D01*
X96429580Y-66388095D02*
X96334342Y-66340476D01*
X96334342Y-66340476D02*
X95524819Y-66340476D01*
X96524819Y-65340476D02*
X96524819Y-65911904D01*
X96524819Y-65626190D02*
X95524819Y-65626190D01*
X95524819Y-65626190D02*
X95667676Y-65721428D01*
X95667676Y-65721428D02*
X95762914Y-65816666D01*
X95762914Y-65816666D02*
X95810533Y-65911904D01*
X113819047Y-71852019D02*
X113819047Y-70852019D01*
X113819047Y-70852019D02*
X114057142Y-70852019D01*
X114057142Y-70852019D02*
X114199999Y-70899638D01*
X114199999Y-70899638D02*
X114295237Y-70994876D01*
X114295237Y-70994876D02*
X114342856Y-71090114D01*
X114342856Y-71090114D02*
X114390475Y-71280590D01*
X114390475Y-71280590D02*
X114390475Y-71423447D01*
X114390475Y-71423447D02*
X114342856Y-71613923D01*
X114342856Y-71613923D02*
X114295237Y-71709161D01*
X114295237Y-71709161D02*
X114199999Y-71804400D01*
X114199999Y-71804400D02*
X114057142Y-71852019D01*
X114057142Y-71852019D02*
X113819047Y-71852019D01*
X114819047Y-71852019D02*
X114819047Y-70852019D01*
X114819047Y-71232971D02*
X114914285Y-71185352D01*
X114914285Y-71185352D02*
X115104761Y-71185352D01*
X115104761Y-71185352D02*
X115199999Y-71232971D01*
X115199999Y-71232971D02*
X115247618Y-71280590D01*
X115247618Y-71280590D02*
X115295237Y-71375828D01*
X115295237Y-71375828D02*
X115295237Y-71661542D01*
X115295237Y-71661542D02*
X115247618Y-71756780D01*
X115247618Y-71756780D02*
X115199999Y-71804400D01*
X115199999Y-71804400D02*
X115104761Y-71852019D01*
X115104761Y-71852019D02*
X114914285Y-71852019D01*
X114914285Y-71852019D02*
X114819047Y-71804400D01*
X115866666Y-71852019D02*
X115771428Y-71804400D01*
X115771428Y-71804400D02*
X115723809Y-71756780D01*
X115723809Y-71756780D02*
X115676190Y-71661542D01*
X115676190Y-71661542D02*
X115676190Y-71375828D01*
X115676190Y-71375828D02*
X115723809Y-71280590D01*
X115723809Y-71280590D02*
X115771428Y-71232971D01*
X115771428Y-71232971D02*
X115866666Y-71185352D01*
X115866666Y-71185352D02*
X116009523Y-71185352D01*
X116009523Y-71185352D02*
X116104761Y-71232971D01*
X116104761Y-71232971D02*
X116152380Y-71280590D01*
X116152380Y-71280590D02*
X116199999Y-71375828D01*
X116199999Y-71375828D02*
X116199999Y-71661542D01*
X116199999Y-71661542D02*
X116152380Y-71756780D01*
X116152380Y-71756780D02*
X116104761Y-71804400D01*
X116104761Y-71804400D02*
X116009523Y-71852019D01*
X116009523Y-71852019D02*
X115866666Y-71852019D01*
X116771428Y-71852019D02*
X116676190Y-71804400D01*
X116676190Y-71804400D02*
X116628571Y-71756780D01*
X116628571Y-71756780D02*
X116580952Y-71661542D01*
X116580952Y-71661542D02*
X116580952Y-71375828D01*
X116580952Y-71375828D02*
X116628571Y-71280590D01*
X116628571Y-71280590D02*
X116676190Y-71232971D01*
X116676190Y-71232971D02*
X116771428Y-71185352D01*
X116771428Y-71185352D02*
X116914285Y-71185352D01*
X116914285Y-71185352D02*
X117009523Y-71232971D01*
X117009523Y-71232971D02*
X117057142Y-71280590D01*
X117057142Y-71280590D02*
X117104761Y-71375828D01*
X117104761Y-71375828D02*
X117104761Y-71661542D01*
X117104761Y-71661542D02*
X117057142Y-71756780D01*
X117057142Y-71756780D02*
X117009523Y-71804400D01*
X117009523Y-71804400D02*
X116914285Y-71852019D01*
X116914285Y-71852019D02*
X116771428Y-71852019D01*
X117390476Y-71185352D02*
X117771428Y-71185352D01*
X117533333Y-70852019D02*
X117533333Y-71709161D01*
X117533333Y-71709161D02*
X117580952Y-71804400D01*
X117580952Y-71804400D02*
X117676190Y-71852019D01*
X117676190Y-71852019D02*
X117771428Y-71852019D01*
X118057143Y-70947257D02*
X118104762Y-70899638D01*
X118104762Y-70899638D02*
X118200000Y-70852019D01*
X118200000Y-70852019D02*
X118438095Y-70852019D01*
X118438095Y-70852019D02*
X118533333Y-70899638D01*
X118533333Y-70899638D02*
X118580952Y-70947257D01*
X118580952Y-70947257D02*
X118628571Y-71042495D01*
X118628571Y-71042495D02*
X118628571Y-71137733D01*
X118628571Y-71137733D02*
X118580952Y-71280590D01*
X118580952Y-71280590D02*
X118009524Y-71852019D01*
X118009524Y-71852019D02*
X118628571Y-71852019D01*
X119531933Y-49534280D02*
X119484314Y-49581900D01*
X119484314Y-49581900D02*
X119341457Y-49629519D01*
X119341457Y-49629519D02*
X119246219Y-49629519D01*
X119246219Y-49629519D02*
X119103362Y-49581900D01*
X119103362Y-49581900D02*
X119008124Y-49486661D01*
X119008124Y-49486661D02*
X118960505Y-49391423D01*
X118960505Y-49391423D02*
X118912886Y-49200947D01*
X118912886Y-49200947D02*
X118912886Y-49058090D01*
X118912886Y-49058090D02*
X118960505Y-48867614D01*
X118960505Y-48867614D02*
X119008124Y-48772376D01*
X119008124Y-48772376D02*
X119103362Y-48677138D01*
X119103362Y-48677138D02*
X119246219Y-48629519D01*
X119246219Y-48629519D02*
X119341457Y-48629519D01*
X119341457Y-48629519D02*
X119484314Y-48677138D01*
X119484314Y-48677138D02*
X119531933Y-48724757D01*
X119865267Y-48629519D02*
X120484314Y-48629519D01*
X120484314Y-48629519D02*
X120150981Y-49010471D01*
X120150981Y-49010471D02*
X120293838Y-49010471D01*
X120293838Y-49010471D02*
X120389076Y-49058090D01*
X120389076Y-49058090D02*
X120436695Y-49105709D01*
X120436695Y-49105709D02*
X120484314Y-49200947D01*
X120484314Y-49200947D02*
X120484314Y-49439042D01*
X120484314Y-49439042D02*
X120436695Y-49534280D01*
X120436695Y-49534280D02*
X120389076Y-49581900D01*
X120389076Y-49581900D02*
X120293838Y-49629519D01*
X120293838Y-49629519D02*
X120008124Y-49629519D01*
X120008124Y-49629519D02*
X119912886Y-49581900D01*
X119912886Y-49581900D02*
X119865267Y-49534280D01*
X87833333Y-74954819D02*
X87500000Y-74478628D01*
X87261905Y-74954819D02*
X87261905Y-73954819D01*
X87261905Y-73954819D02*
X87642857Y-73954819D01*
X87642857Y-73954819D02*
X87738095Y-74002438D01*
X87738095Y-74002438D02*
X87785714Y-74050057D01*
X87785714Y-74050057D02*
X87833333Y-74145295D01*
X87833333Y-74145295D02*
X87833333Y-74288152D01*
X87833333Y-74288152D02*
X87785714Y-74383390D01*
X87785714Y-74383390D02*
X87738095Y-74431009D01*
X87738095Y-74431009D02*
X87642857Y-74478628D01*
X87642857Y-74478628D02*
X87261905Y-74478628D01*
X88785714Y-74954819D02*
X88214286Y-74954819D01*
X88500000Y-74954819D02*
X88500000Y-73954819D01*
X88500000Y-73954819D02*
X88404762Y-74097676D01*
X88404762Y-74097676D02*
X88309524Y-74192914D01*
X88309524Y-74192914D02*
X88214286Y-74240533D01*
X90983333Y-57197080D02*
X90935714Y-57244700D01*
X90935714Y-57244700D02*
X90792857Y-57292319D01*
X90792857Y-57292319D02*
X90697619Y-57292319D01*
X90697619Y-57292319D02*
X90554762Y-57244700D01*
X90554762Y-57244700D02*
X90459524Y-57149461D01*
X90459524Y-57149461D02*
X90411905Y-57054223D01*
X90411905Y-57054223D02*
X90364286Y-56863747D01*
X90364286Y-56863747D02*
X90364286Y-56720890D01*
X90364286Y-56720890D02*
X90411905Y-56530414D01*
X90411905Y-56530414D02*
X90459524Y-56435176D01*
X90459524Y-56435176D02*
X90554762Y-56339938D01*
X90554762Y-56339938D02*
X90697619Y-56292319D01*
X90697619Y-56292319D02*
X90792857Y-56292319D01*
X90792857Y-56292319D02*
X90935714Y-56339938D01*
X90935714Y-56339938D02*
X90983333Y-56387557D01*
X91316667Y-56292319D02*
X91983333Y-56292319D01*
X91983333Y-56292319D02*
X91554762Y-57292319D01*
X108533333Y-57354819D02*
X108200000Y-56878628D01*
X107961905Y-57354819D02*
X107961905Y-56354819D01*
X107961905Y-56354819D02*
X108342857Y-56354819D01*
X108342857Y-56354819D02*
X108438095Y-56402438D01*
X108438095Y-56402438D02*
X108485714Y-56450057D01*
X108485714Y-56450057D02*
X108533333Y-56545295D01*
X108533333Y-56545295D02*
X108533333Y-56688152D01*
X108533333Y-56688152D02*
X108485714Y-56783390D01*
X108485714Y-56783390D02*
X108438095Y-56831009D01*
X108438095Y-56831009D02*
X108342857Y-56878628D01*
X108342857Y-56878628D02*
X107961905Y-56878628D01*
X109390476Y-56688152D02*
X109390476Y-57354819D01*
X109152381Y-56307200D02*
X108914286Y-57021485D01*
X108914286Y-57021485D02*
X109533333Y-57021485D01*
X85383333Y-57109580D02*
X85335714Y-57157200D01*
X85335714Y-57157200D02*
X85192857Y-57204819D01*
X85192857Y-57204819D02*
X85097619Y-57204819D01*
X85097619Y-57204819D02*
X84954762Y-57157200D01*
X84954762Y-57157200D02*
X84859524Y-57061961D01*
X84859524Y-57061961D02*
X84811905Y-56966723D01*
X84811905Y-56966723D02*
X84764286Y-56776247D01*
X84764286Y-56776247D02*
X84764286Y-56633390D01*
X84764286Y-56633390D02*
X84811905Y-56442914D01*
X84811905Y-56442914D02*
X84859524Y-56347676D01*
X84859524Y-56347676D02*
X84954762Y-56252438D01*
X84954762Y-56252438D02*
X85097619Y-56204819D01*
X85097619Y-56204819D02*
X85192857Y-56204819D01*
X85192857Y-56204819D02*
X85335714Y-56252438D01*
X85335714Y-56252438D02*
X85383333Y-56300057D01*
X85859524Y-57204819D02*
X86050000Y-57204819D01*
X86050000Y-57204819D02*
X86145238Y-57157200D01*
X86145238Y-57157200D02*
X86192857Y-57109580D01*
X86192857Y-57109580D02*
X86288095Y-56966723D01*
X86288095Y-56966723D02*
X86335714Y-56776247D01*
X86335714Y-56776247D02*
X86335714Y-56395295D01*
X86335714Y-56395295D02*
X86288095Y-56300057D01*
X86288095Y-56300057D02*
X86240476Y-56252438D01*
X86240476Y-56252438D02*
X86145238Y-56204819D01*
X86145238Y-56204819D02*
X85954762Y-56204819D01*
X85954762Y-56204819D02*
X85859524Y-56252438D01*
X85859524Y-56252438D02*
X85811905Y-56300057D01*
X85811905Y-56300057D02*
X85764286Y-56395295D01*
X85764286Y-56395295D02*
X85764286Y-56633390D01*
X85764286Y-56633390D02*
X85811905Y-56728628D01*
X85811905Y-56728628D02*
X85859524Y-56776247D01*
X85859524Y-56776247D02*
X85954762Y-56823866D01*
X85954762Y-56823866D02*
X86145238Y-56823866D01*
X86145238Y-56823866D02*
X86240476Y-56776247D01*
X86240476Y-56776247D02*
X86288095Y-56728628D01*
X86288095Y-56728628D02*
X86335714Y-56633390D01*
X116154761Y-73624819D02*
X115821428Y-73148628D01*
X115583333Y-73624819D02*
X115583333Y-72624819D01*
X115583333Y-72624819D02*
X115964285Y-72624819D01*
X115964285Y-72624819D02*
X116059523Y-72672438D01*
X116059523Y-72672438D02*
X116107142Y-72720057D01*
X116107142Y-72720057D02*
X116154761Y-72815295D01*
X116154761Y-72815295D02*
X116154761Y-72958152D01*
X116154761Y-72958152D02*
X116107142Y-73053390D01*
X116107142Y-73053390D02*
X116059523Y-73101009D01*
X116059523Y-73101009D02*
X115964285Y-73148628D01*
X115964285Y-73148628D02*
X115583333Y-73148628D01*
X117011904Y-73577200D02*
X116916666Y-73624819D01*
X116916666Y-73624819D02*
X116726190Y-73624819D01*
X116726190Y-73624819D02*
X116630952Y-73577200D01*
X116630952Y-73577200D02*
X116583333Y-73529580D01*
X116583333Y-73529580D02*
X116535714Y-73434342D01*
X116535714Y-73434342D02*
X116535714Y-73148628D01*
X116535714Y-73148628D02*
X116583333Y-73053390D01*
X116583333Y-73053390D02*
X116630952Y-73005771D01*
X116630952Y-73005771D02*
X116726190Y-72958152D01*
X116726190Y-72958152D02*
X116916666Y-72958152D01*
X116916666Y-72958152D02*
X117011904Y-73005771D01*
X117964285Y-73624819D02*
X117392857Y-73624819D01*
X117678571Y-73624819D02*
X117678571Y-72624819D01*
X117678571Y-72624819D02*
X117583333Y-72767676D01*
X117583333Y-72767676D02*
X117488095Y-72862914D01*
X117488095Y-72862914D02*
X117392857Y-72910533D01*
X116827933Y-55934280D02*
X116780314Y-55981900D01*
X116780314Y-55981900D02*
X116637457Y-56029519D01*
X116637457Y-56029519D02*
X116542219Y-56029519D01*
X116542219Y-56029519D02*
X116399362Y-55981900D01*
X116399362Y-55981900D02*
X116304124Y-55886661D01*
X116304124Y-55886661D02*
X116256505Y-55791423D01*
X116256505Y-55791423D02*
X116208886Y-55600947D01*
X116208886Y-55600947D02*
X116208886Y-55458090D01*
X116208886Y-55458090D02*
X116256505Y-55267614D01*
X116256505Y-55267614D02*
X116304124Y-55172376D01*
X116304124Y-55172376D02*
X116399362Y-55077138D01*
X116399362Y-55077138D02*
X116542219Y-55029519D01*
X116542219Y-55029519D02*
X116637457Y-55029519D01*
X116637457Y-55029519D02*
X116780314Y-55077138D01*
X116780314Y-55077138D02*
X116827933Y-55124757D01*
X117685076Y-55362852D02*
X117685076Y-56029519D01*
X117446981Y-54981900D02*
X117208886Y-55696185D01*
X117208886Y-55696185D02*
X117827933Y-55696185D01*
X93991433Y-75202819D02*
X93658100Y-74726628D01*
X93420005Y-75202819D02*
X93420005Y-74202819D01*
X93420005Y-74202819D02*
X93800957Y-74202819D01*
X93800957Y-74202819D02*
X93896195Y-74250438D01*
X93896195Y-74250438D02*
X93943814Y-74298057D01*
X93943814Y-74298057D02*
X93991433Y-74393295D01*
X93991433Y-74393295D02*
X93991433Y-74536152D01*
X93991433Y-74536152D02*
X93943814Y-74631390D01*
X93943814Y-74631390D02*
X93896195Y-74679009D01*
X93896195Y-74679009D02*
X93800957Y-74726628D01*
X93800957Y-74726628D02*
X93420005Y-74726628D01*
X94372386Y-74298057D02*
X94420005Y-74250438D01*
X94420005Y-74250438D02*
X94515243Y-74202819D01*
X94515243Y-74202819D02*
X94753338Y-74202819D01*
X94753338Y-74202819D02*
X94848576Y-74250438D01*
X94848576Y-74250438D02*
X94896195Y-74298057D01*
X94896195Y-74298057D02*
X94943814Y-74393295D01*
X94943814Y-74393295D02*
X94943814Y-74488533D01*
X94943814Y-74488533D02*
X94896195Y-74631390D01*
X94896195Y-74631390D02*
X94324767Y-75202819D01*
X94324767Y-75202819D02*
X94943814Y-75202819D01*
X71339904Y-61739580D02*
X71292285Y-61787200D01*
X71292285Y-61787200D02*
X71149428Y-61834819D01*
X71149428Y-61834819D02*
X71054190Y-61834819D01*
X71054190Y-61834819D02*
X70911333Y-61787200D01*
X70911333Y-61787200D02*
X70816095Y-61691961D01*
X70816095Y-61691961D02*
X70768476Y-61596723D01*
X70768476Y-61596723D02*
X70720857Y-61406247D01*
X70720857Y-61406247D02*
X70720857Y-61263390D01*
X70720857Y-61263390D02*
X70768476Y-61072914D01*
X70768476Y-61072914D02*
X70816095Y-60977676D01*
X70816095Y-60977676D02*
X70911333Y-60882438D01*
X70911333Y-60882438D02*
X71054190Y-60834819D01*
X71054190Y-60834819D02*
X71149428Y-60834819D01*
X71149428Y-60834819D02*
X71292285Y-60882438D01*
X71292285Y-60882438D02*
X71339904Y-60930057D01*
X71768476Y-61834819D02*
X71768476Y-60834819D01*
X71768476Y-61215771D02*
X71863714Y-61168152D01*
X71863714Y-61168152D02*
X72054190Y-61168152D01*
X72054190Y-61168152D02*
X72149428Y-61215771D01*
X72149428Y-61215771D02*
X72197047Y-61263390D01*
X72197047Y-61263390D02*
X72244666Y-61358628D01*
X72244666Y-61358628D02*
X72244666Y-61644342D01*
X72244666Y-61644342D02*
X72197047Y-61739580D01*
X72197047Y-61739580D02*
X72149428Y-61787200D01*
X72149428Y-61787200D02*
X72054190Y-61834819D01*
X72054190Y-61834819D02*
X71863714Y-61834819D01*
X71863714Y-61834819D02*
X71768476Y-61787200D01*
X73101809Y-61168152D02*
X73101809Y-61834819D01*
X72673238Y-61168152D02*
X72673238Y-61691961D01*
X72673238Y-61691961D02*
X72720857Y-61787200D01*
X72720857Y-61787200D02*
X72816095Y-61834819D01*
X72816095Y-61834819D02*
X72958952Y-61834819D01*
X72958952Y-61834819D02*
X73054190Y-61787200D01*
X73054190Y-61787200D02*
X73101809Y-61739580D01*
X73720857Y-61834819D02*
X73625619Y-61787200D01*
X73625619Y-61787200D02*
X73578000Y-61691961D01*
X73578000Y-61691961D02*
X73578000Y-60834819D01*
X74101810Y-61834819D02*
X74101810Y-60834819D01*
X74197048Y-61453866D02*
X74482762Y-61834819D01*
X74482762Y-61168152D02*
X74101810Y-61549104D01*
X75435143Y-61834819D02*
X74863715Y-61834819D01*
X75149429Y-61834819D02*
X75149429Y-60834819D01*
X75149429Y-60834819D02*
X75054191Y-60977676D01*
X75054191Y-60977676D02*
X74958953Y-61072914D01*
X74958953Y-61072914D02*
X74863715Y-61120533D01*
X100304819Y-76022619D02*
X99828628Y-76355952D01*
X100304819Y-76594047D02*
X99304819Y-76594047D01*
X99304819Y-76594047D02*
X99304819Y-76213095D01*
X99304819Y-76213095D02*
X99352438Y-76117857D01*
X99352438Y-76117857D02*
X99400057Y-76070238D01*
X99400057Y-76070238D02*
X99495295Y-76022619D01*
X99495295Y-76022619D02*
X99638152Y-76022619D01*
X99638152Y-76022619D02*
X99733390Y-76070238D01*
X99733390Y-76070238D02*
X99781009Y-76117857D01*
X99781009Y-76117857D02*
X99828628Y-76213095D01*
X99828628Y-76213095D02*
X99828628Y-76594047D01*
X99304819Y-75736904D02*
X99304819Y-75165476D01*
X100304819Y-75451190D02*
X99304819Y-75451190D01*
X100304819Y-74308333D02*
X100304819Y-74879761D01*
X100304819Y-74594047D02*
X99304819Y-74594047D01*
X99304819Y-74594047D02*
X99447676Y-74689285D01*
X99447676Y-74689285D02*
X99542914Y-74784523D01*
X99542914Y-74784523D02*
X99590533Y-74879761D01*
X110540619Y-74464038D02*
X110064428Y-74797371D01*
X110540619Y-75035466D02*
X109540619Y-75035466D01*
X109540619Y-75035466D02*
X109540619Y-74654514D01*
X109540619Y-74654514D02*
X109588238Y-74559276D01*
X109588238Y-74559276D02*
X109635857Y-74511657D01*
X109635857Y-74511657D02*
X109731095Y-74464038D01*
X109731095Y-74464038D02*
X109873952Y-74464038D01*
X109873952Y-74464038D02*
X109969190Y-74511657D01*
X109969190Y-74511657D02*
X110016809Y-74559276D01*
X110016809Y-74559276D02*
X110064428Y-74654514D01*
X110064428Y-74654514D02*
X110064428Y-75035466D01*
X110016809Y-73702133D02*
X110016809Y-74035466D01*
X110540619Y-74035466D02*
X109540619Y-74035466D01*
X109540619Y-74035466D02*
X109540619Y-73559276D01*
X110016809Y-72844990D02*
X110064428Y-72702133D01*
X110064428Y-72702133D02*
X110112047Y-72654514D01*
X110112047Y-72654514D02*
X110207285Y-72606895D01*
X110207285Y-72606895D02*
X110350142Y-72606895D01*
X110350142Y-72606895D02*
X110445380Y-72654514D01*
X110445380Y-72654514D02*
X110493000Y-72702133D01*
X110493000Y-72702133D02*
X110540619Y-72797371D01*
X110540619Y-72797371D02*
X110540619Y-73178323D01*
X110540619Y-73178323D02*
X109540619Y-73178323D01*
X109540619Y-73178323D02*
X109540619Y-72844990D01*
X109540619Y-72844990D02*
X109588238Y-72749752D01*
X109588238Y-72749752D02*
X109635857Y-72702133D01*
X109635857Y-72702133D02*
X109731095Y-72654514D01*
X109731095Y-72654514D02*
X109826333Y-72654514D01*
X109826333Y-72654514D02*
X109921571Y-72702133D01*
X109921571Y-72702133D02*
X109969190Y-72749752D01*
X109969190Y-72749752D02*
X110016809Y-72844990D01*
X110016809Y-72844990D02*
X110016809Y-73178323D01*
X109635857Y-72225942D02*
X109588238Y-72178323D01*
X109588238Y-72178323D02*
X109540619Y-72083085D01*
X109540619Y-72083085D02*
X109540619Y-71844990D01*
X109540619Y-71844990D02*
X109588238Y-71749752D01*
X109588238Y-71749752D02*
X109635857Y-71702133D01*
X109635857Y-71702133D02*
X109731095Y-71654514D01*
X109731095Y-71654514D02*
X109826333Y-71654514D01*
X109826333Y-71654514D02*
X109969190Y-71702133D01*
X109969190Y-71702133D02*
X110540619Y-72273561D01*
X110540619Y-72273561D02*
X110540619Y-71654514D01*
X82954819Y-35238094D02*
X81954819Y-35238094D01*
X81954819Y-35238094D02*
X81954819Y-34999999D01*
X81954819Y-34999999D02*
X82002438Y-34857142D01*
X82002438Y-34857142D02*
X82097676Y-34761904D01*
X82097676Y-34761904D02*
X82192914Y-34714285D01*
X82192914Y-34714285D02*
X82383390Y-34666666D01*
X82383390Y-34666666D02*
X82526247Y-34666666D01*
X82526247Y-34666666D02*
X82716723Y-34714285D01*
X82716723Y-34714285D02*
X82811961Y-34761904D01*
X82811961Y-34761904D02*
X82907200Y-34857142D01*
X82907200Y-34857142D02*
X82954819Y-34999999D01*
X82954819Y-34999999D02*
X82954819Y-35238094D01*
X82050057Y-34285713D02*
X82002438Y-34238094D01*
X82002438Y-34238094D02*
X81954819Y-34142856D01*
X81954819Y-34142856D02*
X81954819Y-33904761D01*
X81954819Y-33904761D02*
X82002438Y-33809523D01*
X82002438Y-33809523D02*
X82050057Y-33761904D01*
X82050057Y-33761904D02*
X82145295Y-33714285D01*
X82145295Y-33714285D02*
X82240533Y-33714285D01*
X82240533Y-33714285D02*
X82383390Y-33761904D01*
X82383390Y-33761904D02*
X82954819Y-34333332D01*
X82954819Y-34333332D02*
X82954819Y-33714285D01*
X93993333Y-70615619D02*
X93660000Y-70139428D01*
X93421905Y-70615619D02*
X93421905Y-69615619D01*
X93421905Y-69615619D02*
X93802857Y-69615619D01*
X93802857Y-69615619D02*
X93898095Y-69663238D01*
X93898095Y-69663238D02*
X93945714Y-69710857D01*
X93945714Y-69710857D02*
X93993333Y-69806095D01*
X93993333Y-69806095D02*
X93993333Y-69948952D01*
X93993333Y-69948952D02*
X93945714Y-70044190D01*
X93945714Y-70044190D02*
X93898095Y-70091809D01*
X93898095Y-70091809D02*
X93802857Y-70139428D01*
X93802857Y-70139428D02*
X93421905Y-70139428D01*
X94326667Y-69615619D02*
X94945714Y-69615619D01*
X94945714Y-69615619D02*
X94612381Y-69996571D01*
X94612381Y-69996571D02*
X94755238Y-69996571D01*
X94755238Y-69996571D02*
X94850476Y-70044190D01*
X94850476Y-70044190D02*
X94898095Y-70091809D01*
X94898095Y-70091809D02*
X94945714Y-70187047D01*
X94945714Y-70187047D02*
X94945714Y-70425142D01*
X94945714Y-70425142D02*
X94898095Y-70520380D01*
X94898095Y-70520380D02*
X94850476Y-70568000D01*
X94850476Y-70568000D02*
X94755238Y-70615619D01*
X94755238Y-70615619D02*
X94469524Y-70615619D01*
X94469524Y-70615619D02*
X94374286Y-70568000D01*
X94374286Y-70568000D02*
X94326667Y-70520380D01*
X99039285Y-53229819D02*
X98705952Y-52753628D01*
X98467857Y-53229819D02*
X98467857Y-52229819D01*
X98467857Y-52229819D02*
X98848809Y-52229819D01*
X98848809Y-52229819D02*
X98944047Y-52277438D01*
X98944047Y-52277438D02*
X98991666Y-52325057D01*
X98991666Y-52325057D02*
X99039285Y-52420295D01*
X99039285Y-52420295D02*
X99039285Y-52563152D01*
X99039285Y-52563152D02*
X98991666Y-52658390D01*
X98991666Y-52658390D02*
X98944047Y-52706009D01*
X98944047Y-52706009D02*
X98848809Y-52753628D01*
X98848809Y-52753628D02*
X98467857Y-52753628D01*
X99420238Y-53182200D02*
X99515476Y-53229819D01*
X99515476Y-53229819D02*
X99705952Y-53229819D01*
X99705952Y-53229819D02*
X99801190Y-53182200D01*
X99801190Y-53182200D02*
X99848809Y-53086961D01*
X99848809Y-53086961D02*
X99848809Y-53039342D01*
X99848809Y-53039342D02*
X99801190Y-52944104D01*
X99801190Y-52944104D02*
X99705952Y-52896485D01*
X99705952Y-52896485D02*
X99563095Y-52896485D01*
X99563095Y-52896485D02*
X99467857Y-52848866D01*
X99467857Y-52848866D02*
X99420238Y-52753628D01*
X99420238Y-52753628D02*
X99420238Y-52706009D01*
X99420238Y-52706009D02*
X99467857Y-52610771D01*
X99467857Y-52610771D02*
X99563095Y-52563152D01*
X99563095Y-52563152D02*
X99705952Y-52563152D01*
X99705952Y-52563152D02*
X99801190Y-52610771D01*
X100658333Y-53182200D02*
X100563095Y-53229819D01*
X100563095Y-53229819D02*
X100372619Y-53229819D01*
X100372619Y-53229819D02*
X100277381Y-53182200D01*
X100277381Y-53182200D02*
X100229762Y-53086961D01*
X100229762Y-53086961D02*
X100229762Y-52706009D01*
X100229762Y-52706009D02*
X100277381Y-52610771D01*
X100277381Y-52610771D02*
X100372619Y-52563152D01*
X100372619Y-52563152D02*
X100563095Y-52563152D01*
X100563095Y-52563152D02*
X100658333Y-52610771D01*
X100658333Y-52610771D02*
X100705952Y-52706009D01*
X100705952Y-52706009D02*
X100705952Y-52801247D01*
X100705952Y-52801247D02*
X100229762Y-52896485D01*
X101134524Y-52563152D02*
X101134524Y-53229819D01*
X101134524Y-52658390D02*
X101182143Y-52610771D01*
X101182143Y-52610771D02*
X101277381Y-52563152D01*
X101277381Y-52563152D02*
X101420238Y-52563152D01*
X101420238Y-52563152D02*
X101515476Y-52610771D01*
X101515476Y-52610771D02*
X101563095Y-52706009D01*
X101563095Y-52706009D02*
X101563095Y-53229819D01*
X101991667Y-53182200D02*
X102086905Y-53229819D01*
X102086905Y-53229819D02*
X102277381Y-53229819D01*
X102277381Y-53229819D02*
X102372619Y-53182200D01*
X102372619Y-53182200D02*
X102420238Y-53086961D01*
X102420238Y-53086961D02*
X102420238Y-53039342D01*
X102420238Y-53039342D02*
X102372619Y-52944104D01*
X102372619Y-52944104D02*
X102277381Y-52896485D01*
X102277381Y-52896485D02*
X102134524Y-52896485D01*
X102134524Y-52896485D02*
X102039286Y-52848866D01*
X102039286Y-52848866D02*
X101991667Y-52753628D01*
X101991667Y-52753628D02*
X101991667Y-52706009D01*
X101991667Y-52706009D02*
X102039286Y-52610771D01*
X102039286Y-52610771D02*
X102134524Y-52563152D01*
X102134524Y-52563152D02*
X102277381Y-52563152D01*
X102277381Y-52563152D02*
X102372619Y-52610771D01*
X103229762Y-53182200D02*
X103134524Y-53229819D01*
X103134524Y-53229819D02*
X102944048Y-53229819D01*
X102944048Y-53229819D02*
X102848810Y-53182200D01*
X102848810Y-53182200D02*
X102801191Y-53086961D01*
X102801191Y-53086961D02*
X102801191Y-52706009D01*
X102801191Y-52706009D02*
X102848810Y-52610771D01*
X102848810Y-52610771D02*
X102944048Y-52563152D01*
X102944048Y-52563152D02*
X103134524Y-52563152D01*
X103134524Y-52563152D02*
X103229762Y-52610771D01*
X103229762Y-52610771D02*
X103277381Y-52706009D01*
X103277381Y-52706009D02*
X103277381Y-52801247D01*
X103277381Y-52801247D02*
X102801191Y-52896485D01*
X104229762Y-53229819D02*
X103658334Y-53229819D01*
X103944048Y-53229819D02*
X103944048Y-52229819D01*
X103944048Y-52229819D02*
X103848810Y-52372676D01*
X103848810Y-52372676D02*
X103753572Y-52467914D01*
X103753572Y-52467914D02*
X103658334Y-52515533D01*
X113983933Y-55934280D02*
X113936314Y-55981900D01*
X113936314Y-55981900D02*
X113793457Y-56029519D01*
X113793457Y-56029519D02*
X113698219Y-56029519D01*
X113698219Y-56029519D02*
X113555362Y-55981900D01*
X113555362Y-55981900D02*
X113460124Y-55886661D01*
X113460124Y-55886661D02*
X113412505Y-55791423D01*
X113412505Y-55791423D02*
X113364886Y-55600947D01*
X113364886Y-55600947D02*
X113364886Y-55458090D01*
X113364886Y-55458090D02*
X113412505Y-55267614D01*
X113412505Y-55267614D02*
X113460124Y-55172376D01*
X113460124Y-55172376D02*
X113555362Y-55077138D01*
X113555362Y-55077138D02*
X113698219Y-55029519D01*
X113698219Y-55029519D02*
X113793457Y-55029519D01*
X113793457Y-55029519D02*
X113936314Y-55077138D01*
X113936314Y-55077138D02*
X113983933Y-55124757D01*
X114841076Y-55029519D02*
X114650600Y-55029519D01*
X114650600Y-55029519D02*
X114555362Y-55077138D01*
X114555362Y-55077138D02*
X114507743Y-55124757D01*
X114507743Y-55124757D02*
X114412505Y-55267614D01*
X114412505Y-55267614D02*
X114364886Y-55458090D01*
X114364886Y-55458090D02*
X114364886Y-55839042D01*
X114364886Y-55839042D02*
X114412505Y-55934280D01*
X114412505Y-55934280D02*
X114460124Y-55981900D01*
X114460124Y-55981900D02*
X114555362Y-56029519D01*
X114555362Y-56029519D02*
X114745838Y-56029519D01*
X114745838Y-56029519D02*
X114841076Y-55981900D01*
X114841076Y-55981900D02*
X114888695Y-55934280D01*
X114888695Y-55934280D02*
X114936314Y-55839042D01*
X114936314Y-55839042D02*
X114936314Y-55600947D01*
X114936314Y-55600947D02*
X114888695Y-55505709D01*
X114888695Y-55505709D02*
X114841076Y-55458090D01*
X114841076Y-55458090D02*
X114745838Y-55410471D01*
X114745838Y-55410471D02*
X114555362Y-55410471D01*
X114555362Y-55410471D02*
X114460124Y-55458090D01*
X114460124Y-55458090D02*
X114412505Y-55505709D01*
X114412505Y-55505709D02*
X114364886Y-55600947D01*
X88233333Y-57159580D02*
X88185714Y-57207200D01*
X88185714Y-57207200D02*
X88042857Y-57254819D01*
X88042857Y-57254819D02*
X87947619Y-57254819D01*
X87947619Y-57254819D02*
X87804762Y-57207200D01*
X87804762Y-57207200D02*
X87709524Y-57111961D01*
X87709524Y-57111961D02*
X87661905Y-57016723D01*
X87661905Y-57016723D02*
X87614286Y-56826247D01*
X87614286Y-56826247D02*
X87614286Y-56683390D01*
X87614286Y-56683390D02*
X87661905Y-56492914D01*
X87661905Y-56492914D02*
X87709524Y-56397676D01*
X87709524Y-56397676D02*
X87804762Y-56302438D01*
X87804762Y-56302438D02*
X87947619Y-56254819D01*
X87947619Y-56254819D02*
X88042857Y-56254819D01*
X88042857Y-56254819D02*
X88185714Y-56302438D01*
X88185714Y-56302438D02*
X88233333Y-56350057D01*
X88804762Y-56683390D02*
X88709524Y-56635771D01*
X88709524Y-56635771D02*
X88661905Y-56588152D01*
X88661905Y-56588152D02*
X88614286Y-56492914D01*
X88614286Y-56492914D02*
X88614286Y-56445295D01*
X88614286Y-56445295D02*
X88661905Y-56350057D01*
X88661905Y-56350057D02*
X88709524Y-56302438D01*
X88709524Y-56302438D02*
X88804762Y-56254819D01*
X88804762Y-56254819D02*
X88995238Y-56254819D01*
X88995238Y-56254819D02*
X89090476Y-56302438D01*
X89090476Y-56302438D02*
X89138095Y-56350057D01*
X89138095Y-56350057D02*
X89185714Y-56445295D01*
X89185714Y-56445295D02*
X89185714Y-56492914D01*
X89185714Y-56492914D02*
X89138095Y-56588152D01*
X89138095Y-56588152D02*
X89090476Y-56635771D01*
X89090476Y-56635771D02*
X88995238Y-56683390D01*
X88995238Y-56683390D02*
X88804762Y-56683390D01*
X88804762Y-56683390D02*
X88709524Y-56731009D01*
X88709524Y-56731009D02*
X88661905Y-56778628D01*
X88661905Y-56778628D02*
X88614286Y-56873866D01*
X88614286Y-56873866D02*
X88614286Y-57064342D01*
X88614286Y-57064342D02*
X88661905Y-57159580D01*
X88661905Y-57159580D02*
X88709524Y-57207200D01*
X88709524Y-57207200D02*
X88804762Y-57254819D01*
X88804762Y-57254819D02*
X88995238Y-57254819D01*
X88995238Y-57254819D02*
X89090476Y-57207200D01*
X89090476Y-57207200D02*
X89138095Y-57159580D01*
X89138095Y-57159580D02*
X89185714Y-57064342D01*
X89185714Y-57064342D02*
X89185714Y-56873866D01*
X89185714Y-56873866D02*
X89138095Y-56778628D01*
X89138095Y-56778628D02*
X89090476Y-56731009D01*
X89090476Y-56731009D02*
X88995238Y-56683390D01*
X105724819Y-60321428D02*
X105248628Y-60654761D01*
X105724819Y-60892856D02*
X104724819Y-60892856D01*
X104724819Y-60892856D02*
X104724819Y-60511904D01*
X104724819Y-60511904D02*
X104772438Y-60416666D01*
X104772438Y-60416666D02*
X104820057Y-60369047D01*
X104820057Y-60369047D02*
X104915295Y-60321428D01*
X104915295Y-60321428D02*
X105058152Y-60321428D01*
X105058152Y-60321428D02*
X105153390Y-60369047D01*
X105153390Y-60369047D02*
X105201009Y-60416666D01*
X105201009Y-60416666D02*
X105248628Y-60511904D01*
X105248628Y-60511904D02*
X105248628Y-60892856D01*
X105058152Y-59892856D02*
X106058152Y-59892856D01*
X105105771Y-59892856D02*
X105058152Y-59797618D01*
X105058152Y-59797618D02*
X105058152Y-59607142D01*
X105058152Y-59607142D02*
X105105771Y-59511904D01*
X105105771Y-59511904D02*
X105153390Y-59464285D01*
X105153390Y-59464285D02*
X105248628Y-59416666D01*
X105248628Y-59416666D02*
X105534342Y-59416666D01*
X105534342Y-59416666D02*
X105629580Y-59464285D01*
X105629580Y-59464285D02*
X105677200Y-59511904D01*
X105677200Y-59511904D02*
X105724819Y-59607142D01*
X105724819Y-59607142D02*
X105724819Y-59797618D01*
X105724819Y-59797618D02*
X105677200Y-59892856D01*
X105058152Y-58559523D02*
X105867676Y-58559523D01*
X105867676Y-58559523D02*
X105962914Y-58607142D01*
X105962914Y-58607142D02*
X106010533Y-58654761D01*
X106010533Y-58654761D02*
X106058152Y-58749999D01*
X106058152Y-58749999D02*
X106058152Y-58892856D01*
X106058152Y-58892856D02*
X106010533Y-58988094D01*
X105677200Y-58559523D02*
X105724819Y-58654761D01*
X105724819Y-58654761D02*
X105724819Y-58845237D01*
X105724819Y-58845237D02*
X105677200Y-58940475D01*
X105677200Y-58940475D02*
X105629580Y-58988094D01*
X105629580Y-58988094D02*
X105534342Y-59035713D01*
X105534342Y-59035713D02*
X105248628Y-59035713D01*
X105248628Y-59035713D02*
X105153390Y-58988094D01*
X105153390Y-58988094D02*
X105105771Y-58940475D01*
X105105771Y-58940475D02*
X105058152Y-58845237D01*
X105058152Y-58845237D02*
X105058152Y-58654761D01*
X105058152Y-58654761D02*
X105105771Y-58559523D01*
X105724819Y-57559523D02*
X105724819Y-58130951D01*
X105724819Y-57845237D02*
X104724819Y-57845237D01*
X104724819Y-57845237D02*
X104867676Y-57940475D01*
X104867676Y-57940475D02*
X104962914Y-58035713D01*
X104962914Y-58035713D02*
X105010533Y-58130951D01*
X112713580Y-59413066D02*
X112761200Y-59460685D01*
X112761200Y-59460685D02*
X112808819Y-59603542D01*
X112808819Y-59603542D02*
X112808819Y-59698780D01*
X112808819Y-59698780D02*
X112761200Y-59841637D01*
X112761200Y-59841637D02*
X112665961Y-59936875D01*
X112665961Y-59936875D02*
X112570723Y-59984494D01*
X112570723Y-59984494D02*
X112380247Y-60032113D01*
X112380247Y-60032113D02*
X112237390Y-60032113D01*
X112237390Y-60032113D02*
X112046914Y-59984494D01*
X112046914Y-59984494D02*
X111951676Y-59936875D01*
X111951676Y-59936875D02*
X111856438Y-59841637D01*
X111856438Y-59841637D02*
X111808819Y-59698780D01*
X111808819Y-59698780D02*
X111808819Y-59603542D01*
X111808819Y-59603542D02*
X111856438Y-59460685D01*
X111856438Y-59460685D02*
X111904057Y-59413066D01*
X112808819Y-58460685D02*
X112808819Y-59032113D01*
X112808819Y-58746399D02*
X111808819Y-58746399D01*
X111808819Y-58746399D02*
X111951676Y-58841637D01*
X111951676Y-58841637D02*
X112046914Y-58936875D01*
X112046914Y-58936875D02*
X112094533Y-59032113D01*
X112780952Y-48800057D02*
X112685714Y-48752438D01*
X112685714Y-48752438D02*
X112590476Y-48657200D01*
X112590476Y-48657200D02*
X112447619Y-48514342D01*
X112447619Y-48514342D02*
X112352381Y-48466723D01*
X112352381Y-48466723D02*
X112257143Y-48466723D01*
X112304762Y-48704819D02*
X112209524Y-48657200D01*
X112209524Y-48657200D02*
X112114286Y-48561961D01*
X112114286Y-48561961D02*
X112066667Y-48371485D01*
X112066667Y-48371485D02*
X112066667Y-48038152D01*
X112066667Y-48038152D02*
X112114286Y-47847676D01*
X112114286Y-47847676D02*
X112209524Y-47752438D01*
X112209524Y-47752438D02*
X112304762Y-47704819D01*
X112304762Y-47704819D02*
X112495238Y-47704819D01*
X112495238Y-47704819D02*
X112590476Y-47752438D01*
X112590476Y-47752438D02*
X112685714Y-47847676D01*
X112685714Y-47847676D02*
X112733333Y-48038152D01*
X112733333Y-48038152D02*
X112733333Y-48371485D01*
X112733333Y-48371485D02*
X112685714Y-48561961D01*
X112685714Y-48561961D02*
X112590476Y-48657200D01*
X112590476Y-48657200D02*
X112495238Y-48704819D01*
X112495238Y-48704819D02*
X112304762Y-48704819D01*
X113161905Y-48704819D02*
X113161905Y-47704819D01*
X113161905Y-48181009D02*
X113733333Y-48181009D01*
X113733333Y-48704819D02*
X113733333Y-47704819D01*
X114161905Y-47800057D02*
X114209524Y-47752438D01*
X114209524Y-47752438D02*
X114304762Y-47704819D01*
X114304762Y-47704819D02*
X114542857Y-47704819D01*
X114542857Y-47704819D02*
X114638095Y-47752438D01*
X114638095Y-47752438D02*
X114685714Y-47800057D01*
X114685714Y-47800057D02*
X114733333Y-47895295D01*
X114733333Y-47895295D02*
X114733333Y-47990533D01*
X114733333Y-47990533D02*
X114685714Y-48133390D01*
X114685714Y-48133390D02*
X114114286Y-48704819D01*
X114114286Y-48704819D02*
X114733333Y-48704819D01*
X78715305Y-74613819D02*
X78715305Y-73613819D01*
X78715305Y-73613819D02*
X78953400Y-73613819D01*
X78953400Y-73613819D02*
X79096257Y-73661438D01*
X79096257Y-73661438D02*
X79191495Y-73756676D01*
X79191495Y-73756676D02*
X79239114Y-73851914D01*
X79239114Y-73851914D02*
X79286733Y-74042390D01*
X79286733Y-74042390D02*
X79286733Y-74185247D01*
X79286733Y-74185247D02*
X79239114Y-74375723D01*
X79239114Y-74375723D02*
X79191495Y-74470961D01*
X79191495Y-74470961D02*
X79096257Y-74566200D01*
X79096257Y-74566200D02*
X78953400Y-74613819D01*
X78953400Y-74613819D02*
X78715305Y-74613819D01*
X79620067Y-73613819D02*
X80239114Y-73613819D01*
X80239114Y-73613819D02*
X79905781Y-73994771D01*
X79905781Y-73994771D02*
X80048638Y-73994771D01*
X80048638Y-73994771D02*
X80143876Y-74042390D01*
X80143876Y-74042390D02*
X80191495Y-74090009D01*
X80191495Y-74090009D02*
X80239114Y-74185247D01*
X80239114Y-74185247D02*
X80239114Y-74423342D01*
X80239114Y-74423342D02*
X80191495Y-74518580D01*
X80191495Y-74518580D02*
X80143876Y-74566200D01*
X80143876Y-74566200D02*
X80048638Y-74613819D01*
X80048638Y-74613819D02*
X79762924Y-74613819D01*
X79762924Y-74613819D02*
X79667686Y-74566200D01*
X79667686Y-74566200D02*
X79620067Y-74518580D01*
X105892419Y-74095238D02*
X105416228Y-74428571D01*
X105892419Y-74666666D02*
X104892419Y-74666666D01*
X104892419Y-74666666D02*
X104892419Y-74285714D01*
X104892419Y-74285714D02*
X104940038Y-74190476D01*
X104940038Y-74190476D02*
X104987657Y-74142857D01*
X104987657Y-74142857D02*
X105082895Y-74095238D01*
X105082895Y-74095238D02*
X105225752Y-74095238D01*
X105225752Y-74095238D02*
X105320990Y-74142857D01*
X105320990Y-74142857D02*
X105368609Y-74190476D01*
X105368609Y-74190476D02*
X105416228Y-74285714D01*
X105416228Y-74285714D02*
X105416228Y-74666666D01*
X105368609Y-73333333D02*
X105368609Y-73666666D01*
X105892419Y-73666666D02*
X104892419Y-73666666D01*
X104892419Y-73666666D02*
X104892419Y-73190476D01*
X105368609Y-72476190D02*
X105416228Y-72333333D01*
X105416228Y-72333333D02*
X105463847Y-72285714D01*
X105463847Y-72285714D02*
X105559085Y-72238095D01*
X105559085Y-72238095D02*
X105701942Y-72238095D01*
X105701942Y-72238095D02*
X105797180Y-72285714D01*
X105797180Y-72285714D02*
X105844800Y-72333333D01*
X105844800Y-72333333D02*
X105892419Y-72428571D01*
X105892419Y-72428571D02*
X105892419Y-72809523D01*
X105892419Y-72809523D02*
X104892419Y-72809523D01*
X104892419Y-72809523D02*
X104892419Y-72476190D01*
X104892419Y-72476190D02*
X104940038Y-72380952D01*
X104940038Y-72380952D02*
X104987657Y-72333333D01*
X104987657Y-72333333D02*
X105082895Y-72285714D01*
X105082895Y-72285714D02*
X105178133Y-72285714D01*
X105178133Y-72285714D02*
X105273371Y-72333333D01*
X105273371Y-72333333D02*
X105320990Y-72380952D01*
X105320990Y-72380952D02*
X105368609Y-72476190D01*
X105368609Y-72476190D02*
X105368609Y-72809523D01*
X105892419Y-71285714D02*
X105892419Y-71857142D01*
X105892419Y-71571428D02*
X104892419Y-71571428D01*
X104892419Y-71571428D02*
X105035276Y-71666666D01*
X105035276Y-71666666D02*
X105130514Y-71761904D01*
X105130514Y-71761904D02*
X105178133Y-71857142D01*
X104749999Y-47050057D02*
X104654761Y-47002438D01*
X104654761Y-47002438D02*
X104559523Y-46907200D01*
X104559523Y-46907200D02*
X104416666Y-46764342D01*
X104416666Y-46764342D02*
X104321428Y-46716723D01*
X104321428Y-46716723D02*
X104226190Y-46716723D01*
X104273809Y-46954819D02*
X104178571Y-46907200D01*
X104178571Y-46907200D02*
X104083333Y-46811961D01*
X104083333Y-46811961D02*
X104035714Y-46621485D01*
X104035714Y-46621485D02*
X104035714Y-46288152D01*
X104035714Y-46288152D02*
X104083333Y-46097676D01*
X104083333Y-46097676D02*
X104178571Y-46002438D01*
X104178571Y-46002438D02*
X104273809Y-45954819D01*
X104273809Y-45954819D02*
X104464285Y-45954819D01*
X104464285Y-45954819D02*
X104559523Y-46002438D01*
X104559523Y-46002438D02*
X104654761Y-46097676D01*
X104654761Y-46097676D02*
X104702380Y-46288152D01*
X104702380Y-46288152D02*
X104702380Y-46621485D01*
X104702380Y-46621485D02*
X104654761Y-46811961D01*
X104654761Y-46811961D02*
X104559523Y-46907200D01*
X104559523Y-46907200D02*
X104464285Y-46954819D01*
X104464285Y-46954819D02*
X104273809Y-46954819D01*
X105607142Y-46954819D02*
X105130952Y-46954819D01*
X105130952Y-46954819D02*
X105130952Y-45954819D01*
X105892857Y-46050057D02*
X105940476Y-46002438D01*
X105940476Y-46002438D02*
X106035714Y-45954819D01*
X106035714Y-45954819D02*
X106273809Y-45954819D01*
X106273809Y-45954819D02*
X106369047Y-46002438D01*
X106369047Y-46002438D02*
X106416666Y-46050057D01*
X106416666Y-46050057D02*
X106464285Y-46145295D01*
X106464285Y-46145295D02*
X106464285Y-46240533D01*
X106464285Y-46240533D02*
X106416666Y-46383390D01*
X106416666Y-46383390D02*
X105845238Y-46954819D01*
X105845238Y-46954819D02*
X106464285Y-46954819D01*
X98054819Y-80166666D02*
X97578628Y-80499999D01*
X98054819Y-80738094D02*
X97054819Y-80738094D01*
X97054819Y-80738094D02*
X97054819Y-80357142D01*
X97054819Y-80357142D02*
X97102438Y-80261904D01*
X97102438Y-80261904D02*
X97150057Y-80214285D01*
X97150057Y-80214285D02*
X97245295Y-80166666D01*
X97245295Y-80166666D02*
X97388152Y-80166666D01*
X97388152Y-80166666D02*
X97483390Y-80214285D01*
X97483390Y-80214285D02*
X97531009Y-80261904D01*
X97531009Y-80261904D02*
X97578628Y-80357142D01*
X97578628Y-80357142D02*
X97578628Y-80738094D01*
X98054819Y-79738094D02*
X97388152Y-79738094D01*
X97483390Y-79738094D02*
X97435771Y-79690475D01*
X97435771Y-79690475D02*
X97388152Y-79595237D01*
X97388152Y-79595237D02*
X97388152Y-79452380D01*
X97388152Y-79452380D02*
X97435771Y-79357142D01*
X97435771Y-79357142D02*
X97531009Y-79309523D01*
X97531009Y-79309523D02*
X98054819Y-79309523D01*
X97531009Y-79309523D02*
X97435771Y-79261904D01*
X97435771Y-79261904D02*
X97388152Y-79166666D01*
X97388152Y-79166666D02*
X97388152Y-79023809D01*
X97388152Y-79023809D02*
X97435771Y-78928570D01*
X97435771Y-78928570D02*
X97531009Y-78880951D01*
X97531009Y-78880951D02*
X98054819Y-78880951D01*
X98054819Y-78261904D02*
X98007200Y-78357142D01*
X98007200Y-78357142D02*
X97959580Y-78404761D01*
X97959580Y-78404761D02*
X97864342Y-78452380D01*
X97864342Y-78452380D02*
X97578628Y-78452380D01*
X97578628Y-78452380D02*
X97483390Y-78404761D01*
X97483390Y-78404761D02*
X97435771Y-78357142D01*
X97435771Y-78357142D02*
X97388152Y-78261904D01*
X97388152Y-78261904D02*
X97388152Y-78119047D01*
X97388152Y-78119047D02*
X97435771Y-78023809D01*
X97435771Y-78023809D02*
X97483390Y-77976190D01*
X97483390Y-77976190D02*
X97578628Y-77928571D01*
X97578628Y-77928571D02*
X97864342Y-77928571D01*
X97864342Y-77928571D02*
X97959580Y-77976190D01*
X97959580Y-77976190D02*
X98007200Y-78023809D01*
X98007200Y-78023809D02*
X98054819Y-78119047D01*
X98054819Y-78119047D02*
X98054819Y-78261904D01*
X98054819Y-77071428D02*
X97054819Y-77071428D01*
X98007200Y-77071428D02*
X98054819Y-77166666D01*
X98054819Y-77166666D02*
X98054819Y-77357142D01*
X98054819Y-77357142D02*
X98007200Y-77452380D01*
X98007200Y-77452380D02*
X97959580Y-77499999D01*
X97959580Y-77499999D02*
X97864342Y-77547618D01*
X97864342Y-77547618D02*
X97578628Y-77547618D01*
X97578628Y-77547618D02*
X97483390Y-77499999D01*
X97483390Y-77499999D02*
X97435771Y-77452380D01*
X97435771Y-77452380D02*
X97388152Y-77357142D01*
X97388152Y-77357142D02*
X97388152Y-77166666D01*
X97388152Y-77166666D02*
X97435771Y-77071428D01*
X98007200Y-76214285D02*
X98054819Y-76309523D01*
X98054819Y-76309523D02*
X98054819Y-76499999D01*
X98054819Y-76499999D02*
X98007200Y-76595237D01*
X98007200Y-76595237D02*
X97911961Y-76642856D01*
X97911961Y-76642856D02*
X97531009Y-76642856D01*
X97531009Y-76642856D02*
X97435771Y-76595237D01*
X97435771Y-76595237D02*
X97388152Y-76499999D01*
X97388152Y-76499999D02*
X97388152Y-76309523D01*
X97388152Y-76309523D02*
X97435771Y-76214285D01*
X97435771Y-76214285D02*
X97531009Y-76166666D01*
X97531009Y-76166666D02*
X97626247Y-76166666D01*
X97626247Y-76166666D02*
X97721485Y-76642856D01*
X98054819Y-75214285D02*
X98054819Y-75785713D01*
X98054819Y-75499999D02*
X97054819Y-75499999D01*
X97054819Y-75499999D02*
X97197676Y-75595237D01*
X97197676Y-75595237D02*
X97292914Y-75690475D01*
X97292914Y-75690475D02*
X97340533Y-75785713D01*
X101583333Y-24054819D02*
X101107143Y-24054819D01*
X101107143Y-24054819D02*
X101107143Y-23054819D01*
X102440476Y-24054819D02*
X101869048Y-24054819D01*
X102154762Y-24054819D02*
X102154762Y-23054819D01*
X102154762Y-23054819D02*
X102059524Y-23197676D01*
X102059524Y-23197676D02*
X101964286Y-23292914D01*
X101964286Y-23292914D02*
X101869048Y-23340533D01*
X97499999Y-47100057D02*
X97404761Y-47052438D01*
X97404761Y-47052438D02*
X97309523Y-46957200D01*
X97309523Y-46957200D02*
X97166666Y-46814342D01*
X97166666Y-46814342D02*
X97071428Y-46766723D01*
X97071428Y-46766723D02*
X96976190Y-46766723D01*
X97023809Y-47004819D02*
X96928571Y-46957200D01*
X96928571Y-46957200D02*
X96833333Y-46861961D01*
X96833333Y-46861961D02*
X96785714Y-46671485D01*
X96785714Y-46671485D02*
X96785714Y-46338152D01*
X96785714Y-46338152D02*
X96833333Y-46147676D01*
X96833333Y-46147676D02*
X96928571Y-46052438D01*
X96928571Y-46052438D02*
X97023809Y-46004819D01*
X97023809Y-46004819D02*
X97214285Y-46004819D01*
X97214285Y-46004819D02*
X97309523Y-46052438D01*
X97309523Y-46052438D02*
X97404761Y-46147676D01*
X97404761Y-46147676D02*
X97452380Y-46338152D01*
X97452380Y-46338152D02*
X97452380Y-46671485D01*
X97452380Y-46671485D02*
X97404761Y-46861961D01*
X97404761Y-46861961D02*
X97309523Y-46957200D01*
X97309523Y-46957200D02*
X97214285Y-47004819D01*
X97214285Y-47004819D02*
X97023809Y-47004819D01*
X98357142Y-47004819D02*
X97880952Y-47004819D01*
X97880952Y-47004819D02*
X97880952Y-46004819D01*
X99214285Y-47004819D02*
X98642857Y-47004819D01*
X98928571Y-47004819D02*
X98928571Y-46004819D01*
X98928571Y-46004819D02*
X98833333Y-46147676D01*
X98833333Y-46147676D02*
X98738095Y-46242914D01*
X98738095Y-46242914D02*
X98642857Y-46290533D01*
X113711875Y-63234580D02*
X113664256Y-63282200D01*
X113664256Y-63282200D02*
X113521399Y-63329819D01*
X113521399Y-63329819D02*
X113426161Y-63329819D01*
X113426161Y-63329819D02*
X113283304Y-63282200D01*
X113283304Y-63282200D02*
X113188066Y-63186961D01*
X113188066Y-63186961D02*
X113140447Y-63091723D01*
X113140447Y-63091723D02*
X113092828Y-62901247D01*
X113092828Y-62901247D02*
X113092828Y-62758390D01*
X113092828Y-62758390D02*
X113140447Y-62567914D01*
X113140447Y-62567914D02*
X113188066Y-62472676D01*
X113188066Y-62472676D02*
X113283304Y-62377438D01*
X113283304Y-62377438D02*
X113426161Y-62329819D01*
X113426161Y-62329819D02*
X113521399Y-62329819D01*
X113521399Y-62329819D02*
X113664256Y-62377438D01*
X113664256Y-62377438D02*
X113711875Y-62425057D01*
X114140447Y-63329819D02*
X114140447Y-62329819D01*
X114140447Y-62710771D02*
X114235685Y-62663152D01*
X114235685Y-62663152D02*
X114426161Y-62663152D01*
X114426161Y-62663152D02*
X114521399Y-62710771D01*
X114521399Y-62710771D02*
X114569018Y-62758390D01*
X114569018Y-62758390D02*
X114616637Y-62853628D01*
X114616637Y-62853628D02*
X114616637Y-63139342D01*
X114616637Y-63139342D02*
X114569018Y-63234580D01*
X114569018Y-63234580D02*
X114521399Y-63282200D01*
X114521399Y-63282200D02*
X114426161Y-63329819D01*
X114426161Y-63329819D02*
X114235685Y-63329819D01*
X114235685Y-63329819D02*
X114140447Y-63282200D01*
X115188066Y-63329819D02*
X115092828Y-63282200D01*
X115092828Y-63282200D02*
X115045209Y-63234580D01*
X115045209Y-63234580D02*
X114997590Y-63139342D01*
X114997590Y-63139342D02*
X114997590Y-62853628D01*
X114997590Y-62853628D02*
X115045209Y-62758390D01*
X115045209Y-62758390D02*
X115092828Y-62710771D01*
X115092828Y-62710771D02*
X115188066Y-62663152D01*
X115188066Y-62663152D02*
X115330923Y-62663152D01*
X115330923Y-62663152D02*
X115426161Y-62710771D01*
X115426161Y-62710771D02*
X115473780Y-62758390D01*
X115473780Y-62758390D02*
X115521399Y-62853628D01*
X115521399Y-62853628D02*
X115521399Y-63139342D01*
X115521399Y-63139342D02*
X115473780Y-63234580D01*
X115473780Y-63234580D02*
X115426161Y-63282200D01*
X115426161Y-63282200D02*
X115330923Y-63329819D01*
X115330923Y-63329819D02*
X115188066Y-63329819D01*
X116092828Y-63329819D02*
X115997590Y-63282200D01*
X115997590Y-63282200D02*
X115949971Y-63234580D01*
X115949971Y-63234580D02*
X115902352Y-63139342D01*
X115902352Y-63139342D02*
X115902352Y-62853628D01*
X115902352Y-62853628D02*
X115949971Y-62758390D01*
X115949971Y-62758390D02*
X115997590Y-62710771D01*
X115997590Y-62710771D02*
X116092828Y-62663152D01*
X116092828Y-62663152D02*
X116235685Y-62663152D01*
X116235685Y-62663152D02*
X116330923Y-62710771D01*
X116330923Y-62710771D02*
X116378542Y-62758390D01*
X116378542Y-62758390D02*
X116426161Y-62853628D01*
X116426161Y-62853628D02*
X116426161Y-63139342D01*
X116426161Y-63139342D02*
X116378542Y-63234580D01*
X116378542Y-63234580D02*
X116330923Y-63282200D01*
X116330923Y-63282200D02*
X116235685Y-63329819D01*
X116235685Y-63329819D02*
X116092828Y-63329819D01*
X116711876Y-62663152D02*
X117092828Y-62663152D01*
X116854733Y-62329819D02*
X116854733Y-63186961D01*
X116854733Y-63186961D02*
X116902352Y-63282200D01*
X116902352Y-63282200D02*
X116997590Y-63329819D01*
X116997590Y-63329819D02*
X117092828Y-63329819D01*
X117378543Y-62425057D02*
X117426162Y-62377438D01*
X117426162Y-62377438D02*
X117521400Y-62329819D01*
X117521400Y-62329819D02*
X117759495Y-62329819D01*
X117759495Y-62329819D02*
X117854733Y-62377438D01*
X117854733Y-62377438D02*
X117902352Y-62425057D01*
X117902352Y-62425057D02*
X117949971Y-62520295D01*
X117949971Y-62520295D02*
X117949971Y-62615533D01*
X117949971Y-62615533D02*
X117902352Y-62758390D01*
X117902352Y-62758390D02*
X117330924Y-63329819D01*
X117330924Y-63329819D02*
X117949971Y-63329819D01*
X134059580Y-54316666D02*
X134107200Y-54364285D01*
X134107200Y-54364285D02*
X134154819Y-54507142D01*
X134154819Y-54507142D02*
X134154819Y-54602380D01*
X134154819Y-54602380D02*
X134107200Y-54745237D01*
X134107200Y-54745237D02*
X134011961Y-54840475D01*
X134011961Y-54840475D02*
X133916723Y-54888094D01*
X133916723Y-54888094D02*
X133726247Y-54935713D01*
X133726247Y-54935713D02*
X133583390Y-54935713D01*
X133583390Y-54935713D02*
X133392914Y-54888094D01*
X133392914Y-54888094D02*
X133297676Y-54840475D01*
X133297676Y-54840475D02*
X133202438Y-54745237D01*
X133202438Y-54745237D02*
X133154819Y-54602380D01*
X133154819Y-54602380D02*
X133154819Y-54507142D01*
X133154819Y-54507142D02*
X133202438Y-54364285D01*
X133202438Y-54364285D02*
X133250057Y-54316666D01*
X133154819Y-53411904D02*
X133154819Y-53888094D01*
X133154819Y-53888094D02*
X133631009Y-53935713D01*
X133631009Y-53935713D02*
X133583390Y-53888094D01*
X133583390Y-53888094D02*
X133535771Y-53792856D01*
X133535771Y-53792856D02*
X133535771Y-53554761D01*
X133535771Y-53554761D02*
X133583390Y-53459523D01*
X133583390Y-53459523D02*
X133631009Y-53411904D01*
X133631009Y-53411904D02*
X133726247Y-53364285D01*
X133726247Y-53364285D02*
X133964342Y-53364285D01*
X133964342Y-53364285D02*
X134059580Y-53411904D01*
X134059580Y-53411904D02*
X134107200Y-53459523D01*
X134107200Y-53459523D02*
X134154819Y-53554761D01*
X134154819Y-53554761D02*
X134154819Y-53792856D01*
X134154819Y-53792856D02*
X134107200Y-53888094D01*
X134107200Y-53888094D02*
X134059580Y-53935713D01*
X101959580Y-79266667D02*
X102007200Y-79314286D01*
X102007200Y-79314286D02*
X102054819Y-79457143D01*
X102054819Y-79457143D02*
X102054819Y-79552381D01*
X102054819Y-79552381D02*
X102007200Y-79695238D01*
X102007200Y-79695238D02*
X101911961Y-79790476D01*
X101911961Y-79790476D02*
X101816723Y-79838095D01*
X101816723Y-79838095D02*
X101626247Y-79885714D01*
X101626247Y-79885714D02*
X101483390Y-79885714D01*
X101483390Y-79885714D02*
X101292914Y-79838095D01*
X101292914Y-79838095D02*
X101197676Y-79790476D01*
X101197676Y-79790476D02*
X101102438Y-79695238D01*
X101102438Y-79695238D02*
X101054819Y-79552381D01*
X101054819Y-79552381D02*
X101054819Y-79457143D01*
X101054819Y-79457143D02*
X101102438Y-79314286D01*
X101102438Y-79314286D02*
X101150057Y-79266667D01*
X102007200Y-78885714D02*
X102054819Y-78790476D01*
X102054819Y-78790476D02*
X102054819Y-78600000D01*
X102054819Y-78600000D02*
X102007200Y-78504762D01*
X102007200Y-78504762D02*
X101911961Y-78457143D01*
X101911961Y-78457143D02*
X101864342Y-78457143D01*
X101864342Y-78457143D02*
X101769104Y-78504762D01*
X101769104Y-78504762D02*
X101721485Y-78600000D01*
X101721485Y-78600000D02*
X101721485Y-78742857D01*
X101721485Y-78742857D02*
X101673866Y-78838095D01*
X101673866Y-78838095D02*
X101578628Y-78885714D01*
X101578628Y-78885714D02*
X101531009Y-78885714D01*
X101531009Y-78885714D02*
X101435771Y-78838095D01*
X101435771Y-78838095D02*
X101388152Y-78742857D01*
X101388152Y-78742857D02*
X101388152Y-78600000D01*
X101388152Y-78600000D02*
X101435771Y-78504762D01*
X102054819Y-77885714D02*
X102007200Y-77980952D01*
X102007200Y-77980952D02*
X101911961Y-78028571D01*
X101911961Y-78028571D02*
X101054819Y-78028571D01*
X102054819Y-77361904D02*
X102007200Y-77457142D01*
X102007200Y-77457142D02*
X101959580Y-77504761D01*
X101959580Y-77504761D02*
X101864342Y-77552380D01*
X101864342Y-77552380D02*
X101578628Y-77552380D01*
X101578628Y-77552380D02*
X101483390Y-77504761D01*
X101483390Y-77504761D02*
X101435771Y-77457142D01*
X101435771Y-77457142D02*
X101388152Y-77361904D01*
X101388152Y-77361904D02*
X101388152Y-77219047D01*
X101388152Y-77219047D02*
X101435771Y-77123809D01*
X101435771Y-77123809D02*
X101483390Y-77076190D01*
X101483390Y-77076190D02*
X101578628Y-77028571D01*
X101578628Y-77028571D02*
X101864342Y-77028571D01*
X101864342Y-77028571D02*
X101959580Y-77076190D01*
X101959580Y-77076190D02*
X102007200Y-77123809D01*
X102007200Y-77123809D02*
X102054819Y-77219047D01*
X102054819Y-77219047D02*
X102054819Y-77361904D01*
X101388152Y-76599999D02*
X102388152Y-76599999D01*
X101435771Y-76599999D02*
X101388152Y-76504761D01*
X101388152Y-76504761D02*
X101388152Y-76314285D01*
X101388152Y-76314285D02*
X101435771Y-76219047D01*
X101435771Y-76219047D02*
X101483390Y-76171428D01*
X101483390Y-76171428D02*
X101578628Y-76123809D01*
X101578628Y-76123809D02*
X101864342Y-76123809D01*
X101864342Y-76123809D02*
X101959580Y-76171428D01*
X101959580Y-76171428D02*
X102007200Y-76219047D01*
X102007200Y-76219047D02*
X102054819Y-76314285D01*
X102054819Y-76314285D02*
X102054819Y-76504761D01*
X102054819Y-76504761D02*
X102007200Y-76599999D01*
X102007200Y-75314285D02*
X102054819Y-75409523D01*
X102054819Y-75409523D02*
X102054819Y-75599999D01*
X102054819Y-75599999D02*
X102007200Y-75695237D01*
X102007200Y-75695237D02*
X101911961Y-75742856D01*
X101911961Y-75742856D02*
X101531009Y-75742856D01*
X101531009Y-75742856D02*
X101435771Y-75695237D01*
X101435771Y-75695237D02*
X101388152Y-75599999D01*
X101388152Y-75599999D02*
X101388152Y-75409523D01*
X101388152Y-75409523D02*
X101435771Y-75314285D01*
X101435771Y-75314285D02*
X101531009Y-75266666D01*
X101531009Y-75266666D02*
X101626247Y-75266666D01*
X101626247Y-75266666D02*
X101721485Y-75742856D01*
X102054819Y-74314285D02*
X102054819Y-74885713D01*
X102054819Y-74599999D02*
X101054819Y-74599999D01*
X101054819Y-74599999D02*
X101197676Y-74695237D01*
X101197676Y-74695237D02*
X101292914Y-74790475D01*
X101292914Y-74790475D02*
X101340533Y-74885713D01*
X71654819Y-40733333D02*
X72369104Y-40733333D01*
X72369104Y-40733333D02*
X72511961Y-40780952D01*
X72511961Y-40780952D02*
X72607200Y-40876190D01*
X72607200Y-40876190D02*
X72654819Y-41019047D01*
X72654819Y-41019047D02*
X72654819Y-41114285D01*
X71750057Y-40304761D02*
X71702438Y-40257142D01*
X71702438Y-40257142D02*
X71654819Y-40161904D01*
X71654819Y-40161904D02*
X71654819Y-39923809D01*
X71654819Y-39923809D02*
X71702438Y-39828571D01*
X71702438Y-39828571D02*
X71750057Y-39780952D01*
X71750057Y-39780952D02*
X71845295Y-39733333D01*
X71845295Y-39733333D02*
X71940533Y-39733333D01*
X71940533Y-39733333D02*
X72083390Y-39780952D01*
X72083390Y-39780952D02*
X72654819Y-40352380D01*
X72654819Y-40352380D02*
X72654819Y-39733333D01*
X92055780Y-72189266D02*
X92103400Y-72236885D01*
X92103400Y-72236885D02*
X92151019Y-72379742D01*
X92151019Y-72379742D02*
X92151019Y-72474980D01*
X92151019Y-72474980D02*
X92103400Y-72617837D01*
X92103400Y-72617837D02*
X92008161Y-72713075D01*
X92008161Y-72713075D02*
X91912923Y-72760694D01*
X91912923Y-72760694D02*
X91722447Y-72808313D01*
X91722447Y-72808313D02*
X91579590Y-72808313D01*
X91579590Y-72808313D02*
X91389114Y-72760694D01*
X91389114Y-72760694D02*
X91293876Y-72713075D01*
X91293876Y-72713075D02*
X91198638Y-72617837D01*
X91198638Y-72617837D02*
X91151019Y-72474980D01*
X91151019Y-72474980D02*
X91151019Y-72379742D01*
X91151019Y-72379742D02*
X91198638Y-72236885D01*
X91198638Y-72236885D02*
X91246257Y-72189266D01*
X91246257Y-71808313D02*
X91198638Y-71760694D01*
X91198638Y-71760694D02*
X91151019Y-71665456D01*
X91151019Y-71665456D02*
X91151019Y-71427361D01*
X91151019Y-71427361D02*
X91198638Y-71332123D01*
X91198638Y-71332123D02*
X91246257Y-71284504D01*
X91246257Y-71284504D02*
X91341495Y-71236885D01*
X91341495Y-71236885D02*
X91436733Y-71236885D01*
X91436733Y-71236885D02*
X91579590Y-71284504D01*
X91579590Y-71284504D02*
X92151019Y-71855932D01*
X92151019Y-71855932D02*
X92151019Y-71236885D01*
X108479580Y-69714285D02*
X108527200Y-69761904D01*
X108527200Y-69761904D02*
X108574819Y-69904761D01*
X108574819Y-69904761D02*
X108574819Y-69999999D01*
X108574819Y-69999999D02*
X108527200Y-70142856D01*
X108527200Y-70142856D02*
X108431961Y-70238094D01*
X108431961Y-70238094D02*
X108336723Y-70285713D01*
X108336723Y-70285713D02*
X108146247Y-70333332D01*
X108146247Y-70333332D02*
X108003390Y-70333332D01*
X108003390Y-70333332D02*
X107812914Y-70285713D01*
X107812914Y-70285713D02*
X107717676Y-70238094D01*
X107717676Y-70238094D02*
X107622438Y-70142856D01*
X107622438Y-70142856D02*
X107574819Y-69999999D01*
X107574819Y-69999999D02*
X107574819Y-69904761D01*
X107574819Y-69904761D02*
X107622438Y-69761904D01*
X107622438Y-69761904D02*
X107670057Y-69714285D01*
X108574819Y-69285713D02*
X107574819Y-69285713D01*
X107955771Y-69285713D02*
X107908152Y-69190475D01*
X107908152Y-69190475D02*
X107908152Y-68999999D01*
X107908152Y-68999999D02*
X107955771Y-68904761D01*
X107955771Y-68904761D02*
X108003390Y-68857142D01*
X108003390Y-68857142D02*
X108098628Y-68809523D01*
X108098628Y-68809523D02*
X108384342Y-68809523D01*
X108384342Y-68809523D02*
X108479580Y-68857142D01*
X108479580Y-68857142D02*
X108527200Y-68904761D01*
X108527200Y-68904761D02*
X108574819Y-68999999D01*
X108574819Y-68999999D02*
X108574819Y-69190475D01*
X108574819Y-69190475D02*
X108527200Y-69285713D01*
X108574819Y-68380951D02*
X107908152Y-68380951D01*
X107574819Y-68380951D02*
X107622438Y-68428570D01*
X107622438Y-68428570D02*
X107670057Y-68380951D01*
X107670057Y-68380951D02*
X107622438Y-68333332D01*
X107622438Y-68333332D02*
X107574819Y-68380951D01*
X107574819Y-68380951D02*
X107670057Y-68380951D01*
X108574819Y-67476190D02*
X108051009Y-67476190D01*
X108051009Y-67476190D02*
X107955771Y-67523809D01*
X107955771Y-67523809D02*
X107908152Y-67619047D01*
X107908152Y-67619047D02*
X107908152Y-67809523D01*
X107908152Y-67809523D02*
X107955771Y-67904761D01*
X108527200Y-67476190D02*
X108574819Y-67571428D01*
X108574819Y-67571428D02*
X108574819Y-67809523D01*
X108574819Y-67809523D02*
X108527200Y-67904761D01*
X108527200Y-67904761D02*
X108431961Y-67952380D01*
X108431961Y-67952380D02*
X108336723Y-67952380D01*
X108336723Y-67952380D02*
X108241485Y-67904761D01*
X108241485Y-67904761D02*
X108193866Y-67809523D01*
X108193866Y-67809523D02*
X108193866Y-67571428D01*
X108193866Y-67571428D02*
X108146247Y-67476190D01*
X108527200Y-67047618D02*
X108574819Y-66952380D01*
X108574819Y-66952380D02*
X108574819Y-66761904D01*
X108574819Y-66761904D02*
X108527200Y-66666666D01*
X108527200Y-66666666D02*
X108431961Y-66619047D01*
X108431961Y-66619047D02*
X108384342Y-66619047D01*
X108384342Y-66619047D02*
X108289104Y-66666666D01*
X108289104Y-66666666D02*
X108241485Y-66761904D01*
X108241485Y-66761904D02*
X108241485Y-66904761D01*
X108241485Y-66904761D02*
X108193866Y-66999999D01*
X108193866Y-66999999D02*
X108098628Y-67047618D01*
X108098628Y-67047618D02*
X108051009Y-67047618D01*
X108051009Y-67047618D02*
X107955771Y-66999999D01*
X107955771Y-66999999D02*
X107908152Y-66904761D01*
X107908152Y-66904761D02*
X107908152Y-66761904D01*
X107908152Y-66761904D02*
X107955771Y-66666666D01*
X108574819Y-65666666D02*
X108574819Y-66238094D01*
X108574819Y-65952380D02*
X107574819Y-65952380D01*
X107574819Y-65952380D02*
X107717676Y-66047618D01*
X107717676Y-66047618D02*
X107812914Y-66142856D01*
X107812914Y-66142856D02*
X107860533Y-66238094D01*
X117904761Y-77109580D02*
X117857142Y-77157200D01*
X117857142Y-77157200D02*
X117714285Y-77204819D01*
X117714285Y-77204819D02*
X117619047Y-77204819D01*
X117619047Y-77204819D02*
X117476190Y-77157200D01*
X117476190Y-77157200D02*
X117380952Y-77061961D01*
X117380952Y-77061961D02*
X117333333Y-76966723D01*
X117333333Y-76966723D02*
X117285714Y-76776247D01*
X117285714Y-76776247D02*
X117285714Y-76633390D01*
X117285714Y-76633390D02*
X117333333Y-76442914D01*
X117333333Y-76442914D02*
X117380952Y-76347676D01*
X117380952Y-76347676D02*
X117476190Y-76252438D01*
X117476190Y-76252438D02*
X117619047Y-76204819D01*
X117619047Y-76204819D02*
X117714285Y-76204819D01*
X117714285Y-76204819D02*
X117857142Y-76252438D01*
X117857142Y-76252438D02*
X117904761Y-76300057D01*
X118761904Y-77157200D02*
X118666666Y-77204819D01*
X118666666Y-77204819D02*
X118476190Y-77204819D01*
X118476190Y-77204819D02*
X118380952Y-77157200D01*
X118380952Y-77157200D02*
X118333333Y-77109580D01*
X118333333Y-77109580D02*
X118285714Y-77014342D01*
X118285714Y-77014342D02*
X118285714Y-76728628D01*
X118285714Y-76728628D02*
X118333333Y-76633390D01*
X118333333Y-76633390D02*
X118380952Y-76585771D01*
X118380952Y-76585771D02*
X118476190Y-76538152D01*
X118476190Y-76538152D02*
X118666666Y-76538152D01*
X118666666Y-76538152D02*
X118761904Y-76585771D01*
X119142857Y-76300057D02*
X119190476Y-76252438D01*
X119190476Y-76252438D02*
X119285714Y-76204819D01*
X119285714Y-76204819D02*
X119523809Y-76204819D01*
X119523809Y-76204819D02*
X119619047Y-76252438D01*
X119619047Y-76252438D02*
X119666666Y-76300057D01*
X119666666Y-76300057D02*
X119714285Y-76395295D01*
X119714285Y-76395295D02*
X119714285Y-76490533D01*
X119714285Y-76490533D02*
X119666666Y-76633390D01*
X119666666Y-76633390D02*
X119095238Y-77204819D01*
X119095238Y-77204819D02*
X119714285Y-77204819D01*
X80942857Y-57359580D02*
X80895238Y-57407200D01*
X80895238Y-57407200D02*
X80752381Y-57454819D01*
X80752381Y-57454819D02*
X80657143Y-57454819D01*
X80657143Y-57454819D02*
X80514286Y-57407200D01*
X80514286Y-57407200D02*
X80419048Y-57311961D01*
X80419048Y-57311961D02*
X80371429Y-57216723D01*
X80371429Y-57216723D02*
X80323810Y-57026247D01*
X80323810Y-57026247D02*
X80323810Y-56883390D01*
X80323810Y-56883390D02*
X80371429Y-56692914D01*
X80371429Y-56692914D02*
X80419048Y-56597676D01*
X80419048Y-56597676D02*
X80514286Y-56502438D01*
X80514286Y-56502438D02*
X80657143Y-56454819D01*
X80657143Y-56454819D02*
X80752381Y-56454819D01*
X80752381Y-56454819D02*
X80895238Y-56502438D01*
X80895238Y-56502438D02*
X80942857Y-56550057D01*
X81371429Y-57454819D02*
X81371429Y-56788152D01*
X81371429Y-56454819D02*
X81323810Y-56502438D01*
X81323810Y-56502438D02*
X81371429Y-56550057D01*
X81371429Y-56550057D02*
X81419048Y-56502438D01*
X81419048Y-56502438D02*
X81371429Y-56454819D01*
X81371429Y-56454819D02*
X81371429Y-56550057D01*
X81847619Y-56788152D02*
X81847619Y-57454819D01*
X81847619Y-56883390D02*
X81895238Y-56835771D01*
X81895238Y-56835771D02*
X81990476Y-56788152D01*
X81990476Y-56788152D02*
X82133333Y-56788152D01*
X82133333Y-56788152D02*
X82228571Y-56835771D01*
X82228571Y-56835771D02*
X82276190Y-56931009D01*
X82276190Y-56931009D02*
X82276190Y-57454819D01*
X83276190Y-57454819D02*
X82704762Y-57454819D01*
X82990476Y-57454819D02*
X82990476Y-56454819D01*
X82990476Y-56454819D02*
X82895238Y-56597676D01*
X82895238Y-56597676D02*
X82800000Y-56692914D01*
X82800000Y-56692914D02*
X82704762Y-56740533D01*
X112292319Y-63391666D02*
X111816128Y-63724999D01*
X112292319Y-63963094D02*
X111292319Y-63963094D01*
X111292319Y-63963094D02*
X111292319Y-63582142D01*
X111292319Y-63582142D02*
X111339938Y-63486904D01*
X111339938Y-63486904D02*
X111387557Y-63439285D01*
X111387557Y-63439285D02*
X111482795Y-63391666D01*
X111482795Y-63391666D02*
X111625652Y-63391666D01*
X111625652Y-63391666D02*
X111720890Y-63439285D01*
X111720890Y-63439285D02*
X111768509Y-63486904D01*
X111768509Y-63486904D02*
X111816128Y-63582142D01*
X111816128Y-63582142D02*
X111816128Y-63963094D01*
X111292319Y-62486904D02*
X111292319Y-62963094D01*
X111292319Y-62963094D02*
X111768509Y-63010713D01*
X111768509Y-63010713D02*
X111720890Y-62963094D01*
X111720890Y-62963094D02*
X111673271Y-62867856D01*
X111673271Y-62867856D02*
X111673271Y-62629761D01*
X111673271Y-62629761D02*
X111720890Y-62534523D01*
X111720890Y-62534523D02*
X111768509Y-62486904D01*
X111768509Y-62486904D02*
X111863747Y-62439285D01*
X111863747Y-62439285D02*
X112101842Y-62439285D01*
X112101842Y-62439285D02*
X112197080Y-62486904D01*
X112197080Y-62486904D02*
X112244700Y-62534523D01*
X112244700Y-62534523D02*
X112292319Y-62629761D01*
X112292319Y-62629761D02*
X112292319Y-62867856D01*
X112292319Y-62867856D02*
X112244700Y-62963094D01*
X112244700Y-62963094D02*
X112197080Y-63010713D01*
X119011905Y-36954819D02*
X119011905Y-35954819D01*
X119011905Y-35954819D02*
X119250000Y-35954819D01*
X119250000Y-35954819D02*
X119392857Y-36002438D01*
X119392857Y-36002438D02*
X119488095Y-36097676D01*
X119488095Y-36097676D02*
X119535714Y-36192914D01*
X119535714Y-36192914D02*
X119583333Y-36383390D01*
X119583333Y-36383390D02*
X119583333Y-36526247D01*
X119583333Y-36526247D02*
X119535714Y-36716723D01*
X119535714Y-36716723D02*
X119488095Y-36811961D01*
X119488095Y-36811961D02*
X119392857Y-36907200D01*
X119392857Y-36907200D02*
X119250000Y-36954819D01*
X119250000Y-36954819D02*
X119011905Y-36954819D01*
X120535714Y-36954819D02*
X119964286Y-36954819D01*
X120250000Y-36954819D02*
X120250000Y-35954819D01*
X120250000Y-35954819D02*
X120154762Y-36097676D01*
X120154762Y-36097676D02*
X120059524Y-36192914D01*
X120059524Y-36192914D02*
X119964286Y-36240533D01*
X100159580Y-60204762D02*
X100207200Y-60252381D01*
X100207200Y-60252381D02*
X100254819Y-60395238D01*
X100254819Y-60395238D02*
X100254819Y-60490476D01*
X100254819Y-60490476D02*
X100207200Y-60633333D01*
X100207200Y-60633333D02*
X100111961Y-60728571D01*
X100111961Y-60728571D02*
X100016723Y-60776190D01*
X100016723Y-60776190D02*
X99826247Y-60823809D01*
X99826247Y-60823809D02*
X99683390Y-60823809D01*
X99683390Y-60823809D02*
X99492914Y-60776190D01*
X99492914Y-60776190D02*
X99397676Y-60728571D01*
X99397676Y-60728571D02*
X99302438Y-60633333D01*
X99302438Y-60633333D02*
X99254819Y-60490476D01*
X99254819Y-60490476D02*
X99254819Y-60395238D01*
X99254819Y-60395238D02*
X99302438Y-60252381D01*
X99302438Y-60252381D02*
X99350057Y-60204762D01*
X99588152Y-59871428D02*
X100254819Y-59633333D01*
X100254819Y-59633333D02*
X99588152Y-59395238D01*
X100207200Y-58585714D02*
X100254819Y-58680952D01*
X100254819Y-58680952D02*
X100254819Y-58871428D01*
X100254819Y-58871428D02*
X100207200Y-58966666D01*
X100207200Y-58966666D02*
X100159580Y-59014285D01*
X100159580Y-59014285D02*
X100064342Y-59061904D01*
X100064342Y-59061904D02*
X99778628Y-59061904D01*
X99778628Y-59061904D02*
X99683390Y-59014285D01*
X99683390Y-59014285D02*
X99635771Y-58966666D01*
X99635771Y-58966666D02*
X99588152Y-58871428D01*
X99588152Y-58871428D02*
X99588152Y-58680952D01*
X99588152Y-58680952D02*
X99635771Y-58585714D01*
X100207200Y-57728571D02*
X100254819Y-57823809D01*
X100254819Y-57823809D02*
X100254819Y-58014285D01*
X100254819Y-58014285D02*
X100207200Y-58109523D01*
X100207200Y-58109523D02*
X100159580Y-58157142D01*
X100159580Y-58157142D02*
X100064342Y-58204761D01*
X100064342Y-58204761D02*
X99778628Y-58204761D01*
X99778628Y-58204761D02*
X99683390Y-58157142D01*
X99683390Y-58157142D02*
X99635771Y-58109523D01*
X99635771Y-58109523D02*
X99588152Y-58014285D01*
X99588152Y-58014285D02*
X99588152Y-57823809D01*
X99588152Y-57823809D02*
X99635771Y-57728571D01*
X100254819Y-56776190D02*
X100254819Y-57347618D01*
X100254819Y-57061904D02*
X99254819Y-57061904D01*
X99254819Y-57061904D02*
X99397676Y-57157142D01*
X99397676Y-57157142D02*
X99492914Y-57252380D01*
X99492914Y-57252380D02*
X99540533Y-57347618D01*
X133454819Y-42073333D02*
X134169104Y-42073333D01*
X134169104Y-42073333D02*
X134311961Y-42120952D01*
X134311961Y-42120952D02*
X134407200Y-42216190D01*
X134407200Y-42216190D02*
X134454819Y-42359047D01*
X134454819Y-42359047D02*
X134454819Y-42454285D01*
X134454819Y-41073333D02*
X134454819Y-41644761D01*
X134454819Y-41359047D02*
X133454819Y-41359047D01*
X133454819Y-41359047D02*
X133597676Y-41454285D01*
X133597676Y-41454285D02*
X133692914Y-41549523D01*
X133692914Y-41549523D02*
X133740533Y-41644761D01*
X89380952Y-49050057D02*
X89285714Y-49002438D01*
X89285714Y-49002438D02*
X89190476Y-48907200D01*
X89190476Y-48907200D02*
X89047619Y-48764342D01*
X89047619Y-48764342D02*
X88952381Y-48716723D01*
X88952381Y-48716723D02*
X88857143Y-48716723D01*
X88904762Y-48954819D02*
X88809524Y-48907200D01*
X88809524Y-48907200D02*
X88714286Y-48811961D01*
X88714286Y-48811961D02*
X88666667Y-48621485D01*
X88666667Y-48621485D02*
X88666667Y-48288152D01*
X88666667Y-48288152D02*
X88714286Y-48097676D01*
X88714286Y-48097676D02*
X88809524Y-48002438D01*
X88809524Y-48002438D02*
X88904762Y-47954819D01*
X88904762Y-47954819D02*
X89095238Y-47954819D01*
X89095238Y-47954819D02*
X89190476Y-48002438D01*
X89190476Y-48002438D02*
X89285714Y-48097676D01*
X89285714Y-48097676D02*
X89333333Y-48288152D01*
X89333333Y-48288152D02*
X89333333Y-48621485D01*
X89333333Y-48621485D02*
X89285714Y-48811961D01*
X89285714Y-48811961D02*
X89190476Y-48907200D01*
X89190476Y-48907200D02*
X89095238Y-48954819D01*
X89095238Y-48954819D02*
X88904762Y-48954819D01*
X89761905Y-48954819D02*
X89761905Y-47954819D01*
X89761905Y-48431009D02*
X90333333Y-48431009D01*
X90333333Y-48954819D02*
X90333333Y-47954819D01*
X91333333Y-48954819D02*
X90761905Y-48954819D01*
X91047619Y-48954819D02*
X91047619Y-47954819D01*
X91047619Y-47954819D02*
X90952381Y-48097676D01*
X90952381Y-48097676D02*
X90857143Y-48192914D01*
X90857143Y-48192914D02*
X90761905Y-48240533D01*
X103709580Y-76876190D02*
X103757200Y-76923809D01*
X103757200Y-76923809D02*
X103804819Y-77066666D01*
X103804819Y-77066666D02*
X103804819Y-77161904D01*
X103804819Y-77161904D02*
X103757200Y-77304761D01*
X103757200Y-77304761D02*
X103661961Y-77399999D01*
X103661961Y-77399999D02*
X103566723Y-77447618D01*
X103566723Y-77447618D02*
X103376247Y-77495237D01*
X103376247Y-77495237D02*
X103233390Y-77495237D01*
X103233390Y-77495237D02*
X103042914Y-77447618D01*
X103042914Y-77447618D02*
X102947676Y-77399999D01*
X102947676Y-77399999D02*
X102852438Y-77304761D01*
X102852438Y-77304761D02*
X102804819Y-77161904D01*
X102804819Y-77161904D02*
X102804819Y-77066666D01*
X102804819Y-77066666D02*
X102852438Y-76923809D01*
X102852438Y-76923809D02*
X102900057Y-76876190D01*
X103757200Y-76495237D02*
X103804819Y-76399999D01*
X103804819Y-76399999D02*
X103804819Y-76209523D01*
X103804819Y-76209523D02*
X103757200Y-76114285D01*
X103757200Y-76114285D02*
X103661961Y-76066666D01*
X103661961Y-76066666D02*
X103614342Y-76066666D01*
X103614342Y-76066666D02*
X103519104Y-76114285D01*
X103519104Y-76114285D02*
X103471485Y-76209523D01*
X103471485Y-76209523D02*
X103471485Y-76352380D01*
X103471485Y-76352380D02*
X103423866Y-76447618D01*
X103423866Y-76447618D02*
X103328628Y-76495237D01*
X103328628Y-76495237D02*
X103281009Y-76495237D01*
X103281009Y-76495237D02*
X103185771Y-76447618D01*
X103185771Y-76447618D02*
X103138152Y-76352380D01*
X103138152Y-76352380D02*
X103138152Y-76209523D01*
X103138152Y-76209523D02*
X103185771Y-76114285D01*
X103757200Y-75685713D02*
X103804819Y-75590475D01*
X103804819Y-75590475D02*
X103804819Y-75399999D01*
X103804819Y-75399999D02*
X103757200Y-75304761D01*
X103757200Y-75304761D02*
X103661961Y-75257142D01*
X103661961Y-75257142D02*
X103614342Y-75257142D01*
X103614342Y-75257142D02*
X103519104Y-75304761D01*
X103519104Y-75304761D02*
X103471485Y-75399999D01*
X103471485Y-75399999D02*
X103471485Y-75542856D01*
X103471485Y-75542856D02*
X103423866Y-75638094D01*
X103423866Y-75638094D02*
X103328628Y-75685713D01*
X103328628Y-75685713D02*
X103281009Y-75685713D01*
X103281009Y-75685713D02*
X103185771Y-75638094D01*
X103185771Y-75638094D02*
X103138152Y-75542856D01*
X103138152Y-75542856D02*
X103138152Y-75399999D01*
X103138152Y-75399999D02*
X103185771Y-75304761D01*
X103804819Y-74304761D02*
X103804819Y-74876189D01*
X103804819Y-74590475D02*
X102804819Y-74590475D01*
X102804819Y-74590475D02*
X102947676Y-74685713D01*
X102947676Y-74685713D02*
X103042914Y-74780951D01*
X103042914Y-74780951D02*
X103090533Y-74876189D01*
D12*
X131950000Y-25150000D02*
X134850000Y-25150000D01*
X131950000Y-28050000D02*
X131950000Y-25150000D01*
X134850000Y-25150000D02*
X134850000Y-28050000D01*
X134850000Y-28050000D02*
X131950000Y-28050000D01*
X92265000Y-66416452D02*
X92265000Y-65893948D01*
X93735000Y-66416452D02*
X93735000Y-65893948D01*
X113053733Y-74090000D02*
X113346267Y-74090000D01*
X113053733Y-75110000D02*
X113346267Y-75110000D01*
X89050000Y-23800000D02*
X91950000Y-23800000D01*
X89050000Y-26700000D02*
X89050000Y-23800000D01*
X91950000Y-23800000D02*
X91950000Y-26700000D01*
X91950000Y-26700000D02*
X89050000Y-26700000D01*
X86142600Y-68147400D02*
X90442600Y-68147400D01*
X86142600Y-68147400D02*
X86142600Y-60737400D01*
X90442600Y-68147400D02*
X90442600Y-60737400D01*
X86522500Y-70495276D02*
X86522500Y-71004724D01*
X85477500Y-70495276D02*
X85477500Y-71004724D01*
D11*
X96995000Y-68475000D02*
X97220000Y-68475000D01*
X96995000Y-68475000D02*
X96995000Y-63825000D01*
X97220000Y-68475000D02*
X97220000Y-69550000D01*
X106995800Y-68475000D02*
X106670800Y-68475000D01*
X106995800Y-68475000D02*
X106995800Y-63825000D01*
X96995000Y-63825000D02*
X97320000Y-63825000D01*
X106995800Y-63825000D02*
X106670800Y-63825000D01*
D12*
X111490000Y-66250000D02*
X111490000Y-70550000D01*
X111490000Y-66250000D02*
X118900000Y-66250000D01*
X111490000Y-70550000D02*
X118900000Y-70550000D01*
X120658600Y-51600948D02*
X120658600Y-53023452D01*
X118838600Y-51600948D02*
X118838600Y-53023452D01*
X87592300Y-72353524D02*
X87592300Y-71844076D01*
X88637300Y-72353524D02*
X88637300Y-71844076D01*
X92110000Y-52888748D02*
X92110000Y-54311252D01*
X90290000Y-52888748D02*
X90290000Y-54311252D01*
X111300000Y-33300000D02*
X114200000Y-33300000D01*
X111300000Y-36200000D02*
X111300000Y-33300000D01*
X114200000Y-33300000D02*
X114200000Y-36200000D01*
X114200000Y-36200000D02*
X111300000Y-36200000D01*
X82550000Y-42300000D02*
X85450000Y-42300000D01*
X82550000Y-45200000D02*
X82550000Y-42300000D01*
X85450000Y-42300000D02*
X85450000Y-45200000D01*
X85450000Y-45200000D02*
X82550000Y-45200000D01*
X108352500Y-59504724D02*
X108352500Y-58995276D01*
X109397500Y-59504724D02*
X109397500Y-58995276D01*
X86510000Y-52851248D02*
X86510000Y-54273752D01*
X84690000Y-52851248D02*
X84690000Y-54273752D01*
X71950000Y-76950000D02*
X74850000Y-76950000D01*
X71950000Y-79850000D02*
X71950000Y-76950000D01*
X74850000Y-76950000D02*
X74850000Y-79850000D01*
X74850000Y-79850000D02*
X71950000Y-79850000D01*
X116495276Y-74077500D02*
X117004724Y-74077500D01*
X116495276Y-75122500D02*
X117004724Y-75122500D01*
X117904600Y-51600948D02*
X117904600Y-53023452D01*
X116084600Y-51600948D02*
X116084600Y-53023452D01*
X94412824Y-73840500D02*
X93903376Y-73840500D01*
X94412824Y-72795500D02*
X93903376Y-72795500D01*
X71266000Y-47926000D02*
X71266000Y-49176000D01*
X71891000Y-48551000D02*
X70641000Y-48551000D01*
X72801563Y-49416000D02*
X70016000Y-49416000D01*
X72801563Y-49416000D02*
X73866000Y-50480437D01*
X64210437Y-49416000D02*
X66996000Y-49416000D01*
X64210437Y-49416000D02*
X63146000Y-50480437D01*
X73866000Y-50480437D02*
X73866000Y-60136000D01*
X63146000Y-50480437D02*
X63146000Y-60136000D01*
X73866000Y-60136000D02*
X70016000Y-60136000D01*
X63146000Y-60136000D02*
X66996000Y-60136000D01*
X82300000Y-59550000D02*
X85200000Y-59550000D01*
X82300000Y-62450000D02*
X82300000Y-59550000D01*
X85200000Y-59550000D02*
X85200000Y-62450000D01*
X85200000Y-62450000D02*
X82300000Y-62450000D01*
X82300000Y-64800000D02*
X85200000Y-64800000D01*
X82300000Y-67700000D02*
X82300000Y-64800000D01*
X85200000Y-64800000D02*
X85200000Y-67700000D01*
X85200000Y-67700000D02*
X82300000Y-67700000D01*
X100372500Y-72120276D02*
X100372500Y-72629724D01*
X99327500Y-72120276D02*
X99327500Y-72629724D01*
X71150000Y-30950000D02*
X74050000Y-30950000D01*
X71150000Y-33850000D02*
X71150000Y-30950000D01*
X74050000Y-30950000D02*
X74050000Y-33850000D01*
X74050000Y-33850000D02*
X71150000Y-33850000D01*
X109084300Y-73215676D02*
X109084300Y-73725124D01*
X108039300Y-73215676D02*
X108039300Y-73725124D01*
X83354000Y-32306000D02*
X83354000Y-36606000D01*
X83354000Y-32306000D02*
X90764000Y-32306000D01*
X83354000Y-36606000D02*
X90764000Y-36606000D01*
X89050000Y-28050000D02*
X91950000Y-28050000D01*
X89050000Y-30950000D02*
X89050000Y-28050000D01*
X91950000Y-28050000D02*
X91950000Y-30950000D01*
X91950000Y-30950000D02*
X89050000Y-30950000D01*
X93905276Y-71068300D02*
X94414724Y-71068300D01*
X93905276Y-72113300D02*
X94414724Y-72113300D01*
X98772936Y-48290000D02*
X103127064Y-48290000D01*
X98772936Y-51710000D02*
X103127064Y-51710000D01*
X115110600Y-51600948D02*
X115110600Y-53023452D01*
X113290600Y-51600948D02*
X113290600Y-53023452D01*
X89310000Y-52851248D02*
X89310000Y-54273752D01*
X87490000Y-52851248D02*
X87490000Y-54273752D01*
X106177500Y-59504724D02*
X106177500Y-58995276D01*
X107222500Y-59504724D02*
X107222500Y-58995276D01*
X111434000Y-59100133D02*
X111434000Y-59392667D01*
X110414000Y-59100133D02*
X110414000Y-59392667D01*
X110915000Y-40640000D02*
X110565000Y-40640000D01*
X115935000Y-46760000D02*
X115935000Y-40640000D01*
X115635000Y-46760000D02*
X115935000Y-46760000D01*
X110865000Y-46760000D02*
X110565000Y-46760000D01*
X110565000Y-46760000D02*
X110565000Y-40640000D01*
X84163400Y-73309000D02*
X84163400Y-69009000D01*
X84163400Y-73309000D02*
X76753400Y-73309000D01*
X84163400Y-69009000D02*
X76753400Y-69009000D01*
X107382500Y-73215676D02*
X107382500Y-73725124D01*
X106337500Y-73215676D02*
X106337500Y-73725124D01*
X107685000Y-45110000D02*
X108035000Y-45110000D01*
X102665000Y-38990000D02*
X102665000Y-45110000D01*
X102965000Y-38990000D02*
X102665000Y-38990000D01*
X107735000Y-38990000D02*
X108035000Y-38990000D01*
X108035000Y-38990000D02*
X108035000Y-45110000D01*
X111300000Y-28550000D02*
X114200000Y-28550000D01*
X111300000Y-31450000D02*
X111300000Y-28550000D01*
X114200000Y-28550000D02*
X114200000Y-31450000D01*
X114200000Y-31450000D02*
X111300000Y-31450000D01*
X121800000Y-66550000D02*
X124700000Y-66550000D01*
X121800000Y-69450000D02*
X121800000Y-66550000D01*
X124700000Y-66550000D02*
X124700000Y-69450000D01*
X124700000Y-69450000D02*
X121800000Y-69450000D01*
X97602500Y-72629724D02*
X97602500Y-72120276D01*
X98647500Y-72629724D02*
X98647500Y-72120276D01*
X96240000Y-24340000D02*
X96240000Y-25740000D01*
X96240000Y-24340000D02*
X107260000Y-24340000D01*
X96240000Y-36660000D02*
X96240000Y-35260000D01*
X96240000Y-36660000D02*
X107260000Y-36660000D01*
X107260000Y-24340000D02*
X107260000Y-25740000D01*
X107260000Y-36660000D02*
X107260000Y-35260000D01*
X100335000Y-45110000D02*
X100685000Y-45110000D01*
X95315000Y-38990000D02*
X95315000Y-45110000D01*
X95615000Y-38990000D02*
X95315000Y-38990000D01*
X100385000Y-38990000D02*
X100685000Y-38990000D01*
X100685000Y-38990000D02*
X100685000Y-45110000D01*
X115260148Y-63820000D02*
X115782652Y-63820000D01*
X115260148Y-65290000D02*
X115782652Y-65290000D01*
X130300000Y-35050000D02*
X133200000Y-35050000D01*
X130300000Y-37950000D02*
X130300000Y-35050000D01*
X133200000Y-35050000D02*
X133200000Y-37950000D01*
X133200000Y-37950000D02*
X130300000Y-37950000D01*
X129960000Y-47400000D02*
X129960000Y-48650000D01*
X130585000Y-48025000D02*
X129335000Y-48025000D01*
X131695563Y-48890000D02*
X128710000Y-48890000D01*
X131695563Y-48890000D02*
X132760000Y-49954437D01*
X123304437Y-48890000D02*
X126290000Y-48890000D01*
X123304437Y-48890000D02*
X122240000Y-49954437D01*
X132760000Y-49954437D02*
X132760000Y-59410000D01*
X122240000Y-49954437D02*
X122240000Y-59410000D01*
X132760000Y-59410000D02*
X128710000Y-59410000D01*
X122240000Y-59410000D02*
X126290000Y-59410000D01*
X131750000Y-76950000D02*
X134650000Y-76950000D01*
X131750000Y-79850000D02*
X131750000Y-76950000D01*
X134650000Y-76950000D02*
X134650000Y-79850000D01*
X134650000Y-79850000D02*
X131750000Y-79850000D01*
X102160000Y-72241233D02*
X102160000Y-72533767D01*
X101140000Y-72241233D02*
X101140000Y-72533767D01*
X63390000Y-45180000D02*
X71010000Y-45180000D01*
X71010000Y-45180000D02*
X71010000Y-35020000D01*
X63390000Y-35020000D02*
X63390000Y-45180000D01*
X69740000Y-35020000D02*
X69740000Y-45180000D01*
X71010000Y-35020000D02*
X63390000Y-35020000D01*
X90729400Y-71888348D02*
X90729400Y-72410852D01*
X89259400Y-71888348D02*
X89259400Y-72410852D01*
X109065000Y-68261252D02*
X109065000Y-67738748D01*
X110535000Y-68261252D02*
X110535000Y-67738748D01*
X114891233Y-76215000D02*
X115183767Y-76215000D01*
X114891233Y-77235000D02*
X115183767Y-77235000D01*
X111300000Y-23800000D02*
X114200000Y-23800000D01*
X111300000Y-26700000D02*
X111300000Y-23800000D01*
X114200000Y-23800000D02*
X114200000Y-26700000D01*
X114200000Y-26700000D02*
X111300000Y-26700000D01*
X80859000Y-49627000D02*
X80859000Y-50252000D01*
X81171500Y-49939500D02*
X80546500Y-49939500D01*
X80869563Y-50492000D02*
X80234000Y-50492000D01*
X80869563Y-50492000D02*
X81934000Y-51556437D01*
X77478437Y-50492000D02*
X78114000Y-50492000D01*
X77478437Y-50492000D02*
X76414000Y-51556437D01*
X81934000Y-51556437D02*
X81934000Y-56012000D01*
X76414000Y-51556437D02*
X76414000Y-56012000D01*
X81934000Y-56012000D02*
X80234000Y-56012000D01*
X76414000Y-56012000D02*
X78114000Y-56012000D01*
X109295276Y-62702500D02*
X109804724Y-62702500D01*
X109295276Y-63747500D02*
X109804724Y-63747500D01*
X117600000Y-46710000D02*
X121900000Y-46710000D01*
X117600000Y-46710000D02*
X117600000Y-39300000D01*
X121900000Y-46710000D02*
X121900000Y-39300000D01*
X102053733Y-58090000D02*
X102346267Y-58090000D01*
X102053733Y-59110000D02*
X102346267Y-59110000D01*
X142610000Y-31600000D02*
X134990000Y-31600000D01*
X142610000Y-31600000D02*
X142610000Y-51920000D01*
X134990000Y-31600000D02*
X134990000Y-51920000D01*
X136260000Y-51920000D02*
X136260000Y-31600000D01*
X134990000Y-51920000D02*
X142610000Y-51920000D01*
X87815000Y-40640000D02*
X87465000Y-40640000D01*
X92835000Y-46760000D02*
X92835000Y-40640000D01*
X92535000Y-46760000D02*
X92835000Y-46760000D01*
X87765000Y-46760000D02*
X87465000Y-46760000D01*
X87465000Y-46760000D02*
X87465000Y-40640000D01*
X103885000Y-72241233D02*
X103885000Y-72533767D01*
X102865000Y-72241233D02*
X102865000Y-72533767D01*
X71150000Y-25150000D02*
X74050000Y-25150000D01*
X71150000Y-28050000D02*
X71150000Y-25150000D01*
X74050000Y-25150000D02*
X74050000Y-28050000D01*
X74050000Y-28050000D02*
X71150000Y-28050000D01*
%LPC*%
D13*
X133400000Y-26600000D03*
D14*
X93000000Y-67192700D03*
X93000000Y-65117700D03*
D15*
X112337500Y-74600000D03*
X114062500Y-74600000D03*
D16*
X140402944Y-26500000D03*
X141105888Y-24802944D03*
X141105888Y-28197056D03*
X142802944Y-24100000D03*
D17*
X142802944Y-26500000D03*
D16*
X142802944Y-28900000D03*
X144500000Y-24802944D03*
X144500000Y-28197056D03*
X145202944Y-26500000D03*
D13*
X90500000Y-25250000D03*
D18*
X88292600Y-66137400D03*
X88292600Y-60737400D03*
D19*
X86000000Y-69837500D03*
X86000000Y-71662500D03*
D20*
X97745000Y-69000000D03*
X98395000Y-69000000D03*
X99045000Y-69000000D03*
X99695000Y-69000000D03*
X100345000Y-69000000D03*
X100995000Y-69000000D03*
X101645000Y-69000000D03*
X102295000Y-69000000D03*
X102945000Y-69000000D03*
X103595000Y-69000000D03*
X104245000Y-69000000D03*
X104895000Y-69000000D03*
X105545000Y-69000000D03*
X106195000Y-69000000D03*
X106195000Y-63300000D03*
X105545000Y-63300000D03*
X104895000Y-63300000D03*
X104245000Y-63300000D03*
X103595000Y-63300000D03*
X102945000Y-63300000D03*
X102295000Y-63300000D03*
X101645000Y-63300000D03*
X100995000Y-63300000D03*
X100345000Y-63300000D03*
X99695000Y-63300000D03*
X99045000Y-63300000D03*
X98395000Y-63300000D03*
X97745000Y-63300000D03*
D21*
X101970000Y-66150000D03*
D22*
X113500000Y-68400000D03*
X118900000Y-68400000D03*
D23*
X119748600Y-50749700D03*
X119748600Y-53874700D03*
D24*
X88114800Y-73011300D03*
X88114800Y-71186300D03*
D23*
X91200000Y-52037500D03*
X91200000Y-55162500D03*
D13*
X112750000Y-34750000D03*
X84000000Y-43750000D03*
D24*
X108875000Y-60162500D03*
X108875000Y-58337500D03*
D23*
X85600000Y-52000000D03*
X85600000Y-55125000D03*
D13*
X73400000Y-78400000D03*
D25*
X115837500Y-74600000D03*
X117662500Y-74600000D03*
D23*
X116994600Y-50749700D03*
X116994600Y-53874700D03*
D26*
X95070600Y-73318000D03*
X93245600Y-73318000D03*
D27*
X68506000Y-50576000D03*
X68506000Y-58976000D03*
D13*
X83750000Y-61000000D03*
X83750000Y-66250000D03*
D19*
X99850000Y-71462500D03*
X99850000Y-73287500D03*
D13*
X72600000Y-32400000D03*
D19*
X108561800Y-72557900D03*
X108561800Y-74382900D03*
D22*
X85364000Y-34456000D03*
X90764000Y-34456000D03*
D13*
X90500000Y-29500000D03*
D16*
X61100000Y-26500000D03*
X61802944Y-24802944D03*
X61802944Y-28197056D03*
X63500000Y-24100000D03*
D17*
X63500000Y-26500000D03*
D16*
X63500000Y-28900000D03*
X65197056Y-24802944D03*
X65197056Y-28197056D03*
X65900000Y-26500000D03*
D25*
X93247500Y-71590800D03*
X95072500Y-71590800D03*
D28*
X97900000Y-50000000D03*
X104000000Y-50000000D03*
D23*
X114200600Y-50749700D03*
X114200600Y-53874700D03*
X88400000Y-52000000D03*
X88400000Y-55125000D03*
D24*
X106700000Y-60162500D03*
X106700000Y-58337500D03*
D29*
X110924000Y-58383900D03*
X110924000Y-60108900D03*
D30*
X113250000Y-44350000D03*
D31*
X115155000Y-40800000D03*
X113885000Y-40800000D03*
X112615000Y-40800000D03*
X111345000Y-40800000D03*
D32*
X82153400Y-71159000D03*
X76753400Y-71159000D03*
D19*
X106860000Y-72557900D03*
X106860000Y-74382900D03*
D33*
X105350000Y-41400000D03*
D31*
X103445000Y-44950000D03*
X104715000Y-44950000D03*
X105985000Y-44950000D03*
X107255000Y-44950000D03*
D13*
X112750000Y-30000000D03*
X123250000Y-68000000D03*
D24*
X98125000Y-73287500D03*
X98125000Y-71462500D03*
D34*
X97126500Y-30500000D03*
X106373500Y-30500000D03*
D33*
X98000000Y-41400000D03*
D31*
X96095000Y-44950000D03*
X97365000Y-44950000D03*
X98635000Y-44950000D03*
X99905000Y-44950000D03*
D35*
X114483900Y-64555000D03*
X116558900Y-64555000D03*
D13*
X131750000Y-36500000D03*
D36*
X127500000Y-49800000D03*
X127500000Y-58500000D03*
D13*
X133200000Y-78400000D03*
D29*
X101650000Y-71525000D03*
X101650000Y-73250000D03*
D37*
X67200000Y-42640000D03*
D38*
X67200000Y-37560000D03*
D39*
X89994400Y-71112100D03*
X89994400Y-73187100D03*
D14*
X109800000Y-69037500D03*
X109800000Y-66962500D03*
D15*
X114175000Y-76725000D03*
X115900000Y-76725000D03*
D13*
X112750000Y-25250000D03*
D40*
X79174000Y-51052000D03*
X79174000Y-55452000D03*
D25*
X108637500Y-63225000D03*
X110462500Y-63225000D03*
D18*
X119750000Y-44700000D03*
X119750000Y-39300000D03*
D15*
X101337500Y-58600000D03*
X103062500Y-58600000D03*
D16*
X61100000Y-78500000D03*
X61802944Y-76802944D03*
X61802944Y-80197056D03*
X63500000Y-76100000D03*
D17*
X63500000Y-78500000D03*
D16*
X63500000Y-80900000D03*
X65197056Y-76802944D03*
X65197056Y-80197056D03*
X65900000Y-78500000D03*
D37*
X138800000Y-34140000D03*
D38*
X138800000Y-39220000D03*
X138800000Y-44300000D03*
X138800000Y-49380000D03*
D30*
X90150000Y-44350000D03*
D31*
X92055000Y-40800000D03*
X90785000Y-40800000D03*
X89515000Y-40800000D03*
X88245000Y-40800000D03*
D16*
X140402944Y-78500000D03*
X141105888Y-76802944D03*
X141105888Y-80197056D03*
X142802944Y-76100000D03*
D17*
X142802944Y-78500000D03*
D16*
X142802944Y-80900000D03*
X144500000Y-76802944D03*
X144500000Y-80197056D03*
X145202944Y-78500000D03*
D29*
X103375000Y-71525000D03*
X103375000Y-73250000D03*
D13*
X72600000Y-26600000D03*
%LPD*%
M02*
