M48
; DRILL file {KiCad 7.0.8} date Fri 17 Nov 2023 17:22:17 CET
; FORMAT={-:-/ absolute / metric / decimal}
; #@! TF.CreationDate,2023-11-17T17:22:17+01:00
; #@! TF.GenerationSoftware,Kicad,Pcbnew,7.0.8
; #@! TF.FileFunction,Plated,1,2,PTH
FMAT,2
METRIC
; #@! TA.AperFunction,Plated,PTH,ComponentDrill
T1C0.300
; #@! TA.AperFunction,Plated,PTH,ViaDrill
T2C0.350
; #@! TA.AperFunction,Plated,PTH,ViaDrill
T3C0.400
; #@! TA.AperFunction,Plated,PTH,ComponentDrill
T4C0.500
; #@! TA.AperFunction,Plated,PTH,ComponentDrill
T5C1.200
; #@! TA.AperFunction,Plated,PTH,ComponentDrill
T6C1.520
; #@! TA.AperFunction,Plated,PTH,ComponentDrill
T7C3.200
%
G90
G05
T1
X97.52Y-64.85
X97.52Y-66.15
X97.52Y-67.45
X99.3Y-64.85
X99.3Y-66.15
X99.3Y-67.45
X101.08Y-64.85
X101.08Y-66.15
X101.08Y-67.45
X102.86Y-64.85
X102.86Y-66.15
X102.86Y-67.45
X104.64Y-64.85
X104.64Y-66.15
X104.64Y-67.45
X106.42Y-64.85
X106.42Y-66.15
X106.42Y-67.45
T2
X60.0Y-57.5
X60.0Y-63.5
X60.0Y-69.5
X60.0Y-75.5
X66.0Y-57.5
X66.0Y-63.5
X66.0Y-69.5
X72.0Y-63.5
X72.0Y-69.5
X72.0Y-75.5
X72.0Y-81.5
X78.0Y-57.5
X78.0Y-63.5
X78.0Y-75.5
X78.0Y-81.5
X84.0Y-57.5
X84.0Y-63.5
X84.0Y-75.5
X84.0Y-81.5
X90.0Y-75.5
X90.0Y-81.5
X96.0Y-75.5
X96.0Y-81.5
X99.9Y-70.2
X100.75Y-46.5
X100.75Y-55.0
X102.0Y-81.5
X102.2Y-57.4
X102.4Y-60.6
X102.6Y-55.4
X103.6Y-60.6
X104.0Y-57.049
X105.0Y-75.5
X105.59Y-49.95
X106.419Y-57.281
X108.0Y-81.5
X114.0Y-81.5
X120.0Y-57.5
X120.0Y-63.5
X120.0Y-75.5
X120.0Y-81.5
X126.0Y-63.5
X126.0Y-69.5
X126.0Y-75.5
X126.0Y-81.5
X132.0Y-57.5
X132.0Y-63.5
X132.0Y-69.5
X132.0Y-75.5
X132.0Y-81.5
X138.0Y-57.5
X138.0Y-63.5
X138.0Y-69.5
X138.0Y-75.5
X138.0Y-81.5
X144.0Y-57.5
X144.0Y-63.5
X144.0Y-69.5
T3
X68.506Y-62.226
X90.775Y-38.6
X91.722Y-73.191
X92.611Y-70.118
X93.0Y-55.2
X95.074Y-65.596
X96.125Y-54.95
X96.167Y-69.94
X96.37Y-62.167
X96.522Y-73.318
X96.598Y-71.464
X98.148Y-74.74
X98.681Y-59.932
X98.91Y-70.397
X99.25Y-55.811
X103.112Y-70.132
X106.073Y-48.02
X106.86Y-75.833
X107.749Y-55.309
X110.45Y-64.675
X111.127Y-73.42
X111.305Y-72.175
X111.508Y-65.241
X111.813Y-54.624
X112.727Y-61.278
X118.976Y-74.588
X119.749Y-55.625
X127.5Y-61.5
T4
X61.1Y-26.5
X61.1Y-78.5
X61.803Y-24.803
X61.803Y-28.197
X61.803Y-76.803
X61.803Y-80.197
X63.5Y-24.1
X63.5Y-28.9
X63.5Y-76.1
X63.5Y-80.9
X65.197Y-24.803
X65.197Y-28.197
X65.197Y-76.803
X65.197Y-80.197
X65.9Y-26.5
X65.9Y-78.5
X140.403Y-26.5
X140.403Y-78.5
X141.106Y-24.803
X141.106Y-28.197
X141.106Y-76.803
X141.106Y-80.197
X142.803Y-24.1
X142.803Y-28.9
X142.803Y-76.1
X142.803Y-80.9
X144.5Y-24.803
X144.5Y-28.197
X144.5Y-76.803
X144.5Y-80.197
X145.203Y-26.5
X145.203Y-78.5
T5
X72.6Y-26.6
X72.6Y-32.4
X73.4Y-78.4
X83.75Y-61.0
X83.75Y-66.25
X84.0Y-43.75
X90.5Y-25.25
X90.5Y-29.5
X112.75Y-25.25
X112.75Y-30.0
X112.75Y-34.75
X123.25Y-68.0
X131.75Y-36.5
X133.2Y-78.4
X133.4Y-26.6
T6
X67.2Y-37.56
X67.2Y-42.64
X138.8Y-34.14
X138.8Y-39.22
X138.8Y-44.3
X138.8Y-49.38
T7
X63.5Y-26.5
X63.5Y-78.5
X142.803Y-26.5
X142.803Y-78.5
T0
M30
