G04 #@! TF.GenerationSoftware,KiCad,Pcbnew,7.0.8*
G04 #@! TF.CreationDate,2023-11-17T17:21:29+01:00*
G04 #@! TF.ProjectId,universal12Vsupply,756e6976-6572-4736-916c-313256737570,rev?*
G04 #@! TF.SameCoordinates,Original*
G04 #@! TF.FileFunction,Soldermask,Top*
G04 #@! TF.FilePolarity,Negative*
%FSLAX46Y46*%
G04 Gerber Fmt 4.6, Leading zero omitted, Abs format (unit mm)*
G04 Created by KiCad (PCBNEW 7.0.8) date 2023-11-17 17:21:29*
%MOMM*%
%LPD*%
G01*
G04 APERTURE LIST*
G04 Aperture macros list*
%AMRoundRect*
0 Rectangle with rounded corners*
0 $1 Rounding radius*
0 $2 $3 $4 $5 $6 $7 $8 $9 X,Y pos of 4 corners*
0 Add a 4 corners polygon primitive as box body*
4,1,4,$2,$3,$4,$5,$6,$7,$8,$9,$2,$3,0*
0 Add four circle primitives for the rounded corners*
1,1,$1+$1,$2,$3*
1,1,$1+$1,$4,$5*
1,1,$1+$1,$6,$7*
1,1,$1+$1,$8,$9*
0 Add four rect primitives between the rounded corners*
20,1,$1+$1,$2,$3,$4,$5,0*
20,1,$1+$1,$4,$5,$6,$7,0*
20,1,$1+$1,$6,$7,$8,$9,0*
20,1,$1+$1,$8,$9,$2,$3,0*%
%AMFreePoly0*
4,1,17,2.675000,1.605000,1.875000,1.605000,1.875000,0.935000,2.675000,0.935000,2.675000,0.335000,1.875000,0.335000,1.875000,-0.335000,2.675000,-0.335000,2.675000,-0.935000,1.875000,-0.935000,1.875000,-1.605000,2.675000,-1.605000,2.675000,-2.205000,-1.875000,-2.205000,-1.875000,2.205000,2.675000,2.205000,2.675000,1.605000,2.675000,1.605000,$1*%
G04 Aperture macros list end*
%ADD10R,2.500000X2.500000*%
%ADD11RoundRect,0.250000X0.475000X-0.337500X0.475000X0.337500X-0.475000X0.337500X-0.475000X-0.337500X0*%
%ADD12RoundRect,0.237500X-0.300000X-0.237500X0.300000X-0.237500X0.300000X0.237500X-0.300000X0.237500X0*%
%ADD13C,0.800000*%
%ADD14C,6.400000*%
%ADD15RoundRect,0.250000X0.900000X-1.500000X0.900000X1.500000X-0.900000X1.500000X-0.900000X-1.500000X0*%
%ADD16RoundRect,0.237500X-0.237500X0.250000X-0.237500X-0.250000X0.237500X-0.250000X0.237500X0.250000X0*%
%ADD17R,0.400000X1.100000*%
%ADD18R,9.500000X3.400000*%
%ADD19RoundRect,0.250000X-1.500000X-0.900000X1.500000X-0.900000X1.500000X0.900000X-1.500000X0.900000X0*%
%ADD20RoundRect,0.250000X-0.650000X0.412500X-0.650000X-0.412500X0.650000X-0.412500X0.650000X0.412500X0*%
%ADD21RoundRect,0.237500X0.237500X-0.250000X0.237500X0.250000X-0.237500X0.250000X-0.237500X-0.250000X0*%
%ADD22RoundRect,0.237500X-0.250000X-0.237500X0.250000X-0.237500X0.250000X0.237500X-0.250000X0.237500X0*%
%ADD23RoundRect,0.237500X0.250000X0.237500X-0.250000X0.237500X-0.250000X-0.237500X0.250000X-0.237500X0*%
%ADD24RoundRect,0.250000X-1.000000X1.950000X-1.000000X-1.950000X1.000000X-1.950000X1.000000X1.950000X0*%
%ADD25RoundRect,0.249999X-0.450001X-1.425001X0.450001X-1.425001X0.450001X1.425001X-0.450001X1.425001X0*%
%ADD26RoundRect,0.237500X-0.237500X0.300000X-0.237500X-0.300000X0.237500X-0.300000X0.237500X0.300000X0*%
%ADD27FreePoly0,270.000000*%
%ADD28R,0.500000X0.850000*%
%ADD29RoundRect,0.250000X1.500000X0.900000X-1.500000X0.900000X-1.500000X-0.900000X1.500000X-0.900000X0*%
%ADD30FreePoly0,90.000000*%
%ADD31R,4.977000X9.000000*%
%ADD32RoundRect,0.250000X-0.337500X-0.475000X0.337500X-0.475000X0.337500X0.475000X-0.337500X0.475000X0*%
%ADD33RoundRect,0.250000X-0.700000X1.950000X-0.700000X-1.950000X0.700000X-1.950000X0.700000X1.950000X0*%
%ADD34R,3.000000X3.000000*%
%ADD35C,3.000000*%
%ADD36RoundRect,0.250000X-0.475000X0.337500X-0.475000X-0.337500X0.475000X-0.337500X0.475000X0.337500X0*%
%ADD37RoundRect,0.250000X-0.550000X1.250000X-0.550000X-1.250000X0.550000X-1.250000X0.550000X1.250000X0*%
G04 APERTURE END LIST*
D10*
X133400000Y-26600000D03*
D11*
X93000000Y-67192700D03*
X93000000Y-65117700D03*
D12*
X112337500Y-74600000D03*
X114062500Y-74600000D03*
D13*
X140402944Y-26500000D03*
X141105888Y-24802944D03*
X141105888Y-28197056D03*
X142802944Y-24100000D03*
D14*
X142802944Y-26500000D03*
D13*
X142802944Y-28900000D03*
X144500000Y-24802944D03*
X144500000Y-28197056D03*
X145202944Y-26500000D03*
D10*
X90500000Y-25250000D03*
D15*
X88292600Y-66137400D03*
X88292600Y-60737400D03*
D16*
X86000000Y-69837500D03*
X86000000Y-71662500D03*
D17*
X97745000Y-69000000D03*
X98395000Y-69000000D03*
X99045000Y-69000000D03*
X99695000Y-69000000D03*
X100345000Y-69000000D03*
X100995000Y-69000000D03*
X101645000Y-69000000D03*
X102295000Y-69000000D03*
X102945000Y-69000000D03*
X103595000Y-69000000D03*
X104245000Y-69000000D03*
X104895000Y-69000000D03*
X105545000Y-69000000D03*
X106195000Y-69000000D03*
X106195000Y-63300000D03*
X105545000Y-63300000D03*
X104895000Y-63300000D03*
X104245000Y-63300000D03*
X103595000Y-63300000D03*
X102945000Y-63300000D03*
X102295000Y-63300000D03*
X101645000Y-63300000D03*
X100995000Y-63300000D03*
X100345000Y-63300000D03*
X99695000Y-63300000D03*
X99045000Y-63300000D03*
X98395000Y-63300000D03*
X97745000Y-63300000D03*
D18*
X101970000Y-66150000D03*
D19*
X113500000Y-68400000D03*
X118900000Y-68400000D03*
D20*
X119748600Y-50749700D03*
X119748600Y-53874700D03*
D21*
X88114800Y-73011300D03*
X88114800Y-71186300D03*
D20*
X91200000Y-52037500D03*
X91200000Y-55162500D03*
D10*
X112750000Y-34750000D03*
X84000000Y-43750000D03*
D21*
X108875000Y-60162500D03*
X108875000Y-58337500D03*
D20*
X85600000Y-52000000D03*
X85600000Y-55125000D03*
D10*
X73400000Y-78400000D03*
D22*
X115837500Y-74600000D03*
X117662500Y-74600000D03*
D20*
X116994600Y-50749700D03*
X116994600Y-53874700D03*
D23*
X95070600Y-73318000D03*
X93245600Y-73318000D03*
D24*
X68506000Y-50576000D03*
X68506000Y-58976000D03*
D10*
X83750000Y-61000000D03*
X83750000Y-66250000D03*
D16*
X99850000Y-71462500D03*
X99850000Y-73287500D03*
D10*
X72600000Y-32400000D03*
D16*
X108561800Y-72557900D03*
X108561800Y-74382900D03*
D19*
X85364000Y-34456000D03*
X90764000Y-34456000D03*
D10*
X90500000Y-29500000D03*
D13*
X61100000Y-26500000D03*
X61802944Y-24802944D03*
X61802944Y-28197056D03*
X63500000Y-24100000D03*
D14*
X63500000Y-26500000D03*
D13*
X63500000Y-28900000D03*
X65197056Y-24802944D03*
X65197056Y-28197056D03*
X65900000Y-26500000D03*
D22*
X93247500Y-71590800D03*
X95072500Y-71590800D03*
D25*
X97900000Y-50000000D03*
X104000000Y-50000000D03*
D20*
X114200600Y-50749700D03*
X114200600Y-53874700D03*
X88400000Y-52000000D03*
X88400000Y-55125000D03*
D21*
X106700000Y-60162500D03*
X106700000Y-58337500D03*
D26*
X110924000Y-58383900D03*
X110924000Y-60108900D03*
D27*
X113250000Y-44350000D03*
D28*
X115155000Y-40800000D03*
X113885000Y-40800000D03*
X112615000Y-40800000D03*
X111345000Y-40800000D03*
D29*
X82153400Y-71159000D03*
X76753400Y-71159000D03*
D16*
X106860000Y-72557900D03*
X106860000Y-74382900D03*
D30*
X105350000Y-41400000D03*
D28*
X103445000Y-44950000D03*
X104715000Y-44950000D03*
X105985000Y-44950000D03*
X107255000Y-44950000D03*
D10*
X112750000Y-30000000D03*
X123250000Y-68000000D03*
D21*
X98125000Y-73287500D03*
X98125000Y-71462500D03*
D31*
X97126500Y-30500000D03*
X106373500Y-30500000D03*
D30*
X98000000Y-41400000D03*
D28*
X96095000Y-44950000D03*
X97365000Y-44950000D03*
X98635000Y-44950000D03*
X99905000Y-44950000D03*
D32*
X114483900Y-64555000D03*
X116558900Y-64555000D03*
D10*
X131750000Y-36500000D03*
D33*
X127500000Y-49800000D03*
X127500000Y-58500000D03*
D10*
X133200000Y-78400000D03*
D26*
X101650000Y-71525000D03*
X101650000Y-73250000D03*
D34*
X67200000Y-42640000D03*
D35*
X67200000Y-37560000D03*
D36*
X89994400Y-71112100D03*
X89994400Y-73187100D03*
D11*
X109800000Y-69037500D03*
X109800000Y-66962500D03*
D12*
X114175000Y-76725000D03*
X115900000Y-76725000D03*
D10*
X112750000Y-25250000D03*
D37*
X79174000Y-51052000D03*
X79174000Y-55452000D03*
D22*
X108637500Y-63225000D03*
X110462500Y-63225000D03*
D15*
X119750000Y-44700000D03*
X119750000Y-39300000D03*
D12*
X101337500Y-58600000D03*
X103062500Y-58600000D03*
D13*
X61100000Y-78500000D03*
X61802944Y-76802944D03*
X61802944Y-80197056D03*
X63500000Y-76100000D03*
D14*
X63500000Y-78500000D03*
D13*
X63500000Y-80900000D03*
X65197056Y-76802944D03*
X65197056Y-80197056D03*
X65900000Y-78500000D03*
D34*
X138800000Y-34140000D03*
D35*
X138800000Y-39220000D03*
X138800000Y-44300000D03*
X138800000Y-49380000D03*
D27*
X90150000Y-44350000D03*
D28*
X92055000Y-40800000D03*
X90785000Y-40800000D03*
X89515000Y-40800000D03*
X88245000Y-40800000D03*
D13*
X140402944Y-78500000D03*
X141105888Y-76802944D03*
X141105888Y-80197056D03*
X142802944Y-76100000D03*
D14*
X142802944Y-78500000D03*
D13*
X142802944Y-80900000D03*
X144500000Y-76802944D03*
X144500000Y-80197056D03*
X145202944Y-78500000D03*
D26*
X103375000Y-71525000D03*
X103375000Y-73250000D03*
D10*
X72600000Y-26600000D03*
M02*
